<?xml version="1.0" encoding="UTF-8" standalone="no"?>
<!DOCTYPE svg PUBLIC "-//W3C//DTD SVG 1.1//EN"
 "http://www.w3.org/Graphics/SVG/1.1/DTD/svg11.dtd">
<!-- Generated by graphviz version 3.0.0 (20220413.0106)
 -->
<!-- Title: abstract&#45;machine/am/include/am.h Pages: 1 -->
<svg width="1739pt" height="285pt"
 viewBox="0.00 0.00 1739.00 285.00" xmlns="http://www.w3.org/2000/svg" xmlns:xlink="http://www.w3.org/1999/xlink">
<g id="graph0" class="graph" transform="scale(1 1) rotate(0) translate(4 281)">
<title>abstract&#45;machine/am/include/am.h</title>
<!-- Node1 -->
<g id="node1" class="node">
<title>Node1</title>
<g id="a_node1"><a xlink:title=" ">
<polygon fill="#bfbfbf" stroke="black" points="453,-246.5 453,-276.5 561,-276.5 561,-246.5 453,-246.5"/>
<text text-anchor="start" x="461" y="-264.5" font-family="Helvetica,sans-Serif" font-size="10.00">abstract&#45;machine/am</text>
<text text-anchor="middle" x="507" y="-253.5" font-family="Helvetica,sans-Serif" font-size="10.00">/include/am.h</text>
</a>
</g>
</g>
<!-- Node2 -->
<g id="node2" class="node">
<title>Node2</title>
<g id="a_node2"><a xlink:href="x86-qemu_8h.html" target="_top" xlink:title=" ">
<polygon fill="none" stroke="black" points="1233.5,-179.5 1233.5,-209.5 1364.5,-209.5 1364.5,-179.5 1233.5,-179.5"/>
<text text-anchor="start" x="1241.5" y="-197.5" font-family="Helvetica,sans-Serif" font-size="10.00">abstract&#45;machine/am</text>
<text text-anchor="middle" x="1299" y="-186.5" font-family="Helvetica,sans-Serif" font-size="10.00">/src/x86/qemu/x86&#45;qemu.h</text>
</a>
</g>
</g>
<!-- Node1&#45;&gt;Node2 -->
<g id="edge1" class="edge">
<title>Node1&#45;&gt;Node2</title>
<path fill="none" stroke="midnightblue" d="M571.43,-255.21C719.75,-243.04 1084.05,-213.14 1233.45,-200.88"/>
<polygon fill="midnightblue" stroke="midnightblue" points="570.81,-251.75 561.13,-256.06 571.38,-258.73 570.81,-251.75"/>
</g>
<!-- Node8 -->
<g id="node8" class="node">
<title>Node8</title>
<g id="a_node8"><a xlink:href="klib_8h.html" target="_top" xlink:title=" ">
<polygon fill="none" stroke="black" points="384,-179.5 384,-209.5 494,-209.5 494,-179.5 384,-179.5"/>
<text text-anchor="start" x="392" y="-197.5" font-family="Helvetica,sans-Serif" font-size="10.00">abstract&#45;machine/klib</text>
<text text-anchor="middle" x="439" y="-186.5" font-family="Helvetica,sans-Serif" font-size="10.00">/include/klib.h</text>
</a>
</g>
</g>
<!-- Node1&#45;&gt;Node8 -->
<g id="edge7" class="edge">
<title>Node1&#45;&gt;Node8</title>
<path fill="none" stroke="midnightblue" d="M484.83,-239.31C474.63,-229.56 462.81,-218.26 453.73,-209.58"/>
<polygon fill="midnightblue" stroke="midnightblue" points="482.6,-242.02 492.25,-246.4 487.43,-236.96 482.6,-242.02"/>
</g>
<!-- Node9 -->
<g id="node9" class="node">
<title>Node9</title>
<g id="a_node9"><a xlink:href="cpp_8c.html" target="_top" xlink:title=" ">
<polygon fill="none" stroke="black" points="0,-112.5 0,-142.5 110,-142.5 110,-112.5 0,-112.5"/>
<text text-anchor="start" x="8" y="-130.5" font-family="Helvetica,sans-Serif" font-size="10.00">abstract&#45;machine/klib</text>
<text text-anchor="middle" x="55" y="-119.5" font-family="Helvetica,sans-Serif" font-size="10.00">/src/cpp.c</text>
</a>
</g>
</g>
<!-- Node1&#45;&gt;Node9 -->
<g id="edge27" class="edge">
<title>Node1&#45;&gt;Node9</title>
<path fill="none" stroke="midnightblue" d="M442.62,-249.42C394.8,-240.55 328.23,-226.82 271,-210 204.67,-190.51 129.65,-160.28 87.78,-142.63"/>
<polygon fill="midnightblue" stroke="midnightblue" points="442.06,-252.88 452.53,-251.24 443.32,-246 442.06,-252.88"/>
</g>
<!-- Node10 -->
<g id="node10" class="node">
<title>Node10</title>
<g id="a_node10"><a xlink:href="stdio_8c.html" target="_top" xlink:title=" ">
<polygon fill="none" stroke="black" points="128,-112.5 128,-142.5 238,-142.5 238,-112.5 128,-112.5"/>
<text text-anchor="start" x="136" y="-130.5" font-family="Helvetica,sans-Serif" font-size="10.00">abstract&#45;machine/klib</text>
<text text-anchor="middle" x="183" y="-119.5" font-family="Helvetica,sans-Serif" font-size="10.00">/src/stdio.c</text>
</a>
</g>
</g>
<!-- Node1&#45;&gt;Node10 -->
<g id="edge29" class="edge">
<title>Node1&#45;&gt;Node10</title>
<path fill="none" stroke="midnightblue" d="M442.81,-243.9C411.62,-235.1 373.87,-223.35 341,-210 291.81,-190.02 237.4,-160.1 206.98,-142.61"/>
<polygon fill="midnightblue" stroke="midnightblue" points="442.12,-247.34 452.69,-246.65 444,-240.6 442.12,-247.34"/>
</g>
<!-- Node11 -->
<g id="node11" class="node">
<title>Node11</title>
<g id="a_node11"><a xlink:href="stdlib_8c.html" target="_top" xlink:title=" ">
<polygon fill="none" stroke="black" points="256,-112.5 256,-142.5 366,-142.5 366,-112.5 256,-112.5"/>
<text text-anchor="start" x="264" y="-130.5" font-family="Helvetica,sans-Serif" font-size="10.00">abstract&#45;machine/klib</text>
<text text-anchor="middle" x="311" y="-119.5" font-family="Helvetica,sans-Serif" font-size="10.00">/src/stdlib.c</text>
</a>
</g>
</g>
<!-- Node1&#45;&gt;Node11 -->
<g id="edge30" class="edge">
<title>Node1&#45;&gt;Node11</title>
<path fill="none" stroke="midnightblue" d="M443.29,-243.87C420.38,-235.97 395.22,-224.91 375,-210 349.8,-191.43 329.29,-160.45 318.74,-142.51"/>
<polygon fill="midnightblue" stroke="midnightblue" points="442.36,-247.25 452.95,-247.07 444.56,-240.6 442.36,-247.25"/>
</g>
<!-- Node19 -->
<g id="node19" class="node">
<title>Node19</title>
<g id="a_node19"><a xlink:href="logger_8h.html" target="_top" xlink:title=" ">
<polygon fill="none" stroke="black" points="830,-179.5 830,-209.5 940,-209.5 940,-179.5 830,-179.5"/>
<text text-anchor="start" x="838" y="-197.5" font-family="Helvetica,sans-Serif" font-size="10.00">abstract&#45;machine/klib</text>
<text text-anchor="middle" x="885" y="-186.5" font-family="Helvetica,sans-Serif" font-size="10.00">/include/logger.h</text>
</a>
</g>
</g>
<!-- Node1&#45;&gt;Node19 -->
<g id="edge21" class="edge">
<title>Node1&#45;&gt;Node19</title>
<path fill="none" stroke="midnightblue" d="M571.1,-249.48C643.74,-236.99 760.94,-216.83 829.71,-205.01"/>
<polygon fill="midnightblue" stroke="midnightblue" points="570.42,-246.04 561.16,-251.19 571.61,-252.94 570.42,-246.04"/>
</g>
<!-- Node22 -->
<g id="node22" class="node">
<title>Node22</title>
<g id="a_node22"><a xlink:href="int64_8c.html" target="_top" xlink:title=" ">
<polygon fill="none" stroke="black" points="1383,-179.5 1383,-209.5 1493,-209.5 1493,-179.5 1383,-179.5"/>
<text text-anchor="start" x="1391" y="-197.5" font-family="Helvetica,sans-Serif" font-size="10.00">abstract&#45;machine/klib</text>
<text text-anchor="middle" x="1438" y="-186.5" font-family="Helvetica,sans-Serif" font-size="10.00">/src/int64.c</text>
</a>
</g>
</g>
<!-- Node1&#45;&gt;Node22 -->
<g id="edge28" class="edge">
<title>Node1&#45;&gt;Node22</title>
<path fill="none" stroke="midnightblue" d="M571.08,-260.36C715.25,-259.28 1075.86,-252.16 1374,-210 1376.93,-209.59 1379.93,-209.11 1382.95,-208.58"/>
<polygon fill="midnightblue" stroke="midnightblue" points="571.05,-256.86 561.08,-260.43 571.1,-263.86 571.05,-256.86"/>
</g>
<!-- Node23 -->
<g id="node23" class="node">
<title>Node23</title>
<g id="a_node23"><a xlink:href="kernel_8h.html" target="_top" xlink:title=" ">
<polygon fill="none" stroke="black" points="512,-185 512,-204 640,-204 640,-185 512,-185"/>
<text text-anchor="middle" x="576" y="-192" font-family="Helvetica,sans-Serif" font-size="10.00">kernel/framework/kernel.h</text>
</a>
</g>
</g>
<!-- Node1&#45;&gt;Node23 -->
<g id="edge31" class="edge">
<title>Node1&#45;&gt;Node23</title>
<path fill="none" stroke="midnightblue" d="M529.47,-239.34C542.14,-227.4 557.28,-213.14 566.77,-204.19"/>
<polygon fill="midnightblue" stroke="midnightblue" points="526.85,-236.99 521.97,-246.4 531.65,-242.09 526.85,-236.99"/>
</g>
<!-- Node3 -->
<g id="node3" class="node">
<title>Node3</title>
<g id="a_node3"><a xlink:href="cte_8c.html" target="_top" xlink:title=" ">
<polygon fill="none" stroke="black" points="1623,-112.5 1623,-142.5 1731,-142.5 1731,-112.5 1623,-112.5"/>
<text text-anchor="start" x="1631" y="-130.5" font-family="Helvetica,sans-Serif" font-size="10.00">abstract&#45;machine/am</text>
<text text-anchor="middle" x="1677" y="-119.5" font-family="Helvetica,sans-Serif" font-size="10.00">/src/x86/qemu/cte.c</text>
</a>
</g>
</g>
<!-- Node2&#45;&gt;Node3 -->
<g id="edge2" class="edge">
<title>Node2&#45;&gt;Node3</title>
<path fill="none" stroke="midnightblue" d="M1374.75,-178.92C1482,-160.88 1511.14,-162.52 1614,-143 1616.87,-142.46 1619.8,-141.87 1622.76,-141.26"/>
<polygon fill="midnightblue" stroke="midnightblue" points="1374.09,-175.48 1364.82,-180.61 1375.27,-182.39 1374.09,-175.48"/>
</g>
<!-- Node4 -->
<g id="node4" class="node">
<title>Node4</title>
<g id="a_node4"><a xlink:href="ioe_8c.html" target="_top" xlink:title=" ">
<polygon fill="none" stroke="black" points="1081,-112.5 1081,-142.5 1189,-142.5 1189,-112.5 1081,-112.5"/>
<text text-anchor="start" x="1089" y="-130.5" font-family="Helvetica,sans-Serif" font-size="10.00">abstract&#45;machine/am</text>
<text text-anchor="middle" x="1135" y="-119.5" font-family="Helvetica,sans-Serif" font-size="10.00">/src/x86/qemu/ioe.c</text>
</a>
</g>
</g>
<!-- Node2&#45;&gt;Node4 -->
<g id="edge3" class="edge">
<title>Node2&#45;&gt;Node4</title>
<path fill="none" stroke="midnightblue" d="M1254.04,-175.68C1227.74,-165.26 1195,-152.28 1170.52,-142.58"/>
<polygon fill="midnightblue" stroke="midnightblue" points="1252.83,-178.97 1263.41,-179.4 1255.41,-172.46 1252.83,-178.97"/>
</g>
<!-- Node5 -->
<g id="node5" class="node">
<title>Node5</title>
<g id="a_node5"><a xlink:href="mpe_8c.html" target="_top" xlink:title=" ">
<polygon fill="none" stroke="black" points="1245,-112.5 1245,-142.5 1353,-142.5 1353,-112.5 1245,-112.5"/>
<text text-anchor="start" x="1253" y="-130.5" font-family="Helvetica,sans-Serif" font-size="10.00">abstract&#45;machine/am</text>
<text text-anchor="middle" x="1299" y="-119.5" font-family="Helvetica,sans-Serif" font-size="10.00">/src/x86/qemu/mpe.c</text>
</a>
</g>
</g>
<!-- Node2&#45;&gt;Node5 -->
<g id="edge4" class="edge">
<title>Node2&#45;&gt;Node5</title>
<path fill="none" stroke="midnightblue" d="M1299,-169.11C1299,-160.15 1299,-150.32 1299,-142.58"/>
<polygon fill="midnightblue" stroke="midnightblue" points="1295.5,-169.4 1299,-179.4 1302.5,-169.4 1295.5,-169.4"/>
</g>
<!-- Node6 -->
<g id="node6" class="node">
<title>Node6</title>
<g id="a_node6"><a xlink:href="trm_8c.html" target="_top" xlink:title=" ">
<polygon fill="none" stroke="black" points="1371,-112.5 1371,-142.5 1479,-142.5 1479,-112.5 1371,-112.5"/>
<text text-anchor="start" x="1379" y="-130.5" font-family="Helvetica,sans-Serif" font-size="10.00">abstract&#45;machine/am</text>
<text text-anchor="middle" x="1425" y="-119.5" font-family="Helvetica,sans-Serif" font-size="10.00">/src/x86/qemu/trm.c</text>
</a>
</g>
</g>
<!-- Node2&#45;&gt;Node6 -->
<g id="edge5" class="edge">
<title>Node2&#45;&gt;Node6</title>
<path fill="none" stroke="midnightblue" d="M1335.42,-174.71C1355.29,-164.46 1379.48,-151.98 1397.71,-142.58"/>
<polygon fill="midnightblue" stroke="midnightblue" points="1333.62,-171.7 1326.34,-179.4 1336.83,-177.92 1333.62,-171.7"/>
</g>
<!-- Node7 -->
<g id="node7" class="node">
<title>Node7</title>
<g id="a_node7"><a xlink:href="vme_8c.html" target="_top" xlink:title=" ">
<polygon fill="none" stroke="black" points="1497,-112.5 1497,-142.5 1605,-142.5 1605,-112.5 1497,-112.5"/>
<text text-anchor="start" x="1505" y="-130.5" font-family="Helvetica,sans-Serif" font-size="10.00">abstract&#45;machine/am</text>
<text text-anchor="middle" x="1551" y="-119.5" font-family="Helvetica,sans-Serif" font-size="10.00">/src/x86/qemu/vme.c</text>
</a>
</g>
</g>
<!-- Node2&#45;&gt;Node7 -->
<g id="edge6" class="edge">
<title>Node2&#45;&gt;Node7</title>
<path fill="none" stroke="midnightblue" d="M1363.06,-176.98C1404.37,-166.32 1457.5,-152.62 1496.73,-142.5"/>
<polygon fill="midnightblue" stroke="midnightblue" points="1362.18,-173.59 1353.37,-179.48 1363.93,-180.37 1362.18,-173.59"/>
</g>
<!-- Node8&#45;&gt;Node4 -->
<g id="edge8" class="edge">
<title>Node8&#45;&gt;Node4</title>
<path fill="none" stroke="midnightblue" d="M504.23,-178.99C755.62,-143.84 824.56,-179.06 1072,-143 1074.89,-142.58 1077.84,-142.09 1080.81,-141.56"/>
<polygon fill="midnightblue" stroke="midnightblue" points="503.46,-175.57 494.05,-180.44 504.45,-182.5 503.46,-175.57"/>
</g>
<!-- Node8&#45;&gt;Node9 -->
<g id="edge9" class="edge">
<title>Node8&#45;&gt;Node9</title>
<path fill="none" stroke="midnightblue" d="M373.81,-184.5C308.99,-175.26 206.82,-159.86 119,-143 116.09,-142.44 113.11,-141.85 110.11,-141.23"/>
<polygon fill="midnightblue" stroke="midnightblue" points="373.49,-187.99 383.88,-185.93 374.47,-181.06 373.49,-187.99"/>
</g>
<!-- Node8&#45;&gt;Node10 -->
<g id="edge10" class="edge">
<title>Node8&#45;&gt;Node10</title>
<path fill="none" stroke="midnightblue" d="M373.92,-176.98C331.96,-166.32 277.98,-152.62 238.13,-142.5"/>
<polygon fill="midnightblue" stroke="midnightblue" points="373.21,-180.41 383.77,-179.48 374.94,-173.62 373.21,-180.41"/>
</g>
<!-- Node8&#45;&gt;Node11 -->
<g id="edge11" class="edge">
<title>Node8&#45;&gt;Node11</title>
<path fill="none" stroke="midnightblue" d="M402.28,-174.85C382.04,-164.58 357.33,-152.03 338.72,-142.58"/>
<polygon fill="midnightblue" stroke="midnightblue" points="400.72,-177.99 411.23,-179.4 403.89,-171.75 400.72,-177.99"/>
</g>
<!-- Node12 -->
<g id="node12" class="node">
<title>Node12</title>
<g id="a_node12"><a xlink:href="string_8c.html" target="_top" xlink:title=" ">
<polygon fill="none" stroke="black" points="384,-112.5 384,-142.5 494,-142.5 494,-112.5 384,-112.5"/>
<text text-anchor="start" x="392" y="-130.5" font-family="Helvetica,sans-Serif" font-size="10.00">abstract&#45;machine/klib</text>
<text text-anchor="middle" x="439" y="-119.5" font-family="Helvetica,sans-Serif" font-size="10.00">/src/string.c</text>
</a>
</g>
</g>
<!-- Node8&#45;&gt;Node12 -->
<g id="edge12" class="edge">
<title>Node8&#45;&gt;Node12</title>
<path fill="none" stroke="midnightblue" d="M439,-169.11C439,-160.15 439,-150.32 439,-142.58"/>
<polygon fill="midnightblue" stroke="midnightblue" points="435.5,-169.4 439,-179.4 442.5,-169.4 435.5,-169.4"/>
</g>
<!-- Node13 -->
<g id="node13" class="node">
<title>Node13</title>
<g id="a_node13"><a xlink:href="main_8c.html" target="_top" xlink:title=" ">
<polygon fill="none" stroke="black" points="512.5,-118 512.5,-137 635.5,-137 635.5,-118 512.5,-118"/>
<text text-anchor="middle" x="574" y="-125" font-family="Helvetica,sans-Serif" font-size="10.00">kernel/framework/main.c</text>
</a>
</g>
</g>
<!-- Node8&#45;&gt;Node13 -->
<g id="edge13" class="edge">
<title>Node8&#45;&gt;Node13</title>
<path fill="none" stroke="midnightblue" d="M477.49,-174.97C503.42,-162.48 536.41,-146.6 556.33,-137.01"/>
<polygon fill="midnightblue" stroke="midnightblue" points="475.78,-171.9 468.29,-179.4 478.82,-178.21 475.78,-171.9"/>
</g>
<!-- Node14 -->
<g id="node14" class="node">
<title>Node14</title>
<g id="a_node14"><a xlink:href="common_8h.html" target="_top" xlink:title=" ">
<polygon fill="none" stroke="black" points="653.5,-118 653.5,-137 778.5,-137 778.5,-118 653.5,-118"/>
<text text-anchor="middle" x="716" y="-125" font-family="Helvetica,sans-Serif" font-size="10.00">kernel/include/common.h</text>
</a>
</g>
</g>
<!-- Node8&#45;&gt;Node14 -->
<g id="edge14" class="edge">
<title>Node8&#45;&gt;Node14</title>
<path fill="none" stroke="midnightblue" d="M504.01,-178.24C558.74,-165.4 635.01,-147.5 679.58,-137.05"/>
<polygon fill="midnightblue" stroke="midnightblue" points="502.99,-174.89 494.06,-180.58 504.59,-181.7 502.99,-174.89"/>
</g>
<!-- Node15 -->
<g id="node15" class="node">
<title>Node15</title>
<g id="a_node15"><a xlink:href="buddy_8h.html" target="_top" xlink:title=" ">
<polygon fill="none" stroke="black" points="873.5,-56.5 873.5,-75.5 986.5,-75.5 986.5,-56.5 873.5,-56.5"/>
<text text-anchor="middle" x="930" y="-63.5" font-family="Helvetica,sans-Serif" font-size="10.00">kernel/include/buddy.h</text>
</a>
</g>
</g>
<!-- Node14&#45;&gt;Node15 -->
<g id="edge15" class="edge">
<title>Node14&#45;&gt;Node15</title>
<path fill="none" stroke="midnightblue" d="M756.46,-115.25C798.04,-103.69 861.84,-85.95 899.4,-75.51"/>
<polygon fill="midnightblue" stroke="midnightblue" points="755.36,-111.92 746.66,-117.98 757.23,-118.67 755.36,-111.92"/>
</g>
<!-- Node16 -->
<g id="node16" class="node">
<title>Node16</title>
<g id="a_node16"><a xlink:href="buddy_8c.html" target="_top" xlink:title="impl of buddy system">
<polygon fill="none" stroke="black" points="759.5,-0.5 759.5,-19.5 854.5,-19.5 854.5,-0.5 759.5,-0.5"/>
<text text-anchor="middle" x="807" y="-7.5" font-family="Helvetica,sans-Serif" font-size="10.00">kernel/src/buddy.c</text>
</a>
</g>
</g>
<!-- Node14&#45;&gt;Node16 -->
<g id="edge18" class="edge">
<title>Node14&#45;&gt;Node16</title>
<path fill="none" stroke="midnightblue" d="M701.45,-109.67C690.32,-94.65 678.64,-72.54 690,-56 705.59,-33.31 734.34,-22.05 759.44,-16.47"/>
<polygon fill="midnightblue" stroke="midnightblue" points="698.79,-111.96 707.76,-117.6 704.27,-107.6 698.79,-111.96"/>
</g>
<!-- Node17 -->
<g id="node17" class="node">
<title>Node17</title>
<g id="a_node17"><a xlink:href="pmm_8c.html" target="_top" xlink:title=" ">
<polygon fill="none" stroke="black" points="884,-0.5 884,-19.5 976,-19.5 976,-0.5 884,-0.5"/>
<text text-anchor="middle" x="930" y="-7.5" font-family="Helvetica,sans-Serif" font-size="10.00">kernel/src/pmm.c</text>
</a>
</g>
</g>
<!-- Node14&#45;&gt;Node17 -->
<g id="edge20" class="edge">
<title>Node14&#45;&gt;Node17</title>
<path fill="none" stroke="midnightblue" d="M741.08,-112.96C785.57,-88.95 877.09,-39.56 914.02,-19.62"/>
<polygon fill="midnightblue" stroke="midnightblue" points="739.22,-109.99 732.08,-117.82 742.55,-116.15 739.22,-109.99"/>
</g>
<!-- Node18 -->
<g id="node18" class="node">
<title>Node18</title>
<g id="a_node18"><a xlink:href="os_8c.html" target="_top" xlink:title=" ">
<polygon fill="none" stroke="black" points="699,-56.5 699,-75.5 779,-75.5 779,-56.5 699,-56.5"/>
<text text-anchor="middle" x="739" y="-63.5" font-family="Helvetica,sans-Serif" font-size="10.00">kernel/src/os.c</text>
</a>
</g>
</g>
<!-- Node14&#45;&gt;Node18 -->
<g id="edge19" class="edge">
<title>Node14&#45;&gt;Node18</title>
<path fill="none" stroke="midnightblue" d="M722.96,-108.5C727.19,-97.55 732.4,-84.07 735.71,-75.51"/>
<polygon fill="midnightblue" stroke="midnightblue" points="719.64,-107.39 719.3,-117.98 726.17,-109.91 719.64,-107.39"/>
</g>
<!-- Node15&#45;&gt;Node16 -->
<g id="edge16" class="edge">
<title>Node15&#45;&gt;Node16</title>
<path fill="none" stroke="midnightblue" d="M901.23,-52.37C878.19,-42.26 846.52,-28.35 826.4,-19.52"/>
<polygon fill="midnightblue" stroke="midnightblue" points="899.95,-55.63 910.51,-56.44 902.76,-49.22 899.95,-55.63"/>
</g>
<!-- Node15&#45;&gt;Node17 -->
<g id="edge17" class="edge">
<title>Node15&#45;&gt;Node17</title>
<path fill="none" stroke="midnightblue" d="M930,-45.8C930,-36.91 930,-26.78 930,-19.75"/>
<polygon fill="midnightblue" stroke="midnightblue" points="926.5,-46.08 930,-56.08 933.5,-46.08 926.5,-46.08"/>
</g>
<!-- Node19&#45;&gt;Node16 -->
<g id="edge25" class="edge">
<title>Node19&#45;&gt;Node16</title>
<path fill="none" stroke="midnightblue" d="M853.28,-173.31C842.97,-165.15 832.51,-154.84 826,-143 803.12,-101.41 804.7,-41.79 806.24,-19.68"/>
<polygon fill="midnightblue" stroke="midnightblue" points="851.33,-176.22 861.44,-179.38 855.51,-170.6 851.33,-176.22"/>
</g>
<!-- Node19&#45;&gt;Node17 -->
<g id="edge26" class="edge">
<title>Node19&#45;&gt;Node17</title>
<path fill="none" stroke="midnightblue" d="M950.2,-192.53C1032.42,-189.77 1166.82,-179.61 1198,-143 1264.33,-65.11 1069.34,-28.88 976.35,-16.36"/>
<polygon fill="midnightblue" stroke="midnightblue" points="950.09,-189.03 940.2,-192.84 950.3,-196.03 950.09,-189.03"/>
</g>
<!-- Node20 -->
<g id="node20" class="node">
<title>Node20</title>
<g id="a_node20"><a xlink:href="logger_8c.html" target="_top" xlink:title=" ">
<polygon fill="none" stroke="black" points="953,-112.5 953,-142.5 1063,-142.5 1063,-112.5 953,-112.5"/>
<text text-anchor="start" x="961" y="-130.5" font-family="Helvetica,sans-Serif" font-size="10.00">abstract&#45;machine/klib</text>
<text text-anchor="middle" x="1008" y="-119.5" font-family="Helvetica,sans-Serif" font-size="10.00">/src/logger.c</text>
</a>
</g>
</g>
<!-- Node19&#45;&gt;Node20 -->
<g id="edge22" class="edge">
<title>Node19&#45;&gt;Node20</title>
<path fill="none" stroke="midnightblue" d="M920.55,-174.71C939.95,-164.46 963.56,-151.98 981.36,-142.58"/>
<polygon fill="midnightblue" stroke="midnightblue" points="918.9,-171.63 911.69,-179.4 922.17,-177.82 918.9,-171.63"/>
</g>
<!-- Node21 -->
<g id="node21" class="node">
<title>Node21</title>
<g id="a_node21"><a xlink:href="list_8h.html" target="_top" xlink:title="double circular linked list impl without concurrency">
<polygon fill="none" stroke="black" points="835,-118 835,-137 935,-137 935,-118 835,-118"/>
<text text-anchor="middle" x="885" y="-125" font-family="Helvetica,sans-Serif" font-size="10.00">kernel/include/list.h</text>
</a>
</g>
</g>
<!-- Node19&#45;&gt;Node21 -->
<g id="edge23" class="edge">
<title>Node19&#45;&gt;Node21</title>
<path fill="none" stroke="midnightblue" d="M885,-169.25C885,-158.02 885,-145.38 885,-137.19"/>
<polygon fill="midnightblue" stroke="midnightblue" points="881.5,-169.4 885,-179.4 888.5,-169.4 881.5,-169.4"/>
</g>
<!-- Node21&#45;&gt;Node15 -->
<g id="edge24" class="edge">
<title>Node21&#45;&gt;Node15</title>
<path fill="none" stroke="midnightblue" d="M897.6,-109.84C906.05,-98.67 916.82,-84.43 923.56,-75.51"/>
<polygon fill="midnightblue" stroke="midnightblue" points="894.69,-107.89 891.45,-117.98 900.27,-112.11 894.69,-107.89"/>
</g>
<!-- Node23&#45;&gt;Node13 -->
<g id="edge32" class="edge">
<title>Node23&#45;&gt;Node13</title>
<path fill="none" stroke="midnightblue" d="M575.42,-174.54C575.04,-162.17 574.56,-146.62 574.27,-137.13"/>
<polygon fill="midnightblue" stroke="midnightblue" points="571.92,-174.85 575.73,-184.73 578.92,-174.63 571.92,-174.85"/>
</g>
<!-- Node23&#45;&gt;Node14 -->
<g id="edge33" class="edge">
<title>Node23&#45;&gt;Node14</title>
<path fill="none" stroke="midnightblue" d="M603.76,-180.61C631.49,-167.74 673.34,-148.31 697.33,-137.17"/>
<polygon fill="midnightblue" stroke="midnightblue" points="602.19,-177.48 594.59,-184.87 605.13,-183.83 602.19,-177.48"/>
</g>
</g>
</svg>
