<?xml version="1.0" encoding="UTF-8" standalone="no"?>
<!DOCTYPE svg PUBLIC "-//W3C//DTD SVG 1.1//EN"
 "http://www.w3.org/Graphics/SVG/1.1/DTD/svg11.dtd">
<!-- Generated by graphviz version 2.50.0 (20220203.2022)
 -->
<!-- Title: abstract&#45;machine/am/include/amdev.h Pages: 1 -->
<svg width="1801pt" height="307pt"
 viewBox="0.00 0.00 1801.00 307.00" xmlns="http://www.w3.org/2000/svg" xmlns:xlink="http://www.w3.org/1999/xlink">
<g id="graph0" class="graph" transform="scale(1 1) rotate(0) translate(4 303)">
<title>abstract&#45;machine/am/include/amdev.h</title>
<!-- Node1 -->
<g id="node1" class="node">
<title>Node1</title>
<g id="a_node1"><a xlink:title=" ">
<polygon fill="#bfbfbf" stroke="black" points="780,-268.5 780,-298.5 888,-298.5 888,-268.5 780,-268.5"/>
<text text-anchor="start" x="788" y="-286.5" font-family="Helvetica,sans-Serif" font-size="10.00">abstract&#45;machine/am</text>
<text text-anchor="middle" x="834" y="-275.5" font-family="Helvetica,sans-Serif" font-size="10.00">/include/amdev.h</text>
</a>
</g>
</g>
<!-- Node2 -->
<g id="node2" class="node">
<title>Node2</title>
<g id="a_node2"><a xlink:href="am_8h.html" target="_top" xlink:title=" ">
<polygon fill="none" stroke="black" points="780,-201.5 780,-231.5 888,-231.5 888,-201.5 780,-201.5"/>
<text text-anchor="start" x="788" y="-219.5" font-family="Helvetica,sans-Serif" font-size="10.00">abstract&#45;machine/am</text>
<text text-anchor="middle" x="834" y="-208.5" font-family="Helvetica,sans-Serif" font-size="10.00">/include/am.h</text>
</a>
</g>
</g>
<!-- Node1&#45;&gt;Node2 -->
<g id="edge1" class="edge">
<title>Node1&#45;&gt;Node2</title>
<path fill="none" stroke="midnightblue" d="M834,-258.11C834,-249.15 834,-239.32 834,-231.58"/>
<polygon fill="midnightblue" stroke="midnightblue" points="830.5,-258.4 834,-268.4 837.5,-258.4 830.5,-258.4"/>
</g>
<!-- Node3 -->
<g id="node3" class="node">
<title>Node3</title>
<g id="a_node3"><a xlink:href="native_2ioe_8c.html" target="_top" xlink:title=" ">
<polygon fill="none" stroke="black" points="2,-134.5 2,-164.5 110,-164.5 110,-134.5 2,-134.5"/>
<text text-anchor="start" x="10" y="-152.5" font-family="Helvetica,sans-Serif" font-size="10.00">abstract&#45;machine/am</text>
<text text-anchor="middle" x="56" y="-141.5" font-family="Helvetica,sans-Serif" font-size="10.00">/src/native/ioe.c</text>
</a>
</g>
</g>
<!-- Node2&#45;&gt;Node3 -->
<g id="edge2" class="edge">
<title>Node2&#45;&gt;Node3</title>
<path fill="none" stroke="midnightblue" d="M769.66,-214.31C643.95,-211.24 357.22,-200.61 119,-165 116.11,-164.57 113.16,-164.08 110.19,-163.54"/>
<polygon fill="midnightblue" stroke="midnightblue" points="769.79,-217.81 779.87,-214.55 769.96,-210.81 769.79,-217.81"/>
</g>
<!-- Node4 -->
<g id="node4" class="node">
<title>Node4</title>
<g id="a_node4"><a xlink:href="disk_8c.html" target="_top" xlink:title=" ">
<polygon fill="none" stroke="black" points="128,-134.5 128,-164.5 236,-164.5 236,-134.5 128,-134.5"/>
<text text-anchor="start" x="136" y="-152.5" font-family="Helvetica,sans-Serif" font-size="10.00">abstract&#45;machine/am</text>
<text text-anchor="middle" x="182" y="-141.5" font-family="Helvetica,sans-Serif" font-size="10.00">/src/native/ioe/disk.c</text>
</a>
</g>
</g>
<!-- Node2&#45;&gt;Node4 -->
<g id="edge3" class="edge">
<title>Node2&#45;&gt;Node4</title>
<path fill="none" stroke="midnightblue" d="M769.54,-212.94C660.82,-207.97 434.32,-194.75 245,-165 242.12,-164.55 239.17,-164.04 236.2,-163.48"/>
<polygon fill="midnightblue" stroke="midnightblue" points="769.54,-216.45 779.69,-213.4 769.86,-209.45 769.54,-216.45"/>
</g>
<!-- Node5 -->
<g id="node5" class="node">
<title>Node5</title>
<g id="a_node5"><a xlink:href="gpu_8c.html" target="_top" xlink:title=" ">
<polygon fill="none" stroke="black" points="254,-134.5 254,-164.5 362,-164.5 362,-134.5 254,-134.5"/>
<text text-anchor="start" x="262" y="-152.5" font-family="Helvetica,sans-Serif" font-size="10.00">abstract&#45;machine/am</text>
<text text-anchor="middle" x="308" y="-141.5" font-family="Helvetica,sans-Serif" font-size="10.00">/src/native/ioe/gpu.c</text>
</a>
</g>
</g>
<!-- Node2&#45;&gt;Node5 -->
<g id="edge4" class="edge">
<title>Node2&#45;&gt;Node5</title>
<path fill="none" stroke="midnightblue" d="M769.88,-210.9C680.21,-203.93 512.45,-188.91 371,-165 368.12,-164.51 365.18,-163.98 362.21,-163.4"/>
<polygon fill="midnightblue" stroke="midnightblue" points="769.66,-214.4 779.89,-211.67 770.19,-207.42 769.66,-214.4"/>
</g>
<!-- Node6 -->
<g id="node6" class="node">
<title>Node6</title>
<g id="a_node6"><a xlink:href="input_8c.html" target="_top" xlink:title=" ">
<polygon fill="none" stroke="black" points="380,-134.5 380,-164.5 490,-164.5 490,-134.5 380,-134.5"/>
<text text-anchor="start" x="388" y="-152.5" font-family="Helvetica,sans-Serif" font-size="10.00">abstract&#45;machine/am</text>
<text text-anchor="middle" x="435" y="-141.5" font-family="Helvetica,sans-Serif" font-size="10.00">/src/native/ioe/input.c</text>
</a>
</g>
</g>
<!-- Node2&#45;&gt;Node6 -->
<g id="edge5" class="edge">
<title>Node2&#45;&gt;Node6</title>
<path fill="none" stroke="midnightblue" d="M769.76,-207.24C702.15,-198.21 592.74,-182.66 499,-165 496.09,-164.45 493.11,-163.87 490.1,-163.25"/>
<polygon fill="midnightblue" stroke="midnightblue" points="769.46,-210.73 779.84,-208.58 770.38,-203.79 769.46,-210.73"/>
</g>
<!-- Node7 -->
<g id="node7" class="node">
<title>Node7</title>
<g id="a_node7"><a xlink:href="timer_8c.html" target="_top" xlink:title=" ">
<polygon fill="none" stroke="black" points="508,-134.5 508,-164.5 618,-164.5 618,-134.5 508,-134.5"/>
<text text-anchor="start" x="516" y="-152.5" font-family="Helvetica,sans-Serif" font-size="10.00">abstract&#45;machine/am</text>
<text text-anchor="middle" x="563" y="-141.5" font-family="Helvetica,sans-Serif" font-size="10.00">/src/native/ioe/timer.c</text>
</a>
</g>
</g>
<!-- Node2&#45;&gt;Node7 -->
<g id="edge6" class="edge">
<title>Node2&#45;&gt;Node7</title>
<path fill="none" stroke="midnightblue" d="M769.9,-200.13C723.7,-189.05 662,-174.24 618.02,-163.7"/>
<polygon fill="midnightblue" stroke="midnightblue" points="769.27,-203.57 779.81,-202.5 770.9,-196.77 769.27,-203.57"/>
</g>
<!-- Node8 -->
<g id="node8" class="node">
<title>Node8</title>
<g id="a_node8"><a xlink:href="platform_8h.html" target="_top" xlink:title=" ">
<polygon fill="none" stroke="black" points="630,-67.5 630,-97.5 738,-97.5 738,-67.5 630,-67.5"/>
<text text-anchor="start" x="638" y="-85.5" font-family="Helvetica,sans-Serif" font-size="10.00">abstract&#45;machine/am</text>
<text text-anchor="middle" x="684" y="-74.5" font-family="Helvetica,sans-Serif" font-size="10.00">/src/native/platform.h</text>
</a>
</g>
</g>
<!-- Node2&#45;&gt;Node8 -->
<g id="edge7" class="edge">
<title>Node2&#45;&gt;Node8</title>
<path fill="none" stroke="midnightblue" d="M821.7,-192.27C811.51,-174.65 795.69,-150.69 777,-134 759.87,-118.7 737.3,-106.3 718.68,-97.62"/>
<polygon fill="midnightblue" stroke="midnightblue" points="818.83,-194.31 826.77,-201.32 824.94,-190.89 818.83,-194.31"/>
</g>
<!-- Node13 -->
<g id="node13" class="node">
<title>Node13</title>
<g id="a_node13"><a xlink:href="native_2trm_8c.html" target="_top" xlink:title=" ">
<polygon fill="none" stroke="black" points="1235,-134.5 1235,-164.5 1343,-164.5 1343,-134.5 1235,-134.5"/>
<text text-anchor="start" x="1243" y="-152.5" font-family="Helvetica,sans-Serif" font-size="10.00">abstract&#45;machine/am</text>
<text text-anchor="middle" x="1289" y="-141.5" font-family="Helvetica,sans-Serif" font-size="10.00">/src/native/trm.c</text>
</a>
</g>
</g>
<!-- Node2&#45;&gt;Node13 -->
<g id="edge12" class="edge">
<title>Node2&#45;&gt;Node13</title>
<path fill="none" stroke="midnightblue" d="M898.29,-209.17C976.19,-201.06 1111.26,-185.54 1226,-165 1228.87,-164.49 1231.81,-163.93 1234.77,-163.34"/>
<polygon fill="midnightblue" stroke="midnightblue" points="897.74,-205.71 888.15,-210.22 898.46,-212.68 897.74,-205.71"/>
</g>
<!-- Node14 -->
<g id="node14" class="node">
<title>Node14</title>
<g id="a_node14"><a xlink:href="src_2x86_2qemu_2x86-qemu_8h.html" target="_top" xlink:title=" ">
<polygon fill="none" stroke="black" points="636.5,-134.5 636.5,-164.5 767.5,-164.5 767.5,-134.5 636.5,-134.5"/>
<text text-anchor="start" x="644.5" y="-152.5" font-family="Helvetica,sans-Serif" font-size="10.00">abstract&#45;machine/am</text>
<text text-anchor="middle" x="702" y="-141.5" font-family="Helvetica,sans-Serif" font-size="10.00">/src/x86/qemu/x86&#45;qemu.h</text>
</a>
</g>
</g>
<!-- Node2&#45;&gt;Node14 -->
<g id="edge13" class="edge">
<title>Node2&#45;&gt;Node14</title>
<path fill="none" stroke="midnightblue" d="M796.13,-196.85C775.26,-186.58 749.77,-174.03 730.59,-164.58"/>
<polygon fill="midnightblue" stroke="midnightblue" points="794.84,-200.12 805.36,-201.4 797.93,-193.84 794.84,-200.12"/>
</g>
<!-- Node20 -->
<g id="node20" class="node">
<title>Node20</title>
<g id="a_node20"><a xlink:href="klib_8h.html" target="_top" xlink:title=" ">
<polygon fill="none" stroke="black" points="885,-134.5 885,-164.5 995,-164.5 995,-134.5 885,-134.5"/>
<text text-anchor="start" x="893" y="-152.5" font-family="Helvetica,sans-Serif" font-size="10.00">abstract&#45;machine/klib</text>
<text text-anchor="middle" x="940" y="-141.5" font-family="Helvetica,sans-Serif" font-size="10.00">/include/klib.h</text>
</a>
</g>
</g>
<!-- Node2&#45;&gt;Node20 -->
<g id="edge19" class="edge">
<title>Node2&#45;&gt;Node20</title>
<path fill="none" stroke="midnightblue" d="M865.78,-196.02C882.27,-185.9 902.05,-173.77 917.04,-164.58"/>
<polygon fill="midnightblue" stroke="midnightblue" points="863.7,-193.18 857,-201.4 867.35,-199.15 863.7,-193.18"/>
</g>
<!-- Node22 -->
<g id="node22" class="node">
<title>Node22</title>
<g id="a_node22"><a xlink:href="cpp_8c.html" target="_top" xlink:title=" ">
<polygon fill="none" stroke="black" points="756,-67.5 756,-97.5 866,-97.5 866,-67.5 756,-67.5"/>
<text text-anchor="start" x="764" y="-85.5" font-family="Helvetica,sans-Serif" font-size="10.00">abstract&#45;machine/klib</text>
<text text-anchor="middle" x="811" y="-74.5" font-family="Helvetica,sans-Serif" font-size="10.00">/src/cpp.c</text>
</a>
</g>
</g>
<!-- Node2&#45;&gt;Node22 -->
<g id="edge33" class="edge">
<title>Node2&#45;&gt;Node22</title>
<path fill="none" stroke="midnightblue" d="M829.8,-191.39C825.01,-163.9 817.34,-119.89 813.44,-97.52"/>
<polygon fill="midnightblue" stroke="midnightblue" points="826.37,-192.12 831.54,-201.37 833.27,-190.92 826.37,-192.12"/>
</g>
<!-- Node23 -->
<g id="node23" class="node">
<title>Node23</title>
<g id="a_node23"><a xlink:href="stdio_8c.html" target="_top" xlink:title=" ">
<polygon fill="none" stroke="black" points="1142,-67.5 1142,-97.5 1252,-97.5 1252,-67.5 1142,-67.5"/>
<text text-anchor="start" x="1150" y="-85.5" font-family="Helvetica,sans-Serif" font-size="10.00">abstract&#45;machine/klib</text>
<text text-anchor="middle" x="1197" y="-74.5" font-family="Helvetica,sans-Serif" font-size="10.00">/src/stdio.c</text>
</a>
</g>
</g>
<!-- Node2&#45;&gt;Node23 -->
<g id="edge35" class="edge">
<title>Node2&#45;&gt;Node23</title>
<path fill="none" stroke="midnightblue" d="M898.08,-201.88C930.77,-193.61 970.57,-181.43 1004,-165 1025.15,-154.61 1026.05,-144.77 1047,-134 1077.31,-118.43 1113.45,-106.09 1142.66,-97.51"/>
<polygon fill="midnightblue" stroke="midnightblue" points="897.05,-198.53 888.18,-204.33 898.73,-205.33 897.05,-198.53"/>
</g>
<!-- Node24 -->
<g id="node24" class="node">
<title>Node24</title>
<g id="a_node24"><a xlink:href="stdlib_8c.html" target="_top" xlink:title=" ">
<polygon fill="none" stroke="black" points="1270,-67.5 1270,-97.5 1380,-97.5 1380,-67.5 1270,-67.5"/>
<text text-anchor="start" x="1278" y="-85.5" font-family="Helvetica,sans-Serif" font-size="10.00">abstract&#45;machine/klib</text>
<text text-anchor="middle" x="1325" y="-74.5" font-family="Helvetica,sans-Serif" font-size="10.00">/src/stdlib.c</text>
</a>
</g>
</g>
<!-- Node2&#45;&gt;Node24 -->
<g id="edge36" class="edge">
<title>Node2&#45;&gt;Node24</title>
<path fill="none" stroke="midnightblue" d="M898.27,-206.56C939.86,-199.13 994.36,-186.26 1039,-165 1059.63,-155.18 1059.16,-143.35 1080,-134 1154.83,-100.42 1180.77,-115.06 1261,-98 1263.9,-97.38 1266.87,-96.74 1269.86,-96.09"/>
<polygon fill="midnightblue" stroke="midnightblue" points="897.52,-203.14 888.26,-208.29 898.71,-210.03 897.52,-203.14"/>
</g>
<!-- Node30 -->
<g id="node30" class="node">
<title>Node30</title>
<g id="a_node30"><a xlink:href="logger_8h.html" target="_top" xlink:title=" ">
<polygon fill="none" stroke="black" points="1361,-134.5 1361,-164.5 1471,-164.5 1471,-134.5 1361,-134.5"/>
<text text-anchor="start" x="1369" y="-152.5" font-family="Helvetica,sans-Serif" font-size="10.00">abstract&#45;machine/klib</text>
<text text-anchor="middle" x="1416" y="-141.5" font-family="Helvetica,sans-Serif" font-size="10.00">/include/logger.h</text>
</a>
</g>
</g>
<!-- Node2&#45;&gt;Node30 -->
<g id="edge31" class="edge">
<title>Node2&#45;&gt;Node30</title>
<path fill="none" stroke="midnightblue" d="M898.43,-211.83C996.72,-205.64 1189.82,-191.17 1352,-165 1354.92,-164.53 1357.91,-164 1360.93,-163.44"/>
<polygon fill="midnightblue" stroke="midnightblue" points="898.12,-208.34 888.35,-212.46 898.55,-215.33 898.12,-208.34"/>
</g>
<!-- Node32 -->
<g id="node32" class="node">
<title>Node32</title>
<g id="a_node32"><a xlink:href="int64_8c.html" target="_top" xlink:title=" ">
<polygon fill="none" stroke="black" points="1489,-134.5 1489,-164.5 1599,-164.5 1599,-134.5 1489,-134.5"/>
<text text-anchor="start" x="1497" y="-152.5" font-family="Helvetica,sans-Serif" font-size="10.00">abstract&#45;machine/klib</text>
<text text-anchor="middle" x="1544" y="-141.5" font-family="Helvetica,sans-Serif" font-size="10.00">/src/int64.c</text>
</a>
</g>
</g>
<!-- Node2&#45;&gt;Node32 -->
<g id="edge34" class="edge">
<title>Node2&#45;&gt;Node32</title>
<path fill="none" stroke="midnightblue" d="M898.51,-213.55C1015.15,-209.33 1268.66,-197.03 1480,-165 1482.93,-164.56 1485.92,-164.05 1488.94,-163.51"/>
<polygon fill="midnightblue" stroke="midnightblue" points="898.19,-210.06 888.32,-213.91 898.44,-217.05 898.19,-210.06"/>
</g>
<!-- Node33 -->
<g id="node33" class="node">
<title>Node33</title>
<g id="a_node33"><a xlink:href="kernel_8h.html" target="_top" xlink:title=" ">
<polygon fill="none" stroke="black" points="1089,-140 1089,-159 1217,-159 1217,-140 1089,-140"/>
<text text-anchor="middle" x="1153" y="-147" font-family="Helvetica,sans-Serif" font-size="10.00">kernel/framework/kernel.h</text>
</a>
</g>
</g>
<!-- Node2&#45;&gt;Node33 -->
<g id="edge37" class="edge">
<title>Node2&#45;&gt;Node33</title>
<path fill="none" stroke="midnightblue" d="M898,-202.46C961.34,-189.55 1056.49,-170.17 1110.87,-159.08"/>
<polygon fill="midnightblue" stroke="midnightblue" points="897.21,-199.05 888.11,-204.47 898.61,-205.91 897.21,-199.05"/>
</g>
<!-- Node9 -->
<g id="node9" class="node">
<title>Node9</title>
<g id="a_node9"><a xlink:href="native_2cte_8c.html" target="_top" xlink:title=" ">
<polygon fill="none" stroke="black" points="693,-0.5 693,-30.5 801,-30.5 801,-0.5 693,-0.5"/>
<text text-anchor="start" x="701" y="-18.5" font-family="Helvetica,sans-Serif" font-size="10.00">abstract&#45;machine/am</text>
<text text-anchor="middle" x="747" y="-7.5" font-family="Helvetica,sans-Serif" font-size="10.00">/src/native/cte.c</text>
</a>
</g>
</g>
<!-- Node8&#45;&gt;Node9 -->
<g id="edge8" class="edge">
<title>Node8&#45;&gt;Node9</title>
<path fill="none" stroke="midnightblue" d="M704.81,-60.02C714.2,-50.34 725.02,-39.17 733.36,-30.58"/>
<polygon fill="midnightblue" stroke="midnightblue" points="702.12,-57.78 697.67,-67.4 707.14,-62.65 702.12,-57.78"/>
</g>
<!-- Node10 -->
<g id="node10" class="node">
<title>Node10</title>
<g id="a_node10"><a xlink:href="native_2mpe_8c.html" target="_top" xlink:title=" ">
<polygon fill="none" stroke="black" points="819,-0.5 819,-30.5 927,-30.5 927,-0.5 819,-0.5"/>
<text text-anchor="start" x="827" y="-18.5" font-family="Helvetica,sans-Serif" font-size="10.00">abstract&#45;machine/am</text>
<text text-anchor="middle" x="873" y="-7.5" font-family="Helvetica,sans-Serif" font-size="10.00">/src/native/mpe.c</text>
</a>
</g>
</g>
<!-- Node8&#45;&gt;Node10 -->
<g id="edge9" class="edge">
<title>Node8&#45;&gt;Node10</title>
<path fill="none" stroke="midnightblue" d="M734.62,-64.09C765.13,-53.6 803.48,-40.41 832.07,-30.58"/>
<polygon fill="midnightblue" stroke="midnightblue" points="733.33,-60.83 725.01,-67.4 735.6,-67.45 733.33,-60.83"/>
</g>
<!-- Node11 -->
<g id="node11" class="node">
<title>Node11</title>
<g id="a_node11"><a xlink:href="platform_8c.html" target="_top" xlink:title=" ">
<polygon fill="none" stroke="black" points="441,-0.5 441,-30.5 549,-30.5 549,-0.5 441,-0.5"/>
<text text-anchor="start" x="449" y="-18.5" font-family="Helvetica,sans-Serif" font-size="10.00">abstract&#45;machine/am</text>
<text text-anchor="middle" x="495" y="-7.5" font-family="Helvetica,sans-Serif" font-size="10.00">/src/native/platform.c</text>
</a>
</g>
</g>
<!-- Node8&#45;&gt;Node11 -->
<g id="edge10" class="edge">
<title>Node8&#45;&gt;Node11</title>
<path fill="none" stroke="midnightblue" d="M633.38,-64.09C602.87,-53.6 564.52,-40.41 535.93,-30.58"/>
<polygon fill="midnightblue" stroke="midnightblue" points="632.4,-67.45 642.99,-67.4 634.67,-60.83 632.4,-67.45"/>
</g>
<!-- Node12 -->
<g id="node12" class="node">
<title>Node12</title>
<g id="a_node12"><a xlink:href="native_2vme_8c.html" target="_top" xlink:title=" ">
<polygon fill="none" stroke="black" points="567,-0.5 567,-30.5 675,-30.5 675,-0.5 567,-0.5"/>
<text text-anchor="start" x="575" y="-18.5" font-family="Helvetica,sans-Serif" font-size="10.00">abstract&#45;machine/am</text>
<text text-anchor="middle" x="621" y="-7.5" font-family="Helvetica,sans-Serif" font-size="10.00">/src/native/vme.c</text>
</a>
</g>
</g>
<!-- Node8&#45;&gt;Node12 -->
<g id="edge11" class="edge">
<title>Node8&#45;&gt;Node12</title>
<path fill="none" stroke="midnightblue" d="M663.19,-60.02C653.8,-50.34 642.98,-39.17 634.64,-30.58"/>
<polygon fill="midnightblue" stroke="midnightblue" points="660.86,-62.65 670.33,-67.4 665.88,-57.78 660.86,-62.65"/>
</g>
<!-- Node15 -->
<g id="node15" class="node">
<title>Node15</title>
<g id="a_node15"><a xlink:href="x86_2qemu_2cte_8c.html" target="_top" xlink:title=" ">
<polygon fill="none" stroke="black" points="378,-67.5 378,-97.5 486,-97.5 486,-67.5 378,-67.5"/>
<text text-anchor="start" x="386" y="-85.5" font-family="Helvetica,sans-Serif" font-size="10.00">abstract&#45;machine/am</text>
<text text-anchor="middle" x="432" y="-74.5" font-family="Helvetica,sans-Serif" font-size="10.00">/src/x86/qemu/cte.c</text>
</a>
</g>
</g>
<!-- Node14&#45;&gt;Node15 -->
<g id="edge14" class="edge">
<title>Node14&#45;&gt;Node15</title>
<path fill="none" stroke="midnightblue" d="M633.9,-132.11C588.1,-121.08 528.55,-106.74 486.02,-96.5"/>
<polygon fill="midnightblue" stroke="midnightblue" points="633.2,-135.54 643.75,-134.48 634.84,-128.73 633.2,-135.54"/>
</g>
<!-- Node16 -->
<g id="node16" class="node">
<title>Node16</title>
<g id="a_node16"><a xlink:href="x86_2qemu_2ioe_8c.html" target="_top" xlink:title=" ">
<polygon fill="none" stroke="black" points="504,-67.5 504,-97.5 612,-97.5 612,-67.5 504,-67.5"/>
<text text-anchor="start" x="512" y="-85.5" font-family="Helvetica,sans-Serif" font-size="10.00">abstract&#45;machine/am</text>
<text text-anchor="middle" x="558" y="-74.5" font-family="Helvetica,sans-Serif" font-size="10.00">/src/x86/qemu/ioe.c</text>
</a>
</g>
</g>
<!-- Node14&#45;&gt;Node16 -->
<g id="edge15" class="edge">
<title>Node14&#45;&gt;Node16</title>
<path fill="none" stroke="midnightblue" d="M661.61,-130.27C638.68,-119.92 610.4,-107.15 589.18,-97.58"/>
<polygon fill="midnightblue" stroke="midnightblue" points="660.2,-133.47 670.75,-134.4 663.08,-127.09 660.2,-133.47"/>
</g>
<!-- Node17 -->
<g id="node17" class="node">
<title>Node17</title>
<g id="a_node17"><a xlink:href="x86_2qemu_2mpe_8c.html" target="_top" xlink:title=" ">
<polygon fill="none" stroke="black" points="0,-67.5 0,-97.5 108,-97.5 108,-67.5 0,-67.5"/>
<text text-anchor="start" x="8" y="-85.5" font-family="Helvetica,sans-Serif" font-size="10.00">abstract&#45;machine/am</text>
<text text-anchor="middle" x="54" y="-74.5" font-family="Helvetica,sans-Serif" font-size="10.00">/src/x86/qemu/mpe.c</text>
</a>
</g>
</g>
<!-- Node14&#45;&gt;Node17 -->
<g id="edge16" class="edge">
<title>Node14&#45;&gt;Node17</title>
<path fill="none" stroke="midnightblue" d="M626.03,-134C399.92,-105.16 338.44,-131.09 117,-98 114.11,-97.57 111.16,-97.08 108.19,-96.54"/>
<polygon fill="midnightblue" stroke="midnightblue" points="625.86,-137.5 636.22,-135.32 626.76,-130.56 625.86,-137.5"/>
</g>
<!-- Node18 -->
<g id="node18" class="node">
<title>Node18</title>
<g id="a_node18"><a xlink:href="x86_2qemu_2trm_8c.html" target="_top" xlink:title=" ">
<polygon fill="none" stroke="black" points="126,-67.5 126,-97.5 234,-97.5 234,-67.5 126,-67.5"/>
<text text-anchor="start" x="134" y="-85.5" font-family="Helvetica,sans-Serif" font-size="10.00">abstract&#45;machine/am</text>
<text text-anchor="middle" x="180" y="-74.5" font-family="Helvetica,sans-Serif" font-size="10.00">/src/x86/qemu/trm.c</text>
</a>
</g>
</g>
<!-- Node14&#45;&gt;Node18 -->
<g id="edge17" class="edge">
<title>Node14&#45;&gt;Node18</title>
<path fill="none" stroke="midnightblue" d="M626.13,-133.98C455.55,-110.28 409.01,-124.76 243,-98 240.12,-97.54 237.17,-97.02 234.21,-96.46"/>
<polygon fill="midnightblue" stroke="midnightblue" points="625.82,-137.47 636.21,-135.4 626.8,-130.54 625.82,-137.47"/>
</g>
<!-- Node19 -->
<g id="node19" class="node">
<title>Node19</title>
<g id="a_node19"><a xlink:href="x86_2qemu_2vme_8c.html" target="_top" xlink:title=" ">
<polygon fill="none" stroke="black" points="252,-67.5 252,-97.5 360,-97.5 360,-67.5 252,-67.5"/>
<text text-anchor="start" x="260" y="-85.5" font-family="Helvetica,sans-Serif" font-size="10.00">abstract&#45;machine/am</text>
<text text-anchor="middle" x="306" y="-74.5" font-family="Helvetica,sans-Serif" font-size="10.00">/src/x86/qemu/vme.c</text>
</a>
</g>
</g>
<!-- Node14&#45;&gt;Node19 -->
<g id="edge18" class="edge">
<title>Node14&#45;&gt;Node19</title>
<path fill="none" stroke="midnightblue" d="M626.27,-133.94C511.09,-115.21 479.74,-118.43 369,-98 366.13,-97.47 363.19,-96.9 360.23,-96.3"/>
<polygon fill="midnightblue" stroke="midnightblue" points="625.75,-137.4 636.19,-135.57 626.89,-130.5 625.75,-137.4"/>
</g>
<!-- Node20&#45;&gt;Node8 -->
<g id="edge21" class="edge">
<title>Node20&#45;&gt;Node8</title>
<path fill="none" stroke="midnightblue" d="M874.85,-131.96C832.59,-121.23 778.16,-107.41 738.25,-97.28"/>
<polygon fill="midnightblue" stroke="midnightblue" points="874.21,-135.41 884.77,-134.48 875.94,-128.62 874.21,-135.41"/>
</g>
<!-- Node20&#45;&gt;Node16 -->
<g id="edge22" class="edge">
<title>Node20&#45;&gt;Node16</title>
<path fill="none" stroke="midnightblue" d="M874.71,-139.51C810.07,-130.3 708.39,-114.95 621,-98 618.14,-97.44 615.2,-96.85 612.25,-96.24"/>
<polygon fill="midnightblue" stroke="midnightblue" points="874.37,-143 884.76,-140.94 875.35,-136.07 874.37,-143"/>
</g>
<!-- Node21 -->
<g id="node21" class="node">
<title>Node21</title>
<g id="a_node21"><a xlink:href="audio_8c.html" target="_top" xlink:title=" ">
<polygon fill="none" stroke="black" points="884,-67.5 884,-97.5 996,-97.5 996,-67.5 884,-67.5"/>
<text text-anchor="start" x="892" y="-85.5" font-family="Helvetica,sans-Serif" font-size="10.00">abstract&#45;machine/am</text>
<text text-anchor="middle" x="940" y="-74.5" font-family="Helvetica,sans-Serif" font-size="10.00">/src/native/ioe/audio.c</text>
</a>
</g>
</g>
<!-- Node20&#45;&gt;Node21 -->
<g id="edge20" class="edge">
<title>Node20&#45;&gt;Node21</title>
<path fill="none" stroke="midnightblue" d="M940,-124.11C940,-115.15 940,-105.32 940,-97.58"/>
<polygon fill="midnightblue" stroke="midnightblue" points="936.5,-124.4 940,-134.4 943.5,-124.4 936.5,-124.4"/>
</g>
<!-- Node20&#45;&gt;Node22 -->
<g id="edge23" class="edge">
<title>Node20&#45;&gt;Node22</title>
<path fill="none" stroke="midnightblue" d="M902.99,-129.85C882.6,-119.58 857.69,-107.03 838.94,-97.58"/>
<polygon fill="midnightblue" stroke="midnightblue" points="901.5,-133.02 912.01,-134.4 904.65,-126.77 901.5,-133.02"/>
</g>
<!-- Node20&#45;&gt;Node23 -->
<g id="edge24" class="edge">
<title>Node20&#45;&gt;Node23</title>
<path fill="none" stroke="midnightblue" d="M1005.05,-132.05C1047.33,-121.35 1101.84,-107.57 1141.96,-97.42"/>
<polygon fill="midnightblue" stroke="midnightblue" points="1003.97,-128.71 995.13,-134.56 1005.69,-135.5 1003.97,-128.71"/>
</g>
<!-- Node20&#45;&gt;Node24 -->
<g id="edge25" class="edge">
<title>Node20&#45;&gt;Node24</title>
<path fill="none" stroke="midnightblue" d="M1005.11,-139.56C1070.11,-130.32 1172.78,-114.91 1261,-98 1263.91,-97.44 1266.89,-96.85 1269.89,-96.23"/>
<polygon fill="midnightblue" stroke="midnightblue" points="1004.42,-136.12 995,-140.99 1005.4,-143.05 1004.42,-136.12"/>
</g>
<!-- Node25 -->
<g id="node25" class="node">
<title>Node25</title>
<g id="a_node25"><a xlink:href="string_8c.html" target="_top" xlink:title=" ">
<polygon fill="none" stroke="black" points="1014,-67.5 1014,-97.5 1124,-97.5 1124,-67.5 1014,-67.5"/>
<text text-anchor="start" x="1022" y="-85.5" font-family="Helvetica,sans-Serif" font-size="10.00">abstract&#45;machine/klib</text>
<text text-anchor="middle" x="1069" y="-74.5" font-family="Helvetica,sans-Serif" font-size="10.00">/src/string.c</text>
</a>
</g>
</g>
<!-- Node20&#45;&gt;Node25 -->
<g id="edge26" class="edge">
<title>Node20&#45;&gt;Node25</title>
<path fill="none" stroke="midnightblue" d="M977.01,-129.85C997.4,-119.58 1022.31,-107.03 1041.06,-97.58"/>
<polygon fill="midnightblue" stroke="midnightblue" points="975.35,-126.77 967.99,-134.4 978.5,-133.02 975.35,-126.77"/>
</g>
<!-- Node26 -->
<g id="node26" class="node">
<title>Node26</title>
<g id="a_node26"><a xlink:href="kernel_2framework_2main_8c.html" target="_top" xlink:title=" ">
<polygon fill="none" stroke="black" points="1398.5,-73 1398.5,-92 1521.5,-92 1521.5,-73 1398.5,-73"/>
<text text-anchor="middle" x="1460" y="-80" font-family="Helvetica,sans-Serif" font-size="10.00">kernel/framework/main.c</text>
</a>
</g>
</g>
<!-- Node20&#45;&gt;Node26 -->
<g id="edge27" class="edge">
<title>Node20&#45;&gt;Node26</title>
<path fill="none" stroke="midnightblue" d="M1005.45,-141.47C1120.9,-129.01 1352.05,-103.84 1389,-98 1399.56,-96.33 1410.94,-94.17 1421.42,-92.03"/>
<polygon fill="midnightblue" stroke="midnightblue" points="1004.89,-138.01 995.32,-142.56 1005.64,-144.97 1004.89,-138.01"/>
</g>
<!-- Node27 -->
<g id="node27" class="node">
<title>Node27</title>
<g id="a_node27"><a xlink:href="common_8h.html" target="_top" xlink:title=" ">
<polygon fill="none" stroke="black" points="1539.5,-73 1539.5,-92 1664.5,-92 1664.5,-73 1539.5,-73"/>
<text text-anchor="middle" x="1602" y="-80" font-family="Helvetica,sans-Serif" font-size="10.00">kernel/include/common.h</text>
</a>
</g>
</g>
<!-- Node20&#45;&gt;Node27 -->
<g id="edge28" class="edge">
<title>Node20&#45;&gt;Node27</title>
<path fill="none" stroke="midnightblue" d="M1005.37,-141.41C1028.89,-138.94 1055.62,-136.23 1080,-134 1280.24,-115.64 1331.9,-126.17 1531,-98 1541.96,-96.45 1553.78,-94.25 1564.56,-92.03"/>
<polygon fill="midnightblue" stroke="midnightblue" points="1004.74,-137.95 995.16,-142.48 1005.47,-144.92 1004.74,-137.95"/>
</g>
<!-- Node28 -->
<g id="node28" class="node">
<title>Node28</title>
<g id="a_node28"><a xlink:href="os_8c.html" target="_top" xlink:title=" ">
<polygon fill="none" stroke="black" points="1510,-6 1510,-25 1590,-25 1590,-6 1510,-6"/>
<text text-anchor="middle" x="1550" y="-13" font-family="Helvetica,sans-Serif" font-size="10.00">kernel/src/os.c</text>
</a>
</g>
</g>
<!-- Node27&#45;&gt;Node28 -->
<g id="edge29" class="edge">
<title>Node27&#45;&gt;Node28</title>
<path fill="none" stroke="midnightblue" d="M1588.62,-64.77C1578.48,-52.1 1564.96,-35.2 1556.9,-25.13"/>
<polygon fill="midnightblue" stroke="midnightblue" points="1586.01,-67.11 1594.99,-72.73 1591.47,-62.74 1586.01,-67.11"/>
</g>
<!-- Node29 -->
<g id="node29" class="node">
<title>Node29</title>
<g id="a_node29"><a xlink:href="pmm_8c.html" target="_top" xlink:title=" ">
<polygon fill="none" stroke="black" points="1608,-6 1608,-25 1700,-25 1700,-6 1608,-6"/>
<text text-anchor="middle" x="1654" y="-13" font-family="Helvetica,sans-Serif" font-size="10.00">kernel/src/pmm.c</text>
</a>
</g>
</g>
<!-- Node27&#45;&gt;Node29 -->
<g id="edge30" class="edge">
<title>Node27&#45;&gt;Node29</title>
<path fill="none" stroke="midnightblue" d="M1615.38,-64.77C1625.52,-52.1 1639.04,-35.2 1647.1,-25.13"/>
<polygon fill="midnightblue" stroke="midnightblue" points="1612.53,-62.74 1609.01,-72.73 1617.99,-67.11 1612.53,-62.74"/>
</g>
<!-- Node31 -->
<g id="node31" class="node">
<title>Node31</title>
<g id="a_node31"><a xlink:href="logger_8c.html" target="_top" xlink:title=" ">
<polygon fill="none" stroke="black" points="1683,-67.5 1683,-97.5 1793,-97.5 1793,-67.5 1683,-67.5"/>
<text text-anchor="start" x="1691" y="-85.5" font-family="Helvetica,sans-Serif" font-size="10.00">abstract&#45;machine/klib</text>
<text text-anchor="middle" x="1738" y="-74.5" font-family="Helvetica,sans-Serif" font-size="10.00">/src/logger.c</text>
</a>
</g>
</g>
<!-- Node30&#45;&gt;Node31 -->
<g id="edge32" class="edge">
<title>Node30&#45;&gt;Node31</title>
<path fill="none" stroke="midnightblue" d="M1481.12,-133.82C1567.58,-116.24 1591.21,-115.05 1674,-98 1676.9,-97.4 1679.87,-96.78 1682.87,-96.13"/>
<polygon fill="midnightblue" stroke="midnightblue" points="1480.22,-130.43 1471.13,-135.87 1481.63,-137.29 1480.22,-130.43"/>
</g>
<!-- Node33&#45;&gt;Node26 -->
<g id="edge38" class="edge">
<title>Node33&#45;&gt;Node26</title>
<path fill="none" stroke="midnightblue" d="M1203.52,-137.8C1263.94,-125.01 1363.85,-103.86 1419.46,-92.08"/>
<polygon fill="midnightblue" stroke="midnightblue" points="1202.51,-134.44 1193.45,-139.94 1203.96,-141.29 1202.51,-134.44"/>
</g>
<!-- Node33&#45;&gt;Node27 -->
<g id="edge39" class="edge">
<title>Node33&#45;&gt;Node27</title>
<path fill="none" stroke="midnightblue" d="M1203.01,-138.03C1210.69,-136.57 1218.55,-135.18 1226,-134 1360.82,-112.69 1396.24,-119.68 1531,-98 1541.43,-96.32 1552.66,-94.18 1563.05,-92.07"/>
<polygon fill="midnightblue" stroke="midnightblue" points="1202.21,-134.62 1193.06,-139.95 1203.54,-141.49 1202.21,-134.62"/>
</g>
</g>
</svg>
