<?xml version="1.0" encoding="UTF-8" standalone="no"?>
<!DOCTYPE svg PUBLIC "-//W3C//DTD SVG 1.1//EN"
 "http://www.w3.org/Graphics/SVG/1.1/DTD/svg11.dtd">
<!-- Generated by graphviz version 3.0.0 (20220413.0106)
 -->
<!-- Title: chunk_append Pages: 1 -->
<svg width="610pt" height="104pt"
 viewBox="0.00 0.00 610.00 104.00" xmlns="http://www.w3.org/2000/svg" xmlns:xlink="http://www.w3.org/1999/xlink">
<g id="graph0" class="graph" transform="scale(1 1) rotate(0) translate(4 100)">
<title>chunk_append</title>
<!-- Node1 -->
<g id="node1" class="node">
<title>Node1</title>
<g id="a_node1"><a xlink:title="make a chunk added to free list.">
<polygon fill="#bfbfbf" stroke="black" points="522,-38.5 522,-57.5 602,-57.5 602,-38.5 522,-38.5"/>
<text text-anchor="middle" x="562" y="-45.5" font-family="Helvetica,sans-Serif" font-size="10.00">chunk_append</text>
</a>
</g>
</g>
<!-- Node2 -->
<g id="node2" class="node">
<title>Node2</title>
<g id="a_node2"><a xlink:href="buddy_8c.html#a77f7615f76209d4083ef2d0826d90a1e" target="_top" xlink:title="free a chunk and process in deep.">
<polygon fill="none" stroke="black" points="308.5,-57.5 308.5,-76.5 373.5,-76.5 373.5,-57.5 308.5,-57.5"/>
<text text-anchor="middle" x="341" y="-64.5" font-family="Helvetica,sans-Serif" font-size="10.00">chunk_free</text>
</a>
</g>
</g>
<!-- Node1&#45;&gt;Node2 -->
<g id="edge1" class="edge">
<title>Node1&#45;&gt;Node2</title>
<path fill="none" stroke="midnightblue" d="M520.77,-60.14C509.62,-62.97 497.43,-65.57 486,-67 447.55,-71.79 402.87,-70.78 373.6,-69.24"/>
<polygon fill="midnightblue" stroke="midnightblue" points="521.91,-63.46 530.68,-57.5 520.11,-56.7 521.91,-63.46"/>
</g>
<!-- Node7 -->
<g id="node7" class="node">
<title>Node7</title>
<g id="a_node7"><a xlink:href="buddy_8c.html#a9ae41f7f508f07ceba45065973ce5507" target="_top" xlink:title=" ">
<polygon fill="none" stroke="black" points="411,-38.5 411,-57.5 486,-57.5 486,-38.5 411,-38.5"/>
<text text-anchor="middle" x="448.5" y="-45.5" font-family="Helvetica,sans-Serif" font-size="10.00">chunk_merge</text>
</a>
</g>
</g>
<!-- Node1&#45;&gt;Node7 -->
<g id="edge7" class="edge">
<title>Node1&#45;&gt;Node7</title>
<path fill="none" stroke="midnightblue" d="M511.48,-48C502.99,-48 494.3,-48 486.22,-48"/>
<polygon fill="midnightblue" stroke="midnightblue" points="511.69,-51.5 521.69,-48 511.69,-44.5 511.69,-51.5"/>
</g>
<!-- Node8 -->
<g id="node8" class="node">
<title>Node8</title>
<g id="a_node8"><a xlink:href="buddy_8c.html#aff6f2614df5664434766dd9c23971227" target="_top" xlink:title=" ">
<polygon fill="none" stroke="black" points="415.5,-0.5 415.5,-19.5 481.5,-19.5 481.5,-0.5 415.5,-0.5"/>
<text text-anchor="middle" x="448.5" y="-7.5" font-family="Helvetica,sans-Serif" font-size="10.00">chunk_split</text>
</a>
</g>
</g>
<!-- Node1&#45;&gt;Node8 -->
<g id="edge9" class="edge">
<title>Node1&#45;&gt;Node8</title>
<path fill="none" stroke="midnightblue" d="M523.37,-35.17C508.41,-30.08 491.49,-24.31 477.63,-19.59"/>
<polygon fill="midnightblue" stroke="midnightblue" points="522.27,-38.5 532.86,-38.41 524.53,-31.87 522.27,-38.5"/>
</g>
<!-- Node3 -->
<g id="node3" class="node">
<title>Node3</title>
<g id="a_node3"><a xlink:href="buddy_8c.html#a571ce3de5539a52d40d9d11033519237" target="_top" xlink:title="initialize the buddy system">
<polygon fill="none" stroke="black" points="211,-76.5 211,-95.5 271,-95.5 271,-76.5 211,-76.5"/>
<text text-anchor="middle" x="241" y="-83.5" font-family="Helvetica,sans-Serif" font-size="10.00">buddy_init</text>
</a>
</g>
</g>
<!-- Node2&#45;&gt;Node3 -->
<g id="edge2" class="edge">
<title>Node2&#45;&gt;Node3</title>
<path fill="none" stroke="midnightblue" d="M298.34,-75.08C289.19,-76.85 279.69,-78.69 271.16,-80.35"/>
<polygon fill="midnightblue" stroke="midnightblue" points="299.3,-78.46 308.45,-73.12 297.97,-71.58 299.3,-78.46"/>
</g>
<!-- Node6 -->
<g id="node6" class="node">
<title>Node6</title>
<g id="a_node6"><a xlink:href="pmm_8c.html#a2cb876c0d76d35916d27ed1623195fbe" target="_top" xlink:title=" ">
<polygon fill="none" stroke="black" points="222,-38.5 222,-57.5 260,-57.5 260,-38.5 222,-38.5"/>
<text text-anchor="middle" x="241" y="-45.5" font-family="Helvetica,sans-Serif" font-size="10.00">kfree</text>
</a>
</g>
</g>
<!-- Node2&#45;&gt;Node6 -->
<g id="edge5" class="edge">
<title>Node2&#45;&gt;Node6</title>
<path fill="none" stroke="midnightblue" d="M298.42,-58.94C285.01,-56.34 270.84,-53.59 260.06,-51.5"/>
<polygon fill="midnightblue" stroke="midnightblue" points="297.97,-62.42 308.45,-60.88 299.3,-55.54 297.97,-62.42"/>
</g>
<!-- Node4 -->
<g id="node4" class="node">
<title>Node4</title>
<g id="a_node4"><a xlink:href="pmm_8c.html#a393796678826afd801058312f851ca43" target="_top" xlink:title=" ">
<polygon fill="none" stroke="black" points="119,-76.5 119,-95.5 175,-95.5 175,-76.5 119,-76.5"/>
<text text-anchor="middle" x="147" y="-83.5" font-family="Helvetica,sans-Serif" font-size="10.00">pmm_init</text>
</a>
</g>
</g>
<!-- Node3&#45;&gt;Node4 -->
<g id="edge3" class="edge">
<title>Node3&#45;&gt;Node4</title>
<path fill="none" stroke="midnightblue" d="M200.61,-86C191.99,-86 183.05,-86 175.04,-86"/>
<polygon fill="midnightblue" stroke="midnightblue" points="200.89,-89.5 210.89,-86 200.89,-82.5 200.89,-89.5"/>
</g>
<!-- Node5 -->
<g id="node5" class="node">
<title>Node5</title>
<g id="a_node5"><a xlink:href="pmm_8c.html#a7ada9deb0ae8705f2cc158b0283aaeb3" target="_top" xlink:title=" ">
<polygon fill="none" stroke="black" points="0,-38.5 0,-57.5 83,-57.5 83,-38.5 0,-38.5"/>
<text text-anchor="middle" x="41.5" y="-45.5" font-family="Helvetica,sans-Serif" font-size="10.00">MODULE_DEF</text>
</a>
</g>
</g>
<!-- Node4&#45;&gt;Node5 -->
<g id="edge4" class="edge">
<title>Node4&#45;&gt;Node5</title>
<path fill="none" stroke="midnightblue" d="M110.27,-72.88C96.58,-67.86 81.23,-62.22 68.61,-57.59"/>
<polygon fill="midnightblue" stroke="midnightblue" points="109.29,-76.25 119.88,-76.41 111.7,-69.68 109.29,-76.25"/>
</g>
<!-- Node6&#45;&gt;Node5 -->
<g id="edge6" class="edge">
<title>Node6&#45;&gt;Node5</title>
<path fill="none" stroke="midnightblue" d="M211.69,-48C178.01,-48 121.54,-48 83.18,-48"/>
<polygon fill="midnightblue" stroke="midnightblue" points="211.77,-51.5 221.77,-48 211.77,-44.5 211.77,-51.5"/>
</g>
<!-- Node7&#45;&gt;Node2 -->
<g id="edge8" class="edge">
<title>Node7&#45;&gt;Node2</title>
<path fill="none" stroke="midnightblue" d="M401.01,-56.37C391.75,-58.04 382.24,-59.75 373.62,-61.31"/>
<polygon fill="midnightblue" stroke="midnightblue" points="401.68,-59.81 410.9,-54.59 400.44,-52.92 401.68,-59.81"/>
</g>
<!-- Node9 -->
<g id="node9" class="node">
<title>Node9</title>
<g id="a_node9"><a xlink:href="buddy_8c.html#a37436a565869aa245cb46355dab020e2" target="_top" xlink:title=" ">
<polygon fill="none" stroke="black" points="307,-0.5 307,-19.5 375,-19.5 375,-0.5 307,-0.5"/>
<text text-anchor="middle" x="341" y="-7.5" font-family="Helvetica,sans-Serif" font-size="10.00">chunk_alloc</text>
</a>
</g>
</g>
<!-- Node8&#45;&gt;Node9 -->
<g id="edge10" class="edge">
<title>Node8&#45;&gt;Node9</title>
<path fill="none" stroke="midnightblue" d="M405.12,-10C395.13,-10 384.63,-10 375.12,-10"/>
<polygon fill="midnightblue" stroke="midnightblue" points="405.27,-13.5 415.27,-10 405.27,-6.5 405.27,-13.5"/>
</g>
<!-- Node10 -->
<g id="node10" class="node">
<title>Node10</title>
<g id="a_node10"><a xlink:href="pmm_8c.html#a350a830083f55f1886e000edec454a99" target="_top" xlink:title=" ">
<polygon fill="none" stroke="black" points="126,-0.5 126,-19.5 168,-19.5 168,-0.5 126,-0.5"/>
<text text-anchor="middle" x="147" y="-7.5" font-family="Helvetica,sans-Serif" font-size="10.00">kalloc</text>
</a>
</g>
</g>
<!-- Node9&#45;&gt;Node10 -->
<g id="edge11" class="edge">
<title>Node9&#45;&gt;Node10</title>
<path fill="none" stroke="midnightblue" d="M296.94,-10C256.77,-10 198.6,-10 168.22,-10"/>
<polygon fill="midnightblue" stroke="midnightblue" points="296.99,-13.5 306.99,-10 296.99,-6.5 296.99,-13.5"/>
</g>
<!-- Node10&#45;&gt;Node5 -->
<g id="edge12" class="edge">
<title>Node10&#45;&gt;Node5</title>
<path fill="none" stroke="midnightblue" d="M116.14,-20.96C101.06,-26.5 82.92,-33.16 68.42,-38.48"/>
<polygon fill="midnightblue" stroke="midnightblue" points="117.37,-24.24 125.55,-17.51 114.96,-17.67 117.37,-24.24"/>
</g>
</g>
</svg>
