<?xml version="1.0" encoding="UTF-8" standalone="no"?>
<!DOCTYPE svg PUBLIC "-//W3C//DTD SVG 1.1//EN"
 "http://www.w3.org/Graphics/SVG/1.1/DTD/svg11.dtd">
<!-- Generated by graphviz version 3.0.0 (20220413.0106)
 -->
<!-- Title: kernel/include/buddy.h Pages: 1 -->
<svg width="277pt" height="252pt"
 viewBox="0.00 0.00 276.50 252.00" xmlns="http://www.w3.org/2000/svg" xmlns:xlink="http://www.w3.org/1999/xlink">
<g id="graph0" class="graph" transform="scale(1 1) rotate(0) translate(4 248)">
<title>kernel/include/buddy.h</title>
<!-- Node1 -->
<g id="node1" class="node">
<title>Node1</title>
<g id="a_node1"><a xlink:title=" ">
<polygon fill="#bfbfbf" stroke="black" points="113,-224.5 113,-243.5 226,-243.5 226,-224.5 113,-224.5"/>
<text text-anchor="middle" x="169.5" y="-231.5" font-family="Helvetica,sans-Serif" font-size="10.00">kernel/include/buddy.h</text>
</a>
</g>
</g>
<!-- Node2 -->
<g id="node2" class="node">
<title>Node2</title>
<g id="a_node2"><a xlink:href="common_8h.html" target="_top" xlink:title=" ">
<polygon fill="none" stroke="black" points="104.5,-168.5 104.5,-187.5 166.5,-187.5 166.5,-168.5 104.5,-168.5"/>
<text text-anchor="middle" x="135.5" y="-175.5" font-family="Helvetica,sans-Serif" font-size="10.00">common.h</text>
</a>
</g>
</g>
<!-- Node1&#45;&gt;Node2 -->
<g id="edge1" class="edge">
<title>Node1&#45;&gt;Node2</title>
<path fill="none" stroke="midnightblue" d="M163.89,-224.08C159.13,-216.53 152.18,-205.49 146.35,-196.23"/>
<polygon fill="midnightblue" stroke="midnightblue" points="149.3,-194.35 141.01,-187.75 143.38,-198.08 149.3,-194.35"/>
</g>
<!-- Node12 -->
<g id="node12" class="node">
<title>Node12</title>
<g id="a_node12"><a xlink:href="list_8h.html" target="_top" xlink:title="double circular linked list impl without concurrency">
<polygon fill="none" stroke="black" points="205,-168.5 205,-187.5 242,-187.5 242,-168.5 205,-168.5"/>
<text text-anchor="middle" x="223.5" y="-175.5" font-family="Helvetica,sans-Serif" font-size="10.00">list.h</text>
</a>
</g>
</g>
<!-- Node1&#45;&gt;Node12 -->
<g id="edge13" class="edge">
<title>Node1&#45;&gt;Node12</title>
<path fill="none" stroke="midnightblue" d="M178.42,-224.08C186.28,-216.22 197.93,-204.57 207.42,-195.08"/>
<polygon fill="midnightblue" stroke="midnightblue" points="210.15,-197.3 214.75,-187.75 205.2,-192.35 210.15,-197.3"/>
</g>
<!-- Node3 -->
<g id="node3" class="node">
<title>Node3</title>
<g id="a_node3"><a xlink:href="kernel_8h.html" target="_top" xlink:title=" ">
<polygon fill="none" stroke="black" points="150.5,-112.5 150.5,-131.5 200.5,-131.5 200.5,-112.5 150.5,-112.5"/>
<text text-anchor="middle" x="175.5" y="-119.5" font-family="Helvetica,sans-Serif" font-size="10.00">kernel.h</text>
</a>
</g>
</g>
<!-- Node2&#45;&gt;Node3 -->
<g id="edge2" class="edge">
<title>Node2&#45;&gt;Node3</title>
<path fill="none" stroke="midnightblue" d="M142.11,-168.08C147.76,-160.46 156.04,-149.26 162.95,-139.94"/>
<polygon fill="midnightblue" stroke="midnightblue" points="165.88,-141.87 169.02,-131.75 160.25,-137.7 165.88,-141.87"/>
</g>
<!-- Node9 -->
<g id="node9" class="node">
<title>Node9</title>
<g id="a_node9"><a xlink:href="klib_8h.html" target="_top" xlink:title=" ">
<polygon fill="none" stroke="black" points="1,-112.5 1,-131.5 40,-131.5 40,-112.5 1,-112.5"/>
<text text-anchor="middle" x="20.5" y="-119.5" font-family="Helvetica,sans-Serif" font-size="10.00">klib.h</text>
</a>
</g>
</g>
<!-- Node2&#45;&gt;Node9 -->
<g id="edge8" class="edge">
<title>Node2&#45;&gt;Node9</title>
<path fill="none" stroke="midnightblue" d="M117.28,-168.44C98.6,-159.68 69.34,-145.94 47.88,-135.86"/>
<polygon fill="midnightblue" stroke="midnightblue" points="49.18,-132.6 38.64,-131.52 46.2,-138.93 49.18,-132.6"/>
</g>
<!-- Node11 -->
<g id="node11" class="node">
<title>Node11</title>
<g id="a_node11"><a xlink:href="klib-macros_8h.html" target="_top" xlink:title=" ">
<polygon fill="none" stroke="black" points="58.5,-112.5 58.5,-131.5 132.5,-131.5 132.5,-112.5 58.5,-112.5"/>
<text text-anchor="middle" x="95.5" y="-119.5" font-family="Helvetica,sans-Serif" font-size="10.00">klib&#45;macros.h</text>
</a>
</g>
</g>
<!-- Node2&#45;&gt;Node11 -->
<g id="edge12" class="edge">
<title>Node2&#45;&gt;Node11</title>
<path fill="none" stroke="midnightblue" d="M128.89,-168.08C123.24,-160.46 114.96,-149.26 108.05,-139.94"/>
<polygon fill="midnightblue" stroke="midnightblue" points="110.75,-137.7 101.98,-131.75 105.12,-141.87 110.75,-137.7"/>
</g>
<!-- Node4 -->
<g id="node4" class="node">
<title>Node4</title>
<g id="a_node4"><a xlink:href="am_8h.html" target="_top" xlink:title=" ">
<polygon fill="none" stroke="black" points="153.5,-56.5 153.5,-75.5 191.5,-75.5 191.5,-56.5 153.5,-56.5"/>
<text text-anchor="middle" x="172.5" y="-63.5" font-family="Helvetica,sans-Serif" font-size="10.00">am.h</text>
</a>
</g>
</g>
<!-- Node3&#45;&gt;Node4 -->
<g id="edge3" class="edge">
<title>Node3&#45;&gt;Node4</title>
<path fill="none" stroke="midnightblue" d="M175,-112.08C174.61,-105.01 174.05,-94.86 173.55,-85.99"/>
<polygon fill="midnightblue" stroke="midnightblue" points="177.04,-85.54 172.99,-75.75 170.05,-85.93 177.04,-85.54"/>
</g>
<!-- Node5 -->
<g id="node5" class="node">
<title>Node5</title>
<g id="a_node5"><a xlink:title=" ">
<polygon fill="none" stroke="#bfbfbf" points="217.5,-0.5 217.5,-19.5 265.5,-19.5 265.5,-0.5 217.5,-0.5"/>
<text text-anchor="middle" x="241.5" y="-7.5" font-family="Helvetica,sans-Serif" font-size="10.00">stdint.h</text>
</a>
</g>
</g>
<!-- Node4&#45;&gt;Node5 -->
<g id="edge4" class="edge">
<title>Node4&#45;&gt;Node5</title>
<path fill="none" stroke="midnightblue" d="M183.59,-56.32C193.99,-48.18 209.76,-35.84 222.22,-26.09"/>
<polygon fill="midnightblue" stroke="midnightblue" points="224.49,-28.75 230.21,-19.83 220.18,-23.24 224.49,-28.75"/>
</g>
<!-- Node6 -->
<g id="node6" class="node">
<title>Node6</title>
<g id="a_node6"><a xlink:title=" ">
<polygon fill="none" stroke="#bfbfbf" points="0,-0.5 0,-19.5 51,-19.5 51,-0.5 0,-0.5"/>
<text text-anchor="middle" x="25.5" y="-7.5" font-family="Helvetica,sans-Serif" font-size="10.00">stddef.h</text>
</a>
</g>
</g>
<!-- Node4&#45;&gt;Node6 -->
<g id="edge5" class="edge">
<title>Node4&#45;&gt;Node6</title>
<path fill="none" stroke="midnightblue" d="M153.28,-57.94C129.33,-49.14 88.02,-33.96 58.86,-23.25"/>
<polygon fill="midnightblue" stroke="midnightblue" points="59.69,-19.83 49.1,-19.67 57.28,-26.4 59.69,-19.83"/>
</g>
<!-- Node7 -->
<g id="node7" class="node">
<title>Node7</title>
<g id="a_node7"><a xlink:title=" ">
<polygon fill="none" stroke="#bfbfbf" points="71.5,-0.5 71.5,-19.5 127.5,-19.5 127.5,-0.5 71.5,-0.5"/>
<text text-anchor="middle" x="99.5" y="-7.5" font-family="Helvetica,sans-Serif" font-size="10.00">stdbool.h</text>
</a>
</g>
</g>
<!-- Node4&#45;&gt;Node7 -->
<g id="edge6" class="edge">
<title>Node4&#45;&gt;Node7</title>
<path fill="none" stroke="midnightblue" d="M160.77,-56.32C149.66,-48.11 132.76,-35.6 119.52,-25.81"/>
<polygon fill="midnightblue" stroke="midnightblue" points="121.56,-22.97 111.44,-19.83 117.4,-28.59 121.56,-22.97"/>
</g>
<!-- Node8 -->
<g id="node8" class="node">
<title>Node8</title>
<g id="a_node8"><a xlink:href="amdev_8h.html" target="_top" xlink:title=" ">
<polygon fill="none" stroke="black" points="146,-0.5 146,-19.5 199,-19.5 199,-0.5 146,-0.5"/>
<text text-anchor="middle" x="172.5" y="-7.5" font-family="Helvetica,sans-Serif" font-size="10.00">amdev.h</text>
</a>
</g>
</g>
<!-- Node4&#45;&gt;Node8 -->
<g id="edge7" class="edge">
<title>Node4&#45;&gt;Node8</title>
<path fill="none" stroke="midnightblue" d="M172.5,-56.08C172.5,-49.01 172.5,-38.86 172.5,-29.99"/>
<polygon fill="midnightblue" stroke="midnightblue" points="176,-29.75 172.5,-19.75 169,-29.75 176,-29.75"/>
</g>
<!-- Node9&#45;&gt;Node4 -->
<g id="edge9" class="edge">
<title>Node9&#45;&gt;Node4</title>
<path fill="none" stroke="midnightblue" d="M40.06,-114.05C66.43,-104.68 113.55,-87.94 143.9,-77.16"/>
<polygon fill="midnightblue" stroke="midnightblue" points="145.24,-80.4 153.49,-73.75 142.9,-73.8 145.24,-80.4"/>
</g>
<!-- Node9&#45;&gt;Node6 -->
<g id="edge10" class="edge">
<title>Node9&#45;&gt;Node6</title>
<path fill="none" stroke="midnightblue" d="M20.89,-112.37C21.7,-94.62 23.56,-53.67 24.65,-29.6"/>
<polygon fill="midnightblue" stroke="midnightblue" points="28.15,-29.74 25.11,-19.59 21.16,-29.42 28.15,-29.74"/>
</g>
<!-- Node10 -->
<g id="node10" class="node">
<title>Node10</title>
<g id="a_node10"><a xlink:title=" ">
<polygon fill="none" stroke="#bfbfbf" points="49,-56.5 49,-75.5 100,-75.5 100,-56.5 49,-56.5"/>
<text text-anchor="middle" x="74.5" y="-63.5" font-family="Helvetica,sans-Serif" font-size="10.00">stdarg.h</text>
</a>
</g>
</g>
<!-- Node9&#45;&gt;Node10 -->
<g id="edge11" class="edge">
<title>Node9&#45;&gt;Node10</title>
<path fill="none" stroke="midnightblue" d="M29.42,-112.08C37.28,-104.22 48.93,-92.57 58.42,-83.08"/>
<polygon fill="midnightblue" stroke="midnightblue" points="61.15,-85.3 65.75,-75.75 56.2,-80.35 61.15,-85.3"/>
</g>
<!-- Node13 -->
<g id="node13" class="node">
<title>Node13</title>
<g id="a_node13"><a xlink:href="logger_8h.html" target="_top" xlink:title=" ">
<polygon fill="none" stroke="black" points="218.5,-112.5 218.5,-131.5 268.5,-131.5 268.5,-112.5 218.5,-112.5"/>
<text text-anchor="middle" x="243.5" y="-119.5" font-family="Helvetica,sans-Serif" font-size="10.00">logger.h</text>
</a>
</g>
</g>
<!-- Node12&#45;&gt;Node13 -->
<g id="edge14" class="edge">
<title>Node12&#45;&gt;Node13</title>
<path fill="none" stroke="midnightblue" d="M226.8,-168.08C229.48,-160.85 233.35,-150.41 236.69,-141.4"/>
<polygon fill="midnightblue" stroke="midnightblue" points="240.07,-142.34 240.26,-131.75 233.5,-139.91 240.07,-142.34"/>
</g>
<!-- Node13&#45;&gt;Node4 -->
<g id="edge15" class="edge">
<title>Node13&#45;&gt;Node4</title>
<path fill="none" stroke="midnightblue" d="M232.09,-112.32C221.39,-104.18 205.16,-91.84 192.34,-82.09"/>
<polygon fill="midnightblue" stroke="midnightblue" points="194.19,-79.1 184.11,-75.83 189.96,-84.67 194.19,-79.1"/>
</g>
</g>
</svg>
