<?xml version="1.0" encoding="UTF-8" standalone="no"?>
<!DOCTYPE svg PUBLIC "-//W3C//DTD SVG 1.1//EN"
 "http://www.w3.org/Graphics/SVG/1.1/DTD/svg11.dtd">
<!-- Generated by graphviz version 3.0.0 (20220413.0106)
 -->
<!-- Title: virt2chunk Pages: 1 -->
<svg width="720pt" height="104pt"
 viewBox="0.00 0.00 720.00 104.00" xmlns="http://www.w3.org/2000/svg" xmlns:xlink="http://www.w3.org/1999/xlink">
<g id="graph0" class="graph" transform="scale(1 1) rotate(0) translate(4 100)">
<title>virt2chunk</title>
<!-- Node1 -->
<g id="node1" class="node">
<title>Node1</title>
<g id="a_node1"><a xlink:title="translate virtual address to chunk address">
<polygon fill="#bfbfbf" stroke="black" points="650,-19.5 650,-38.5 712,-38.5 712,-19.5 650,-19.5"/>
<text text-anchor="middle" x="681" y="-26.5" font-family="Helvetica,sans-Serif" font-size="10.00">virt2chunk</text>
</a>
</g>
</g>
<!-- Node2 -->
<g id="node2" class="node">
<title>Node2</title>
<g id="a_node2"><a xlink:href="buddy_8c.html#a48594e69fff9b58d5f41dca7d576eb35" target="_top" xlink:title="Get the buddy chunk.">
<polygon fill="none" stroke="black" points="522,-38.5 522,-57.5 614,-57.5 614,-38.5 522,-38.5"/>
<text text-anchor="middle" x="568" y="-45.5" font-family="Helvetica,sans-Serif" font-size="10.00">get_buddy_chunk</text>
</a>
</g>
</g>
<!-- Node1&#45;&gt;Node2 -->
<g id="edge1" class="edge">
<title>Node1&#45;&gt;Node2</title>
<path fill="none" stroke="midnightblue" d="M640.01,-35.84C631.6,-37.28 622.67,-38.81 614.08,-40.28"/>
<polygon fill="midnightblue" stroke="midnightblue" points="640.7,-39.28 649.96,-34.14 639.51,-32.38 640.7,-39.28"/>
</g>
<!-- Node8 -->
<g id="node8" class="node">
<title>Node8</title>
<g id="a_node8"><a xlink:href="pmm_8c.html#a2cb876c0d76d35916d27ed1623195fbe" target="_top" xlink:title=" ">
<polygon fill="none" stroke="black" points="222,-0.5 222,-19.5 260,-19.5 260,-0.5 222,-0.5"/>
<text text-anchor="middle" x="241" y="-7.5" font-family="Helvetica,sans-Serif" font-size="10.00">kfree</text>
</a>
</g>
</g>
<!-- Node1&#45;&gt;Node8 -->
<g id="edge13" class="edge">
<title>Node1&#45;&gt;Node8</title>
<path fill="none" stroke="midnightblue" d="M639.88,-27.26C548.05,-23.28 325.49,-13.62 260.26,-10.79"/>
<polygon fill="midnightblue" stroke="midnightblue" points="639.75,-30.76 649.89,-27.69 640.06,-23.76 639.75,-30.76"/>
</g>
<!-- Node3 -->
<g id="node3" class="node">
<title>Node3</title>
<g id="a_node3"><a xlink:href="buddy_8c.html#a9ae41f7f508f07ceba45065973ce5507" target="_top" xlink:title=" ">
<polygon fill="none" stroke="black" points="411,-38.5 411,-57.5 486,-57.5 486,-38.5 411,-38.5"/>
<text text-anchor="middle" x="448.5" y="-45.5" font-family="Helvetica,sans-Serif" font-size="10.00">chunk_merge</text>
</a>
</g>
</g>
<!-- Node2&#45;&gt;Node3 -->
<g id="edge2" class="edge">
<title>Node2&#45;&gt;Node3</title>
<path fill="none" stroke="midnightblue" d="M511.83,-48C503.17,-48 494.4,-48 486.28,-48"/>
<polygon fill="midnightblue" stroke="midnightblue" points="511.91,-51.5 521.91,-48 511.91,-44.5 511.91,-51.5"/>
</g>
<!-- Node9 -->
<g id="node9" class="node">
<title>Node9</title>
<g id="a_node9"><a xlink:href="buddy_8c.html#aff6f2614df5664434766dd9c23971227" target="_top" xlink:title=" ">
<polygon fill="none" stroke="black" points="415.5,-76.5 415.5,-95.5 481.5,-95.5 481.5,-76.5 415.5,-76.5"/>
<text text-anchor="middle" x="448.5" y="-83.5" font-family="Helvetica,sans-Serif" font-size="10.00">chunk_split</text>
</a>
</g>
</g>
<!-- Node2&#45;&gt;Node9 -->
<g id="edge9" class="edge">
<title>Node2&#45;&gt;Node9</title>
<path fill="none" stroke="midnightblue" d="M527.79,-60.68C511.91,-65.81 493.89,-71.64 479.14,-76.41"/>
<polygon fill="midnightblue" stroke="midnightblue" points="528.91,-64 537.35,-57.59 526.76,-57.34 528.91,-64"/>
</g>
<!-- Node4 -->
<g id="node4" class="node">
<title>Node4</title>
<g id="a_node4"><a xlink:href="buddy_8c.html#a77f7615f76209d4083ef2d0826d90a1e" target="_top" xlink:title="free a chunk and process in deep.">
<polygon fill="none" stroke="black" points="308.5,-38.5 308.5,-57.5 373.5,-57.5 373.5,-38.5 308.5,-38.5"/>
<text text-anchor="middle" x="341" y="-45.5" font-family="Helvetica,sans-Serif" font-size="10.00">chunk_free</text>
</a>
</g>
</g>
<!-- Node3&#45;&gt;Node4 -->
<g id="edge3" class="edge">
<title>Node3&#45;&gt;Node4</title>
<path fill="none" stroke="midnightblue" d="M400.71,-48C391.55,-48 382.14,-48 373.62,-48"/>
<polygon fill="midnightblue" stroke="midnightblue" points="400.9,-51.5 410.9,-48 400.9,-44.5 400.9,-51.5"/>
</g>
<!-- Node5 -->
<g id="node5" class="node">
<title>Node5</title>
<g id="a_node5"><a xlink:href="buddy_8c.html#a571ce3de5539a52d40d9d11033519237" target="_top" xlink:title="initialize the buddy system">
<polygon fill="none" stroke="black" points="211,-38.5 211,-57.5 271,-57.5 271,-38.5 211,-38.5"/>
<text text-anchor="middle" x="241" y="-45.5" font-family="Helvetica,sans-Serif" font-size="10.00">buddy_init</text>
</a>
</g>
</g>
<!-- Node4&#45;&gt;Node5 -->
<g id="edge4" class="edge">
<title>Node4&#45;&gt;Node5</title>
<path fill="none" stroke="midnightblue" d="M298.34,-48C289.19,-48 279.69,-48 271.16,-48"/>
<polygon fill="midnightblue" stroke="midnightblue" points="298.45,-51.5 308.45,-48 298.45,-44.5 298.45,-51.5"/>
</g>
<!-- Node4&#45;&gt;Node8 -->
<g id="edge7" class="edge">
<title>Node4&#45;&gt;Node8</title>
<path fill="none" stroke="midnightblue" d="M305.6,-34.66C290.31,-28.73 272.95,-22 260.22,-17.07"/>
<polygon fill="midnightblue" stroke="midnightblue" points="304.68,-38.06 315.27,-38.41 307.21,-31.53 304.68,-38.06"/>
</g>
<!-- Node6 -->
<g id="node6" class="node">
<title>Node6</title>
<g id="a_node6"><a xlink:href="pmm_8c.html#a393796678826afd801058312f851ca43" target="_top" xlink:title=" ">
<polygon fill="none" stroke="black" points="119,-38.5 119,-57.5 175,-57.5 175,-38.5 119,-38.5"/>
<text text-anchor="middle" x="147" y="-45.5" font-family="Helvetica,sans-Serif" font-size="10.00">pmm_init</text>
</a>
</g>
</g>
<!-- Node5&#45;&gt;Node6 -->
<g id="edge5" class="edge">
<title>Node5&#45;&gt;Node6</title>
<path fill="none" stroke="midnightblue" d="M200.61,-48C191.99,-48 183.05,-48 175.04,-48"/>
<polygon fill="midnightblue" stroke="midnightblue" points="200.89,-51.5 210.89,-48 200.89,-44.5 200.89,-51.5"/>
</g>
<!-- Node7 -->
<g id="node7" class="node">
<title>Node7</title>
<g id="a_node7"><a xlink:href="pmm_8c.html#a7ada9deb0ae8705f2cc158b0283aaeb3" target="_top" xlink:title=" ">
<polygon fill="none" stroke="black" points="0,-38.5 0,-57.5 83,-57.5 83,-38.5 0,-38.5"/>
<text text-anchor="middle" x="41.5" y="-45.5" font-family="Helvetica,sans-Serif" font-size="10.00">MODULE_DEF</text>
</a>
</g>
</g>
<!-- Node6&#45;&gt;Node7 -->
<g id="edge6" class="edge">
<title>Node6&#45;&gt;Node7</title>
<path fill="none" stroke="midnightblue" d="M108.67,-48C100.38,-48 91.56,-48 83.15,-48"/>
<polygon fill="midnightblue" stroke="midnightblue" points="108.81,-51.5 118.81,-48 108.81,-44.5 108.81,-51.5"/>
</g>
<!-- Node8&#45;&gt;Node7 -->
<g id="edge8" class="edge">
<title>Node8&#45;&gt;Node7</title>
<path fill="none" stroke="midnightblue" d="M211.79,-13.72C187.19,-17.13 150.59,-22.61 119,-29 105.59,-31.71 90.98,-35.21 78.16,-38.46"/>
<polygon fill="midnightblue" stroke="midnightblue" points="212.44,-17.16 221.87,-12.34 211.49,-10.22 212.44,-17.16"/>
</g>
<!-- Node10 -->
<g id="node10" class="node">
<title>Node10</title>
<g id="a_node10"><a xlink:href="buddy_8c.html#a37436a565869aa245cb46355dab020e2" target="_top" xlink:title=" ">
<polygon fill="none" stroke="black" points="307,-76.5 307,-95.5 375,-95.5 375,-76.5 307,-76.5"/>
<text text-anchor="middle" x="341" y="-83.5" font-family="Helvetica,sans-Serif" font-size="10.00">chunk_alloc</text>
</a>
</g>
</g>
<!-- Node9&#45;&gt;Node10 -->
<g id="edge10" class="edge">
<title>Node9&#45;&gt;Node10</title>
<path fill="none" stroke="midnightblue" d="M405.12,-86C395.13,-86 384.63,-86 375.12,-86"/>
<polygon fill="midnightblue" stroke="midnightblue" points="405.27,-89.5 415.27,-86 405.27,-82.5 405.27,-89.5"/>
</g>
<!-- Node11 -->
<g id="node11" class="node">
<title>Node11</title>
<g id="a_node11"><a xlink:href="pmm_8c.html#a350a830083f55f1886e000edec454a99" target="_top" xlink:title=" ">
<polygon fill="none" stroke="black" points="126,-76.5 126,-95.5 168,-95.5 168,-76.5 126,-76.5"/>
<text text-anchor="middle" x="147" y="-83.5" font-family="Helvetica,sans-Serif" font-size="10.00">kalloc</text>
</a>
</g>
</g>
<!-- Node10&#45;&gt;Node11 -->
<g id="edge11" class="edge">
<title>Node10&#45;&gt;Node11</title>
<path fill="none" stroke="midnightblue" d="M296.94,-86C256.77,-86 198.6,-86 168.22,-86"/>
<polygon fill="midnightblue" stroke="midnightblue" points="296.99,-89.5 306.99,-86 296.99,-82.5 296.99,-89.5"/>
</g>
<!-- Node11&#45;&gt;Node7 -->
<g id="edge12" class="edge">
<title>Node11&#45;&gt;Node7</title>
<path fill="none" stroke="midnightblue" d="M116.14,-75.04C101.06,-69.5 82.92,-62.84 68.42,-57.52"/>
<polygon fill="midnightblue" stroke="midnightblue" points="114.96,-78.33 125.55,-78.49 117.37,-71.76 114.96,-78.33"/>
</g>
</g>
</svg>
