<?xml version="1.0" encoding="UTF-8" standalone="no"?>
<!DOCTYPE svg PUBLIC "-//W3C//DTD SVG 1.1//EN"
 "http://www.w3.org/Graphics/SVG/1.1/DTD/svg11.dtd">
<!-- Generated by graphviz version 3.0.0 (20220413.0106)
 -->
<!-- Title: chunk2virt Pages: 1 -->
<svg width="720pt" height="104pt"
 viewBox="0.00 0.00 720.00 104.00" xmlns="http://www.w3.org/2000/svg" xmlns:xlink="http://www.w3.org/1999/xlink">
<g id="graph0" class="graph" transform="scale(1 1) rotate(0) translate(4 100)">
<title>chunk2virt</title>
<!-- Node1 -->
<g id="node1" class="node">
<title>Node1</title>
<g id="a_node1"><a xlink:title="translate chunk address to virtual address">
<polygon fill="#bfbfbf" stroke="black" points="650,-0.5 650,-19.5 712,-19.5 712,-0.5 650,-0.5"/>
<text text-anchor="middle" x="681" y="-7.5" font-family="Helvetica,sans-Serif" font-size="10.00">chunk2virt</text>
</a>
</g>
</g>
<!-- Node2 -->
<g id="node2" class="node">
<title>Node2</title>
<g id="a_node2"><a xlink:href="buddy_8c.html#a48594e69fff9b58d5f41dca7d576eb35" target="_top" xlink:title="Get the buddy chunk.">
<polygon fill="none" stroke="black" points="522,-19.5 522,-38.5 614,-38.5 614,-19.5 522,-19.5"/>
<text text-anchor="middle" x="568" y="-26.5" font-family="Helvetica,sans-Serif" font-size="10.00">get_buddy_chunk</text>
</a>
</g>
</g>
<!-- Node1&#45;&gt;Node2 -->
<g id="edge1" class="edge">
<title>Node1&#45;&gt;Node2</title>
<path fill="none" stroke="midnightblue" d="M640.01,-16.84C631.6,-18.28 622.67,-19.81 614.08,-21.28"/>
<polygon fill="midnightblue" stroke="midnightblue" points="640.7,-20.28 649.96,-15.14 639.51,-13.38 640.7,-20.28"/>
</g>
<!-- Node11 -->
<g id="node11" class="node">
<title>Node11</title>
<g id="a_node11"><a xlink:href="pmm_8c.html#a350a830083f55f1886e000edec454a99" target="_top" xlink:title=" ">
<polygon fill="none" stroke="black" points="220,-0.5 220,-19.5 262,-19.5 262,-0.5 220,-0.5"/>
<text text-anchor="middle" x="241" y="-7.5" font-family="Helvetica,sans-Serif" font-size="10.00">kalloc</text>
</a>
</g>
</g>
<!-- Node1&#45;&gt;Node11 -->
<g id="edge13" class="edge">
<title>Node1&#45;&gt;Node11</title>
<path fill="none" stroke="midnightblue" d="M639.7,-10C548.63,-10 329.66,-10 262.16,-10"/>
<polygon fill="midnightblue" stroke="midnightblue" points="639.89,-13.5 649.89,-10 639.89,-6.5 639.89,-13.5"/>
</g>
<!-- Node3 -->
<g id="node3" class="node">
<title>Node3</title>
<g id="a_node3"><a xlink:href="buddy_8c.html#a9ae41f7f508f07ceba45065973ce5507" target="_top" xlink:title=" ">
<polygon fill="none" stroke="black" points="411,-57.5 411,-76.5 486,-76.5 486,-57.5 411,-57.5"/>
<text text-anchor="middle" x="448.5" y="-64.5" font-family="Helvetica,sans-Serif" font-size="10.00">chunk_merge</text>
</a>
</g>
</g>
<!-- Node2&#45;&gt;Node3 -->
<g id="edge2" class="edge">
<title>Node2&#45;&gt;Node3</title>
<path fill="none" stroke="midnightblue" d="M527.79,-41.68C511.91,-46.81 493.89,-52.64 479.14,-57.41"/>
<polygon fill="midnightblue" stroke="midnightblue" points="528.91,-45 537.35,-38.59 526.76,-38.34 528.91,-45"/>
</g>
<!-- Node9 -->
<g id="node9" class="node">
<title>Node9</title>
<g id="a_node9"><a xlink:href="buddy_8c.html#aff6f2614df5664434766dd9c23971227" target="_top" xlink:title=" ">
<polygon fill="none" stroke="black" points="415.5,-19.5 415.5,-38.5 481.5,-38.5 481.5,-19.5 415.5,-19.5"/>
<text text-anchor="middle" x="448.5" y="-26.5" font-family="Helvetica,sans-Serif" font-size="10.00">chunk_split</text>
</a>
</g>
</g>
<!-- Node2&#45;&gt;Node9 -->
<g id="edge9" class="edge">
<title>Node2&#45;&gt;Node9</title>
<path fill="none" stroke="midnightblue" d="M511.67,-29C501.34,-29 490.86,-29 481.53,-29"/>
<polygon fill="midnightblue" stroke="midnightblue" points="511.91,-32.5 521.91,-29 511.91,-25.5 511.91,-32.5"/>
</g>
<!-- Node4 -->
<g id="node4" class="node">
<title>Node4</title>
<g id="a_node4"><a xlink:href="buddy_8c.html#a77f7615f76209d4083ef2d0826d90a1e" target="_top" xlink:title="free a chunk and process in deep.">
<polygon fill="none" stroke="black" points="308.5,-57.5 308.5,-76.5 373.5,-76.5 373.5,-57.5 308.5,-57.5"/>
<text text-anchor="middle" x="341" y="-64.5" font-family="Helvetica,sans-Serif" font-size="10.00">chunk_free</text>
</a>
</g>
</g>
<!-- Node3&#45;&gt;Node4 -->
<g id="edge3" class="edge">
<title>Node3&#45;&gt;Node4</title>
<path fill="none" stroke="midnightblue" d="M400.71,-67C391.55,-67 382.14,-67 373.62,-67"/>
<polygon fill="midnightblue" stroke="midnightblue" points="400.9,-70.5 410.9,-67 400.9,-63.5 400.9,-70.5"/>
</g>
<!-- Node5 -->
<g id="node5" class="node">
<title>Node5</title>
<g id="a_node5"><a xlink:href="buddy_8c.html#a571ce3de5539a52d40d9d11033519237" target="_top" xlink:title="initialize the buddy system">
<polygon fill="none" stroke="black" points="211,-76.5 211,-95.5 271,-95.5 271,-76.5 211,-76.5"/>
<text text-anchor="middle" x="241" y="-83.5" font-family="Helvetica,sans-Serif" font-size="10.00">buddy_init</text>
</a>
</g>
</g>
<!-- Node4&#45;&gt;Node5 -->
<g id="edge4" class="edge">
<title>Node4&#45;&gt;Node5</title>
<path fill="none" stroke="midnightblue" d="M298.34,-75.08C289.19,-76.85 279.69,-78.69 271.16,-80.35"/>
<polygon fill="midnightblue" stroke="midnightblue" points="299.3,-78.46 308.45,-73.12 297.97,-71.58 299.3,-78.46"/>
</g>
<!-- Node8 -->
<g id="node8" class="node">
<title>Node8</title>
<g id="a_node8"><a xlink:href="pmm_8c.html#a2cb876c0d76d35916d27ed1623195fbe" target="_top" xlink:title=" ">
<polygon fill="none" stroke="black" points="128,-38.5 128,-57.5 166,-57.5 166,-38.5 128,-38.5"/>
<text text-anchor="middle" x="147" y="-45.5" font-family="Helvetica,sans-Serif" font-size="10.00">kfree</text>
</a>
</g>
</g>
<!-- Node4&#45;&gt;Node8 -->
<g id="edge7" class="edge">
<title>Node4&#45;&gt;Node8</title>
<path fill="none" stroke="midnightblue" d="M298.3,-62.87C257.16,-58.8 196.22,-52.77 166.14,-49.8"/>
<polygon fill="midnightblue" stroke="midnightblue" points="298,-66.36 308.3,-63.86 298.69,-59.39 298,-66.36"/>
</g>
<!-- Node6 -->
<g id="node6" class="node">
<title>Node6</title>
<g id="a_node6"><a xlink:href="pmm_8c.html#a393796678826afd801058312f851ca43" target="_top" xlink:title=" ">
<polygon fill="none" stroke="black" points="119,-76.5 119,-95.5 175,-95.5 175,-76.5 119,-76.5"/>
<text text-anchor="middle" x="147" y="-83.5" font-family="Helvetica,sans-Serif" font-size="10.00">pmm_init</text>
</a>
</g>
</g>
<!-- Node5&#45;&gt;Node6 -->
<g id="edge5" class="edge">
<title>Node5&#45;&gt;Node6</title>
<path fill="none" stroke="midnightblue" d="M200.61,-86C191.99,-86 183.05,-86 175.04,-86"/>
<polygon fill="midnightblue" stroke="midnightblue" points="200.89,-89.5 210.89,-86 200.89,-82.5 200.89,-89.5"/>
</g>
<!-- Node7 -->
<g id="node7" class="node">
<title>Node7</title>
<g id="a_node7"><a xlink:href="pmm_8c.html#a7ada9deb0ae8705f2cc158b0283aaeb3" target="_top" xlink:title=" ">
<polygon fill="none" stroke="black" points="0,-38.5 0,-57.5 83,-57.5 83,-38.5 0,-38.5"/>
<text text-anchor="middle" x="41.5" y="-45.5" font-family="Helvetica,sans-Serif" font-size="10.00">MODULE_DEF</text>
</a>
</g>
</g>
<!-- Node6&#45;&gt;Node7 -->
<g id="edge6" class="edge">
<title>Node6&#45;&gt;Node7</title>
<path fill="none" stroke="midnightblue" d="M110.27,-72.88C96.58,-67.86 81.23,-62.22 68.61,-57.59"/>
<polygon fill="midnightblue" stroke="midnightblue" points="109.29,-76.25 119.88,-76.41 111.7,-69.68 109.29,-76.25"/>
</g>
<!-- Node8&#45;&gt;Node7 -->
<g id="edge8" class="edge">
<title>Node8&#45;&gt;Node7</title>
<path fill="none" stroke="midnightblue" d="M117.91,-48C107.18,-48 94.72,-48 83.06,-48"/>
<polygon fill="midnightblue" stroke="midnightblue" points="117.97,-51.5 127.97,-48 117.97,-44.5 117.97,-51.5"/>
</g>
<!-- Node10 -->
<g id="node10" class="node">
<title>Node10</title>
<g id="a_node10"><a xlink:href="buddy_8c.html#a37436a565869aa245cb46355dab020e2" target="_top" xlink:title=" ">
<polygon fill="none" stroke="black" points="307,-19.5 307,-38.5 375,-38.5 375,-19.5 307,-19.5"/>
<text text-anchor="middle" x="341" y="-26.5" font-family="Helvetica,sans-Serif" font-size="10.00">chunk_alloc</text>
</a>
</g>
</g>
<!-- Node9&#45;&gt;Node10 -->
<g id="edge10" class="edge">
<title>Node9&#45;&gt;Node10</title>
<path fill="none" stroke="midnightblue" d="M405.12,-29C395.13,-29 384.63,-29 375.12,-29"/>
<polygon fill="midnightblue" stroke="midnightblue" points="405.27,-32.5 415.27,-29 405.27,-25.5 405.27,-32.5"/>
</g>
<!-- Node10&#45;&gt;Node11 -->
<g id="edge11" class="edge">
<title>Node10&#45;&gt;Node11</title>
<path fill="none" stroke="midnightblue" d="M296.89,-20.64C284.84,-18.31 272.32,-15.88 262.28,-13.93"/>
<polygon fill="midnightblue" stroke="midnightblue" points="296.34,-24.1 306.82,-22.57 297.67,-17.23 296.34,-24.1"/>
</g>
<!-- Node11&#45;&gt;Node7 -->
<g id="edge12" class="edge">
<title>Node11&#45;&gt;Node7</title>
<path fill="none" stroke="midnightblue" d="M209.64,-14.01C185.09,-17.44 149.68,-22.79 119,-29 105.59,-31.71 90.98,-35.21 78.16,-38.46"/>
<polygon fill="midnightblue" stroke="midnightblue" points="210.35,-17.45 219.78,-12.62 209.4,-10.52 210.35,-17.45"/>
</g>
</g>
</svg>
