<?xml version="1.0" encoding="UTF-8" standalone="no"?>
<!DOCTYPE svg PUBLIC "-//W3C//DTD SVG 1.1//EN"
 "http://www.w3.org/Graphics/SVG/1.1/DTD/svg11.dtd">
<!-- Generated by graphviz version 3.0.0 (20220413.0106)
 -->
<!-- Title: kernel/src/buddy.c Pages: 1 -->
<svg width="277pt" height="308pt"
 viewBox="0.00 0.00 276.50 308.00" xmlns="http://www.w3.org/2000/svg" xmlns:xlink="http://www.w3.org/1999/xlink">
<g id="graph0" class="graph" transform="scale(1 1) rotate(0) translate(4 304)">
<title>kernel/src/buddy.c</title>
<!-- Node1 -->
<g id="node1" class="node">
<title>Node1</title>
<g id="a_node1"><a xlink:title="impl of buddy system">
<polygon fill="#bfbfbf" stroke="black" points="141,-280.5 141,-299.5 236,-299.5 236,-280.5 141,-280.5"/>
<text text-anchor="middle" x="188.5" y="-287.5" font-family="Helvetica,sans-Serif" font-size="10.00">kernel/src/buddy.c</text>
</a>
</g>
</g>
<!-- Node2 -->
<g id="node2" class="node">
<title>Node2</title>
<g id="a_node2"><a xlink:href="buddy_8h.html" target="_top" xlink:title=" ">
<polygon fill="none" stroke="black" points="163.5,-224.5 163.5,-243.5 213.5,-243.5 213.5,-224.5 163.5,-224.5"/>
<text text-anchor="middle" x="188.5" y="-231.5" font-family="Helvetica,sans-Serif" font-size="10.00">buddy.h</text>
</a>
</g>
</g>
<!-- Node1&#45;&gt;Node2 -->
<g id="edge1" class="edge">
<title>Node1&#45;&gt;Node2</title>
<path fill="none" stroke="midnightblue" d="M188.5,-280.08C188.5,-273.01 188.5,-262.86 188.5,-253.99"/>
<polygon fill="midnightblue" stroke="midnightblue" points="192,-253.75 188.5,-243.75 185,-253.75 192,-253.75"/>
</g>
<!-- Node3 -->
<g id="node3" class="node">
<title>Node3</title>
<g id="a_node3"><a xlink:href="common_8h.html" target="_top" xlink:title=" ">
<polygon fill="none" stroke="black" points="97.5,-168.5 97.5,-187.5 159.5,-187.5 159.5,-168.5 97.5,-168.5"/>
<text text-anchor="middle" x="128.5" y="-175.5" font-family="Helvetica,sans-Serif" font-size="10.00">common.h</text>
</a>
</g>
</g>
<!-- Node1&#45;&gt;Node3 -->
<g id="edge17" class="edge">
<title>Node1&#45;&gt;Node3</title>
<path fill="none" stroke="midnightblue" d="M180.71,-280.19C173.27,-271.46 162.1,-257.47 154.5,-244 146.02,-228.97 138.94,-210.61 134.33,-197.24"/>
<polygon fill="midnightblue" stroke="midnightblue" points="137.65,-196.13 131.17,-187.75 131,-198.34 137.65,-196.13"/>
</g>
<!-- Node14 -->
<g id="node14" class="node">
<title>Node14</title>
<g id="a_node14"><a xlink:href="logger_8h.html" target="_top" xlink:title=" ">
<polygon fill="none" stroke="black" points="218.5,-112.5 218.5,-131.5 268.5,-131.5 268.5,-112.5 218.5,-112.5"/>
<text text-anchor="middle" x="243.5" y="-119.5" font-family="Helvetica,sans-Serif" font-size="10.00">logger.h</text>
</a>
</g>
</g>
<!-- Node1&#45;&gt;Node14 -->
<g id="edge18" class="edge">
<title>Node1&#45;&gt;Node14</title>
<path fill="none" stroke="midnightblue" d="M197.23,-280.18C205.12,-271.66 216.42,-258.01 222.5,-244 237.3,-209.89 241.68,-166.11 242.97,-141.65"/>
<polygon fill="midnightblue" stroke="midnightblue" points="246.47,-141.74 243.38,-131.61 239.48,-141.46 246.47,-141.74"/>
</g>
<!-- Node2&#45;&gt;Node3 -->
<g id="edge2" class="edge">
<title>Node2&#45;&gt;Node3</title>
<path fill="none" stroke="midnightblue" d="M178.86,-224.32C169.99,-216.34 156.63,-204.31 145.89,-194.65"/>
<polygon fill="midnightblue" stroke="midnightblue" points="148.09,-191.92 138.32,-187.83 143.41,-197.13 148.09,-191.92"/>
</g>
<!-- Node13 -->
<g id="node13" class="node">
<title>Node13</title>
<g id="a_node13"><a xlink:href="list_8h.html" target="_top" xlink:title="double circular linked list impl without concurrency">
<polygon fill="none" stroke="black" points="178,-168.5 178,-187.5 215,-187.5 215,-168.5 178,-168.5"/>
<text text-anchor="middle" x="196.5" y="-175.5" font-family="Helvetica,sans-Serif" font-size="10.00">list.h</text>
</a>
</g>
</g>
<!-- Node2&#45;&gt;Node13 -->
<g id="edge14" class="edge">
<title>Node2&#45;&gt;Node13</title>
<path fill="none" stroke="midnightblue" d="M189.82,-224.08C190.88,-216.93 192.41,-206.64 193.73,-197.69"/>
<polygon fill="midnightblue" stroke="midnightblue" points="197.2,-198.16 195.2,-187.75 190.28,-197.13 197.2,-198.16"/>
</g>
<!-- Node4 -->
<g id="node4" class="node">
<title>Node4</title>
<g id="a_node4"><a xlink:href="kernel_8h.html" target="_top" xlink:title=" ">
<polygon fill="none" stroke="black" points="150.5,-112.5 150.5,-131.5 200.5,-131.5 200.5,-112.5 150.5,-112.5"/>
<text text-anchor="middle" x="175.5" y="-119.5" font-family="Helvetica,sans-Serif" font-size="10.00">kernel.h</text>
</a>
</g>
</g>
<!-- Node3&#45;&gt;Node4 -->
<g id="edge3" class="edge">
<title>Node3&#45;&gt;Node4</title>
<path fill="none" stroke="midnightblue" d="M136.26,-168.08C143.04,-160.3 153.04,-148.8 161.26,-139.37"/>
<polygon fill="midnightblue" stroke="midnightblue" points="163.96,-141.59 167.88,-131.75 158.68,-137 163.96,-141.59"/>
</g>
<!-- Node10 -->
<g id="node10" class="node">
<title>Node10</title>
<g id="a_node10"><a xlink:href="klib_8h.html" target="_top" xlink:title=" ">
<polygon fill="none" stroke="black" points="1,-112.5 1,-131.5 40,-131.5 40,-112.5 1,-112.5"/>
<text text-anchor="middle" x="20.5" y="-119.5" font-family="Helvetica,sans-Serif" font-size="10.00">klib.h</text>
</a>
</g>
</g>
<!-- Node3&#45;&gt;Node10 -->
<g id="edge9" class="edge">
<title>Node3&#45;&gt;Node10</title>
<path fill="none" stroke="midnightblue" d="M111.15,-168.32C93.83,-159.66 66.98,-146.24 47,-136.25"/>
<polygon fill="midnightblue" stroke="midnightblue" points="48.32,-133 37.81,-131.65 45.19,-139.26 48.32,-133"/>
</g>
<!-- Node12 -->
<g id="node12" class="node">
<title>Node12</title>
<g id="a_node12"><a xlink:href="klib-macros_8h.html" target="_top" xlink:title=" ">
<polygon fill="none" stroke="black" points="58.5,-112.5 58.5,-131.5 132.5,-131.5 132.5,-112.5 58.5,-112.5"/>
<text text-anchor="middle" x="95.5" y="-119.5" font-family="Helvetica,sans-Serif" font-size="10.00">klib&#45;macros.h</text>
</a>
</g>
</g>
<!-- Node3&#45;&gt;Node12 -->
<g id="edge13" class="edge">
<title>Node3&#45;&gt;Node12</title>
<path fill="none" stroke="midnightblue" d="M123.05,-168.08C118.49,-160.61 111.83,-149.72 106.21,-140.52"/>
<polygon fill="midnightblue" stroke="midnightblue" points="109.05,-138.46 100.85,-131.75 103.08,-142.11 109.05,-138.46"/>
</g>
<!-- Node5 -->
<g id="node5" class="node">
<title>Node5</title>
<g id="a_node5"><a xlink:href="am_8h.html" target="_top" xlink:title=" ">
<polygon fill="none" stroke="black" points="153.5,-56.5 153.5,-75.5 191.5,-75.5 191.5,-56.5 153.5,-56.5"/>
<text text-anchor="middle" x="172.5" y="-63.5" font-family="Helvetica,sans-Serif" font-size="10.00">am.h</text>
</a>
</g>
</g>
<!-- Node4&#45;&gt;Node5 -->
<g id="edge4" class="edge">
<title>Node4&#45;&gt;Node5</title>
<path fill="none" stroke="midnightblue" d="M175,-112.08C174.61,-105.01 174.05,-94.86 173.55,-85.99"/>
<polygon fill="midnightblue" stroke="midnightblue" points="177.04,-85.54 172.99,-75.75 170.05,-85.93 177.04,-85.54"/>
</g>
<!-- Node6 -->
<g id="node6" class="node">
<title>Node6</title>
<g id="a_node6"><a xlink:title=" ">
<polygon fill="none" stroke="#bfbfbf" points="217.5,-0.5 217.5,-19.5 265.5,-19.5 265.5,-0.5 217.5,-0.5"/>
<text text-anchor="middle" x="241.5" y="-7.5" font-family="Helvetica,sans-Serif" font-size="10.00">stdint.h</text>
</a>
</g>
</g>
<!-- Node5&#45;&gt;Node6 -->
<g id="edge5" class="edge">
<title>Node5&#45;&gt;Node6</title>
<path fill="none" stroke="midnightblue" d="M183.59,-56.32C193.99,-48.18 209.76,-35.84 222.22,-26.09"/>
<polygon fill="midnightblue" stroke="midnightblue" points="224.49,-28.75 230.21,-19.83 220.18,-23.24 224.49,-28.75"/>
</g>
<!-- Node7 -->
<g id="node7" class="node">
<title>Node7</title>
<g id="a_node7"><a xlink:title=" ">
<polygon fill="none" stroke="#bfbfbf" points="0,-0.5 0,-19.5 51,-19.5 51,-0.5 0,-0.5"/>
<text text-anchor="middle" x="25.5" y="-7.5" font-family="Helvetica,sans-Serif" font-size="10.00">stddef.h</text>
</a>
</g>
</g>
<!-- Node5&#45;&gt;Node7 -->
<g id="edge6" class="edge">
<title>Node5&#45;&gt;Node7</title>
<path fill="none" stroke="midnightblue" d="M153.28,-57.94C129.33,-49.14 88.02,-33.96 58.86,-23.25"/>
<polygon fill="midnightblue" stroke="midnightblue" points="59.69,-19.83 49.1,-19.67 57.28,-26.4 59.69,-19.83"/>
</g>
<!-- Node8 -->
<g id="node8" class="node">
<title>Node8</title>
<g id="a_node8"><a xlink:title=" ">
<polygon fill="none" stroke="#bfbfbf" points="71.5,-0.5 71.5,-19.5 127.5,-19.5 127.5,-0.5 71.5,-0.5"/>
<text text-anchor="middle" x="99.5" y="-7.5" font-family="Helvetica,sans-Serif" font-size="10.00">stdbool.h</text>
</a>
</g>
</g>
<!-- Node5&#45;&gt;Node8 -->
<g id="edge7" class="edge">
<title>Node5&#45;&gt;Node8</title>
<path fill="none" stroke="midnightblue" d="M160.77,-56.32C149.66,-48.11 132.76,-35.6 119.52,-25.81"/>
<polygon fill="midnightblue" stroke="midnightblue" points="121.56,-22.97 111.44,-19.83 117.4,-28.59 121.56,-22.97"/>
</g>
<!-- Node9 -->
<g id="node9" class="node">
<title>Node9</title>
<g id="a_node9"><a xlink:href="amdev_8h.html" target="_top" xlink:title=" ">
<polygon fill="none" stroke="black" points="146,-0.5 146,-19.5 199,-19.5 199,-0.5 146,-0.5"/>
<text text-anchor="middle" x="172.5" y="-7.5" font-family="Helvetica,sans-Serif" font-size="10.00">amdev.h</text>
</a>
</g>
</g>
<!-- Node5&#45;&gt;Node9 -->
<g id="edge8" class="edge">
<title>Node5&#45;&gt;Node9</title>
<path fill="none" stroke="midnightblue" d="M172.5,-56.08C172.5,-49.01 172.5,-38.86 172.5,-29.99"/>
<polygon fill="midnightblue" stroke="midnightblue" points="176,-29.75 172.5,-19.75 169,-29.75 176,-29.75"/>
</g>
<!-- Node10&#45;&gt;Node5 -->
<g id="edge10" class="edge">
<title>Node10&#45;&gt;Node5</title>
<path fill="none" stroke="midnightblue" d="M40.06,-114.05C66.43,-104.68 113.55,-87.94 143.9,-77.16"/>
<polygon fill="midnightblue" stroke="midnightblue" points="145.24,-80.4 153.49,-73.75 142.9,-73.8 145.24,-80.4"/>
</g>
<!-- Node10&#45;&gt;Node7 -->
<g id="edge11" class="edge">
<title>Node10&#45;&gt;Node7</title>
<path fill="none" stroke="midnightblue" d="M20.89,-112.37C21.7,-94.62 23.56,-53.67 24.65,-29.6"/>
<polygon fill="midnightblue" stroke="midnightblue" points="28.15,-29.74 25.11,-19.59 21.16,-29.42 28.15,-29.74"/>
</g>
<!-- Node11 -->
<g id="node11" class="node">
<title>Node11</title>
<g id="a_node11"><a xlink:title=" ">
<polygon fill="none" stroke="#bfbfbf" points="49,-56.5 49,-75.5 100,-75.5 100,-56.5 49,-56.5"/>
<text text-anchor="middle" x="74.5" y="-63.5" font-family="Helvetica,sans-Serif" font-size="10.00">stdarg.h</text>
</a>
</g>
</g>
<!-- Node10&#45;&gt;Node11 -->
<g id="edge12" class="edge">
<title>Node10&#45;&gt;Node11</title>
<path fill="none" stroke="midnightblue" d="M29.42,-112.08C37.28,-104.22 48.93,-92.57 58.42,-83.08"/>
<polygon fill="midnightblue" stroke="midnightblue" points="61.15,-85.3 65.75,-75.75 56.2,-80.35 61.15,-85.3"/>
</g>
<!-- Node13&#45;&gt;Node14 -->
<g id="edge15" class="edge">
<title>Node13&#45;&gt;Node14</title>
<path fill="none" stroke="midnightblue" d="M204.26,-168.08C211.04,-160.3 221.04,-148.8 229.26,-139.37"/>
<polygon fill="midnightblue" stroke="midnightblue" points="231.96,-141.59 235.88,-131.75 226.68,-137 231.96,-141.59"/>
</g>
<!-- Node14&#45;&gt;Node5 -->
<g id="edge16" class="edge">
<title>Node14&#45;&gt;Node5</title>
<path fill="none" stroke="midnightblue" d="M232.09,-112.32C221.39,-104.18 205.16,-91.84 192.34,-82.09"/>
<polygon fill="midnightblue" stroke="midnightblue" points="194.19,-79.1 184.11,-75.83 189.96,-84.67 194.19,-79.1"/>
</g>
</g>
</svg>
