<?xml version="1.0" encoding="UTF-8" standalone="no"?>
<!DOCTYPE svg PUBLIC "-//W3C//DTD SVG 1.1//EN"
 "http://www.w3.org/Graphics/SVG/1.1/DTD/svg11.dtd">
<!-- Generated by graphviz version 3.0.0 (20220413.0106)
 -->
<!-- Title: kernel/include/common.h Pages: 1 -->
<svg width="305pt" height="140pt"
 viewBox="0.00 0.00 304.50 140.00" xmlns="http://www.w3.org/2000/svg" xmlns:xlink="http://www.w3.org/1999/xlink">
<g id="graph0" class="graph" transform="scale(1 1) rotate(0) translate(4 136)">
<title>kernel/include/common.h</title>
<!-- Node1 -->
<g id="node1" class="node">
<title>Node1</title>
<g id="a_node1"><a xlink:title=" ">
<polygon fill="#bfbfbf" stroke="black" points="83,-112.5 83,-131.5 208,-131.5 208,-112.5 83,-112.5"/>
<text text-anchor="middle" x="145.5" y="-119.5" font-family="Helvetica,sans-Serif" font-size="10.00">kernel/include/common.h</text>
</a>
</g>
</g>
<!-- Node2 -->
<g id="node2" class="node">
<title>Node2</title>
<g id="a_node2"><a xlink:href="buddy_8h.html" target="_top" xlink:title=" ">
<polygon fill="none" stroke="black" points="47,-56.5 47,-75.5 160,-75.5 160,-56.5 47,-56.5"/>
<text text-anchor="middle" x="103.5" y="-63.5" font-family="Helvetica,sans-Serif" font-size="10.00">kernel/include/buddy.h</text>
</a>
</g>
</g>
<!-- Node1&#45;&gt;Node2 -->
<g id="edge1" class="edge">
<title>Node1&#45;&gt;Node2</title>
<path fill="none" stroke="midnightblue" d="M132.39,-104.14C125.07,-94.74 116.26,-83.4 110.31,-75.75"/>
<polygon fill="midnightblue" stroke="midnightblue" points="129.66,-106.34 138.56,-112.08 135.19,-102.04 129.66,-106.34"/>
</g>
<!-- Node3 -->
<g id="node3" class="node">
<title>Node3</title>
<g id="a_node3"><a xlink:href="buddy_8c.html" target="_top" xlink:title="impl of buddy system">
<polygon fill="none" stroke="black" points="0,-0.5 0,-19.5 95,-19.5 95,-0.5 0,-0.5"/>
<text text-anchor="middle" x="47.5" y="-7.5" font-family="Helvetica,sans-Serif" font-size="10.00">kernel/src/buddy.c</text>
</a>
</g>
</g>
<!-- Node1&#45;&gt;Node3 -->
<g id="edge4" class="edge">
<title>Node1&#45;&gt;Node3</title>
<path fill="none" stroke="midnightblue" d="M84.23,-109.21C66.13,-102.56 48.29,-92.19 37.5,-76 25.97,-58.71 35.89,-33.15 42.59,-19.82"/>
<polygon fill="midnightblue" stroke="midnightblue" points="83.38,-112.61 93.97,-112.44 85.58,-105.97 83.38,-112.61"/>
</g>
<!-- Node4 -->
<g id="node4" class="node">
<title>Node4</title>
<g id="a_node4"><a xlink:href="pmm_8c.html" target="_top" xlink:title=" ">
<polygon fill="none" stroke="black" points="127.5,-0.5 127.5,-19.5 219.5,-19.5 219.5,-0.5 127.5,-0.5"/>
<text text-anchor="middle" x="173.5" y="-7.5" font-family="Helvetica,sans-Serif" font-size="10.00">kernel/src/pmm.c</text>
</a>
</g>
</g>
<!-- Node1&#45;&gt;Node4 -->
<g id="edge6" class="edge">
<title>Node1&#45;&gt;Node4</title>
<path fill="none" stroke="midnightblue" d="M156.98,-103.7C161.73,-95.62 166.76,-85.68 169.5,-76 175.04,-56.42 174.77,-32.24 174.12,-19.61"/>
<polygon fill="midnightblue" stroke="midnightblue" points="154.01,-101.85 151.68,-112.18 159.95,-105.55 154.01,-101.85"/>
</g>
<!-- Node5 -->
<g id="node5" class="node">
<title>Node5</title>
<g id="a_node5"><a xlink:href="os_8c.html" target="_top" xlink:title=" ">
<polygon fill="none" stroke="black" points="216.5,-56.5 216.5,-75.5 296.5,-75.5 296.5,-56.5 216.5,-56.5"/>
<text text-anchor="middle" x="256.5" y="-63.5" font-family="Helvetica,sans-Serif" font-size="10.00">kernel/src/os.c</text>
</a>
</g>
</g>
<!-- Node1&#45;&gt;Node5 -->
<g id="edge5" class="edge">
<title>Node1&#45;&gt;Node5</title>
<path fill="none" stroke="midnightblue" d="M172.51,-107.86C193.09,-97.85 220.84,-84.35 238.71,-75.65"/>
<polygon fill="midnightblue" stroke="midnightblue" points="170.8,-104.8 163.33,-112.32 173.86,-111.1 170.8,-104.8"/>
</g>
<!-- Node2&#45;&gt;Node3 -->
<g id="edge2" class="edge">
<title>Node2&#45;&gt;Node3</title>
<path fill="none" stroke="midnightblue" d="M87.17,-49.25C77.24,-39.67 64.91,-27.79 56.66,-19.83"/>
<polygon fill="midnightblue" stroke="midnightblue" points="84.87,-51.9 94.5,-56.32 89.73,-46.86 84.87,-51.9"/>
</g>
<!-- Node2&#45;&gt;Node4 -->
<g id="edge3" class="edge">
<title>Node2&#45;&gt;Node4</title>
<path fill="none" stroke="midnightblue" d="M122.81,-50.1C135.41,-40.38 151.43,-28.03 162.05,-19.83"/>
<polygon fill="midnightblue" stroke="midnightblue" points="120.53,-47.44 114.75,-56.32 124.8,-52.99 120.53,-47.44"/>
</g>
</g>
</svg>
