<?xml version="1.0" encoding="UTF-8" standalone="no"?>
<!DOCTYPE svg PUBLIC "-//W3C//DTD SVG 1.1//EN"
 "http://www.w3.org/Graphics/SVG/1.1/DTD/svg11.dtd">
<!-- Generated by graphviz version 3.0.0 (20220413.0106)
 -->
<!-- Title: kernel/framework/kernel.h Pages: 1 -->
<svg width="362pt" height="196pt"
 viewBox="0.00 0.00 361.50 196.00" xmlns="http://www.w3.org/2000/svg" xmlns:xlink="http://www.w3.org/1999/xlink">
<g id="graph0" class="graph" transform="scale(1 1) rotate(0) translate(4 192)">
<title>kernel/framework/kernel.h</title>
<!-- Node1 -->
<g id="node1" class="node">
<title>Node1</title>
<g id="a_node1"><a xlink:title=" ">
<polygon fill="#bfbfbf" stroke="black" points="68.5,-168.5 68.5,-187.5 196.5,-187.5 196.5,-168.5 68.5,-168.5"/>
<text text-anchor="middle" x="132.5" y="-175.5" font-family="Helvetica,sans-Serif" font-size="10.00">kernel/framework/kernel.h</text>
</a>
</g>
</g>
<!-- Node2 -->
<g id="node2" class="node">
<title>Node2</title>
<g id="a_node2"><a xlink:href="main_8c.html" target="_top" xlink:title=" ">
<polygon fill="none" stroke="black" points="0,-112.5 0,-131.5 123,-131.5 123,-112.5 0,-112.5"/>
<text text-anchor="middle" x="61.5" y="-119.5" font-family="Helvetica,sans-Serif" font-size="10.00">kernel/framework/main.c</text>
</a>
</g>
</g>
<!-- Node1&#45;&gt;Node2 -->
<g id="edge1" class="edge">
<title>Node1&#45;&gt;Node2</title>
<path fill="none" stroke="midnightblue" d="M112.91,-162.1C100.13,-152.38 83.89,-140.03 73.11,-131.83"/>
<polygon fill="midnightblue" stroke="midnightblue" points="111.01,-165.06 121.09,-168.32 115.25,-159.48 111.01,-165.06"/>
</g>
<!-- Node3 -->
<g id="node3" class="node">
<title>Node3</title>
<g id="a_node3"><a xlink:href="common_8h.html" target="_top" xlink:title=" ">
<polygon fill="none" stroke="black" points="141,-112.5 141,-131.5 266,-131.5 266,-112.5 141,-112.5"/>
<text text-anchor="middle" x="203.5" y="-119.5" font-family="Helvetica,sans-Serif" font-size="10.00">kernel/include/common.h</text>
</a>
</g>
</g>
<!-- Node1&#45;&gt;Node3 -->
<g id="edge2" class="edge">
<title>Node1&#45;&gt;Node3</title>
<path fill="none" stroke="midnightblue" d="M152.09,-162.1C164.87,-152.38 181.11,-140.03 191.89,-131.83"/>
<polygon fill="midnightblue" stroke="midnightblue" points="149.75,-159.48 143.91,-168.32 153.99,-165.06 149.75,-159.48"/>
</g>
<!-- Node4 -->
<g id="node4" class="node">
<title>Node4</title>
<g id="a_node4"><a xlink:href="buddy_8h.html" target="_top" xlink:title=" ">
<polygon fill="none" stroke="black" points="104,-56.5 104,-75.5 217,-75.5 217,-56.5 104,-56.5"/>
<text text-anchor="middle" x="160.5" y="-63.5" font-family="Helvetica,sans-Serif" font-size="10.00">kernel/include/buddy.h</text>
</a>
</g>
</g>
<!-- Node3&#45;&gt;Node4 -->
<g id="edge3" class="edge">
<title>Node3&#45;&gt;Node4</title>
<path fill="none" stroke="midnightblue" d="M190.08,-104.14C182.59,-94.74 173.56,-83.4 167.47,-75.75"/>
<polygon fill="midnightblue" stroke="midnightblue" points="187.43,-106.44 196.4,-112.08 192.91,-102.08 187.43,-106.44"/>
</g>
<!-- Node5 -->
<g id="node5" class="node">
<title>Node5</title>
<g id="a_node5"><a xlink:href="buddy_8c.html" target="_top" xlink:title="impl of buddy system">
<polygon fill="none" stroke="black" points="57,-0.5 57,-19.5 152,-19.5 152,-0.5 57,-0.5"/>
<text text-anchor="middle" x="104.5" y="-7.5" font-family="Helvetica,sans-Serif" font-size="10.00">kernel/src/buddy.c</text>
</a>
</g>
</g>
<!-- Node3&#45;&gt;Node5 -->
<g id="edge6" class="edge">
<title>Node3&#45;&gt;Node5</title>
<path fill="none" stroke="midnightblue" d="M141.68,-109.34C123.41,-102.7 105.41,-92.3 94.5,-76 82.95,-58.73 92.87,-33.16 99.58,-19.82"/>
<polygon fill="midnightblue" stroke="midnightblue" points="140.63,-112.68 151.22,-112.48 142.82,-106.03 140.63,-112.68"/>
</g>
<!-- Node6 -->
<g id="node6" class="node">
<title>Node6</title>
<g id="a_node6"><a xlink:href="pmm_8c.html" target="_top" xlink:title=" ">
<polygon fill="none" stroke="black" points="184.5,-0.5 184.5,-19.5 276.5,-19.5 276.5,-0.5 184.5,-0.5"/>
<text text-anchor="middle" x="230.5" y="-7.5" font-family="Helvetica,sans-Serif" font-size="10.00">kernel/src/pmm.c</text>
</a>
</g>
</g>
<!-- Node3&#45;&gt;Node6 -->
<g id="edge8" class="edge">
<title>Node3&#45;&gt;Node6</title>
<path fill="none" stroke="midnightblue" d="M214.47,-103.68C219.03,-95.58 223.87,-85.63 226.5,-76 231.87,-56.37 231.67,-32.21 231.07,-19.59"/>
<polygon fill="midnightblue" stroke="midnightblue" points="211.34,-102.09 209.21,-112.47 217.35,-105.69 211.34,-102.09"/>
</g>
<!-- Node7 -->
<g id="node7" class="node">
<title>Node7</title>
<g id="a_node7"><a xlink:href="os_8c.html" target="_top" xlink:title=" ">
<polygon fill="none" stroke="black" points="273.5,-56.5 273.5,-75.5 353.5,-75.5 353.5,-56.5 273.5,-56.5"/>
<text text-anchor="middle" x="313.5" y="-63.5" font-family="Helvetica,sans-Serif" font-size="10.00">kernel/src/os.c</text>
</a>
</g>
</g>
<!-- Node3&#45;&gt;Node7 -->
<g id="edge7" class="edge">
<title>Node3&#45;&gt;Node7</title>
<path fill="none" stroke="midnightblue" d="M230.26,-107.86C250.66,-97.85 278.17,-84.35 295.87,-75.65"/>
<polygon fill="midnightblue" stroke="midnightblue" points="228.61,-104.78 221.17,-112.32 231.69,-111.06 228.61,-104.78"/>
</g>
<!-- Node4&#45;&gt;Node5 -->
<g id="edge4" class="edge">
<title>Node4&#45;&gt;Node5</title>
<path fill="none" stroke="midnightblue" d="M144.17,-49.25C134.24,-39.67 121.91,-27.79 113.66,-19.83"/>
<polygon fill="midnightblue" stroke="midnightblue" points="141.87,-51.9 151.5,-56.32 146.73,-46.86 141.87,-51.9"/>
</g>
<!-- Node4&#45;&gt;Node6 -->
<g id="edge5" class="edge">
<title>Node4&#45;&gt;Node6</title>
<path fill="none" stroke="midnightblue" d="M179.81,-50.1C192.41,-40.38 208.43,-28.03 219.05,-19.83"/>
<polygon fill="midnightblue" stroke="midnightblue" points="177.53,-47.44 171.75,-56.32 181.8,-52.99 177.53,-47.44"/>
</g>
</g>
</svg>
