<?xml version="1.0" encoding="UTF-8" standalone="no"?>
<!DOCTYPE svg PUBLIC "-//W3C//DTD SVG 1.1//EN"
 "http://www.w3.org/Graphics/SVG/1.1/DTD/svg11.dtd">
<!-- Generated by graphviz version 2.50.0 (20220203.2022)
 -->
<!-- Title: abstract&#45;machine/klib/include/klib&#45;macros.h Pages: 1 -->
<svg width="943pt" height="173pt"
 viewBox="0.00 0.00 943.00 173.00" xmlns="http://www.w3.org/2000/svg" xmlns:xlink="http://www.w3.org/1999/xlink">
<g id="graph0" class="graph" transform="scale(1 1) rotate(0) translate(4 169)">
<title>abstract&#45;machine/klib/include/klib&#45;macros.h</title>
<!-- Node1 -->
<g id="node1" class="node">
<title>Node1</title>
<g id="a_node1"><a xlink:title=" ">
<polygon fill="#bfbfbf" stroke="black" points="517.5,-134.5 517.5,-164.5 628.5,-164.5 628.5,-134.5 517.5,-134.5"/>
<text text-anchor="start" x="525.5" y="-152.5" font-family="Helvetica,sans-Serif" font-size="10.00">abstract&#45;machine/klib</text>
<text text-anchor="middle" x="573" y="-141.5" font-family="Helvetica,sans-Serif" font-size="10.00">/include/klib&#45;macros.h</text>
</a>
</g>
</g>
<!-- Node2 -->
<g id="node2" class="node">
<title>Node2</title>
<g id="a_node2"><a xlink:href="x86-qemu_8h.html" target="_top" xlink:title=" ">
<polygon fill="none" stroke="black" points="240.5,-67.5 240.5,-97.5 371.5,-97.5 371.5,-67.5 240.5,-67.5"/>
<text text-anchor="start" x="248.5" y="-85.5" font-family="Helvetica,sans-Serif" font-size="10.00">abstract&#45;machine/am</text>
<text text-anchor="middle" x="306" y="-74.5" font-family="Helvetica,sans-Serif" font-size="10.00">/src/x86/qemu/x86&#45;qemu.h</text>
</a>
</g>
</g>
<!-- Node1&#45;&gt;Node2 -->
<g id="edge1" class="edge">
<title>Node1&#45;&gt;Node2</title>
<path fill="none" stroke="midnightblue" d="M507.62,-132.58C463.64,-121.88 406.2,-107.89 363.88,-97.59"/>
<polygon fill="midnightblue" stroke="midnightblue" points="506.81,-135.99 517.35,-134.95 508.46,-129.19 506.81,-135.99"/>
</g>
<!-- Node8 -->
<g id="node8" class="node">
<title>Node8</title>
<g id="a_node8"><a xlink:href="stdio_8c.html" target="_top" xlink:title=" ">
<polygon fill="none" stroke="black" points="390,-67.5 390,-97.5 500,-97.5 500,-67.5 390,-67.5"/>
<text text-anchor="start" x="398" y="-85.5" font-family="Helvetica,sans-Serif" font-size="10.00">abstract&#45;machine/klib</text>
<text text-anchor="middle" x="445" y="-74.5" font-family="Helvetica,sans-Serif" font-size="10.00">/src/stdio.c</text>
</a>
</g>
</g>
<!-- Node1&#45;&gt;Node8 -->
<g id="edge7" class="edge">
<title>Node1&#45;&gt;Node8</title>
<path fill="none" stroke="midnightblue" d="M536.28,-129.85C516.04,-119.58 491.33,-107.03 472.72,-97.58"/>
<polygon fill="midnightblue" stroke="midnightblue" points="534.72,-132.99 545.23,-134.4 537.89,-126.75 534.72,-132.99"/>
</g>
<!-- Node9 -->
<g id="node9" class="node">
<title>Node9</title>
<g id="a_node9"><a xlink:href="stdlib_8c.html" target="_top" xlink:title=" ">
<polygon fill="none" stroke="black" points="518,-67.5 518,-97.5 628,-97.5 628,-67.5 518,-67.5"/>
<text text-anchor="start" x="526" y="-85.5" font-family="Helvetica,sans-Serif" font-size="10.00">abstract&#45;machine/klib</text>
<text text-anchor="middle" x="573" y="-74.5" font-family="Helvetica,sans-Serif" font-size="10.00">/src/stdlib.c</text>
</a>
</g>
</g>
<!-- Node1&#45;&gt;Node9 -->
<g id="edge8" class="edge">
<title>Node1&#45;&gt;Node9</title>
<path fill="none" stroke="midnightblue" d="M573,-124.11C573,-115.15 573,-105.32 573,-97.58"/>
<polygon fill="midnightblue" stroke="midnightblue" points="569.5,-124.4 573,-134.4 576.5,-124.4 569.5,-124.4"/>
</g>
<!-- Node10 -->
<g id="node10" class="node">
<title>Node10</title>
<g id="a_node10"><a xlink:href="string_8c.html" target="_top" xlink:title=" ">
<polygon fill="none" stroke="black" points="646,-67.5 646,-97.5 756,-97.5 756,-67.5 646,-67.5"/>
<text text-anchor="start" x="654" y="-85.5" font-family="Helvetica,sans-Serif" font-size="10.00">abstract&#45;machine/klib</text>
<text text-anchor="middle" x="701" y="-74.5" font-family="Helvetica,sans-Serif" font-size="10.00">/src/string.c</text>
</a>
</g>
</g>
<!-- Node1&#45;&gt;Node10 -->
<g id="edge9" class="edge">
<title>Node1&#45;&gt;Node10</title>
<path fill="none" stroke="midnightblue" d="M609.72,-129.85C629.96,-119.58 654.67,-107.03 673.28,-97.58"/>
<polygon fill="midnightblue" stroke="midnightblue" points="608.11,-126.75 600.77,-134.4 611.28,-132.99 608.11,-126.75"/>
</g>
<!-- Node11 -->
<g id="node11" class="node">
<title>Node11</title>
<g id="a_node11"><a xlink:href="common_8h.html" target="_top" xlink:title=" ">
<polygon fill="none" stroke="black" points="774.5,-73 774.5,-92 899.5,-92 899.5,-73 774.5,-73"/>
<text text-anchor="middle" x="837" y="-80" font-family="Helvetica,sans-Serif" font-size="10.00">kernel/include/common.h</text>
</a>
</g>
</g>
<!-- Node1&#45;&gt;Node11 -->
<g id="edge10" class="edge">
<title>Node1&#45;&gt;Node11</title>
<path fill="none" stroke="midnightblue" d="M638.46,-132.38C690.37,-119.6 760.87,-102.24 802.39,-92.02"/>
<polygon fill="midnightblue" stroke="midnightblue" points="637.54,-129.01 628.67,-134.79 639.21,-135.8 637.54,-129.01"/>
</g>
<!-- Node3 -->
<g id="node3" class="node">
<title>Node3</title>
<g id="a_node3"><a xlink:href="cte_8c.html" target="_top" xlink:title=" ">
<polygon fill="none" stroke="black" points="0,-0.5 0,-30.5 108,-30.5 108,-0.5 0,-0.5"/>
<text text-anchor="start" x="8" y="-18.5" font-family="Helvetica,sans-Serif" font-size="10.00">abstract&#45;machine/am</text>
<text text-anchor="middle" x="54" y="-7.5" font-family="Helvetica,sans-Serif" font-size="10.00">/src/x86/qemu/cte.c</text>
</a>
</g>
</g>
<!-- Node2&#45;&gt;Node3 -->
<g id="edge2" class="edge">
<title>Node2&#45;&gt;Node3</title>
<path fill="none" stroke="midnightblue" d="M241.94,-64.98C200.63,-54.32 147.5,-40.62 108.27,-30.5"/>
<polygon fill="midnightblue" stroke="midnightblue" points="241.07,-68.37 251.63,-67.48 242.82,-61.59 241.07,-68.37"/>
</g>
<!-- Node4 -->
<g id="node4" class="node">
<title>Node4</title>
<g id="a_node4"><a xlink:href="ioe_8c.html" target="_top" xlink:title=" ">
<polygon fill="none" stroke="black" points="126,-0.5 126,-30.5 234,-30.5 234,-0.5 126,-0.5"/>
<text text-anchor="start" x="134" y="-18.5" font-family="Helvetica,sans-Serif" font-size="10.00">abstract&#45;machine/am</text>
<text text-anchor="middle" x="180" y="-7.5" font-family="Helvetica,sans-Serif" font-size="10.00">/src/x86/qemu/ioe.c</text>
</a>
</g>
</g>
<!-- Node2&#45;&gt;Node4 -->
<g id="edge3" class="edge">
<title>Node2&#45;&gt;Node4</title>
<path fill="none" stroke="midnightblue" d="M269.58,-62.71C249.71,-52.46 225.52,-39.98 207.29,-30.58"/>
<polygon fill="midnightblue" stroke="midnightblue" points="268.17,-65.92 278.66,-67.4 271.38,-59.7 268.17,-65.92"/>
</g>
<!-- Node5 -->
<g id="node5" class="node">
<title>Node5</title>
<g id="a_node5"><a xlink:href="mpe_8c.html" target="_top" xlink:title=" ">
<polygon fill="none" stroke="black" points="252,-0.5 252,-30.5 360,-30.5 360,-0.5 252,-0.5"/>
<text text-anchor="start" x="260" y="-18.5" font-family="Helvetica,sans-Serif" font-size="10.00">abstract&#45;machine/am</text>
<text text-anchor="middle" x="306" y="-7.5" font-family="Helvetica,sans-Serif" font-size="10.00">/src/x86/qemu/mpe.c</text>
</a>
</g>
</g>
<!-- Node2&#45;&gt;Node5 -->
<g id="edge4" class="edge">
<title>Node2&#45;&gt;Node5</title>
<path fill="none" stroke="midnightblue" d="M306,-57.11C306,-48.15 306,-38.32 306,-30.58"/>
<polygon fill="midnightblue" stroke="midnightblue" points="302.5,-57.4 306,-67.4 309.5,-57.4 302.5,-57.4"/>
</g>
<!-- Node6 -->
<g id="node6" class="node">
<title>Node6</title>
<g id="a_node6"><a xlink:href="trm_8c.html" target="_top" xlink:title=" ">
<polygon fill="none" stroke="black" points="378,-0.5 378,-30.5 486,-30.5 486,-0.5 378,-0.5"/>
<text text-anchor="start" x="386" y="-18.5" font-family="Helvetica,sans-Serif" font-size="10.00">abstract&#45;machine/am</text>
<text text-anchor="middle" x="432" y="-7.5" font-family="Helvetica,sans-Serif" font-size="10.00">/src/x86/qemu/trm.c</text>
</a>
</g>
</g>
<!-- Node2&#45;&gt;Node6 -->
<g id="edge5" class="edge">
<title>Node2&#45;&gt;Node6</title>
<path fill="none" stroke="midnightblue" d="M342.42,-62.71C362.29,-52.46 386.48,-39.98 404.71,-30.58"/>
<polygon fill="midnightblue" stroke="midnightblue" points="340.62,-59.7 333.34,-67.4 343.83,-65.92 340.62,-59.7"/>
</g>
<!-- Node7 -->
<g id="node7" class="node">
<title>Node7</title>
<g id="a_node7"><a xlink:href="vme_8c.html" target="_top" xlink:title=" ">
<polygon fill="none" stroke="black" points="504,-0.5 504,-30.5 612,-30.5 612,-0.5 504,-0.5"/>
<text text-anchor="start" x="512" y="-18.5" font-family="Helvetica,sans-Serif" font-size="10.00">abstract&#45;machine/am</text>
<text text-anchor="middle" x="558" y="-7.5" font-family="Helvetica,sans-Serif" font-size="10.00">/src/x86/qemu/vme.c</text>
</a>
</g>
</g>
<!-- Node2&#45;&gt;Node7 -->
<g id="edge6" class="edge">
<title>Node2&#45;&gt;Node7</title>
<path fill="none" stroke="midnightblue" d="M370.06,-64.98C411.37,-54.32 464.5,-40.62 503.73,-30.5"/>
<polygon fill="midnightblue" stroke="midnightblue" points="369.18,-61.59 360.37,-67.48 370.93,-68.37 369.18,-61.59"/>
</g>
<!-- Node12 -->
<g id="node12" class="node">
<title>Node12</title>
<g id="a_node12"><a xlink:href="os_8c.html" target="_top" xlink:title=" ">
<polygon fill="none" stroke="black" points="745,-6 745,-25 825,-25 825,-6 745,-6"/>
<text text-anchor="middle" x="785" y="-13" font-family="Helvetica,sans-Serif" font-size="10.00">kernel/src/os.c</text>
</a>
</g>
</g>
<!-- Node11&#45;&gt;Node12 -->
<g id="edge11" class="edge">
<title>Node11&#45;&gt;Node12</title>
<path fill="none" stroke="midnightblue" d="M823.62,-64.77C813.48,-52.1 799.96,-35.2 791.9,-25.13"/>
<polygon fill="midnightblue" stroke="midnightblue" points="821.01,-67.11 829.99,-72.73 826.47,-62.74 821.01,-67.11"/>
</g>
<!-- Node13 -->
<g id="node13" class="node">
<title>Node13</title>
<g id="a_node13"><a xlink:href="pmm_8c.html" target="_top" xlink:title=" ">
<polygon fill="none" stroke="black" points="843,-6 843,-25 935,-25 935,-6 843,-6"/>
<text text-anchor="middle" x="889" y="-13" font-family="Helvetica,sans-Serif" font-size="10.00">kernel/src/pmm.c</text>
</a>
</g>
</g>
<!-- Node11&#45;&gt;Node13 -->
<g id="edge12" class="edge">
<title>Node11&#45;&gt;Node13</title>
<path fill="none" stroke="midnightblue" d="M850.38,-64.77C860.52,-52.1 874.04,-35.2 882.1,-25.13"/>
<polygon fill="midnightblue" stroke="midnightblue" points="847.53,-62.74 844.01,-72.73 852.99,-67.11 847.53,-62.74"/>
</g>
</g>
</svg>
