<?xml version="1.0" encoding="UTF-8" standalone="no"?>
<!DOCTYPE svg PUBLIC "-//W3C//DTD SVG 1.1//EN"
 "http://www.w3.org/Graphics/SVG/1.1/DTD/svg11.dtd">
<!-- Generated by graphviz version 3.0.0 (20220413.0106)
 -->
<!-- Title: abstract&#45;machine/klib/include/klib.h Pages: 1 -->
<svg width="1000pt" height="218pt"
 viewBox="0.00 0.00 1000.00 218.00" xmlns="http://www.w3.org/2000/svg" xmlns:xlink="http://www.w3.org/1999/xlink">
<g id="graph0" class="graph" transform="scale(1 1) rotate(0) translate(4 214)">
<title>abstract&#45;machine/klib/include/klib.h</title>
<!-- Node1 -->
<g id="node1" class="node">
<title>Node1</title>
<g id="a_node1"><a xlink:title=" ">
<polygon fill="#bfbfbf" stroke="black" points="382,-179.5 382,-209.5 492,-209.5 492,-179.5 382,-179.5"/>
<text text-anchor="start" x="390" y="-197.5" font-family="Helvetica,sans-Serif" font-size="10.00">abstract&#45;machine/klib</text>
<text text-anchor="middle" x="437" y="-186.5" font-family="Helvetica,sans-Serif" font-size="10.00">/include/klib.h</text>
</a>
</g>
</g>
<!-- Node2 -->
<g id="node2" class="node">
<title>Node2</title>
<g id="a_node2"><a xlink:href="ioe_8c.html" target="_top" xlink:title=" ">
<polygon fill="none" stroke="black" points="0,-112.5 0,-142.5 108,-142.5 108,-112.5 0,-112.5"/>
<text text-anchor="start" x="8" y="-130.5" font-family="Helvetica,sans-Serif" font-size="10.00">abstract&#45;machine/am</text>
<text text-anchor="middle" x="54" y="-119.5" font-family="Helvetica,sans-Serif" font-size="10.00">/src/x86/qemu/ioe.c</text>
</a>
</g>
</g>
<!-- Node1&#45;&gt;Node2 -->
<g id="edge1" class="edge">
<title>Node1&#45;&gt;Node2</title>
<path fill="none" stroke="midnightblue" d="M371.8,-184.57C306.97,-175.37 204.79,-160.01 117,-143 114.14,-142.44 111.2,-141.85 108.25,-141.24"/>
<polygon fill="midnightblue" stroke="midnightblue" points="371.48,-188.06 381.87,-185.99 372.46,-181.13 371.48,-188.06"/>
</g>
<!-- Node3 -->
<g id="node3" class="node">
<title>Node3</title>
<g id="a_node3"><a xlink:href="cpp_8c.html" target="_top" xlink:title=" ">
<polygon fill="none" stroke="black" points="126,-112.5 126,-142.5 236,-142.5 236,-112.5 126,-112.5"/>
<text text-anchor="start" x="134" y="-130.5" font-family="Helvetica,sans-Serif" font-size="10.00">abstract&#45;machine/klib</text>
<text text-anchor="middle" x="181" y="-119.5" font-family="Helvetica,sans-Serif" font-size="10.00">/src/cpp.c</text>
</a>
</g>
</g>
<!-- Node1&#45;&gt;Node3 -->
<g id="edge2" class="edge">
<title>Node1&#45;&gt;Node3</title>
<path fill="none" stroke="midnightblue" d="M371.92,-176.98C329.96,-166.32 275.98,-152.62 236.13,-142.5"/>
<polygon fill="midnightblue" stroke="midnightblue" points="371.21,-180.41 381.77,-179.48 372.94,-173.62 371.21,-180.41"/>
</g>
<!-- Node4 -->
<g id="node4" class="node">
<title>Node4</title>
<g id="a_node4"><a xlink:href="stdio_8c.html" target="_top" xlink:title=" ">
<polygon fill="none" stroke="black" points="254,-112.5 254,-142.5 364,-142.5 364,-112.5 254,-112.5"/>
<text text-anchor="start" x="262" y="-130.5" font-family="Helvetica,sans-Serif" font-size="10.00">abstract&#45;machine/klib</text>
<text text-anchor="middle" x="309" y="-119.5" font-family="Helvetica,sans-Serif" font-size="10.00">/src/stdio.c</text>
</a>
</g>
</g>
<!-- Node1&#45;&gt;Node4 -->
<g id="edge3" class="edge">
<title>Node1&#45;&gt;Node4</title>
<path fill="none" stroke="midnightblue" d="M400.28,-174.85C380.04,-164.58 355.33,-152.03 336.72,-142.58"/>
<polygon fill="midnightblue" stroke="midnightblue" points="398.72,-177.99 409.23,-179.4 401.89,-171.75 398.72,-177.99"/>
</g>
<!-- Node5 -->
<g id="node5" class="node">
<title>Node5</title>
<g id="a_node5"><a xlink:href="stdlib_8c.html" target="_top" xlink:title=" ">
<polygon fill="none" stroke="black" points="382,-112.5 382,-142.5 492,-142.5 492,-112.5 382,-112.5"/>
<text text-anchor="start" x="390" y="-130.5" font-family="Helvetica,sans-Serif" font-size="10.00">abstract&#45;machine/klib</text>
<text text-anchor="middle" x="437" y="-119.5" font-family="Helvetica,sans-Serif" font-size="10.00">/src/stdlib.c</text>
</a>
</g>
</g>
<!-- Node1&#45;&gt;Node5 -->
<g id="edge4" class="edge">
<title>Node1&#45;&gt;Node5</title>
<path fill="none" stroke="midnightblue" d="M437,-169.11C437,-160.15 437,-150.32 437,-142.58"/>
<polygon fill="midnightblue" stroke="midnightblue" points="433.5,-169.4 437,-179.4 440.5,-169.4 433.5,-169.4"/>
</g>
<!-- Node6 -->
<g id="node6" class="node">
<title>Node6</title>
<g id="a_node6"><a xlink:href="string_8c.html" target="_top" xlink:title=" ">
<polygon fill="none" stroke="black" points="510,-112.5 510,-142.5 620,-142.5 620,-112.5 510,-112.5"/>
<text text-anchor="start" x="518" y="-130.5" font-family="Helvetica,sans-Serif" font-size="10.00">abstract&#45;machine/klib</text>
<text text-anchor="middle" x="565" y="-119.5" font-family="Helvetica,sans-Serif" font-size="10.00">/src/string.c</text>
</a>
</g>
</g>
<!-- Node1&#45;&gt;Node6 -->
<g id="edge5" class="edge">
<title>Node1&#45;&gt;Node6</title>
<path fill="none" stroke="midnightblue" d="M473.72,-174.85C493.96,-164.58 518.67,-152.03 537.28,-142.58"/>
<polygon fill="midnightblue" stroke="midnightblue" points="472.11,-171.75 464.77,-179.4 475.28,-177.99 472.11,-171.75"/>
</g>
<!-- Node7 -->
<g id="node7" class="node">
<title>Node7</title>
<g id="a_node7"><a xlink:href="main_8c.html" target="_top" xlink:title=" ">
<polygon fill="none" stroke="black" points="638.5,-118 638.5,-137 761.5,-137 761.5,-118 638.5,-118"/>
<text text-anchor="middle" x="700" y="-125" font-family="Helvetica,sans-Serif" font-size="10.00">kernel/framework/main.c</text>
</a>
</g>
</g>
<!-- Node1&#45;&gt;Node7 -->
<g id="edge6" class="edge">
<title>Node1&#45;&gt;Node7</title>
<path fill="none" stroke="midnightblue" d="M501.89,-177.46C553.59,-164.68 623.97,-147.29 665.43,-137.04"/>
<polygon fill="midnightblue" stroke="midnightblue" points="501,-174.08 492.13,-179.87 502.68,-180.87 501,-174.08"/>
</g>
<!-- Node8 -->
<g id="node8" class="node">
<title>Node8</title>
<g id="a_node8"><a xlink:href="common_8h.html" target="_top" xlink:title=" ">
<polygon fill="none" stroke="black" points="779.5,-118 779.5,-137 904.5,-137 904.5,-118 779.5,-118"/>
<text text-anchor="middle" x="842" y="-125" font-family="Helvetica,sans-Serif" font-size="10.00">kernel/include/common.h</text>
</a>
</g>
</g>
<!-- Node1&#45;&gt;Node8 -->
<g id="edge7" class="edge">
<title>Node1&#45;&gt;Node8</title>
<path fill="none" stroke="midnightblue" d="M502.16,-184.66C569.6,-175.27 677.91,-159.53 771,-143 781.03,-141.22 791.83,-139.11 801.89,-137.07"/>
<polygon fill="midnightblue" stroke="midnightblue" points="501.53,-181.21 492.11,-186.05 502.49,-188.15 501.53,-181.21"/>
</g>
<!-- Node9 -->
<g id="node9" class="node">
<title>Node9</title>
<g id="a_node9"><a xlink:href="buddy_8h.html" target="_top" xlink:title=" ">
<polygon fill="none" stroke="black" points="742.5,-56.5 742.5,-75.5 855.5,-75.5 855.5,-56.5 742.5,-56.5"/>
<text text-anchor="middle" x="799" y="-63.5" font-family="Helvetica,sans-Serif" font-size="10.00">kernel/include/buddy.h</text>
</a>
</g>
</g>
<!-- Node8&#45;&gt;Node9 -->
<g id="edge8" class="edge">
<title>Node8&#45;&gt;Node9</title>
<path fill="none" stroke="midnightblue" d="M829.96,-109.84C821.89,-98.67 811.59,-84.43 805.15,-75.51"/>
<polygon fill="midnightblue" stroke="midnightblue" points="827.14,-111.92 835.84,-117.98 832.82,-107.82 827.14,-111.92"/>
</g>
<!-- Node10 -->
<g id="node10" class="node">
<title>Node10</title>
<g id="a_node10"><a xlink:href="buddy_8c.html" target="_top" xlink:title="impl of buddy system">
<polygon fill="none" stroke="black" points="695.5,-0.5 695.5,-19.5 790.5,-19.5 790.5,-0.5 695.5,-0.5"/>
<text text-anchor="middle" x="743" y="-7.5" font-family="Helvetica,sans-Serif" font-size="10.00">kernel/src/buddy.c</text>
</a>
</g>
</g>
<!-- Node8&#45;&gt;Node10 -->
<g id="edge11" class="edge">
<title>Node8&#45;&gt;Node10</title>
<path fill="none" stroke="midnightblue" d="M788.21,-114.85C767.26,-107.41 745.37,-95.36 733,-76 721.81,-58.49 731.59,-33.02 738.17,-19.76"/>
<polygon fill="midnightblue" stroke="midnightblue" points="787.13,-118.18 797.72,-117.96 789.3,-111.53 787.13,-118.18"/>
</g>
<!-- Node11 -->
<g id="node11" class="node">
<title>Node11</title>
<g id="a_node11"><a xlink:href="pmm_8c.html" target="_top" xlink:title=" ">
<polygon fill="none" stroke="black" points="823,-0.5 823,-19.5 915,-19.5 915,-0.5 823,-0.5"/>
<text text-anchor="middle" x="869" y="-7.5" font-family="Helvetica,sans-Serif" font-size="10.00">kernel/src/pmm.c</text>
</a>
</g>
</g>
<!-- Node8&#45;&gt;Node11 -->
<g id="edge13" class="edge">
<title>Node8&#45;&gt;Node11</title>
<path fill="none" stroke="midnightblue" d="M851.98,-108.83C856.81,-99.39 862.16,-87.4 865,-76 869.92,-56.25 869.9,-32.14 869.45,-19.56"/>
<polygon fill="midnightblue" stroke="midnightblue" points="848.75,-107.45 847.09,-117.92 854.91,-110.77 848.75,-107.45"/>
</g>
<!-- Node12 -->
<g id="node12" class="node">
<title>Node12</title>
<g id="a_node12"><a xlink:href="os_8c.html" target="_top" xlink:title=" ">
<polygon fill="none" stroke="black" points="912,-56.5 912,-75.5 992,-75.5 992,-56.5 912,-56.5"/>
<text text-anchor="middle" x="952" y="-63.5" font-family="Helvetica,sans-Serif" font-size="10.00">kernel/src/os.c</text>
</a>
</g>
</g>
<!-- Node8&#45;&gt;Node12 -->
<g id="edge12" class="edge">
<title>Node8&#45;&gt;Node12</title>
<path fill="none" stroke="midnightblue" d="M866.57,-113.21C887.87,-101.69 918.07,-85.36 936.27,-75.51"/>
<polygon fill="midnightblue" stroke="midnightblue" points="864.89,-110.14 857.76,-117.98 868.22,-116.3 864.89,-110.14"/>
</g>
<!-- Node9&#45;&gt;Node10 -->
<g id="edge9" class="edge">
<title>Node9&#45;&gt;Node10</title>
<path fill="none" stroke="midnightblue" d="M782.67,-49.25C772.74,-39.67 760.41,-27.79 752.16,-19.83"/>
<polygon fill="midnightblue" stroke="midnightblue" points="780.37,-51.9 790,-56.32 785.23,-46.86 780.37,-51.9"/>
</g>
<!-- Node9&#45;&gt;Node11 -->
<g id="edge10" class="edge">
<title>Node9&#45;&gt;Node11</title>
<path fill="none" stroke="midnightblue" d="M818.31,-50.1C830.91,-40.38 846.93,-28.03 857.55,-19.83"/>
<polygon fill="midnightblue" stroke="midnightblue" points="816.03,-47.44 810.25,-56.32 820.3,-52.99 816.03,-47.44"/>
</g>
</g>
</svg>
