<?xml version="1.0" encoding="UTF-8" standalone="no"?>
<!DOCTYPE svg PUBLIC "-//W3C//DTD SVG 1.1//EN"
 "http://www.w3.org/Graphics/SVG/1.1/DTD/svg11.dtd">
<!-- Generated by graphviz version 3.0.0 (20220413.0106)
 -->
<!-- Title: abstract&#45;machine/klib/include/klib&#45;macros.h Pages: 1 -->
<svg width="996pt" height="229pt"
 viewBox="0.00 0.00 996.00 229.00" xmlns="http://www.w3.org/2000/svg" xmlns:xlink="http://www.w3.org/1999/xlink">
<g id="graph0" class="graph" transform="scale(1 1) rotate(0) translate(4 225)">
<title>abstract&#45;machine/klib/include/klib&#45;macros.h</title>
<!-- Node1 -->
<g id="node1" class="node">
<title>Node1</title>
<g id="a_node1"><a xlink:title=" ">
<polygon fill="#bfbfbf" stroke="black" points="517.5,-190.5 517.5,-220.5 628.5,-220.5 628.5,-190.5 517.5,-190.5"/>
<text text-anchor="start" x="525.5" y="-208.5" font-family="Helvetica,sans-Serif" font-size="10.00">abstract&#45;machine/klib</text>
<text text-anchor="middle" x="573" y="-197.5" font-family="Helvetica,sans-Serif" font-size="10.00">/include/klib&#45;macros.h</text>
</a>
</g>
</g>
<!-- Node2 -->
<g id="node2" class="node">
<title>Node2</title>
<g id="a_node2"><a xlink:href="x86-qemu_8h.html" target="_top" xlink:title=" ">
<polygon fill="none" stroke="black" points="240.5,-123.5 240.5,-153.5 371.5,-153.5 371.5,-123.5 240.5,-123.5"/>
<text text-anchor="start" x="248.5" y="-141.5" font-family="Helvetica,sans-Serif" font-size="10.00">abstract&#45;machine/am</text>
<text text-anchor="middle" x="306" y="-130.5" font-family="Helvetica,sans-Serif" font-size="10.00">/src/x86/qemu/x86&#45;qemu.h</text>
</a>
</g>
</g>
<!-- Node1&#45;&gt;Node2 -->
<g id="edge1" class="edge">
<title>Node1&#45;&gt;Node2</title>
<path fill="none" stroke="midnightblue" d="M507.62,-188.58C463.64,-177.88 406.2,-163.89 363.88,-153.59"/>
<polygon fill="midnightblue" stroke="midnightblue" points="506.81,-191.99 517.35,-190.95 508.46,-185.19 506.81,-191.99"/>
</g>
<!-- Node8 -->
<g id="node8" class="node">
<title>Node8</title>
<g id="a_node8"><a xlink:href="stdio_8c.html" target="_top" xlink:title=" ">
<polygon fill="none" stroke="black" points="390,-123.5 390,-153.5 500,-153.5 500,-123.5 390,-123.5"/>
<text text-anchor="start" x="398" y="-141.5" font-family="Helvetica,sans-Serif" font-size="10.00">abstract&#45;machine/klib</text>
<text text-anchor="middle" x="445" y="-130.5" font-family="Helvetica,sans-Serif" font-size="10.00">/src/stdio.c</text>
</a>
</g>
</g>
<!-- Node1&#45;&gt;Node8 -->
<g id="edge7" class="edge">
<title>Node1&#45;&gt;Node8</title>
<path fill="none" stroke="midnightblue" d="M536.28,-185.85C516.04,-175.58 491.33,-163.03 472.72,-153.58"/>
<polygon fill="midnightblue" stroke="midnightblue" points="534.72,-188.99 545.23,-190.4 537.89,-182.75 534.72,-188.99"/>
</g>
<!-- Node9 -->
<g id="node9" class="node">
<title>Node9</title>
<g id="a_node9"><a xlink:href="stdlib_8c.html" target="_top" xlink:title=" ">
<polygon fill="none" stroke="black" points="518,-123.5 518,-153.5 628,-153.5 628,-123.5 518,-123.5"/>
<text text-anchor="start" x="526" y="-141.5" font-family="Helvetica,sans-Serif" font-size="10.00">abstract&#45;machine/klib</text>
<text text-anchor="middle" x="573" y="-130.5" font-family="Helvetica,sans-Serif" font-size="10.00">/src/stdlib.c</text>
</a>
</g>
</g>
<!-- Node1&#45;&gt;Node9 -->
<g id="edge8" class="edge">
<title>Node1&#45;&gt;Node9</title>
<path fill="none" stroke="midnightblue" d="M573,-180.11C573,-171.15 573,-161.32 573,-153.58"/>
<polygon fill="midnightblue" stroke="midnightblue" points="569.5,-180.4 573,-190.4 576.5,-180.4 569.5,-180.4"/>
</g>
<!-- Node10 -->
<g id="node10" class="node">
<title>Node10</title>
<g id="a_node10"><a xlink:href="string_8c.html" target="_top" xlink:title=" ">
<polygon fill="none" stroke="black" points="646,-123.5 646,-153.5 756,-153.5 756,-123.5 646,-123.5"/>
<text text-anchor="start" x="654" y="-141.5" font-family="Helvetica,sans-Serif" font-size="10.00">abstract&#45;machine/klib</text>
<text text-anchor="middle" x="701" y="-130.5" font-family="Helvetica,sans-Serif" font-size="10.00">/src/string.c</text>
</a>
</g>
</g>
<!-- Node1&#45;&gt;Node10 -->
<g id="edge9" class="edge">
<title>Node1&#45;&gt;Node10</title>
<path fill="none" stroke="midnightblue" d="M609.72,-185.85C629.96,-175.58 654.67,-163.03 673.28,-153.58"/>
<polygon fill="midnightblue" stroke="midnightblue" points="608.11,-182.75 600.77,-190.4 611.28,-188.99 608.11,-182.75"/>
</g>
<!-- Node11 -->
<g id="node11" class="node">
<title>Node11</title>
<g id="a_node11"><a xlink:href="common_8h.html" target="_top" xlink:title=" ">
<polygon fill="none" stroke="black" points="774.5,-129 774.5,-148 899.5,-148 899.5,-129 774.5,-129"/>
<text text-anchor="middle" x="837" y="-136" font-family="Helvetica,sans-Serif" font-size="10.00">kernel/include/common.h</text>
</a>
</g>
</g>
<!-- Node1&#45;&gt;Node11 -->
<g id="edge10" class="edge">
<title>Node1&#45;&gt;Node11</title>
<path fill="none" stroke="midnightblue" d="M638.46,-188.38C690.37,-175.6 760.87,-158.24 802.39,-148.02"/>
<polygon fill="midnightblue" stroke="midnightblue" points="637.54,-185.01 628.67,-190.79 639.21,-191.8 637.54,-185.01"/>
</g>
<!-- Node3 -->
<g id="node3" class="node">
<title>Node3</title>
<g id="a_node3"><a xlink:href="cte_8c.html" target="_top" xlink:title=" ">
<polygon fill="none" stroke="black" points="0,-56.5 0,-86.5 108,-86.5 108,-56.5 0,-56.5"/>
<text text-anchor="start" x="8" y="-74.5" font-family="Helvetica,sans-Serif" font-size="10.00">abstract&#45;machine/am</text>
<text text-anchor="middle" x="54" y="-63.5" font-family="Helvetica,sans-Serif" font-size="10.00">/src/x86/qemu/cte.c</text>
</a>
</g>
</g>
<!-- Node2&#45;&gt;Node3 -->
<g id="edge2" class="edge">
<title>Node2&#45;&gt;Node3</title>
<path fill="none" stroke="midnightblue" d="M241.94,-120.98C200.63,-110.32 147.5,-96.62 108.27,-86.5"/>
<polygon fill="midnightblue" stroke="midnightblue" points="241.07,-124.37 251.63,-123.48 242.82,-117.59 241.07,-124.37"/>
</g>
<!-- Node4 -->
<g id="node4" class="node">
<title>Node4</title>
<g id="a_node4"><a xlink:href="ioe_8c.html" target="_top" xlink:title=" ">
<polygon fill="none" stroke="black" points="126,-56.5 126,-86.5 234,-86.5 234,-56.5 126,-56.5"/>
<text text-anchor="start" x="134" y="-74.5" font-family="Helvetica,sans-Serif" font-size="10.00">abstract&#45;machine/am</text>
<text text-anchor="middle" x="180" y="-63.5" font-family="Helvetica,sans-Serif" font-size="10.00">/src/x86/qemu/ioe.c</text>
</a>
</g>
</g>
<!-- Node2&#45;&gt;Node4 -->
<g id="edge3" class="edge">
<title>Node2&#45;&gt;Node4</title>
<path fill="none" stroke="midnightblue" d="M269.58,-118.71C249.71,-108.46 225.52,-95.98 207.29,-86.58"/>
<polygon fill="midnightblue" stroke="midnightblue" points="268.17,-121.92 278.66,-123.4 271.38,-115.7 268.17,-121.92"/>
</g>
<!-- Node5 -->
<g id="node5" class="node">
<title>Node5</title>
<g id="a_node5"><a xlink:href="mpe_8c.html" target="_top" xlink:title=" ">
<polygon fill="none" stroke="black" points="252,-56.5 252,-86.5 360,-86.5 360,-56.5 252,-56.5"/>
<text text-anchor="start" x="260" y="-74.5" font-family="Helvetica,sans-Serif" font-size="10.00">abstract&#45;machine/am</text>
<text text-anchor="middle" x="306" y="-63.5" font-family="Helvetica,sans-Serif" font-size="10.00">/src/x86/qemu/mpe.c</text>
</a>
</g>
</g>
<!-- Node2&#45;&gt;Node5 -->
<g id="edge4" class="edge">
<title>Node2&#45;&gt;Node5</title>
<path fill="none" stroke="midnightblue" d="M306,-113.11C306,-104.15 306,-94.32 306,-86.58"/>
<polygon fill="midnightblue" stroke="midnightblue" points="302.5,-113.4 306,-123.4 309.5,-113.4 302.5,-113.4"/>
</g>
<!-- Node6 -->
<g id="node6" class="node">
<title>Node6</title>
<g id="a_node6"><a xlink:href="trm_8c.html" target="_top" xlink:title=" ">
<polygon fill="none" stroke="black" points="378,-56.5 378,-86.5 486,-86.5 486,-56.5 378,-56.5"/>
<text text-anchor="start" x="386" y="-74.5" font-family="Helvetica,sans-Serif" font-size="10.00">abstract&#45;machine/am</text>
<text text-anchor="middle" x="432" y="-63.5" font-family="Helvetica,sans-Serif" font-size="10.00">/src/x86/qemu/trm.c</text>
</a>
</g>
</g>
<!-- Node2&#45;&gt;Node6 -->
<g id="edge5" class="edge">
<title>Node2&#45;&gt;Node6</title>
<path fill="none" stroke="midnightblue" d="M342.42,-118.71C362.29,-108.46 386.48,-95.98 404.71,-86.58"/>
<polygon fill="midnightblue" stroke="midnightblue" points="340.62,-115.7 333.34,-123.4 343.83,-121.92 340.62,-115.7"/>
</g>
<!-- Node7 -->
<g id="node7" class="node">
<title>Node7</title>
<g id="a_node7"><a xlink:href="vme_8c.html" target="_top" xlink:title=" ">
<polygon fill="none" stroke="black" points="504,-56.5 504,-86.5 612,-86.5 612,-56.5 504,-56.5"/>
<text text-anchor="start" x="512" y="-74.5" font-family="Helvetica,sans-Serif" font-size="10.00">abstract&#45;machine/am</text>
<text text-anchor="middle" x="558" y="-63.5" font-family="Helvetica,sans-Serif" font-size="10.00">/src/x86/qemu/vme.c</text>
</a>
</g>
</g>
<!-- Node2&#45;&gt;Node7 -->
<g id="edge6" class="edge">
<title>Node2&#45;&gt;Node7</title>
<path fill="none" stroke="midnightblue" d="M370.06,-120.98C411.37,-110.32 464.5,-96.62 503.73,-86.5"/>
<polygon fill="midnightblue" stroke="midnightblue" points="369.18,-117.59 360.37,-123.48 370.93,-124.37 369.18,-117.59"/>
</g>
<!-- Node12 -->
<g id="node12" class="node">
<title>Node12</title>
<g id="a_node12"><a xlink:href="buddy_8h.html" target="_top" xlink:title=" ">
<polygon fill="none" stroke="black" points="738.5,-62 738.5,-81 851.5,-81 851.5,-62 738.5,-62"/>
<text text-anchor="middle" x="795" y="-69" font-family="Helvetica,sans-Serif" font-size="10.00">kernel/include/buddy.h</text>
</a>
</g>
</g>
<!-- Node11&#45;&gt;Node12 -->
<g id="edge11" class="edge">
<title>Node11&#45;&gt;Node12</title>
<path fill="none" stroke="midnightblue" d="M825.71,-120.03C817.58,-107.45 806.96,-91.01 800.57,-81.13"/>
<polygon fill="midnightblue" stroke="midnightblue" points="822.97,-122.23 831.34,-128.73 828.85,-118.44 822.97,-122.23"/>
</g>
<!-- Node13 -->
<g id="node13" class="node">
<title>Node13</title>
<g id="a_node13"><a xlink:href="buddy_8c.html" target="_top" xlink:title="impl of buddy system">
<polygon fill="none" stroke="black" points="691.5,-0.5 691.5,-19.5 786.5,-19.5 786.5,-0.5 691.5,-0.5"/>
<text text-anchor="middle" x="739" y="-7.5" font-family="Helvetica,sans-Serif" font-size="10.00">kernel/src/buddy.c</text>
</a>
</g>
</g>
<!-- Node11&#45;&gt;Node13 -->
<g id="edge14" class="edge">
<title>Node11&#45;&gt;Node13</title>
<path fill="none" stroke="midnightblue" d="M783.65,-125.72C762.91,-118.25 741.23,-106.22 729,-87 715.57,-65.89 727.26,-34.8 734.42,-19.77"/>
<polygon fill="midnightblue" stroke="midnightblue" points="782.8,-129.12 793.39,-128.93 784.99,-122.47 782.8,-129.12"/>
</g>
<!-- Node14 -->
<g id="node14" class="node">
<title>Node14</title>
<g id="a_node14"><a xlink:href="pmm_8c.html" target="_top" xlink:title=" ">
<polygon fill="none" stroke="black" points="819,-0.5 819,-19.5 911,-19.5 911,-0.5 819,-0.5"/>
<text text-anchor="middle" x="865" y="-7.5" font-family="Helvetica,sans-Serif" font-size="10.00">kernel/src/pmm.c</text>
</a>
</g>
</g>
<!-- Node11&#45;&gt;Node14 -->
<g id="edge16" class="edge">
<title>Node11&#45;&gt;Node14</title>
<path fill="none" stroke="midnightblue" d="M847.3,-120.19C852.39,-110.72 858.06,-98.59 861,-87 867.04,-63.18 866.41,-33.85 865.62,-19.6"/>
<polygon fill="midnightblue" stroke="midnightblue" points="844.22,-118.53 842.35,-128.96 850.32,-121.97 844.22,-118.53"/>
</g>
<!-- Node15 -->
<g id="node15" class="node">
<title>Node15</title>
<g id="a_node15"><a xlink:href="os_8c.html" target="_top" xlink:title=" ">
<polygon fill="none" stroke="black" points="908,-62 908,-81 988,-81 988,-62 908,-62"/>
<text text-anchor="middle" x="948" y="-69" font-family="Helvetica,sans-Serif" font-size="10.00">kernel/src/os.c</text>
</a>
</g>
</g>
<!-- Node11&#45;&gt;Node15 -->
<g id="edge15" class="edge">
<title>Node11&#45;&gt;Node15</title>
<path fill="none" stroke="midnightblue" d="M860.71,-123.62C882.7,-110.74 914.74,-91.98 933.27,-81.13"/>
<polygon fill="midnightblue" stroke="midnightblue" points="858.83,-120.66 851.97,-128.73 862.37,-126.7 858.83,-120.66"/>
</g>
<!-- Node12&#45;&gt;Node13 -->
<g id="edge12" class="edge">
<title>Node12&#45;&gt;Node13</title>
<path fill="none" stroke="midnightblue" d="M779.94,-54.5C769.34,-43.24 755.57,-28.6 747.01,-19.51"/>
<polygon fill="midnightblue" stroke="midnightblue" points="777.57,-57.09 786.98,-61.98 782.67,-52.29 777.57,-57.09"/>
</g>
<!-- Node12&#45;&gt;Node14 -->
<g id="edge13" class="edge">
<title>Node12&#45;&gt;Node14</title>
<path fill="none" stroke="midnightblue" d="M812.68,-55.47C826.07,-44.09 843.98,-28.87 854.99,-19.51"/>
<polygon fill="midnightblue" stroke="midnightblue" points="810.38,-52.83 805.03,-61.98 814.92,-58.17 810.38,-52.83"/>
</g>
</g>
</svg>
