<?xml version="1.0" encoding="UTF-8" standalone="no"?>
<!DOCTYPE svg PUBLIC "-//W3C//DTD SVG 1.1//EN"
 "http://www.w3.org/Graphics/SVG/1.1/DTD/svg11.dtd">
<!-- Generated by graphviz version 3.0.0 (20220413.0106)
 -->
<!-- Title: abstract&#45;machine/klib/include/klib&#45;macros.h Pages: 1 -->
<svg width="926pt" height="229pt"
 viewBox="0.00 0.00 926.00 229.00" xmlns="http://www.w3.org/2000/svg" xmlns:xlink="http://www.w3.org/1999/xlink">
<g id="graph0" class="graph" transform="scale(1 1) rotate(0) translate(4 225)">
<title>abstract&#45;machine/klib/include/klib&#45;macros.h</title>
<!-- Node1 -->
<g id="node1" class="node">
<title>Node1</title>
<g id="a_node1"><a xlink:title=" ">
<polygon fill="#bfbfbf" stroke="black" points="465.5,-190.5 465.5,-220.5 576.5,-220.5 576.5,-190.5 465.5,-190.5"/>
<text text-anchor="start" x="473.5" y="-208.5" font-family="Helvetica,sans-Serif" font-size="10.00">abstract&#45;machine/klib</text>
<text text-anchor="middle" x="521" y="-197.5" font-family="Helvetica,sans-Serif" font-size="10.00">/include/klib&#45;macros.h</text>
</a>
</g>
</g>
<!-- Node2 -->
<g id="node2" class="node">
<title>Node2</title>
<g id="a_node2"><a xlink:href="x86-qemu_8h.html" target="_top" xlink:title=" ">
<polygon fill="none" stroke="black" points="244.5,-123.5 244.5,-153.5 375.5,-153.5 375.5,-123.5 244.5,-123.5"/>
<text text-anchor="start" x="252.5" y="-141.5" font-family="Helvetica,sans-Serif" font-size="10.00">abstract&#45;machine/am</text>
<text text-anchor="middle" x="310" y="-130.5" font-family="Helvetica,sans-Serif" font-size="10.00">/src/x86/qemu/x86&#45;qemu.h</text>
</a>
</g>
</g>
<!-- Node1&#45;&gt;Node2 -->
<g id="edge1" class="edge">
<title>Node1&#45;&gt;Node2</title>
<path fill="none" stroke="midnightblue" d="M465.63,-187.44C431.43,-176.91 388.07,-163.55 355.81,-153.61"/>
<polygon fill="midnightblue" stroke="midnightblue" points="464.89,-190.88 475.48,-190.48 466.95,-184.19 464.89,-190.88"/>
</g>
<!-- Node8 -->
<g id="node8" class="node">
<title>Node8</title>
<g id="a_node8"><a xlink:href="stdio_8c.html" target="_top" xlink:title=" ">
<polygon fill="none" stroke="black" points="402,-123.5 402,-153.5 512,-153.5 512,-123.5 402,-123.5"/>
<text text-anchor="start" x="410" y="-141.5" font-family="Helvetica,sans-Serif" font-size="10.00">abstract&#45;machine/klib</text>
<text text-anchor="middle" x="457" y="-130.5" font-family="Helvetica,sans-Serif" font-size="10.00">/src/stdio.c</text>
</a>
</g>
</g>
<!-- Node1&#45;&gt;Node8 -->
<g id="edge7" class="edge">
<title>Node1&#45;&gt;Node8</title>
<path fill="none" stroke="midnightblue" d="M499.85,-183.02C490.32,-173.34 479.33,-162.17 470.86,-153.58"/>
<polygon fill="midnightblue" stroke="midnightblue" points="497.6,-185.73 507.11,-190.4 502.59,-180.81 497.6,-185.73"/>
</g>
<!-- Node9 -->
<g id="node9" class="node">
<title>Node9</title>
<g id="a_node9"><a xlink:href="stdlib_8c.html" target="_top" xlink:title=" ">
<polygon fill="none" stroke="black" points="530,-123.5 530,-153.5 640,-153.5 640,-123.5 530,-123.5"/>
<text text-anchor="start" x="538" y="-141.5" font-family="Helvetica,sans-Serif" font-size="10.00">abstract&#45;machine/klib</text>
<text text-anchor="middle" x="585" y="-130.5" font-family="Helvetica,sans-Serif" font-size="10.00">/src/stdlib.c</text>
</a>
</g>
</g>
<!-- Node1&#45;&gt;Node9 -->
<g id="edge8" class="edge">
<title>Node1&#45;&gt;Node9</title>
<path fill="none" stroke="midnightblue" d="M542.15,-183.02C551.68,-173.34 562.67,-162.17 571.14,-153.58"/>
<polygon fill="midnightblue" stroke="midnightblue" points="539.41,-180.81 534.89,-190.4 544.4,-185.73 539.41,-180.81"/>
</g>
<!-- Node10 -->
<g id="node10" class="node">
<title>Node10</title>
<g id="a_node10"><a xlink:href="common_8h.html" target="_top" xlink:title=" ">
<polygon fill="none" stroke="black" points="662.5,-129 662.5,-148 787.5,-148 787.5,-129 662.5,-129"/>
<text text-anchor="middle" x="725" y="-136" font-family="Helvetica,sans-Serif" font-size="10.00">kernel/include/common.h</text>
</a>
</g>
</g>
<!-- Node1&#45;&gt;Node10 -->
<g id="edge9" class="edge">
<title>Node1&#45;&gt;Node10</title>
<path fill="none" stroke="midnightblue" d="M574.57,-187.43C614.36,-174.75 666.94,-158 698.23,-148.03"/>
<polygon fill="midnightblue" stroke="midnightblue" points="573.48,-184.11 565.01,-190.48 575.6,-190.77 573.48,-184.11"/>
</g>
<!-- Node3 -->
<g id="node3" class="node">
<title>Node3</title>
<g id="a_node3"><a xlink:href="cte_8c.html" target="_top" xlink:title=" ">
<polygon fill="none" stroke="black" points="0,-56.5 0,-86.5 108,-86.5 108,-56.5 0,-56.5"/>
<text text-anchor="start" x="8" y="-74.5" font-family="Helvetica,sans-Serif" font-size="10.00">abstract&#45;machine/am</text>
<text text-anchor="middle" x="54" y="-63.5" font-family="Helvetica,sans-Serif" font-size="10.00">/src/x86/qemu/cte.c</text>
</a>
</g>
</g>
<!-- Node2&#45;&gt;Node3 -->
<g id="edge2" class="edge">
<title>Node2&#45;&gt;Node3</title>
<path fill="none" stroke="midnightblue" d="M244.85,-120.96C202.59,-110.23 148.16,-96.41 108.25,-86.28"/>
<polygon fill="midnightblue" stroke="midnightblue" points="244.21,-124.41 254.77,-123.48 245.94,-117.62 244.21,-124.41"/>
</g>
<!-- Node4 -->
<g id="node4" class="node">
<title>Node4</title>
<g id="a_node4"><a xlink:href="ioe_8c.html" target="_top" xlink:title=" ">
<polygon fill="none" stroke="black" points="126,-56.5 126,-86.5 234,-86.5 234,-56.5 126,-56.5"/>
<text text-anchor="start" x="134" y="-74.5" font-family="Helvetica,sans-Serif" font-size="10.00">abstract&#45;machine/am</text>
<text text-anchor="middle" x="180" y="-63.5" font-family="Helvetica,sans-Serif" font-size="10.00">/src/x86/qemu/ioe.c</text>
</a>
</g>
</g>
<!-- Node2&#45;&gt;Node4 -->
<g id="edge3" class="edge">
<title>Node2&#45;&gt;Node4</title>
<path fill="none" stroke="midnightblue" d="M272.71,-118.85C252.15,-108.58 227.05,-96.03 208.15,-86.58"/>
<polygon fill="midnightblue" stroke="midnightblue" points="271.28,-122.05 281.79,-123.4 274.41,-115.79 271.28,-122.05"/>
</g>
<!-- Node5 -->
<g id="node5" class="node">
<title>Node5</title>
<g id="a_node5"><a xlink:href="mpe_8c.html" target="_top" xlink:title=" ">
<polygon fill="none" stroke="black" points="252,-56.5 252,-86.5 360,-86.5 360,-56.5 252,-56.5"/>
<text text-anchor="start" x="260" y="-74.5" font-family="Helvetica,sans-Serif" font-size="10.00">abstract&#45;machine/am</text>
<text text-anchor="middle" x="306" y="-63.5" font-family="Helvetica,sans-Serif" font-size="10.00">/src/x86/qemu/mpe.c</text>
</a>
</g>
</g>
<!-- Node2&#45;&gt;Node5 -->
<g id="edge4" class="edge">
<title>Node2&#45;&gt;Node5</title>
<path fill="none" stroke="midnightblue" d="M308.52,-113.4C307.96,-104.37 307.35,-94.41 306.87,-86.58"/>
<polygon fill="midnightblue" stroke="midnightblue" points="305.02,-113.63 309.13,-123.4 312.01,-113.2 305.02,-113.63"/>
</g>
<!-- Node6 -->
<g id="node6" class="node">
<title>Node6</title>
<g id="a_node6"><a xlink:href="trm_8c.html" target="_top" xlink:title=" ">
<polygon fill="none" stroke="black" points="378,-56.5 378,-86.5 486,-86.5 486,-56.5 378,-56.5"/>
<text text-anchor="start" x="386" y="-74.5" font-family="Helvetica,sans-Serif" font-size="10.00">abstract&#45;machine/am</text>
<text text-anchor="middle" x="432" y="-63.5" font-family="Helvetica,sans-Serif" font-size="10.00">/src/x86/qemu/trm.c</text>
</a>
</g>
</g>
<!-- Node2&#45;&gt;Node6 -->
<g id="edge5" class="edge">
<title>Node2&#45;&gt;Node6</title>
<path fill="none" stroke="midnightblue" d="M345.52,-118.57C364.71,-108.35 388,-95.94 405.58,-86.58"/>
<polygon fill="midnightblue" stroke="midnightblue" points="343.65,-115.6 336.47,-123.4 346.94,-121.78 343.65,-115.6"/>
</g>
<!-- Node7 -->
<g id="node7" class="node">
<title>Node7</title>
<g id="a_node7"><a xlink:href="vme_8c.html" target="_top" xlink:title=" ">
<polygon fill="none" stroke="black" points="504,-56.5 504,-86.5 612,-86.5 612,-56.5 504,-56.5"/>
<text text-anchor="start" x="512" y="-74.5" font-family="Helvetica,sans-Serif" font-size="10.00">abstract&#45;machine/am</text>
<text text-anchor="middle" x="558" y="-63.5" font-family="Helvetica,sans-Serif" font-size="10.00">/src/x86/qemu/vme.c</text>
</a>
</g>
</g>
<!-- Node2&#45;&gt;Node7 -->
<g id="edge6" class="edge">
<title>Node2&#45;&gt;Node7</title>
<path fill="none" stroke="midnightblue" d="M373.27,-120.92C413.74,-110.31 465.67,-96.7 504.16,-86.61"/>
<polygon fill="midnightblue" stroke="midnightblue" points="372.29,-117.55 363.51,-123.48 374.07,-124.33 372.29,-117.55"/>
</g>
<!-- Node11 -->
<g id="node11" class="node">
<title>Node11</title>
<g id="a_node11"><a xlink:href="buddy_8h.html" target="_top" xlink:title=" ">
<polygon fill="none" stroke="black" points="668.5,-62 668.5,-81 781.5,-81 781.5,-62 668.5,-62"/>
<text text-anchor="middle" x="725" y="-69" font-family="Helvetica,sans-Serif" font-size="10.00">kernel/include/buddy.h</text>
</a>
</g>
</g>
<!-- Node10&#45;&gt;Node11 -->
<g id="edge10" class="edge">
<title>Node10&#45;&gt;Node11</title>
<path fill="none" stroke="midnightblue" d="M725,-118.54C725,-106.17 725,-90.62 725,-81.13"/>
<polygon fill="midnightblue" stroke="midnightblue" points="721.5,-118.73 725,-128.73 728.5,-118.73 721.5,-118.73"/>
</g>
<!-- Node12 -->
<g id="node12" class="node">
<title>Node12</title>
<g id="a_node12"><a xlink:href="buddy_8c.html" target="_top" xlink:title="impl of buddy system">
<polygon fill="none" stroke="black" points="621.5,-0.5 621.5,-19.5 716.5,-19.5 716.5,-0.5 621.5,-0.5"/>
<text text-anchor="middle" x="669" y="-7.5" font-family="Helvetica,sans-Serif" font-size="10.00">kernel/src/buddy.c</text>
</a>
</g>
</g>
<!-- Node10&#45;&gt;Node12 -->
<g id="edge13" class="edge">
<title>Node10&#45;&gt;Node12</title>
<path fill="none" stroke="midnightblue" d="M696.73,-123.83C682.62,-115.36 666.92,-103.02 659,-87 648.04,-64.81 658.28,-34.74 664.71,-19.96"/>
<polygon fill="midnightblue" stroke="midnightblue" points="695.23,-127.01 705.67,-128.84 698.65,-120.9 695.23,-127.01"/>
</g>
<!-- Node13 -->
<g id="node13" class="node">
<title>Node13</title>
<g id="a_node13"><a xlink:href="pmm_8c.html" target="_top" xlink:title=" ">
<polygon fill="none" stroke="black" points="749,-0.5 749,-19.5 841,-19.5 841,-0.5 749,-0.5"/>
<text text-anchor="middle" x="795" y="-7.5" font-family="Helvetica,sans-Serif" font-size="10.00">kernel/src/pmm.c</text>
</a>
</g>
</g>
<!-- Node10&#45;&gt;Node13 -->
<g id="edge15" class="edge">
<title>Node10&#45;&gt;Node13</title>
<path fill="none" stroke="midnightblue" d="M752.66,-123.83C766.74,-115.31 782.61,-102.91 791,-87 802.58,-65.03 799.31,-34.34 796.76,-19.59"/>
<polygon fill="midnightblue" stroke="midnightblue" points="750.74,-120.9 743.76,-128.87 754.19,-126.99 750.74,-120.9"/>
</g>
<!-- Node14 -->
<g id="node14" class="node">
<title>Node14</title>
<g id="a_node14"><a xlink:href="os_8c.html" target="_top" xlink:title=" ">
<polygon fill="none" stroke="black" points="838,-62 838,-81 918,-81 918,-62 838,-62"/>
<text text-anchor="middle" x="878" y="-69" font-family="Helvetica,sans-Serif" font-size="10.00">kernel/src/os.c</text>
</a>
</g>
</g>
<!-- Node10&#45;&gt;Node14 -->
<g id="edge14" class="edge">
<title>Node10&#45;&gt;Node14</title>
<path fill="none" stroke="midnightblue" d="M754.54,-124.95C784.84,-112.08 831.15,-92.4 857.6,-81.17"/>
<polygon fill="midnightblue" stroke="midnightblue" points="753.15,-121.74 745.32,-128.87 755.89,-128.18 753.15,-121.74"/>
</g>
<!-- Node11&#45;&gt;Node12 -->
<g id="edge11" class="edge">
<title>Node11&#45;&gt;Node12</title>
<path fill="none" stroke="midnightblue" d="M709.94,-54.5C699.34,-43.24 685.57,-28.6 677.01,-19.51"/>
<polygon fill="midnightblue" stroke="midnightblue" points="707.57,-57.09 716.98,-61.98 712.67,-52.29 707.57,-57.09"/>
</g>
<!-- Node11&#45;&gt;Node13 -->
<g id="edge12" class="edge">
<title>Node11&#45;&gt;Node13</title>
<path fill="none" stroke="midnightblue" d="M742.68,-55.47C756.07,-44.09 773.98,-28.87 784.99,-19.51"/>
<polygon fill="midnightblue" stroke="midnightblue" points="740.38,-52.83 735.03,-61.98 744.92,-58.17 740.38,-52.83"/>
</g>
</g>
</svg>
