<?xml version="1.0" encoding="UTF-8" standalone="no"?>
<!DOCTYPE svg PUBLIC "-//W3C//DTD SVG 1.1//EN"
 "http://www.w3.org/Graphics/SVG/1.1/DTD/svg11.dtd">
<!-- Generated by graphviz version 3.0.0 (20220413.0106)
 -->
<!-- Title: kmt_teardown Pages: 1 -->
<svg width="485pt" height="104pt"
 viewBox="0.00 0.00 485.00 104.00" xmlns="http://www.w3.org/2000/svg" xmlns:xlink="http://www.w3.org/1999/xlink">
<g id="graph0" class="graph" transform="scale(1 1) rotate(0) translate(4 100)">
<title>kmt_teardown</title>
<!-- Node1 -->
<g id="node1" class="node">
<title>Node1</title>
<g id="a_node1"><a xlink:title="tear down a thread">
<polygon fill="#bfbfbf" stroke="black" points="0,-57.5 0,-76.5 78,-76.5 78,-57.5 0,-57.5"/>
<text text-anchor="middle" x="39" y="-64.5" font-family="Helvetica,sans-Serif" font-size="10.00">kmt_teardown</text>
</a>
</g>
</g>
<!-- Node2 -->
<g id="node2" class="node">
<title>Node2</title>
<g id="a_node2"><a xlink:href="spinlock_8c.html#ad4be0d674a7ca4dc90c2dbf8b34562cc" target="_top" xlink:title="check current cpu has the lock">
<polygon fill="none" stroke="black" points="114,-57.5 114,-76.5 185,-76.5 185,-57.5 114,-57.5"/>
<text text-anchor="middle" x="149.5" y="-64.5" font-family="Helvetica,sans-Serif" font-size="10.00">spin_holding</text>
</a>
</g>
</g>
<!-- Node1&#45;&gt;Node2 -->
<g id="edge1" class="edge">
<title>Node1&#45;&gt;Node2</title>
<path fill="none" stroke="midnightblue" d="M78.25,-67C86.49,-67 95.28,-67 103.74,-67"/>
<polygon fill="midnightblue" stroke="midnightblue" points="103.85,-70.5 113.85,-67 103.85,-63.5 103.85,-70.5"/>
</g>
<!-- Node3 -->
<g id="node3" class="node">
<title>Node3</title>
<g id="a_node3"><a xlink:href="mpe_8c.html#ab701de78cad32896c923ce900087e714" target="_top" xlink:title=" ">
<polygon fill="none" stroke="black" points="328,-76.5 328,-95.5 396,-95.5 396,-76.5 328,-76.5"/>
<text text-anchor="middle" x="362" y="-83.5" font-family="Helvetica,sans-Serif" font-size="10.00">cpu_current</text>
</a>
</g>
</g>
<!-- Node2&#45;&gt;Node3 -->
<g id="edge2" class="edge">
<title>Node2&#45;&gt;Node3</title>
<path fill="none" stroke="midnightblue" d="M178.97,-76.5C191.67,-80.27 206.93,-84.14 221,-86 253.16,-90.26 289.83,-90.08 317.58,-88.93"/>
<polygon fill="midnightblue" stroke="midnightblue" points="317.92,-92.41 327.74,-88.45 317.59,-85.42 317.92,-92.41"/>
</g>
<!-- Node4 -->
<g id="node4" class="node">
<title>Node4</title>
<g id="a_node4"><a xlink:href="spinlock_8c.html#afc9565dc7a5ddf77e1fa76f5d91caf78" target="_top" xlink:title="interrupt able">
<polygon fill="none" stroke="black" points="224,-57.5 224,-76.5 289,-76.5 289,-57.5 224,-57.5"/>
<text text-anchor="middle" x="256.5" y="-64.5" font-family="Helvetica,sans-Serif" font-size="10.00">spin_popcli</text>
</a>
</g>
</g>
<!-- Node2&#45;&gt;Node4 -->
<g id="edge3" class="edge">
<title>Node2&#45;&gt;Node4</title>
<path fill="none" stroke="midnightblue" d="M185.17,-67C194.3,-67 204.24,-67 213.69,-67"/>
<polygon fill="midnightblue" stroke="midnightblue" points="213.7,-70.5 223.7,-67 213.7,-63.5 213.7,-70.5"/>
</g>
<!-- Node8 -->
<g id="node8" class="node">
<title>Node8</title>
<g id="a_node8"><a xlink:href="spinlock_8c.html#ab213874cda54fdbbeb1bec1e5fa90b28" target="_top" xlink:title="interrupt disable">
<polygon fill="none" stroke="black" points="221,-19.5 221,-38.5 292,-38.5 292,-19.5 221,-19.5"/>
<text text-anchor="middle" x="256.5" y="-26.5" font-family="Helvetica,sans-Serif" font-size="10.00">spin_pushcli</text>
</a>
</g>
</g>
<!-- Node2&#45;&gt;Node8 -->
<g id="edge8" class="edge">
<title>Node2&#45;&gt;Node8</title>
<path fill="none" stroke="midnightblue" d="M177,-57.41C189.8,-52.78 205.38,-47.14 219.26,-42.11"/>
<polygon fill="midnightblue" stroke="midnightblue" points="220.8,-45.28 229.01,-38.59 218.42,-38.7 220.8,-45.28"/>
</g>
<!-- Node4&#45;&gt;Node3 -->
<g id="edge4" class="edge">
<title>Node4&#45;&gt;Node3</title>
<path fill="none" stroke="midnightblue" d="M289.12,-72.8C298.2,-74.47 308.28,-76.32 317.93,-78.09"/>
<polygon fill="midnightblue" stroke="midnightblue" points="317.32,-81.54 327.78,-79.9 318.58,-74.65 317.32,-81.54"/>
</g>
<!-- Node5 -->
<g id="node5" class="node">
<title>Node5</title>
<g id="a_node5"><a xlink:href="cte_8c.html#a4a139958742786c5085172be1f69bfd0" target="_top" xlink:title=" ">
<polygon fill="none" stroke="black" points="346,-38.5 346,-57.5 378,-57.5 378,-38.5 346,-38.5"/>
<text text-anchor="middle" x="362" y="-45.5" font-family="Helvetica,sans-Serif" font-size="10.00">iset</text>
</a>
</g>
</g>
<!-- Node4&#45;&gt;Node5 -->
<g id="edge5" class="edge">
<title>Node4&#45;&gt;Node5</title>
<path fill="none" stroke="midnightblue" d="M289.12,-61.2C304.09,-58.45 321.72,-55.21 335.77,-52.63"/>
<polygon fill="midnightblue" stroke="midnightblue" points="336.52,-56.05 345.72,-50.8 335.25,-49.17 336.52,-56.05"/>
</g>
<!-- Node6 -->
<g id="node6" class="node">
<title>Node6</title>
<g id="a_node6"><a xlink:href="x86_8h.html#acc919e7809ef1db2b20aa3804f540b5c" target="_top" xlink:title=" ">
<polygon fill="none" stroke="black" points="440,-38.5 440,-57.5 469,-57.5 469,-38.5 440,-38.5"/>
<text text-anchor="middle" x="454.5" y="-45.5" font-family="Helvetica,sans-Serif" font-size="10.00">cli</text>
</a>
</g>
</g>
<!-- Node5&#45;&gt;Node6 -->
<g id="edge6" class="edge">
<title>Node5&#45;&gt;Node6</title>
<path fill="none" stroke="midnightblue" d="M378.35,-48C392.37,-48 413.3,-48 429.52,-48"/>
<polygon fill="midnightblue" stroke="midnightblue" points="429.85,-51.5 439.85,-48 429.85,-44.5 429.85,-51.5"/>
</g>
<!-- Node7 -->
<g id="node7" class="node">
<title>Node7</title>
<g id="a_node7"><a xlink:href="x86_8h.html#a4657e97b270d7af5a23da2c4d642ada2" target="_top" xlink:title=" ">
<polygon fill="none" stroke="black" points="440,-76.5 440,-95.5 469,-95.5 469,-76.5 440,-76.5"/>
<text text-anchor="middle" x="454.5" y="-83.5" font-family="Helvetica,sans-Serif" font-size="10.00">sti</text>
</a>
</g>
</g>
<!-- Node5&#45;&gt;Node7 -->
<g id="edge7" class="edge">
<title>Node5&#45;&gt;Node7</title>
<path fill="none" stroke="midnightblue" d="M378.35,-54.45C392.63,-60.44 414.11,-69.46 430.45,-76.32"/>
<polygon fill="midnightblue" stroke="midnightblue" points="429.28,-79.62 439.85,-80.27 431.99,-73.17 429.28,-79.62"/>
</g>
<!-- Node8&#45;&gt;Node3 -->
<g id="edge9" class="edge">
<title>Node8&#45;&gt;Node3</title>
<path fill="none" stroke="midnightblue" d="M275.06,-38.67C291.44,-47.69 316.09,-61.27 334.8,-71.57"/>
<polygon fill="midnightblue" stroke="midnightblue" points="333.25,-74.72 343.7,-76.47 336.63,-68.58 333.25,-74.72"/>
</g>
<!-- Node8&#45;&gt;Node5 -->
<g id="edge12" class="edge">
<title>Node8&#45;&gt;Node5</title>
<path fill="none" stroke="midnightblue" d="M292.25,-35.38C306.47,-37.99 322.62,-40.96 335.7,-43.35"/>
<polygon fill="midnightblue" stroke="midnightblue" points="335.37,-46.85 345.84,-45.22 336.64,-39.97 335.37,-46.85"/>
</g>
<!-- Node9 -->
<g id="node9" class="node">
<title>Node9</title>
<g id="a_node9"><a xlink:href="cte_8c.html#a79659a2b801c42951e38f3a8821acbae" target="_top" xlink:title=" ">
<polygon fill="none" stroke="black" points="335.5,-0.5 335.5,-19.5 388.5,-19.5 388.5,-0.5 335.5,-0.5"/>
<text text-anchor="middle" x="362" y="-7.5" font-family="Helvetica,sans-Serif" font-size="10.00">ienabled</text>
</a>
</g>
</g>
<!-- Node8&#45;&gt;Node9 -->
<g id="edge10" class="edge">
<title>Node8&#45;&gt;Node9</title>
<path fill="none" stroke="midnightblue" d="M292.25,-22.62C302.93,-20.66 314.7,-18.5 325.43,-16.53"/>
<polygon fill="midnightblue" stroke="midnightblue" points="326.14,-19.96 335.34,-14.71 324.87,-13.07 326.14,-19.96"/>
</g>
<!-- Node10 -->
<g id="node10" class="node">
<title>Node10</title>
<g id="a_node10"><a xlink:href="x86_8h.html#a73d094f09c6a7dd3fc703aa8229933ee" target="_top" xlink:title=" ">
<polygon fill="none" stroke="black" points="432,-0.5 432,-19.5 477,-19.5 477,-0.5 432,-0.5"/>
<text text-anchor="middle" x="454.5" y="-7.5" font-family="Helvetica,sans-Serif" font-size="10.00">get_efl</text>
</a>
</g>
</g>
<!-- Node9&#45;&gt;Node10 -->
<g id="edge11" class="edge">
<title>Node9&#45;&gt;Node10</title>
<path fill="none" stroke="midnightblue" d="M388.69,-10C398.88,-10 410.71,-10 421.45,-10"/>
<polygon fill="midnightblue" stroke="midnightblue" points="421.73,-13.5 431.73,-10 421.73,-6.5 421.73,-13.5"/>
</g>
</g>
</svg>
