<?xml version="1.0" encoding="UTF-8" standalone="no"?>
<!DOCTYPE svg PUBLIC "-//W3C//DTD SVG 1.1//EN"
 "http://www.w3.org/Graphics/SVG/1.1/DTD/svg11.dtd">
<!-- Generated by graphviz version 3.0.0 (20220413.0106)
 -->
<!-- Title: MODULE_DEF Pages: 1 -->
<svg width="876pt" height="560pt"
 viewBox="0.00 0.00 876.00 560.00" xmlns="http://www.w3.org/2000/svg" xmlns:xlink="http://www.w3.org/1999/xlink">
<g id="graph0" class="graph" transform="scale(1 1) rotate(0) translate(4 556)">
<title>MODULE_DEF</title>
<!-- Node1 -->
<g id="node1" class="node">
<title>Node1</title>
<g id="a_node1"><a xlink:title=" ">
<polygon fill="#bfbfbf" stroke="black" points="0,-190.5 0,-209.5 83,-209.5 83,-190.5 0,-190.5"/>
<text text-anchor="middle" x="41.5" y="-197.5" font-family="Helvetica,sans-Serif" font-size="10.00">MODULE_DEF</text>
</a>
</g>
</g>
<!-- Node2 -->
<g id="node2" class="node">
<title>Node2</title>
<g id="a_node2"><a xlink:href="kmt_8c.html#a5ddb8743298012e84cf9cb5faf22212b" target="_top" xlink:title="create thread">
<polygon fill="none" stroke="black" points="125.5,-399.5 125.5,-418.5 190.5,-418.5 190.5,-399.5 125.5,-399.5"/>
<text text-anchor="middle" x="158" y="-406.5" font-family="Helvetica,sans-Serif" font-size="10.00">kmt_create</text>
</a>
</g>
</g>
<!-- Node1&#45;&gt;Node2 -->
<g id="edge1" class="edge">
<title>Node1&#45;&gt;Node2</title>
<path fill="none" stroke="midnightblue" d="M46.93,-209.82C58.11,-234.32 88.68,-299.91 119,-352 126.76,-365.33 136.41,-379.78 144.04,-390.8"/>
<polygon fill="midnightblue" stroke="midnightblue" points="141.29,-392.97 149.9,-399.15 147.02,-388.95 141.29,-392.97"/>
</g>
<!-- Node15 -->
<g id="node15" class="node">
<title>Node15</title>
<g id="a_node15"><a xlink:href="spinlock_8c.html#ab6f3c37ec37006951feccc3c05387cce" target="_top" xlink:title="acquire spinlock to current cpu">
<polygon fill="none" stroke="black" points="252,-494.5 252,-513.5 310,-513.5 310,-494.5 252,-494.5"/>
<text text-anchor="middle" x="281" y="-501.5" font-family="Helvetica,sans-Serif" font-size="10.00">spin_lock</text>
</a>
</g>
</g>
<!-- Node1&#45;&gt;Node15 -->
<g id="edge63" class="edge">
<title>Node1&#45;&gt;Node15</title>
<path fill="none" stroke="midnightblue" d="M42.25,-209.63C41.84,-247.36 45.53,-386.6 119,-459 151.64,-491.17 205.28,-500.77 241.58,-503.41"/>
<polygon fill="midnightblue" stroke="midnightblue" points="241.6,-506.92 251.79,-504 242.01,-499.93 241.6,-506.92"/>
</g>
<!-- Node18 -->
<g id="node18" class="node">
<title>Node18</title>
<g id="a_node18"><a xlink:href="spinlock_8c.html#acdf118d615a4bc4064e991add9a80995" target="_top" xlink:title="release spinlock from current cpu">
<polygon fill="none" stroke="black" points="247,-456.5 247,-475.5 315,-475.5 315,-456.5 247,-456.5"/>
<text text-anchor="middle" x="281" y="-463.5" font-family="Helvetica,sans-Serif" font-size="10.00">spin_unlock</text>
</a>
</g>
</g>
<!-- Node1&#45;&gt;Node18 -->
<g id="edge64" class="edge">
<title>Node1&#45;&gt;Node18</title>
<path fill="none" stroke="midnightblue" d="M42.61,-209.53C43.56,-244.46 51.75,-366.67 119,-428 150.87,-457.06 200.75,-465.11 236.55,-466.79"/>
<polygon fill="midnightblue" stroke="midnightblue" points="236.6,-470.29 246.7,-467.11 236.82,-463.29 236.6,-470.29"/>
</g>
<!-- Node19 -->
<g id="node19" class="node">
<title>Node19</title>
<g id="a_node19"><a xlink:href="kmt_8c.html#a031a09141c265954f2b609183e573d1c" target="_top" xlink:title="get current cpu&#39;s tasks">
<polygon fill="none" stroke="black" points="380.5,-266.5 380.5,-285.5 456.5,-285.5 456.5,-266.5 380.5,-266.5"/>
<text text-anchor="middle" x="418.5" y="-273.5" font-family="Helvetica,sans-Serif" font-size="10.00">kmt_get_task</text>
</a>
</g>
</g>
<!-- Node1&#45;&gt;Node19 -->
<g id="edge26" class="edge">
<title>Node1&#45;&gt;Node19</title>
<path fill="none" stroke="midnightblue" d="M68.61,-209.52C104.95,-222.38 173.07,-245.06 233,-257 279.19,-266.2 332.82,-271.09 370.31,-273.59"/>
<polygon fill="midnightblue" stroke="midnightblue" points="370.24,-277.09 380.44,-274.24 370.68,-270.11 370.24,-277.09"/>
</g>
<!-- Node20 -->
<g id="node20" class="node">
<title>Node20</title>
<g id="a_node20"><a xlink:href="kmt_8c.html#a0c68a294cecc4be7cb4b495f15b883a0" target="_top" xlink:title="initialize kmt module">
<polygon fill="none" stroke="black" points="132.5,-190.5 132.5,-209.5 183.5,-209.5 183.5,-190.5 132.5,-190.5"/>
<text text-anchor="middle" x="158" y="-197.5" font-family="Helvetica,sans-Serif" font-size="10.00">kmt_init</text>
</a>
</g>
</g>
<!-- Node1&#45;&gt;Node20 -->
<g id="edge28" class="edge">
<title>Node1&#45;&gt;Node20</title>
<path fill="none" stroke="midnightblue" d="M83.19,-200C95.92,-200 109.84,-200 122.13,-200"/>
<polygon fill="midnightblue" stroke="midnightblue" points="122.44,-203.5 132.44,-200 122.44,-196.5 122.44,-203.5"/>
</g>
<!-- Node33 -->
<g id="node33" class="node">
<title>Node33</title>
<g id="a_node33"><a xlink:href="kmt_8c.html#a9ddca6d133a84154c98607bf0ee82c76" target="_top" xlink:title="set cpu&#39;s current task">
<polygon fill="none" stroke="black" points="380.5,-76.5 380.5,-95.5 456.5,-95.5 456.5,-76.5 380.5,-76.5"/>
<text text-anchor="middle" x="418.5" y="-83.5" font-family="Helvetica,sans-Serif" font-size="10.00">kmt_set_task</text>
</a>
</g>
</g>
<!-- Node1&#45;&gt;Node33 -->
<g id="edge56" class="edge">
<title>Node1&#45;&gt;Node33</title>
<path fill="none" stroke="midnightblue" d="M77.37,-190.48C117.19,-179.04 179.12,-159.35 197,-143 224.58,-117.77 201.42,-86.99 233,-67 280.58,-36.89 349.25,-56.78 387.99,-72.41"/>
<polygon fill="midnightblue" stroke="midnightblue" points="387.05,-75.81 397.63,-76.46 389.76,-69.36 387.05,-75.81"/>
</g>
<!-- Node36 -->
<g id="node36" class="node">
<title>Node36</title>
<g id="a_node36"><a xlink:href="kmt_8c.html#a47d8887c87041abd5ea3148232b65c93" target="_top" xlink:title="tear down a thread">
<polygon fill="none" stroke="black" points="119,-323.5 119,-342.5 197,-342.5 197,-323.5 119,-323.5"/>
<text text-anchor="middle" x="158" y="-330.5" font-family="Helvetica,sans-Serif" font-size="10.00">kmt_teardown</text>
</a>
</g>
</g>
<!-- Node1&#45;&gt;Node36 -->
<g id="edge57" class="edge">
<title>Node1&#45;&gt;Node36</title>
<path fill="none" stroke="midnightblue" d="M50.48,-209.51C64.33,-225.99 93.75,-260.87 119,-290 126.46,-298.6 134.83,-308.1 141.82,-315.97"/>
<polygon fill="midnightblue" stroke="midnightblue" points="139.23,-318.33 148.5,-323.48 144.47,-313.68 139.23,-318.33"/>
</g>
<!-- Node37 -->
<g id="node37" class="node">
<title>Node37</title>
<g id="a_node37"><a xlink:href="sem_8c.html#a07341aaf6201983d7c7b9ea1b69975f9" target="_top" xlink:title=" ">
<polygon fill="none" stroke="black" points="131.5,-114.5 131.5,-133.5 184.5,-133.5 184.5,-114.5 131.5,-114.5"/>
<text text-anchor="middle" x="158" y="-121.5" font-family="Helvetica,sans-Serif" font-size="10.00">sem_init</text>
</a>
</g>
</g>
<!-- Node1&#45;&gt;Node37 -->
<g id="edge59" class="edge">
<title>Node1&#45;&gt;Node37</title>
<path fill="none" stroke="midnightblue" d="M56.23,-190.47C71.46,-179.93 96.84,-162.52 119,-148 123.45,-145.08 128.23,-142.01 132.85,-139.08"/>
<polygon fill="midnightblue" stroke="midnightblue" points="134.8,-141.99 141.39,-133.69 131.07,-136.07 134.8,-141.99"/>
</g>
<!-- Node38 -->
<g id="node38" class="node">
<title>Node38</title>
<g id="a_node38"><a xlink:href="sem_8c.html#ad994e433f3a6bf8626272437cb54c114" target="_top" xlink:title=" ">
<polygon fill="none" stroke="black" points="125,-76.5 125,-95.5 191,-95.5 191,-76.5 125,-76.5"/>
<text text-anchor="middle" x="158" y="-83.5" font-family="Helvetica,sans-Serif" font-size="10.00">sem_signal</text>
</a>
</g>
</g>
<!-- Node1&#45;&gt;Node38 -->
<g id="edge60" class="edge">
<title>Node1&#45;&gt;Node38</title>
<path fill="none" stroke="midnightblue" d="M48.34,-190.23C59.86,-171.62 87.18,-130.64 119,-105 120.82,-103.53 122.77,-102.14 124.79,-100.82"/>
<polygon fill="midnightblue" stroke="midnightblue" points="127.02,-103.58 133.93,-95.55 123.52,-97.52 127.02,-103.58"/>
</g>
<!-- Node39 -->
<g id="node39" class="node">
<title>Node39</title>
<g id="a_node39"><a xlink:href="sem_8c.html#a85ca67864bb0af1966a5c2463bd16fe8" target="_top" xlink:title=" ">
<polygon fill="none" stroke="black" points="128.5,-38.5 128.5,-57.5 187.5,-57.5 187.5,-38.5 128.5,-38.5"/>
<text text-anchor="middle" x="158" y="-45.5" font-family="Helvetica,sans-Serif" font-size="10.00">sem_wait</text>
</a>
</g>
</g>
<!-- Node1&#45;&gt;Node39 -->
<g id="edge61" class="edge">
<title>Node1&#45;&gt;Node39</title>
<path fill="none" stroke="midnightblue" d="M45.79,-190.38C54.36,-166.6 79.47,-104.29 119,-67 120.45,-65.63 122.01,-64.34 123.66,-63.13"/>
<polygon fill="midnightblue" stroke="midnightblue" points="125.71,-65.97 132.31,-57.69 121.98,-60.05 125.71,-65.97"/>
</g>
<!-- Node40 -->
<g id="node40" class="node">
<title>Node40</title>
<g id="a_node40"><a xlink:href="spinlock_8c.html#ab80f529a7b9f49f09fc91a404731c869" target="_top" xlink:title="create spinlock">
<polygon fill="none" stroke="black" points="131.5,-0.5 131.5,-19.5 184.5,-19.5 184.5,-0.5 131.5,-0.5"/>
<text text-anchor="middle" x="158" y="-7.5" font-family="Helvetica,sans-Serif" font-size="10.00">spin_init</text>
</a>
</g>
</g>
<!-- Node1&#45;&gt;Node40 -->
<g id="edge62" class="edge">
<title>Node1&#45;&gt;Node40</title>
<path fill="none" stroke="midnightblue" d="M44.45,-190.2C50.54,-161.79 71.75,-78.32 119,-29 120.23,-27.72 121.56,-26.51 122.97,-25.37"/>
<polygon fill="midnightblue" stroke="midnightblue" points="125.24,-28.06 131.63,-19.61 121.36,-22.24 125.24,-28.06"/>
</g>
<!-- Node3 -->
<g id="node3" class="node">
<title>Node3</title>
<g id="a_node3"><a xlink:href="cte_8c.html#a90a17e3cfc268f5b8ed0a92ffda13a58" target="_top" xlink:title=" ">
<polygon fill="none" stroke="black" points="254.5,-418.5 254.5,-437.5 307.5,-437.5 307.5,-418.5 254.5,-418.5"/>
<text text-anchor="middle" x="281" y="-425.5" font-family="Helvetica,sans-Serif" font-size="10.00">kcontext</text>
</a>
</g>
</g>
<!-- Node2&#45;&gt;Node3 -->
<g id="edge2" class="edge">
<title>Node2&#45;&gt;Node3</title>
<path fill="none" stroke="midnightblue" d="M190.79,-413.99C207.14,-416.56 227.14,-419.7 244.05,-422.35"/>
<polygon fill="midnightblue" stroke="midnightblue" points="243.7,-425.84 254.12,-423.94 244.79,-418.93 243.7,-425.84"/>
</g>
<!-- Node5 -->
<g id="node5" class="node">
<title>Node5</title>
<g id="a_node5"><a xlink:href="string_8c.html#a7a8fd43b209c9ea19addab23a5f23995" target="_top" xlink:title=" ">
<polygon fill="none" stroke="black" points="255,-304.5 255,-323.5 307,-323.5 307,-304.5 255,-304.5"/>
<text text-anchor="middle" x="281" y="-311.5" font-family="Helvetica,sans-Serif" font-size="10.00">memset</text>
</a>
</g>
</g>
<!-- Node2&#45;&gt;Node5 -->
<g id="edge4" class="edge">
<title>Node2&#45;&gt;Node5</title>
<path fill="none" stroke="midnightblue" d="M171.49,-399.19C192.34,-382.82 234.42,-349.79 259.61,-330.01"/>
<polygon fill="midnightblue" stroke="midnightblue" points="262.05,-332.54 267.75,-323.61 257.73,-327.04 262.05,-332.54"/>
</g>
<!-- Node6 -->
<g id="node6" class="node">
<title>Node6</title>
<g id="a_node6"><a xlink:href="spinlock_8c.html#ad4be0d674a7ca4dc90c2dbf8b34562cc" target="_top" xlink:title="check current cpu has the lock">
<polygon fill="none" stroke="black" points="383,-342.5 383,-361.5 454,-361.5 454,-342.5 383,-342.5"/>
<text text-anchor="middle" x="418.5" y="-349.5" font-family="Helvetica,sans-Serif" font-size="10.00">spin_holding</text>
</a>
</g>
</g>
<!-- Node2&#45;&gt;Node6 -->
<g id="edge5" class="edge">
<title>Node2&#45;&gt;Node6</title>
<path fill="none" stroke="midnightblue" d="M190.7,-402.01C236.32,-391.95 320.73,-373.34 372.71,-361.88"/>
<polygon fill="midnightblue" stroke="midnightblue" points="373.64,-365.25 382.65,-359.68 372.14,-358.42 373.64,-365.25"/>
</g>
<!-- Node2&#45;&gt;Node15 -->
<g id="edge17" class="edge">
<title>Node2&#45;&gt;Node15</title>
<path fill="none" stroke="midnightblue" d="M166.19,-418.66C178.39,-434.44 204.57,-465.9 233,-485 235.94,-486.97 239.11,-488.8 242.38,-490.47"/>
<polygon fill="midnightblue" stroke="midnightblue" points="241.15,-493.75 251.7,-494.77 244.08,-487.4 241.15,-493.75"/>
</g>
<!-- Node2&#45;&gt;Node18 -->
<g id="edge23" class="edge">
<title>Node2&#45;&gt;Node18</title>
<path fill="none" stroke="midnightblue" d="M176.42,-418.51C191.28,-426.49 213.3,-437.98 233,-447 237.07,-448.86 241.38,-450.74 245.67,-452.54"/>
<polygon fill="midnightblue" stroke="midnightblue" points="244.36,-455.79 254.94,-456.36 247.03,-449.31 244.36,-455.79"/>
</g>
<!-- Node4 -->
<g id="node4" class="node">
<title>Node4</title>
<g id="a_node4"><a xlink:href="cte_8c.html#a8a4bbd700f2686cea6a3f2d756580237" target="_top" xlink:title=" ">
<polygon fill="none" stroke="black" points="365,-380.5 365,-399.5 472,-399.5 472,-380.5 365,-380.5"/>
<text text-anchor="middle" x="418.5" y="-387.5" font-family="Helvetica,sans-Serif" font-size="10.00">__am_kcontext_start</text>
</a>
</g>
</g>
<!-- Node3&#45;&gt;Node4 -->
<g id="edge3" class="edge">
<title>Node3&#45;&gt;Node4</title>
<path fill="none" stroke="midnightblue" d="M307.81,-420.76C326.45,-415.53 352.08,-408.35 373.88,-402.23"/>
<polygon fill="midnightblue" stroke="midnightblue" points="374.9,-405.58 383.59,-399.51 373.01,-398.84 374.9,-405.58"/>
</g>
<!-- Node7 -->
<g id="node7" class="node">
<title>Node7</title>
<g id="a_node7"><a xlink:href="mpe_8c.html#ab701de78cad32896c923ce900087e714" target="_top" xlink:title=" ">
<polygon fill="none" stroke="black" points="615,-285.5 615,-304.5 683,-304.5 683,-285.5 615,-285.5"/>
<text text-anchor="middle" x="649" y="-292.5" font-family="Helvetica,sans-Serif" font-size="10.00">cpu_current</text>
</a>
</g>
</g>
<!-- Node6&#45;&gt;Node7 -->
<g id="edge6" class="edge">
<title>Node6&#45;&gt;Node7</title>
<path fill="none" stroke="midnightblue" d="M454.2,-343.34C494.63,-333.26 561.43,-316.6 605.07,-305.71"/>
<polygon fill="midnightblue" stroke="midnightblue" points="605.97,-309.09 614.83,-303.27 604.28,-302.3 605.97,-309.09"/>
</g>
<!-- Node8 -->
<g id="node8" class="node">
<title>Node8</title>
<g id="a_node8"><a xlink:href="spinlock_8c.html#afc9565dc7a5ddf77e1fa76f5d91caf78" target="_top" xlink:title="interrupt able">
<polygon fill="none" stroke="black" points="511,-342.5 511,-361.5 576,-361.5 576,-342.5 511,-342.5"/>
<text text-anchor="middle" x="543.5" y="-349.5" font-family="Helvetica,sans-Serif" font-size="10.00">spin_popcli</text>
</a>
</g>
</g>
<!-- Node6&#45;&gt;Node8 -->
<g id="edge7" class="edge">
<title>Node6&#45;&gt;Node8</title>
<path fill="none" stroke="midnightblue" d="M454.09,-352C468.52,-352 485.42,-352 500.55,-352"/>
<polygon fill="midnightblue" stroke="midnightblue" points="500.7,-355.5 510.7,-352 500.7,-348.5 500.7,-355.5"/>
</g>
<!-- Node12 -->
<g id="node12" class="node">
<title>Node12</title>
<g id="a_node12"><a xlink:href="spinlock_8c.html#ab213874cda54fdbbeb1bec1e5fa90b28" target="_top" xlink:title="interrupt disable">
<polygon fill="none" stroke="black" points="508,-380.5 508,-399.5 579,-399.5 579,-380.5 508,-380.5"/>
<text text-anchor="middle" x="543.5" y="-387.5" font-family="Helvetica,sans-Serif" font-size="10.00">spin_pushcli</text>
</a>
</g>
</g>
<!-- Node6&#45;&gt;Node12 -->
<g id="edge12" class="edge">
<title>Node6&#45;&gt;Node12</title>
<path fill="none" stroke="midnightblue" d="M450.54,-361.59C465.98,-366.36 484.85,-372.19 501.47,-377.32"/>
<polygon fill="midnightblue" stroke="midnightblue" points="500.88,-380.81 511.47,-380.41 502.95,-374.12 500.88,-380.81"/>
</g>
<!-- Node8&#45;&gt;Node7 -->
<g id="edge8" class="edge">
<title>Node8&#45;&gt;Node7</title>
<path fill="none" stroke="midnightblue" d="M562.06,-342.33C578.44,-333.31 603.09,-319.73 621.8,-309.43"/>
<polygon fill="midnightblue" stroke="midnightblue" points="623.63,-312.42 630.7,-304.53 620.25,-306.28 623.63,-312.42"/>
</g>
<!-- Node9 -->
<g id="node9" class="node">
<title>Node9</title>
<g id="a_node9"><a xlink:href="cte_8c.html#a4a139958742786c5085172be1f69bfd0" target="_top" xlink:title=" ">
<polygon fill="none" stroke="black" points="633,-342.5 633,-361.5 665,-361.5 665,-342.5 633,-342.5"/>
<text text-anchor="middle" x="649" y="-349.5" font-family="Helvetica,sans-Serif" font-size="10.00">iset</text>
</a>
</g>
</g>
<!-- Node8&#45;&gt;Node9 -->
<g id="edge9" class="edge">
<title>Node8&#45;&gt;Node9</title>
<path fill="none" stroke="midnightblue" d="M576.12,-352C590.94,-352 608.37,-352 622.36,-352"/>
<polygon fill="midnightblue" stroke="midnightblue" points="622.72,-355.5 632.72,-352 622.72,-348.5 622.72,-355.5"/>
</g>
<!-- Node10 -->
<g id="node10" class="node">
<title>Node10</title>
<g id="a_node10"><a xlink:href="x86_8h.html#acc919e7809ef1db2b20aa3804f540b5c" target="_top" xlink:title=" ">
<polygon fill="none" stroke="black" points="731.5,-304.5 731.5,-323.5 760.5,-323.5 760.5,-304.5 731.5,-304.5"/>
<text text-anchor="middle" x="746" y="-311.5" font-family="Helvetica,sans-Serif" font-size="10.00">cli</text>
</a>
</g>
</g>
<!-- Node9&#45;&gt;Node10 -->
<g id="edge10" class="edge">
<title>Node9&#45;&gt;Node10</title>
<path fill="none" stroke="midnightblue" d="M665.26,-345.89C680.52,-339.79 704.18,-330.33 721.77,-323.29"/>
<polygon fill="midnightblue" stroke="midnightblue" points="723.33,-326.44 731.32,-319.47 720.73,-319.94 723.33,-326.44"/>
</g>
<!-- Node11 -->
<g id="node11" class="node">
<title>Node11</title>
<g id="a_node11"><a xlink:href="x86_8h.html#a4657e97b270d7af5a23da2c4d642ada2" target="_top" xlink:title=" ">
<polygon fill="none" stroke="black" points="731.5,-342.5 731.5,-361.5 760.5,-361.5 760.5,-342.5 731.5,-342.5"/>
<text text-anchor="middle" x="746" y="-349.5" font-family="Helvetica,sans-Serif" font-size="10.00">sti</text>
</a>
</g>
</g>
<!-- Node9&#45;&gt;Node11 -->
<g id="edge11" class="edge">
<title>Node9&#45;&gt;Node11</title>
<path fill="none" stroke="midnightblue" d="M665.26,-352C680.38,-352 703.74,-352 721.28,-352"/>
<polygon fill="midnightblue" stroke="midnightblue" points="721.32,-355.5 731.32,-352 721.32,-348.5 721.32,-355.5"/>
</g>
<!-- Node12&#45;&gt;Node7 -->
<g id="edge13" class="edge">
<title>Node12&#45;&gt;Node7</title>
<path fill="none" stroke="midnightblue" d="M564.55,-380.42C569.48,-377.67 574.6,-374.48 579,-371 585.05,-366.22 614.44,-333.18 632.86,-312.27"/>
<polygon fill="midnightblue" stroke="midnightblue" points="635.56,-314.5 639.54,-304.68 630.3,-309.88 635.56,-314.5"/>
</g>
<!-- Node12&#45;&gt;Node9 -->
<g id="edge16" class="edge">
<title>Node12&#45;&gt;Node9</title>
<path fill="none" stroke="midnightblue" d="M570.62,-380.41C586.73,-374.5 607.28,-366.95 623.15,-361.12"/>
<polygon fill="midnightblue" stroke="midnightblue" points="624.63,-364.31 632.81,-357.58 622.22,-357.74 624.63,-364.31"/>
</g>
<!-- Node13 -->
<g id="node13" class="node">
<title>Node13</title>
<g id="a_node13"><a xlink:href="cte_8c.html#a79659a2b801c42951e38f3a8821acbae" target="_top" xlink:title=" ">
<polygon fill="none" stroke="black" points="622.5,-380.5 622.5,-399.5 675.5,-399.5 675.5,-380.5 622.5,-380.5"/>
<text text-anchor="middle" x="649" y="-387.5" font-family="Helvetica,sans-Serif" font-size="10.00">ienabled</text>
</a>
</g>
</g>
<!-- Node12&#45;&gt;Node13 -->
<g id="edge14" class="edge">
<title>Node12&#45;&gt;Node13</title>
<path fill="none" stroke="midnightblue" d="M579.25,-390C589.82,-390 601.46,-390 612.1,-390"/>
<polygon fill="midnightblue" stroke="midnightblue" points="612.34,-393.5 622.34,-390 612.34,-386.5 612.34,-393.5"/>
</g>
<!-- Node14 -->
<g id="node14" class="node">
<title>Node14</title>
<g id="a_node14"><a xlink:href="x86_8h.html#a73d094f09c6a7dd3fc703aa8229933ee" target="_top" xlink:title=" ">
<polygon fill="none" stroke="black" points="723.5,-380.5 723.5,-399.5 768.5,-399.5 768.5,-380.5 723.5,-380.5"/>
<text text-anchor="middle" x="746" y="-387.5" font-family="Helvetica,sans-Serif" font-size="10.00">get_efl</text>
</a>
</g>
</g>
<!-- Node13&#45;&gt;Node14 -->
<g id="edge15" class="edge">
<title>Node13&#45;&gt;Node14</title>
<path fill="none" stroke="midnightblue" d="M675.96,-390C687.43,-390 701.03,-390 713.11,-390"/>
<polygon fill="midnightblue" stroke="midnightblue" points="713.25,-393.5 723.25,-390 713.25,-386.5 713.25,-393.5"/>
</g>
<!-- Node15&#45;&gt;Node6 -->
<g id="edge21" class="edge">
<title>Node15&#45;&gt;Node6</title>
<path fill="none" stroke="midnightblue" d="M310.34,-497.15C317.2,-494.34 323.98,-490.43 329,-485 365.07,-445.99 328.21,-409.34 365,-371 367.6,-368.29 370.62,-365.96 373.87,-363.97"/>
<polygon fill="midnightblue" stroke="midnightblue" points="375.53,-367.05 382.88,-359.42 372.38,-360.8 375.53,-367.05"/>
</g>
<!-- Node15&#45;&gt;Node7 -->
<g id="edge20" class="edge">
<title>Node15&#45;&gt;Node7</title>
<path fill="none" stroke="midnightblue" d="M310.26,-503.43C348.17,-501.88 417.09,-496.22 472,-476 524.65,-456.61 541.71,-450.93 579,-409 603.84,-381.07 594.56,-364.29 615,-333 619.67,-325.86 625.57,-318.64 631.09,-312.44"/>
<polygon fill="midnightblue" stroke="midnightblue" points="634.01,-314.43 638.23,-304.72 628.87,-309.68 634.01,-314.43"/>
</g>
<!-- Node15&#45;&gt;Node12 -->
<g id="edge22" class="edge">
<title>Node15&#45;&gt;Node12</title>
<path fill="none" stroke="midnightblue" d="M310.16,-497.81C348.26,-488.78 417.71,-469.95 472,-442 491.04,-432.2 510.46,-417.45 524.08,-406.16"/>
<polygon fill="midnightblue" stroke="midnightblue" points="526.39,-408.79 531.76,-399.66 521.87,-403.45 526.39,-408.79"/>
</g>
<!-- Node16 -->
<g id="node16" class="node">
<title>Node16</title>
<g id="a_node16"><a xlink:href="mpe_8c.html#aaaad47c97c82065cf463f83b98b23c30" target="_top" xlink:title=" ">
<polygon fill="none" stroke="black" points="383,-532.5 383,-551.5 454,-551.5 454,-532.5 383,-532.5"/>
<text text-anchor="middle" x="418.5" y="-539.5" font-family="Helvetica,sans-Serif" font-size="10.00">atomic_xchg</text>
</a>
</g>
</g>
<!-- Node15&#45;&gt;Node16 -->
<g id="edge18" class="edge">
<title>Node15&#45;&gt;Node16</title>
<path fill="none" stroke="midnightblue" d="M310.08,-511.87C328.33,-516.99 352.51,-523.78 373.31,-529.61"/>
<polygon fill="midnightblue" stroke="midnightblue" points="372.64,-533.05 383.21,-532.38 374.53,-526.31 372.64,-533.05"/>
</g>
<!-- Node17 -->
<g id="node17" class="node">
<title>Node17</title>
<g id="a_node17"><a xlink:href="x86_8h.html#a48b2a6a16dc8d7e09d327aa3803f1112" target="_top" xlink:title=" ">
<polygon fill="none" stroke="black" points="525,-532.5 525,-551.5 562,-551.5 562,-532.5 525,-532.5"/>
<text text-anchor="middle" x="543.5" y="-539.5" font-family="Helvetica,sans-Serif" font-size="10.00">xchg</text>
</a>
</g>
</g>
<!-- Node16&#45;&gt;Node17 -->
<g id="edge19" class="edge">
<title>Node16&#45;&gt;Node17</title>
<path fill="none" stroke="midnightblue" d="M454.09,-542C473.24,-542 496.74,-542 514.69,-542"/>
<polygon fill="midnightblue" stroke="midnightblue" points="514.81,-545.5 524.81,-542 514.81,-538.5 514.81,-545.5"/>
</g>
<!-- Node18&#45;&gt;Node6 -->
<g id="edge24" class="edge">
<title>Node18&#45;&gt;Node6</title>
<path fill="none" stroke="midnightblue" d="M314.74,-456.49C319.92,-453.99 324.9,-450.87 329,-447 356.19,-421.35 337.34,-396.14 365,-371 367.63,-368.61 370.57,-366.52 373.7,-364.69"/>
<polygon fill="midnightblue" stroke="midnightblue" points="375.43,-367.73 382.85,-360.17 372.34,-361.46 375.43,-367.73"/>
</g>
<!-- Node18&#45;&gt;Node8 -->
<g id="edge25" class="edge">
<title>Node18&#45;&gt;Node8</title>
<path fill="none" stroke="midnightblue" d="M314.79,-456.4C368.24,-440.71 468.56,-411.12 472,-409 491.81,-396.8 489.59,-385.23 508,-371 509.8,-369.61 511.72,-368.26 513.69,-366.96"/>
<polygon fill="midnightblue" stroke="midnightblue" points="515.74,-369.81 522.5,-361.65 512.13,-363.81 515.74,-369.81"/>
</g>
<!-- Node19&#45;&gt;Node7 -->
<g id="edge27" class="edge">
<title>Node19&#45;&gt;Node7</title>
<path fill="none" stroke="midnightblue" d="M456.72,-279.09C497.26,-282.47 562.02,-287.85 604.78,-291.41"/>
<polygon fill="midnightblue" stroke="midnightblue" points="604.62,-294.91 614.88,-292.25 605.2,-287.93 604.62,-294.91"/>
</g>
<!-- Node20&#45;&gt;Node5 -->
<g id="edge55" class="edge">
<title>Node20&#45;&gt;Node5</title>
<path fill="none" stroke="midnightblue" d="M169.32,-209.72C189.94,-229.15 236.49,-273.01 262.17,-297.2"/>
<polygon fill="midnightblue" stroke="midnightblue" points="260.03,-300 269.71,-304.31 264.83,-294.9 260.03,-300"/>
</g>
<!-- Node21 -->
<g id="node21" class="node">
<title>Node21</title>
<g id="a_node21"><a xlink:href="kmt_8c.html#af9c485ce0d89d6624e6e80e31d8ed207" target="_top" xlink:title="handler: save context to current task">
<polygon fill="none" stroke="black" points="233,-228.5 233,-247.5 329,-247.5 329,-228.5 233,-228.5"/>
<text text-anchor="middle" x="281" y="-235.5" font-family="Helvetica,sans-Serif" font-size="10.00">kmt_context_save</text>
</a>
</g>
</g>
<!-- Node20&#45;&gt;Node21 -->
<g id="edge29" class="edge">
<title>Node20&#45;&gt;Node21</title>
<path fill="none" stroke="midnightblue" d="M183.78,-207.78C199.95,-212.86 221.44,-219.61 240,-225.44"/>
<polygon fill="midnightblue" stroke="midnightblue" points="239.09,-228.82 249.68,-228.48 241.19,-222.14 239.09,-228.82"/>
</g>
<!-- Node22 -->
<g id="node22" class="node">
<title>Node22</title>
<g id="a_node22"><a xlink:href="kmt_8c.html#ad3fbc643b7b6092120c5152b4c890354" target="_top" xlink:title="handler: handle program errors">
<polygon fill="none" stroke="black" points="252,-190.5 252,-209.5 310,-209.5 310,-190.5 252,-190.5"/>
<text text-anchor="middle" x="281" y="-197.5" font-family="Helvetica,sans-Serif" font-size="10.00">kmt_error</text>
</a>
</g>
</g>
<!-- Node20&#45;&gt;Node22 -->
<g id="edge33" class="edge">
<title>Node20&#45;&gt;Node22</title>
<path fill="none" stroke="midnightblue" d="M183.78,-200C200.46,-200 222.79,-200 241.74,-200"/>
<polygon fill="midnightblue" stroke="midnightblue" points="241.87,-203.5 251.87,-200 241.87,-196.5 241.87,-203.5"/>
</g>
<!-- Node32 -->
<g id="node32" class="node">
<title>Node32</title>
<g id="a_node32"><a xlink:href="kmt_8c.html#ad4d70b4093829da1c0b0631abdff7747" target="_top" xlink:title="handler: schedule next task to run Notice: this should be the only handler which returns real Context">
<polygon fill="none" stroke="black" points="242.5,-152.5 242.5,-171.5 319.5,-171.5 319.5,-152.5 242.5,-152.5"/>
<text text-anchor="middle" x="281" y="-159.5" font-family="Helvetica,sans-Serif" font-size="10.00">kmt_schedule</text>
</a>
</g>
</g>
<!-- Node20&#45;&gt;Node32 -->
<g id="edge45" class="edge">
<title>Node20&#45;&gt;Node32</title>
<path fill="none" stroke="midnightblue" d="M183.78,-192.22C199.95,-187.14 221.44,-180.39 240,-174.56"/>
<polygon fill="midnightblue" stroke="midnightblue" points="241.19,-177.86 249.68,-171.52 239.09,-171.18 241.19,-177.86"/>
</g>
<!-- Node34 -->
<g id="node34" class="node">
<title>Node34</title>
<g id="a_node34"><a xlink:href="kmt_8c.html#a046a92c2d695ccdd1ad42210135ed597" target="_top" xlink:title="handler: triggered when aipc timer fired up">
<polygon fill="none" stroke="black" points="251,-114.5 251,-133.5 311,-133.5 311,-114.5 251,-114.5"/>
<text text-anchor="middle" x="281" y="-121.5" font-family="Helvetica,sans-Serif" font-size="10.00">kmt_timer</text>
</a>
</g>
</g>
<!-- Node20&#45;&gt;Node34 -->
<g id="edge53" class="edge">
<title>Node20&#45;&gt;Node34</title>
<path fill="none" stroke="midnightblue" d="M175.7,-190.34C182.5,-186.19 190.3,-181.12 197,-176 214.24,-162.82 214.65,-154.59 233,-143 235.92,-141.16 239.04,-139.44 242.24,-137.84"/>
<polygon fill="midnightblue" stroke="midnightblue" points="243.72,-141.01 251.36,-133.68 240.81,-134.65 243.72,-141.01"/>
</g>
<!-- Node35 -->
<g id="node35" class="node">
<title>Node35</title>
<g id="a_node35"><a xlink:href="kmt_8c.html#a75ea8dbba16d64a343a45962bd593930" target="_top" xlink:title="handler: handle yield interrupt (0x81)">
<polygon fill="none" stroke="black" points="252,-76.5 252,-95.5 310,-95.5 310,-76.5 252,-76.5"/>
<text text-anchor="middle" x="281" y="-83.5" font-family="Helvetica,sans-Serif" font-size="10.00">kmt_yield</text>
</a>
</g>
</g>
<!-- Node20&#45;&gt;Node35 -->
<g id="edge54" class="edge">
<title>Node20&#45;&gt;Node35</title>
<path fill="none" stroke="midnightblue" d="M178.68,-190.32C185.08,-186.5 191.85,-181.66 197,-176 220.81,-149.83 206.94,-128.93 233,-105 235.82,-102.41 239.05,-100.15 242.45,-98.18"/>
<polygon fill="midnightblue" stroke="midnightblue" points="244.3,-101.17 251.74,-93.64 241.22,-94.88 244.3,-101.17"/>
</g>
<!-- Node21&#45;&gt;Node6 -->
<g id="edge32" class="edge">
<title>Node21&#45;&gt;Node6</title>
<path fill="none" stroke="midnightblue" d="M293.55,-247.72C316.85,-267.32 369.69,-311.77 398.27,-335.82"/>
<polygon fill="midnightblue" stroke="midnightblue" points="396.07,-338.55 405.98,-342.31 400.58,-333.19 396.07,-338.55"/>
</g>
<!-- Node21&#45;&gt;Node7 -->
<g id="edge30" class="edge">
<title>Node21&#45;&gt;Node7</title>
<path fill="none" stroke="midnightblue" d="M329.02,-241.35C367.57,-244.41 423.5,-249.61 472,-257 520,-264.31 531.57,-268.63 579,-279 587.38,-280.83 596.31,-282.85 604.87,-284.82"/>
<polygon fill="midnightblue" stroke="midnightblue" points="604.17,-288.25 614.7,-287.1 605.74,-281.43 604.17,-288.25"/>
</g>
<!-- Node21&#45;&gt;Node19 -->
<g id="edge31" class="edge">
<title>Node21&#45;&gt;Node19</title>
<path fill="none" stroke="midnightblue" d="M316.19,-247.59C333.6,-252.47 354.97,-258.46 373.59,-263.68"/>
<polygon fill="midnightblue" stroke="midnightblue" points="372.74,-267.08 383.32,-266.41 374.64,-260.34 372.74,-267.08"/>
</g>
<!-- Node22&#45;&gt;Node6 -->
<g id="edge44" class="edge">
<title>Node22&#45;&gt;Node6</title>
<path fill="none" stroke="midnightblue" d="M310.35,-207.54C317.04,-210.32 323.75,-214.05 329,-219 356.19,-244.65 344.1,-264.01 365,-295 374.93,-309.72 388.57,-324.41 399.46,-335.19"/>
<polygon fill="midnightblue" stroke="midnightblue" points="397.19,-337.86 406.81,-342.29 402.05,-332.83 397.19,-337.86"/>
</g>
<!-- Node23 -->
<g id="node23" class="node">
<title>Node23</title>
<g id="a_node23"><a xlink:href="kmt_8c.html#a0ac321d3074b24b276695a080e835866" target="_top" xlink:title="print all tasks notice: do not garantee concurrency safety">
<polygon fill="none" stroke="black" points="368,-152.5 368,-171.5 469,-171.5 469,-152.5 368,-152.5"/>
<text text-anchor="middle" x="418.5" y="-159.5" font-family="Helvetica,sans-Serif" font-size="10.00">kmt_print_all_tasks</text>
</a>
</g>
</g>
<!-- Node22&#45;&gt;Node23 -->
<g id="edge34" class="edge">
<title>Node22&#45;&gt;Node23</title>
<path fill="none" stroke="midnightblue" d="M310.08,-192.13C328.33,-187.01 352.51,-180.22 373.31,-174.39"/>
<polygon fill="midnightblue" stroke="midnightblue" points="374.53,-177.69 383.21,-171.62 372.64,-170.95 374.53,-177.69"/>
</g>
<!-- Node30 -->
<g id="node30" class="node">
<title>Node30</title>
<g id="a_node30"><a xlink:href="kmt_8c.html#ac69761d0146d9aacda65da757868d3c7" target="_top" xlink:title="print all current_tasks notice: do not garantee concurrency safety">
<polygon fill="none" stroke="black" points="365,-190.5 365,-209.5 472,-209.5 472,-190.5 365,-190.5"/>
<text text-anchor="middle" x="418.5" y="-197.5" font-family="Helvetica,sans-Serif" font-size="10.00">kmt_print_cpu_tasks</text>
</a>
</g>
</g>
<!-- Node22&#45;&gt;Node30 -->
<g id="edge41" class="edge">
<title>Node22&#45;&gt;Node30</title>
<path fill="none" stroke="midnightblue" d="M310.08,-200C323.05,-200 339.02,-200 354.64,-200"/>
<polygon fill="midnightblue" stroke="midnightblue" points="354.82,-203.5 364.82,-200 354.82,-196.5 354.82,-203.5"/>
</g>
<!-- Node24 -->
<g id="node24" class="node">
<title>Node24</title>
<g id="a_node24"><a xlink:href="stdio_8c.html#a55f3d956bb2ba20b5059e9e25484a47f" target="_top" xlink:title=" ">
<polygon fill="none" stroke="black" points="524.5,-152.5 524.5,-171.5 562.5,-171.5 562.5,-152.5 524.5,-152.5"/>
<text text-anchor="middle" x="543.5" y="-159.5" font-family="Helvetica,sans-Serif" font-size="10.00">printf</text>
</a>
</g>
</g>
<!-- Node23&#45;&gt;Node24 -->
<g id="edge35" class="edge">
<title>Node23&#45;&gt;Node24</title>
<path fill="none" stroke="midnightblue" d="M469.17,-162C484.54,-162 500.92,-162 514.3,-162"/>
<polygon fill="midnightblue" stroke="midnightblue" points="514.3,-165.5 524.3,-162 514.3,-158.5 514.3,-165.5"/>
</g>
<!-- Node25 -->
<g id="node25" class="node">
<title>Node25</title>
<g id="a_node25"><a xlink:href="stdio_8c.html#a44a6734c6f8f81d8e1fa3b9d476c5134" target="_top" xlink:title="write bytes (including the terminating null byte (&#39;\0&#39;)) to out.">
<polygon fill="none" stroke="black" points="624.5,-152.5 624.5,-171.5 673.5,-171.5 673.5,-152.5 624.5,-152.5"/>
<text text-anchor="middle" x="649" y="-159.5" font-family="Helvetica,sans-Serif" font-size="10.00">vsprintf</text>
</a>
</g>
</g>
<!-- Node24&#45;&gt;Node25 -->
<g id="edge36" class="edge">
<title>Node24&#45;&gt;Node25</title>
<path fill="none" stroke="midnightblue" d="M562.53,-162C576.73,-162 596.92,-162 614.11,-162"/>
<polygon fill="midnightblue" stroke="midnightblue" points="614.35,-165.5 624.35,-162 614.35,-158.5 614.35,-165.5"/>
</g>
<!-- Node26 -->
<g id="node26" class="node">
<title>Node26</title>
<g id="a_node26"><a xlink:href="stdio_8c.html#abf852e417a205348767989f2940059ad" target="_top" xlink:title="write at most n bytes (including the terminating null byte (&#39;\0&#39;)) to out.">
<polygon fill="none" stroke="black" points="719,-152.5 719,-171.5 773,-171.5 773,-152.5 719,-152.5"/>
<text text-anchor="middle" x="746" y="-159.5" font-family="Helvetica,sans-Serif" font-size="10.00">vsnprintf</text>
</a>
</g>
</g>
<!-- Node25&#45;&gt;Node26 -->
<g id="edge37" class="edge">
<title>Node25&#45;&gt;Node26</title>
<path fill="none" stroke="midnightblue" d="M673.97,-162C684.41,-162 696.87,-162 708.43,-162"/>
<polygon fill="midnightblue" stroke="midnightblue" points="708.69,-165.5 718.69,-162 708.69,-158.5 708.69,-165.5"/>
</g>
<!-- Node27 -->
<g id="node27" class="node">
<title>Node27</title>
<g id="a_node27"><a xlink:href="stdio_8c.html#a0e2811092b514de48ac2dd675d6cf2b4" target="_top" xlink:title="print decimal into buffer,return length">
<polygon fill="none" stroke="black" points="809,-190.5 809,-209.5 868,-209.5 868,-190.5 809,-190.5"/>
<text text-anchor="middle" x="838.5" y="-197.5" font-family="Helvetica,sans-Serif" font-size="10.00">print_num</text>
</a>
</g>
</g>
<!-- Node26&#45;&gt;Node27 -->
<g id="edge38" class="edge">
<title>Node26&#45;&gt;Node27</title>
<path fill="none" stroke="midnightblue" d="M769.84,-171.59C780.56,-176.09 793.52,-181.53 805.22,-186.44"/>
<polygon fill="midnightblue" stroke="midnightblue" points="804.1,-189.77 814.67,-190.41 806.81,-183.32 804.1,-189.77"/>
</g>
<!-- Node28 -->
<g id="node28" class="node">
<title>Node28</title>
<g id="a_node28"><a xlink:href="string_8c.html#aa383452fe445bfae989358c9d7d96f4f" target="_top" xlink:title=" ">
<polygon fill="none" stroke="black" points="818,-152.5 818,-171.5 859,-171.5 859,-152.5 818,-152.5"/>
<text text-anchor="middle" x="838.5" y="-159.5" font-family="Helvetica,sans-Serif" font-size="10.00">strlen</text>
</a>
</g>
</g>
<!-- Node26&#45;&gt;Node28 -->
<g id="edge39" class="edge">
<title>Node26&#45;&gt;Node28</title>
<path fill="none" stroke="midnightblue" d="M773.18,-162C784.02,-162 796.64,-162 807.82,-162"/>
<polygon fill="midnightblue" stroke="midnightblue" points="808,-165.5 818,-162 808,-158.5 808,-165.5"/>
</g>
<!-- Node29 -->
<g id="node29" class="node">
<title>Node29</title>
<g id="a_node29"><a xlink:href="string_8c.html#a82f08f2390a9067f3c94b638e90e03bd" target="_top" xlink:title=" ">
<polygon fill="none" stroke="black" points="814.5,-114.5 814.5,-133.5 862.5,-133.5 862.5,-114.5 814.5,-114.5"/>
<text text-anchor="middle" x="838.5" y="-121.5" font-family="Helvetica,sans-Serif" font-size="10.00">strncpy</text>
</a>
</g>
</g>
<!-- Node26&#45;&gt;Node29 -->
<g id="edge40" class="edge">
<title>Node26&#45;&gt;Node29</title>
<path fill="none" stroke="midnightblue" d="M769.84,-152.41C780.56,-147.91 793.52,-142.47 805.22,-137.56"/>
<polygon fill="midnightblue" stroke="midnightblue" points="806.81,-140.68 814.67,-133.59 804.1,-134.23 806.81,-140.68"/>
</g>
<!-- Node30&#45;&gt;Node24 -->
<g id="edge43" class="edge">
<title>Node30&#45;&gt;Node24</title>
<path fill="none" stroke="midnightblue" d="M450.54,-190.41C470.32,-184.3 495.74,-176.45 514.84,-170.55"/>
<polygon fill="midnightblue" stroke="midnightblue" points="515.93,-173.87 524.45,-167.58 513.86,-167.18 515.93,-173.87"/>
</g>
<!-- Node31 -->
<g id="node31" class="node">
<title>Node31</title>
<g id="a_node31"><a xlink:href="mpe_8c.html#af486ec575d47720d28eee63644206110" target="_top" xlink:title=" ">
<polygon fill="none" stroke="black" points="512.5,-190.5 512.5,-209.5 574.5,-209.5 574.5,-190.5 512.5,-190.5"/>
<text text-anchor="middle" x="543.5" y="-197.5" font-family="Helvetica,sans-Serif" font-size="10.00">cpu_count</text>
</a>
</g>
</g>
<!-- Node30&#45;&gt;Node31 -->
<g id="edge42" class="edge">
<title>Node30&#45;&gt;Node31</title>
<path fill="none" stroke="midnightblue" d="M472.02,-200C482.09,-200 492.49,-200 502.1,-200"/>
<polygon fill="midnightblue" stroke="midnightblue" points="502.18,-203.5 512.18,-200 502.18,-196.5 502.18,-203.5"/>
</g>
<!-- Node32&#45;&gt;Node6 -->
<g id="edge52" class="edge">
<title>Node32&#45;&gt;Node6</title>
<path fill="none" stroke="midnightblue" d="M316.16,-171.54C320.93,-174.02 325.41,-177.12 329,-181 365.07,-220.01 338.36,-249.03 365,-295 373.79,-310.18 387.24,-324.68 398.33,-335.25"/>
<polygon fill="midnightblue" stroke="midnightblue" points="396.16,-338.01 405.88,-342.22 400.9,-332.87 396.16,-338.01"/>
</g>
<!-- Node32&#45;&gt;Node7 -->
<g id="edge46" class="edge">
<title>Node32&#45;&gt;Node7</title>
<path fill="none" stroke="midnightblue" d="M315.62,-152.49C330.61,-148.73 348.55,-144.86 365,-143 459.51,-132.32 499.05,-91.49 579,-143 624.96,-172.61 640.66,-241.14 645.73,-275.13"/>
<polygon fill="midnightblue" stroke="midnightblue" points="642.29,-275.78 647.07,-285.23 649.22,-274.86 642.29,-275.78"/>
</g>
<!-- Node32&#45;&gt;Node19 -->
<g id="edge47" class="edge">
<title>Node32&#45;&gt;Node19</title>
<path fill="none" stroke="midnightblue" d="M311.35,-171.56C317.44,-174.16 323.63,-177.31 329,-181 331.16,-182.48 376.79,-231.85 401.66,-258.81"/>
<polygon fill="midnightblue" stroke="midnightblue" points="399.29,-261.41 408.65,-266.39 404.44,-256.66 399.29,-261.41"/>
</g>
<!-- Node32&#45;&gt;Node23 -->
<g id="edge48" class="edge">
<title>Node32&#45;&gt;Node23</title>
<path fill="none" stroke="midnightblue" d="M319.74,-162C331.48,-162 344.73,-162 357.59,-162"/>
<polygon fill="midnightblue" stroke="midnightblue" points="357.79,-165.5 367.79,-162 357.79,-158.5 357.79,-165.5"/>
</g>
<!-- Node32&#45;&gt;Node30 -->
<g id="edge49" class="edge">
<title>Node32&#45;&gt;Node30</title>
<path fill="none" stroke="midnightblue" d="M316.19,-171.59C333.6,-176.47 354.97,-182.46 373.59,-187.68"/>
<polygon fill="midnightblue" stroke="midnightblue" points="372.74,-191.08 383.32,-190.41 374.64,-184.34 372.74,-191.08"/>
</g>
<!-- Node32&#45;&gt;Node33 -->
<g id="edge50" class="edge">
<title>Node32&#45;&gt;Node33</title>
<path fill="none" stroke="midnightblue" d="M310.64,-152.32C316.9,-149.7 323.34,-146.57 329,-143 347.35,-131.41 346.91,-121.99 365,-110 370.54,-106.33 376.73,-102.95 382.86,-99.96"/>
<polygon fill="midnightblue" stroke="midnightblue" points="384.73,-102.95 392.35,-95.59 381.8,-96.59 384.73,-102.95"/>
</g>
<!-- Node33&#45;&gt;Node7 -->
<g id="edge51" class="edge">
<title>Node33&#45;&gt;Node7</title>
<path fill="none" stroke="midnightblue" d="M456.62,-81.6C491.94,-79.52 544.64,-82.13 579,-110 592.46,-120.92 627.74,-230.13 641.95,-275.45"/>
<polygon fill="midnightblue" stroke="midnightblue" points="638.69,-276.76 645.01,-285.26 645.37,-274.68 638.69,-276.76"/>
</g>
<!-- Node36&#45;&gt;Node6 -->
<g id="edge58" class="edge">
<title>Node36&#45;&gt;Node6</title>
<path fill="none" stroke="midnightblue" d="M197.14,-335.8C243.95,-339.24 323.2,-345.07 372.81,-348.72"/>
<polygon fill="midnightblue" stroke="midnightblue" points="372.7,-352.22 382.93,-349.46 373.21,-345.24 372.7,-352.22"/>
</g>
</g>
</svg>
