<?xml version="1.0" encoding="UTF-8" standalone="no"?>
<!DOCTYPE svg PUBLIC "-//W3C//DTD SVG 1.1//EN"
 "http://www.w3.org/Graphics/SVG/1.1/DTD/svg11.dtd">
<!-- Generated by graphviz version 3.0.0 (20220413.0106)
 -->
<!-- Title: __list_del Pages: 1 -->
<svg width="798pt" height="161pt"
 viewBox="0.00 0.00 798.00 161.00" xmlns="http://www.w3.org/2000/svg" xmlns:xlink="http://www.w3.org/1999/xlink">
<g id="graph0" class="graph" transform="scale(1 1) rotate(0) translate(4 157)">
<title>__list_del</title>
<!-- Node1 -->
<g id="node1" class="node">
<title>Node1</title>
<g id="a_node1"><a xlink:title=" ">
<polygon fill="#bfbfbf" stroke="black" points="732,-38.5 732,-57.5 790,-57.5 790,-38.5 732,-38.5"/>
<text text-anchor="middle" x="761" y="-45.5" font-family="Helvetica,sans-Serif" font-size="10.00">__list_del</text>
</a>
</g>
</g>
<!-- Node2 -->
<g id="node2" class="node">
<title>Node2</title>
<g id="a_node2"><a xlink:href="list_8h.html#ab1708206f0f7e0a56550b35372203ba5" target="_top" xlink:title=" ">
<polygon fill="none" stroke="black" points="634,-76.5 634,-95.5 681,-95.5 681,-76.5 634,-76.5"/>
<text text-anchor="middle" x="657.5" y="-83.5" font-family="Helvetica,sans-Serif" font-size="10.00">list_del</text>
</a>
</g>
</g>
<!-- Node1&#45;&gt;Node2 -->
<g id="edge1" class="edge">
<title>Node1&#45;&gt;Node2</title>
<path fill="none" stroke="midnightblue" d="M724.78,-61.19C710.38,-66.58 694.14,-72.66 681.33,-77.45"/>
<polygon fill="midnightblue" stroke="midnightblue" points="726.25,-64.37 734.39,-57.59 723.79,-57.82 726.25,-64.37"/>
</g>
<!-- Node13 -->
<g id="node13" class="node">
<title>Node13</title>
<g id="a_node13"><a xlink:href="list_8h.html#aee8df43e41969c2272acfd6ed6e75d4c" target="_top" xlink:title=" ">
<polygon fill="none" stroke="black" points="628,-38.5 628,-57.5 687,-57.5 687,-38.5 628,-38.5"/>
<text text-anchor="middle" x="657.5" y="-45.5" font-family="Helvetica,sans-Serif" font-size="10.00">list_move</text>
</a>
</g>
</g>
<!-- Node1&#45;&gt;Node13 -->
<g id="edge14" class="edge">
<title>Node1&#45;&gt;Node13</title>
<path fill="none" stroke="midnightblue" d="M721.77,-48C710.28,-48 697.87,-48 687.12,-48"/>
<polygon fill="midnightblue" stroke="midnightblue" points="722,-51.5 732,-48 722,-44.5 722,-51.5"/>
</g>
<!-- Node14 -->
<g id="node14" class="node">
<title>Node14</title>
<g id="a_node14"><a xlink:href="list_8h.html#a1c5ac6a6b04a03f5782e818daacf96e9" target="_top" xlink:title=" ">
<polygon fill="none" stroke="black" points="619,-0.5 619,-19.5 696,-19.5 696,-0.5 619,-0.5"/>
<text text-anchor="middle" x="657.5" y="-7.5" font-family="Helvetica,sans-Serif" font-size="10.00">list_move_tail</text>
</a>
</g>
</g>
<!-- Node1&#45;&gt;Node14 -->
<g id="edge15" class="edge">
<title>Node1&#45;&gt;Node14</title>
<path fill="none" stroke="midnightblue" d="M724.96,-34.88C711.54,-29.86 696.48,-24.22 684.1,-19.59"/>
<polygon fill="midnightblue" stroke="midnightblue" points="723.79,-38.18 734.39,-38.41 726.25,-31.63 723.79,-38.18"/>
</g>
<!-- Node3 -->
<g id="node3" class="node">
<title>Node3</title>
<g id="a_node3"><a xlink:href="buddy_8c.html#a8a4afbc5643993142db5ad65b87b8c62" target="_top" xlink:title=" ">
<polygon fill="none" stroke="black" points="522,-76.5 522,-95.5 583,-95.5 583,-76.5 522,-76.5"/>
<text text-anchor="middle" x="552.5" y="-83.5" font-family="Helvetica,sans-Serif" font-size="10.00">chunk_del</text>
</a>
</g>
</g>
<!-- Node2&#45;&gt;Node3 -->
<g id="edge2" class="edge">
<title>Node2&#45;&gt;Node3</title>
<path fill="none" stroke="midnightblue" d="M623.89,-86C610.82,-86 595.85,-86 583.1,-86"/>
<polygon fill="midnightblue" stroke="midnightblue" points="623.9,-89.5 633.9,-86 623.9,-82.5 623.9,-89.5"/>
</g>
<!-- Node4 -->
<g id="node4" class="node">
<title>Node4</title>
<g id="a_node4"><a xlink:href="buddy_8c.html#a9ae41f7f508f07ceba45065973ce5507" target="_top" xlink:title=" ">
<polygon fill="none" stroke="black" points="411,-95.5 411,-114.5 486,-114.5 486,-95.5 411,-95.5"/>
<text text-anchor="middle" x="448.5" y="-102.5" font-family="Helvetica,sans-Serif" font-size="10.00">chunk_merge</text>
</a>
</g>
</g>
<!-- Node3&#45;&gt;Node4 -->
<g id="edge3" class="edge">
<title>Node3&#45;&gt;Node4</title>
<path fill="none" stroke="midnightblue" d="M511.95,-93.37C503.47,-94.95 494.55,-96.61 486.19,-98.17"/>
<polygon fill="midnightblue" stroke="midnightblue" points="512.81,-96.77 522,-91.5 511.53,-89.89 512.81,-96.77"/>
</g>
<!-- Node10 -->
<g id="node10" class="node">
<title>Node10</title>
<g id="a_node10"><a xlink:href="buddy_8c.html#aff6f2614df5664434766dd9c23971227" target="_top" xlink:title=" ">
<polygon fill="none" stroke="black" points="415.5,-57.5 415.5,-76.5 481.5,-76.5 481.5,-57.5 415.5,-57.5"/>
<text text-anchor="middle" x="448.5" y="-64.5" font-family="Helvetica,sans-Serif" font-size="10.00">chunk_split</text>
</a>
</g>
</g>
<!-- Node3&#45;&gt;Node10 -->
<g id="edge10" class="edge">
<title>Node3&#45;&gt;Node10</title>
<path fill="none" stroke="midnightblue" d="M511.9,-78.62C501.93,-76.77 491.35,-74.8 481.79,-73.02"/>
<polygon fill="midnightblue" stroke="midnightblue" points="511.53,-82.11 522,-80.5 512.81,-75.23 511.53,-82.11"/>
</g>
<!-- Node5 -->
<g id="node5" class="node">
<title>Node5</title>
<g id="a_node5"><a xlink:href="buddy_8c.html#a77f7615f76209d4083ef2d0826d90a1e" target="_top" xlink:title="free a chunk and process in deep.">
<polygon fill="none" stroke="black" points="308.5,-95.5 308.5,-114.5 373.5,-114.5 373.5,-95.5 308.5,-95.5"/>
<text text-anchor="middle" x="341" y="-102.5" font-family="Helvetica,sans-Serif" font-size="10.00">chunk_free</text>
</a>
</g>
</g>
<!-- Node4&#45;&gt;Node5 -->
<g id="edge4" class="edge">
<title>Node4&#45;&gt;Node5</title>
<path fill="none" stroke="midnightblue" d="M400.71,-105C391.55,-105 382.14,-105 373.62,-105"/>
<polygon fill="midnightblue" stroke="midnightblue" points="400.9,-108.5 410.9,-105 400.9,-101.5 400.9,-108.5"/>
</g>
<!-- Node6 -->
<g id="node6" class="node">
<title>Node6</title>
<g id="a_node6"><a xlink:href="buddy_8c.html#a571ce3de5539a52d40d9d11033519237" target="_top" xlink:title="initialize the buddy system">
<polygon fill="none" stroke="black" points="211,-133.5 211,-152.5 271,-152.5 271,-133.5 211,-133.5"/>
<text text-anchor="middle" x="241" y="-140.5" font-family="Helvetica,sans-Serif" font-size="10.00">buddy_init</text>
</a>
</g>
</g>
<!-- Node5&#45;&gt;Node6 -->
<g id="edge5" class="edge">
<title>Node5&#45;&gt;Node6</title>
<path fill="none" stroke="midnightblue" d="M305.79,-118.26C292.93,-123.25 278.56,-128.82 266.72,-133.41"/>
<polygon fill="midnightblue" stroke="midnightblue" points="307.21,-121.47 315.27,-114.59 304.68,-114.94 307.21,-121.47"/>
</g>
<!-- Node9 -->
<g id="node9" class="node">
<title>Node9</title>
<g id="a_node9"><a xlink:href="pmm_8c.html#a2cb876c0d76d35916d27ed1623195fbe" target="_top" xlink:title=" ">
<polygon fill="none" stroke="black" points="128,-95.5 128,-114.5 166,-114.5 166,-95.5 128,-95.5"/>
<text text-anchor="middle" x="147" y="-102.5" font-family="Helvetica,sans-Serif" font-size="10.00">kfree</text>
</a>
</g>
</g>
<!-- Node5&#45;&gt;Node9 -->
<g id="edge8" class="edge">
<title>Node5&#45;&gt;Node9</title>
<path fill="none" stroke="midnightblue" d="M298.03,-105C256.91,-105 196.15,-105 166.14,-105"/>
<polygon fill="midnightblue" stroke="midnightblue" points="298.3,-108.5 308.3,-105 298.3,-101.5 298.3,-108.5"/>
</g>
<!-- Node7 -->
<g id="node7" class="node">
<title>Node7</title>
<g id="a_node7"><a xlink:href="pmm_8c.html#a393796678826afd801058312f851ca43" target="_top" xlink:title=" ">
<polygon fill="none" stroke="black" points="119,-133.5 119,-152.5 175,-152.5 175,-133.5 119,-133.5"/>
<text text-anchor="middle" x="147" y="-140.5" font-family="Helvetica,sans-Serif" font-size="10.00">pmm_init</text>
</a>
</g>
</g>
<!-- Node6&#45;&gt;Node7 -->
<g id="edge6" class="edge">
<title>Node6&#45;&gt;Node7</title>
<path fill="none" stroke="midnightblue" d="M200.61,-143C191.99,-143 183.05,-143 175.04,-143"/>
<polygon fill="midnightblue" stroke="midnightblue" points="200.89,-146.5 210.89,-143 200.89,-139.5 200.89,-146.5"/>
</g>
<!-- Node8 -->
<g id="node8" class="node">
<title>Node8</title>
<g id="a_node8"><a xlink:href="pmm_8c.html#a7ada9deb0ae8705f2cc158b0283aaeb3" target="_top" xlink:title=" ">
<polygon fill="none" stroke="black" points="0,-95.5 0,-114.5 83,-114.5 83,-95.5 0,-95.5"/>
<text text-anchor="middle" x="41.5" y="-102.5" font-family="Helvetica,sans-Serif" font-size="10.00">MODULE_DEF</text>
</a>
</g>
</g>
<!-- Node7&#45;&gt;Node8 -->
<g id="edge7" class="edge">
<title>Node7&#45;&gt;Node8</title>
<path fill="none" stroke="midnightblue" d="M110.27,-129.88C96.58,-124.86 81.23,-119.22 68.61,-114.59"/>
<polygon fill="midnightblue" stroke="midnightblue" points="109.29,-133.25 119.88,-133.41 111.7,-126.68 109.29,-133.25"/>
</g>
<!-- Node9&#45;&gt;Node8 -->
<g id="edge9" class="edge">
<title>Node9&#45;&gt;Node8</title>
<path fill="none" stroke="midnightblue" d="M117.91,-105C107.18,-105 94.72,-105 83.06,-105"/>
<polygon fill="midnightblue" stroke="midnightblue" points="117.97,-108.5 127.97,-105 117.97,-101.5 117.97,-108.5"/>
</g>
<!-- Node11 -->
<g id="node11" class="node">
<title>Node11</title>
<g id="a_node11"><a xlink:href="buddy_8c.html#a37436a565869aa245cb46355dab020e2" target="_top" xlink:title=" ">
<polygon fill="none" stroke="black" points="307,-57.5 307,-76.5 375,-76.5 375,-57.5 307,-57.5"/>
<text text-anchor="middle" x="341" y="-64.5" font-family="Helvetica,sans-Serif" font-size="10.00">chunk_alloc</text>
</a>
</g>
</g>
<!-- Node10&#45;&gt;Node11 -->
<g id="edge11" class="edge">
<title>Node10&#45;&gt;Node11</title>
<path fill="none" stroke="midnightblue" d="M405.12,-67C395.13,-67 384.63,-67 375.12,-67"/>
<polygon fill="midnightblue" stroke="midnightblue" points="405.27,-70.5 415.27,-67 405.27,-63.5 405.27,-70.5"/>
</g>
<!-- Node12 -->
<g id="node12" class="node">
<title>Node12</title>
<g id="a_node12"><a xlink:href="pmm_8c.html#a350a830083f55f1886e000edec454a99" target="_top" xlink:title=" ">
<polygon fill="none" stroke="black" points="220,-57.5 220,-76.5 262,-76.5 262,-57.5 220,-57.5"/>
<text text-anchor="middle" x="241" y="-64.5" font-family="Helvetica,sans-Serif" font-size="10.00">kalloc</text>
</a>
</g>
</g>
<!-- Node11&#45;&gt;Node12 -->
<g id="edge12" class="edge">
<title>Node11&#45;&gt;Node12</title>
<path fill="none" stroke="midnightblue" d="M296.52,-67C284.59,-67 272.22,-67 262.28,-67"/>
<polygon fill="midnightblue" stroke="midnightblue" points="296.82,-70.5 306.82,-67 296.82,-63.5 296.82,-70.5"/>
</g>
<!-- Node12&#45;&gt;Node8 -->
<g id="edge13" class="edge">
<title>Node12&#45;&gt;Node8</title>
<path fill="none" stroke="midnightblue" d="M209.64,-71.01C185.09,-74.44 149.68,-79.79 119,-86 105.59,-88.71 90.98,-92.21 78.16,-95.46"/>
<polygon fill="midnightblue" stroke="midnightblue" points="210.35,-74.45 219.78,-69.62 209.4,-67.52 210.35,-74.45"/>
</g>
</g>
</svg>
