<?xml version="1.0" encoding="UTF-8" standalone="no"?>
<!DOCTYPE svg PUBLIC "-//W3C//DTD SVG 1.1//EN"
 "http://www.w3.org/Graphics/SVG/1.1/DTD/svg11.dtd">
<!-- Generated by graphviz version 3.0.0 (20220413.0106)
 -->
<!-- Title: __list_add Pages: 1 -->
<svg width="811pt" height="142pt"
 viewBox="0.00 0.00 811.00 142.00" xmlns="http://www.w3.org/2000/svg" xmlns:xlink="http://www.w3.org/1999/xlink">
<g id="graph0" class="graph" transform="scale(1 1) rotate(0) translate(4 138)">
<title>__list_add</title>
<!-- Node1 -->
<g id="node1" class="node">
<title>Node1</title>
<g id="a_node1"><a xlink:title=" ">
<polygon fill="#bfbfbf" stroke="black" points="742,-19.5 742,-38.5 803,-38.5 803,-19.5 742,-19.5"/>
<text text-anchor="middle" x="772.5" y="-26.5" font-family="Helvetica,sans-Serif" font-size="10.00">__list_add</text>
</a>
</g>
</g>
<!-- Node2 -->
<g id="node2" class="node">
<title>Node2</title>
<g id="a_node2"><a xlink:href="list_8h.html#a06a80666b3364324fc601ab7ae1ff20b" target="_top" xlink:title=" ">
<polygon fill="none" stroke="black" points="647,-38.5 647,-57.5 697,-57.5 697,-38.5 647,-38.5"/>
<text text-anchor="middle" x="672" y="-45.5" font-family="Helvetica,sans-Serif" font-size="10.00">list_add</text>
</a>
</g>
</g>
<!-- Node1&#45;&gt;Node2 -->
<g id="edge1" class="edge">
<title>Node1&#45;&gt;Node2</title>
<path fill="none" stroke="midnightblue" d="M731.9,-36.64C720.17,-38.9 707.68,-41.31 697.23,-43.33"/>
<polygon fill="midnightblue" stroke="midnightblue" points="732.79,-40.03 741.95,-34.7 731.46,-33.16 732.79,-40.03"/>
</g>
<!-- Node14 -->
<g id="node14" class="node">
<title>Node14</title>
<g id="a_node14"><a xlink:href="list_8h.html#a8cd2cde4d6c647371a73250b92140935" target="_top" xlink:title=" ">
<polygon fill="none" stroke="black" points="638,-0.5 638,-19.5 706,-19.5 706,-0.5 638,-0.5"/>
<text text-anchor="middle" x="672" y="-7.5" font-family="Helvetica,sans-Serif" font-size="10.00">list_add_tail</text>
</a>
</g>
</g>
<!-- Node1&#45;&gt;Node14 -->
<g id="edge16" class="edge">
<title>Node1&#45;&gt;Node14</title>
<path fill="none" stroke="midnightblue" d="M731.88,-21.36C723.41,-19.72 714.54,-18.01 706.33,-16.43"/>
<polygon fill="midnightblue" stroke="midnightblue" points="731.46,-24.84 741.95,-23.3 732.79,-17.97 731.46,-24.84"/>
</g>
<!-- Node3 -->
<g id="node3" class="node">
<title>Node3</title>
<g id="a_node3"><a xlink:href="buddy_8c.html#acd10ee3138eeeac7c91ef5928f2135ea" target="_top" xlink:title="make a chunk added to free list.">
<polygon fill="none" stroke="black" points="522,-76.5 522,-95.5 602,-95.5 602,-76.5 522,-76.5"/>
<text text-anchor="middle" x="562" y="-83.5" font-family="Helvetica,sans-Serif" font-size="10.00">chunk_append</text>
</a>
</g>
</g>
<!-- Node2&#45;&gt;Node3 -->
<g id="edge2" class="edge">
<title>Node2&#45;&gt;Node3</title>
<path fill="none" stroke="midnightblue" d="M637.23,-59.88C622.09,-65.21 604.47,-71.41 590.2,-76.43"/>
<polygon fill="midnightblue" stroke="midnightblue" points="638.49,-63.15 646.76,-56.53 636.17,-56.55 638.49,-63.15"/>
</g>
<!-- Node13 -->
<g id="node13" class="node">
<title>Node13</title>
<g id="a_node13"><a xlink:href="list_8h.html#aee8df43e41969c2272acfd6ed6e75d4c" target="_top" xlink:title=" ">
<polygon fill="none" stroke="black" points="532.5,-38.5 532.5,-57.5 591.5,-57.5 591.5,-38.5 532.5,-38.5"/>
<text text-anchor="middle" x="562" y="-45.5" font-family="Helvetica,sans-Serif" font-size="10.00">list_move</text>
</a>
</g>
</g>
<!-- Node2&#45;&gt;Node13 -->
<g id="edge15" class="edge">
<title>Node2&#45;&gt;Node13</title>
<path fill="none" stroke="midnightblue" d="M636.69,-48C622.22,-48 605.56,-48 591.75,-48"/>
<polygon fill="midnightblue" stroke="midnightblue" points="636.76,-51.5 646.76,-48 636.76,-44.5 636.76,-51.5"/>
</g>
<!-- Node4 -->
<g id="node4" class="node">
<title>Node4</title>
<g id="a_node4"><a xlink:href="buddy_8c.html#a77f7615f76209d4083ef2d0826d90a1e" target="_top" xlink:title="free a chunk and process in deep.">
<polygon fill="none" stroke="black" points="308.5,-95.5 308.5,-114.5 373.5,-114.5 373.5,-95.5 308.5,-95.5"/>
<text text-anchor="middle" x="341" y="-102.5" font-family="Helvetica,sans-Serif" font-size="10.00">chunk_free</text>
</a>
</g>
</g>
<!-- Node3&#45;&gt;Node4 -->
<g id="edge3" class="edge">
<title>Node3&#45;&gt;Node4</title>
<path fill="none" stroke="midnightblue" d="M520.77,-98.14C509.62,-100.97 497.43,-103.57 486,-105 447.55,-109.79 402.87,-108.78 373.6,-107.24"/>
<polygon fill="midnightblue" stroke="midnightblue" points="521.91,-101.46 530.68,-95.5 520.11,-94.7 521.91,-101.46"/>
</g>
<!-- Node9 -->
<g id="node9" class="node">
<title>Node9</title>
<g id="a_node9"><a xlink:href="buddy_8c.html#a9ae41f7f508f07ceba45065973ce5507" target="_top" xlink:title=" ">
<polygon fill="none" stroke="black" points="411,-76.5 411,-95.5 486,-95.5 486,-76.5 411,-76.5"/>
<text text-anchor="middle" x="448.5" y="-83.5" font-family="Helvetica,sans-Serif" font-size="10.00">chunk_merge</text>
</a>
</g>
</g>
<!-- Node3&#45;&gt;Node9 -->
<g id="edge9" class="edge">
<title>Node3&#45;&gt;Node9</title>
<path fill="none" stroke="midnightblue" d="M511.48,-86C502.99,-86 494.3,-86 486.22,-86"/>
<polygon fill="midnightblue" stroke="midnightblue" points="511.69,-89.5 521.69,-86 511.69,-82.5 511.69,-89.5"/>
</g>
<!-- Node10 -->
<g id="node10" class="node">
<title>Node10</title>
<g id="a_node10"><a xlink:href="buddy_8c.html#aff6f2614df5664434766dd9c23971227" target="_top" xlink:title=" ">
<polygon fill="none" stroke="black" points="415.5,-38.5 415.5,-57.5 481.5,-57.5 481.5,-38.5 415.5,-38.5"/>
<text text-anchor="middle" x="448.5" y="-45.5" font-family="Helvetica,sans-Serif" font-size="10.00">chunk_split</text>
</a>
</g>
</g>
<!-- Node3&#45;&gt;Node10 -->
<g id="edge11" class="edge">
<title>Node3&#45;&gt;Node10</title>
<path fill="none" stroke="midnightblue" d="M523.37,-73.17C508.41,-68.08 491.49,-62.31 477.63,-57.59"/>
<polygon fill="midnightblue" stroke="midnightblue" points="522.27,-76.5 532.86,-76.41 524.53,-69.87 522.27,-76.5"/>
</g>
<!-- Node5 -->
<g id="node5" class="node">
<title>Node5</title>
<g id="a_node5"><a xlink:href="buddy_8c.html#a571ce3de5539a52d40d9d11033519237" target="_top" xlink:title="initialize the buddy system">
<polygon fill="none" stroke="black" points="211,-114.5 211,-133.5 271,-133.5 271,-114.5 211,-114.5"/>
<text text-anchor="middle" x="241" y="-121.5" font-family="Helvetica,sans-Serif" font-size="10.00">buddy_init</text>
</a>
</g>
</g>
<!-- Node4&#45;&gt;Node5 -->
<g id="edge4" class="edge">
<title>Node4&#45;&gt;Node5</title>
<path fill="none" stroke="midnightblue" d="M298.34,-113.08C289.19,-114.85 279.69,-116.69 271.16,-118.35"/>
<polygon fill="midnightblue" stroke="midnightblue" points="299.3,-116.46 308.45,-111.12 297.97,-109.58 299.3,-116.46"/>
</g>
<!-- Node8 -->
<g id="node8" class="node">
<title>Node8</title>
<g id="a_node8"><a xlink:href="pmm_8c.html#a2cb876c0d76d35916d27ed1623195fbe" target="_top" xlink:title=" ">
<polygon fill="none" stroke="black" points="128,-76.5 128,-95.5 166,-95.5 166,-76.5 128,-76.5"/>
<text text-anchor="middle" x="147" y="-83.5" font-family="Helvetica,sans-Serif" font-size="10.00">kfree</text>
</a>
</g>
</g>
<!-- Node4&#45;&gt;Node8 -->
<g id="edge7" class="edge">
<title>Node4&#45;&gt;Node8</title>
<path fill="none" stroke="midnightblue" d="M298.3,-100.87C257.16,-96.8 196.22,-90.77 166.14,-87.8"/>
<polygon fill="midnightblue" stroke="midnightblue" points="298,-104.36 308.3,-101.86 298.69,-97.39 298,-104.36"/>
</g>
<!-- Node6 -->
<g id="node6" class="node">
<title>Node6</title>
<g id="a_node6"><a xlink:href="pmm_8c.html#a393796678826afd801058312f851ca43" target="_top" xlink:title=" ">
<polygon fill="none" stroke="black" points="119,-114.5 119,-133.5 175,-133.5 175,-114.5 119,-114.5"/>
<text text-anchor="middle" x="147" y="-121.5" font-family="Helvetica,sans-Serif" font-size="10.00">pmm_init</text>
</a>
</g>
</g>
<!-- Node5&#45;&gt;Node6 -->
<g id="edge5" class="edge">
<title>Node5&#45;&gt;Node6</title>
<path fill="none" stroke="midnightblue" d="M200.61,-124C191.99,-124 183.05,-124 175.04,-124"/>
<polygon fill="midnightblue" stroke="midnightblue" points="200.89,-127.5 210.89,-124 200.89,-120.5 200.89,-127.5"/>
</g>
<!-- Node7 -->
<g id="node7" class="node">
<title>Node7</title>
<g id="a_node7"><a xlink:href="pmm_8c.html#a7ada9deb0ae8705f2cc158b0283aaeb3" target="_top" xlink:title=" ">
<polygon fill="none" stroke="black" points="0,-76.5 0,-95.5 83,-95.5 83,-76.5 0,-76.5"/>
<text text-anchor="middle" x="41.5" y="-83.5" font-family="Helvetica,sans-Serif" font-size="10.00">MODULE_DEF</text>
</a>
</g>
</g>
<!-- Node6&#45;&gt;Node7 -->
<g id="edge6" class="edge">
<title>Node6&#45;&gt;Node7</title>
<path fill="none" stroke="midnightblue" d="M110.27,-110.88C96.58,-105.86 81.23,-100.22 68.61,-95.59"/>
<polygon fill="midnightblue" stroke="midnightblue" points="109.29,-114.25 119.88,-114.41 111.7,-107.68 109.29,-114.25"/>
</g>
<!-- Node8&#45;&gt;Node7 -->
<g id="edge8" class="edge">
<title>Node8&#45;&gt;Node7</title>
<path fill="none" stroke="midnightblue" d="M117.91,-86C107.18,-86 94.72,-86 83.06,-86"/>
<polygon fill="midnightblue" stroke="midnightblue" points="117.97,-89.5 127.97,-86 117.97,-82.5 117.97,-89.5"/>
</g>
<!-- Node9&#45;&gt;Node4 -->
<g id="edge10" class="edge">
<title>Node9&#45;&gt;Node4</title>
<path fill="none" stroke="midnightblue" d="M401.01,-94.37C391.75,-96.04 382.24,-97.75 373.62,-99.31"/>
<polygon fill="midnightblue" stroke="midnightblue" points="401.68,-97.81 410.9,-92.59 400.44,-90.92 401.68,-97.81"/>
</g>
<!-- Node11 -->
<g id="node11" class="node">
<title>Node11</title>
<g id="a_node11"><a xlink:href="buddy_8c.html#a37436a565869aa245cb46355dab020e2" target="_top" xlink:title=" ">
<polygon fill="none" stroke="black" points="307,-38.5 307,-57.5 375,-57.5 375,-38.5 307,-38.5"/>
<text text-anchor="middle" x="341" y="-45.5" font-family="Helvetica,sans-Serif" font-size="10.00">chunk_alloc</text>
</a>
</g>
</g>
<!-- Node10&#45;&gt;Node11 -->
<g id="edge12" class="edge">
<title>Node10&#45;&gt;Node11</title>
<path fill="none" stroke="midnightblue" d="M405.12,-48C395.13,-48 384.63,-48 375.12,-48"/>
<polygon fill="midnightblue" stroke="midnightblue" points="405.27,-51.5 415.27,-48 405.27,-44.5 405.27,-51.5"/>
</g>
<!-- Node12 -->
<g id="node12" class="node">
<title>Node12</title>
<g id="a_node12"><a xlink:href="pmm_8c.html#a350a830083f55f1886e000edec454a99" target="_top" xlink:title=" ">
<polygon fill="none" stroke="black" points="220,-38.5 220,-57.5 262,-57.5 262,-38.5 220,-38.5"/>
<text text-anchor="middle" x="241" y="-45.5" font-family="Helvetica,sans-Serif" font-size="10.00">kalloc</text>
</a>
</g>
</g>
<!-- Node11&#45;&gt;Node12 -->
<g id="edge13" class="edge">
<title>Node11&#45;&gt;Node12</title>
<path fill="none" stroke="midnightblue" d="M296.52,-48C284.59,-48 272.22,-48 262.28,-48"/>
<polygon fill="midnightblue" stroke="midnightblue" points="296.82,-51.5 306.82,-48 296.82,-44.5 296.82,-51.5"/>
</g>
<!-- Node12&#45;&gt;Node7 -->
<g id="edge14" class="edge">
<title>Node12&#45;&gt;Node7</title>
<path fill="none" stroke="midnightblue" d="M209.64,-52.01C185.09,-55.44 149.68,-60.79 119,-67 105.59,-69.71 90.98,-73.21 78.16,-76.46"/>
<polygon fill="midnightblue" stroke="midnightblue" points="210.35,-55.45 219.78,-50.62 209.4,-48.52 210.35,-55.45"/>
</g>
<!-- Node15 -->
<g id="node15" class="node">
<title>Node15</title>
<g id="a_node15"><a xlink:href="list_8h.html#a1c5ac6a6b04a03f5782e818daacf96e9" target="_top" xlink:title=" ">
<polygon fill="none" stroke="black" points="523.5,-0.5 523.5,-19.5 600.5,-19.5 600.5,-0.5 523.5,-0.5"/>
<text text-anchor="middle" x="562" y="-7.5" font-family="Helvetica,sans-Serif" font-size="10.00">list_move_tail</text>
</a>
</g>
</g>
<!-- Node14&#45;&gt;Node15 -->
<g id="edge17" class="edge">
<title>Node14&#45;&gt;Node15</title>
<path fill="none" stroke="midnightblue" d="M627.47,-10C618.54,-10 609.21,-10 600.51,-10"/>
<polygon fill="midnightblue" stroke="midnightblue" points="627.72,-13.5 637.72,-10 627.72,-6.5 627.72,-13.5"/>
</g>
</g>
</svg>
