<?xml version="1.0" encoding="UTF-8" standalone="no"?>
<!DOCTYPE svg PUBLIC "-//W3C//DTD SVG 1.1//EN"
 "http://www.w3.org/Graphics/SVG/1.1/DTD/svg11.dtd">
<!-- Generated by graphviz version 3.0.0 (20220413.0106)
 -->
<!-- Title: abstract&#45;machine/klib/include/logger.h Pages: 1 -->
<svg width="347pt" height="218pt"
 viewBox="0.00 0.00 347.00 218.00" xmlns="http://www.w3.org/2000/svg" xmlns:xlink="http://www.w3.org/1999/xlink">
<g id="graph0" class="graph" transform="scale(1 1) rotate(0) translate(4 214)">
<title>abstract&#45;machine/klib/include/logger.h</title>
<!-- Node1 -->
<g id="node1" class="node">
<title>Node1</title>
<g id="a_node1"><a xlink:title=" ">
<polygon fill="#bfbfbf" stroke="black" points="125,-179.5 125,-209.5 235,-209.5 235,-179.5 125,-179.5"/>
<text text-anchor="start" x="133" y="-197.5" font-family="Helvetica,sans-Serif" font-size="10.00">abstract&#45;machine/klib</text>
<text text-anchor="middle" x="180" y="-186.5" font-family="Helvetica,sans-Serif" font-size="10.00">/include/logger.h</text>
</a>
</g>
</g>
<!-- Node2 -->
<g id="node2" class="node">
<title>Node2</title>
<g id="a_node2"><a xlink:href="logger_8c.html" target="_top" xlink:title=" ">
<polygon fill="none" stroke="black" points="0,-112.5 0,-142.5 110,-142.5 110,-112.5 0,-112.5"/>
<text text-anchor="start" x="8" y="-130.5" font-family="Helvetica,sans-Serif" font-size="10.00">abstract&#45;machine/klib</text>
<text text-anchor="middle" x="55" y="-119.5" font-family="Helvetica,sans-Serif" font-size="10.00">/src/logger.c</text>
</a>
</g>
</g>
<!-- Node1&#45;&gt;Node2 -->
<g id="edge1" class="edge">
<title>Node1&#45;&gt;Node2</title>
<path fill="none" stroke="midnightblue" d="M143.87,-174.71C124.16,-164.46 100.16,-151.98 82.07,-142.58"/>
<polygon fill="midnightblue" stroke="midnightblue" points="142.39,-177.89 152.88,-179.4 145.62,-171.68 142.39,-177.89"/>
</g>
<!-- Node3 -->
<g id="node3" class="node">
<title>Node3</title>
<g id="a_node3"><a xlink:href="list_8h.html" target="_top" xlink:title="double circular linked list impl without concurrency">
<polygon fill="none" stroke="black" points="170,-118 170,-137 270,-137 270,-118 170,-118"/>
<text text-anchor="middle" x="220" y="-125" font-family="Helvetica,sans-Serif" font-size="10.00">kernel/include/list.h</text>
</a>
</g>
</g>
<!-- Node1&#45;&gt;Node3 -->
<g id="edge2" class="edge">
<title>Node1&#45;&gt;Node3</title>
<path fill="none" stroke="midnightblue" d="M194.07,-170.63C201.19,-159.07 209.41,-145.71 214.65,-137.19"/>
<polygon fill="midnightblue" stroke="midnightblue" points="190.94,-169.05 188.68,-179.4 196.9,-172.71 190.94,-169.05"/>
</g>
<!-- Node5 -->
<g id="node5" class="node">
<title>Node5</title>
<g id="a_node5"><a xlink:href="buddy_8c.html" target="_top" xlink:title="impl of buddy system">
<polygon fill="none" stroke="black" points="119.5,-0.5 119.5,-19.5 214.5,-19.5 214.5,-0.5 119.5,-0.5"/>
<text text-anchor="middle" x="167" y="-7.5" font-family="Helvetica,sans-Serif" font-size="10.00">kernel/src/buddy.c</text>
</a>
</g>
</g>
<!-- Node1&#45;&gt;Node5 -->
<g id="edge6" class="edge">
<title>Node1&#45;&gt;Node5</title>
<path fill="none" stroke="midnightblue" d="M169.42,-169.82C166.15,-161.51 162.91,-151.99 161,-143 152.94,-105.14 152.78,-94.48 157,-56 158.41,-43.11 162.04,-28.52 164.52,-19.53"/>
<polygon fill="midnightblue" stroke="midnightblue" points="166.27,-171.36 173.33,-179.26 172.73,-168.68 166.27,-171.36"/>
</g>
<!-- Node6 -->
<g id="node6" class="node">
<title>Node6</title>
<g id="a_node6"><a xlink:href="pmm_8c.html" target="_top" xlink:title=" ">
<polygon fill="none" stroke="black" points="247,-0.5 247,-19.5 339,-19.5 339,-0.5 247,-0.5"/>
<text text-anchor="middle" x="293" y="-7.5" font-family="Helvetica,sans-Serif" font-size="10.00">kernel/src/pmm.c</text>
</a>
</g>
</g>
<!-- Node1&#45;&gt;Node6 -->
<g id="edge7" class="edge">
<title>Node1&#45;&gt;Node6</title>
<path fill="none" stroke="midnightblue" d="M237.74,-175.29C253.38,-167.68 268.78,-157.21 279,-143 306.72,-104.46 298.89,-42.47 294.78,-19.73"/>
<polygon fill="midnightblue" stroke="midnightblue" points="236.22,-172.14 228.55,-179.45 239.1,-178.52 236.22,-172.14"/>
</g>
<!-- Node4 -->
<g id="node4" class="node">
<title>Node4</title>
<g id="a_node4"><a xlink:href="buddy_8h.html" target="_top" xlink:title=" ">
<polygon fill="none" stroke="black" points="166.5,-56.5 166.5,-75.5 279.5,-75.5 279.5,-56.5 166.5,-56.5"/>
<text text-anchor="middle" x="223" y="-63.5" font-family="Helvetica,sans-Serif" font-size="10.00">kernel/include/buddy.h</text>
</a>
</g>
</g>
<!-- Node3&#45;&gt;Node4 -->
<g id="edge3" class="edge">
<title>Node3&#45;&gt;Node4</title>
<path fill="none" stroke="midnightblue" d="M220.94,-107.82C221.49,-97 222.15,-83.9 222.57,-75.51"/>
<polygon fill="midnightblue" stroke="midnightblue" points="217.44,-107.81 220.43,-117.98 224.43,-108.16 217.44,-107.81"/>
</g>
<!-- Node4&#45;&gt;Node5 -->
<g id="edge4" class="edge">
<title>Node4&#45;&gt;Node5</title>
<path fill="none" stroke="midnightblue" d="M206.67,-49.25C196.74,-39.67 184.41,-27.79 176.16,-19.83"/>
<polygon fill="midnightblue" stroke="midnightblue" points="204.37,-51.9 214,-56.32 209.23,-46.86 204.37,-51.9"/>
</g>
<!-- Node4&#45;&gt;Node6 -->
<g id="edge5" class="edge">
<title>Node4&#45;&gt;Node6</title>
<path fill="none" stroke="midnightblue" d="M242.31,-50.1C254.91,-40.38 270.93,-28.03 281.55,-19.83"/>
<polygon fill="midnightblue" stroke="midnightblue" points="240.03,-47.44 234.25,-56.32 244.3,-52.99 240.03,-47.44"/>
</g>
</g>
</svg>
