<?xml version="1.0" encoding="UTF-8" standalone="no"?>
<!DOCTYPE svg PUBLIC "-//W3C//DTD SVG 1.1//EN"
 "http://www.w3.org/Graphics/SVG/1.1/DTD/svg11.dtd">
<!-- Generated by graphviz version 2.50.0 (20220203.2022)
 -->
<!-- Title: cpu_current Pages: 1 -->
<svg width="525pt" height="218pt"
 viewBox="0.00 0.00 525.00 218.00" xmlns="http://www.w3.org/2000/svg" xmlns:xlink="http://www.w3.org/1999/xlink">
<g id="graph0" class="graph" transform="scale(1 1) rotate(0) translate(4 214)">
<title>cpu_current</title>
<!-- Node1 -->
<g id="node1" class="node">
<title>Node1</title>
<g id="a_node1"><a xlink:title=" ">
<polygon fill="#bfbfbf" stroke="black" points="449,-95.5 449,-114.5 517,-114.5 517,-95.5 449,-95.5"/>
<text text-anchor="middle" x="483" y="-102.5" font-family="Helvetica,sans-Serif" font-size="10.00">cpu_current</text>
</a>
</g>
</g>
<!-- Node2 -->
<g id="node2" class="node">
<title>Node2</title>
<g id="a_node2"><a xlink:href="mpe_8c.html#a0a540532023afb1f31b6f21ce053483b" target="_top" xlink:title=" ">
<polygon fill="none" stroke="black" points="301,-190.5 301,-209.5 413,-209.5 413,-190.5 301,-190.5"/>
<text text-anchor="middle" x="357" y="-197.5" font-family="Helvetica,sans-Serif" font-size="10.00">__am_stop_the_world</text>
</a>
</g>
</g>
<!-- Node1&#45;&gt;Node2 -->
<g id="edge1" class="edge">
<title>Node1&#45;&gt;Node2</title>
<path fill="none" stroke="midnightblue" d="M468.12,-122.79C455.2,-138.43 434.7,-160.98 413,-176 404.61,-181.81 394.58,-186.69 385.4,-190.5"/>
<polygon fill="midnightblue" stroke="midnightblue" points="470.93,-124.88 474.48,-114.9 465.48,-120.49 470.93,-124.88"/>
</g>
<!-- Node3 -->
<g id="node3" class="node">
<title>Node3</title>
<g id="a_node3"><a xlink:href="trm_8c.html#a483cb97188e557c3c68d3a1572c2cc92" target="_top" xlink:title=" ">
<polygon fill="none" stroke="black" points="207.5,-171.5 207.5,-190.5 239.5,-190.5 239.5,-171.5 207.5,-171.5"/>
<text text-anchor="middle" x="223.5" y="-178.5" font-family="Helvetica,sans-Serif" font-size="10.00">halt</text>
</a>
</g>
</g>
<!-- Node1&#45;&gt;Node3 -->
<g id="edge6" class="edge">
<title>Node1&#45;&gt;Node3</title>
<path fill="none" stroke="midnightblue" d="M459.06,-119.95C446.02,-127.84 429.12,-137.09 413,-143 350.93,-165.74 272.11,-176.03 239.59,-179.53"/>
<polygon fill="midnightblue" stroke="midnightblue" points="461.17,-122.76 467.81,-114.51 457.47,-116.82 461.17,-122.76"/>
</g>
<!-- Node6 -->
<g id="node6" class="node">
<title>Node6</title>
<g id="a_node6"><a xlink:href="cte_8c.html#a14d86719abbc247f8a0dd5eb2662ea88" target="_top" xlink:title=" ">
<polygon fill="none" stroke="black" points="333,-114.5 333,-133.5 381,-133.5 381,-114.5 333,-114.5"/>
<text text-anchor="middle" x="357" y="-121.5" font-family="Helvetica,sans-Serif" font-size="10.00">cte_init</text>
</a>
</g>
</g>
<!-- Node1&#45;&gt;Node6 -->
<g id="edge5" class="edge">
<title>Node1&#45;&gt;Node6</title>
<path fill="none" stroke="midnightblue" d="M438.64,-111.64C419.28,-114.61 397.25,-117.99 381.11,-120.46"/>
<polygon fill="midnightblue" stroke="midnightblue" points="439.42,-115.07 448.77,-110.09 438.36,-108.15 439.42,-115.07"/>
</g>
<!-- Node7 -->
<g id="node7" class="node">
<title>Node7</title>
<g id="a_node7"><a xlink:href="ioe_8c.html#a45ecef4130276c1c79d872c582cd3839" target="_top" xlink:title=" ">
<polygon fill="none" stroke="black" points="333.5,-76.5 333.5,-95.5 380.5,-95.5 380.5,-76.5 333.5,-76.5"/>
<text text-anchor="middle" x="357" y="-83.5" font-family="Helvetica,sans-Serif" font-size="10.00">ioe_init</text>
</a>
</g>
</g>
<!-- Node1&#45;&gt;Node7 -->
<g id="edge7" class="edge">
<title>Node1&#45;&gt;Node7</title>
<path fill="none" stroke="midnightblue" d="M438.84,-98.39C419.28,-95.39 396.96,-91.97 380.73,-89.48"/>
<polygon fill="midnightblue" stroke="midnightblue" points="438.36,-101.85 448.77,-99.91 439.42,-94.93 438.36,-101.85"/>
</g>
<!-- Node8 -->
<g id="node8" class="node">
<title>Node8</title>
<g id="a_node8"><a xlink:href="os_8c.html#a5f9cb32664e017ca15c49ec66e5342e4" target="_top" xlink:title=" ">
<polygon fill="none" stroke="black" points="334,-38.5 334,-57.5 380,-57.5 380,-38.5 334,-38.5"/>
<text text-anchor="middle" x="357" y="-45.5" font-family="Helvetica,sans-Serif" font-size="10.00">os_run</text>
</a>
</g>
</g>
<!-- Node1&#45;&gt;Node8 -->
<g id="edge8" class="edge">
<title>Node1&#45;&gt;Node8</title>
<path fill="none" stroke="midnightblue" d="M457.71,-90.29C444.72,-82.77 428.29,-73.79 413,-67 402.38,-62.28 390.21,-57.97 380.01,-54.65"/>
<polygon fill="midnightblue" stroke="midnightblue" points="456.1,-93.4 466.5,-95.46 459.65,-87.37 456.1,-93.4"/>
</g>
<!-- Node10 -->
<g id="node10" class="node">
<title>Node10</title>
<g id="a_node10"><a xlink:href="vme_8c.html#a102a03634ce449f78facc63eee85d9b8" target="_top" xlink:title=" ">
<polygon fill="none" stroke="black" points="330.5,-0.5 330.5,-19.5 383.5,-19.5 383.5,-0.5 330.5,-0.5"/>
<text text-anchor="middle" x="357" y="-7.5" font-family="Helvetica,sans-Serif" font-size="10.00">vme_init</text>
</a>
</g>
</g>
<!-- Node1&#45;&gt;Node10 -->
<g id="edge10" class="edge">
<title>Node1&#45;&gt;Node10</title>
<path fill="none" stroke="midnightblue" d="M469.69,-86.86C457.22,-69.75 436.47,-44.48 413,-29 404.15,-23.16 393.3,-18.91 383.59,-15.94"/>
<polygon fill="midnightblue" stroke="midnightblue" points="467.1,-89.26 475.73,-95.41 472.82,-85.22 467.1,-89.26"/>
</g>
<!-- Node2&#45;&gt;Node3 -->
<g id="edge2" class="edge">
<title>Node2&#45;&gt;Node3</title>
<path fill="none" stroke="midnightblue" d="M291.01,-190.61C271.85,-187.84 252.59,-185.06 239.77,-183.21"/>
<polygon fill="midnightblue" stroke="midnightblue" points="290.6,-194.09 300.99,-192.05 291.6,-187.16 290.6,-194.09"/>
</g>
<!-- Node4 -->
<g id="node4" class="node">
<title>Node4</title>
<g id="a_node4"><a xlink:href="trm_8c.html#a12a49ff4d3a586b2315e292c5da3df7e" target="_top" xlink:title=" ">
<polygon fill="none" stroke="black" points="88,-171.5 88,-190.5 146,-190.5 146,-171.5 88,-171.5"/>
<text text-anchor="middle" x="117" y="-178.5" font-family="Helvetica,sans-Serif" font-size="10.00">call_main</text>
</a>
</g>
</g>
<!-- Node3&#45;&gt;Node4 -->
<g id="edge3" class="edge">
<title>Node3&#45;&gt;Node4</title>
<path fill="none" stroke="midnightblue" d="M196.74,-181C181.37,-181 161.85,-181 146.09,-181"/>
<polygon fill="midnightblue" stroke="midnightblue" points="197.08,-184.5 207.08,-181 197.08,-177.5 197.08,-184.5"/>
</g>
<!-- Node5 -->
<g id="node5" class="node">
<title>Node5</title>
<g id="a_node5"><a xlink:href="trm_8c.html#a54a85aeee6f6a8ef875d4cca663f9fd8" target="_top" xlink:title=" ">
<polygon fill="none" stroke="black" points="0,-171.5 0,-190.5 52,-190.5 52,-171.5 0,-171.5"/>
<text text-anchor="middle" x="26" y="-178.5" font-family="Helvetica,sans-Serif" font-size="10.00">_start_c</text>
</a>
</g>
</g>
<!-- Node4&#45;&gt;Node5 -->
<g id="edge4" class="edge">
<title>Node4&#45;&gt;Node5</title>
<path fill="none" stroke="midnightblue" d="M77.62,-181C69.04,-181 60.15,-181 52.27,-181"/>
<polygon fill="midnightblue" stroke="midnightblue" points="77.84,-184.5 87.84,-181 77.84,-177.5 77.84,-184.5"/>
</g>
<!-- Node9 -->
<g id="node9" class="node">
<title>Node9</title>
<g id="a_node9"><a xlink:href="os_8c.html#aafec7046aa50c914df86d0d22d4fc1d1" target="_top" xlink:title=" ">
<polygon fill="none" stroke="black" points="182,-38.5 182,-57.5 265,-57.5 265,-38.5 182,-38.5"/>
<text text-anchor="middle" x="223.5" y="-45.5" font-family="Helvetica,sans-Serif" font-size="10.00">MODULE_DEF</text>
</a>
</g>
</g>
<!-- Node8&#45;&gt;Node9 -->
<g id="edge9" class="edge">
<title>Node8&#45;&gt;Node9</title>
<path fill="none" stroke="midnightblue" d="M323.64,-48C306,-48 284,-48 265.21,-48"/>
<polygon fill="midnightblue" stroke="midnightblue" points="323.99,-51.5 333.99,-48 323.99,-44.5 323.99,-51.5"/>
</g>
</g>
</svg>
