<?xml version="1.0" encoding="UTF-8" standalone="no"?>
<!DOCTYPE svg PUBLIC "-//W3C//DTD SVG 1.1//EN"
 "http://www.w3.org/Graphics/SVG/1.1/DTD/svg11.dtd">
<!-- Generated by graphviz version 3.0.0 (20220413.0106)
 -->
<!-- Title: cpu_current Pages: 1 -->
<svg width="701pt" height="515pt"
 viewBox="0.00 0.00 701.00 514.57" xmlns="http://www.w3.org/2000/svg" xmlns:xlink="http://www.w3.org/1999/xlink">
<g id="graph0" class="graph" transform="scale(1 1) rotate(0) translate(4 510.57)">
<title>cpu_current</title>
<!-- Node1 -->
<g id="node1" class="node">
<title>Node1</title>
<g id="a_node1"><a xlink:title=" ">
<polygon fill="#bfbfbf" stroke="black" points="625,-266.5 625,-285.5 693,-285.5 693,-266.5 625,-266.5"/>
<text text-anchor="middle" x="659" y="-273.5" font-family="Helvetica,sans-Serif" font-size="10.00">cpu_current</text>
</a>
</g>
</g>
<!-- Node2 -->
<g id="node2" class="node">
<title>Node2</title>
<g id="a_node2"><a xlink:href="mpe_8c.html#a0a540532023afb1f31b6f21ce053483b" target="_top" xlink:title=" ">
<polygon fill="none" stroke="black" points="477,-456.5 477,-475.5 589,-475.5 589,-456.5 477,-456.5"/>
<text text-anchor="middle" x="533" y="-463.5" font-family="Helvetica,sans-Serif" font-size="10.00">__am_stop_the_world</text>
</a>
</g>
</g>
<!-- Node1&#45;&gt;Node2 -->
<g id="edge1" class="edge">
<title>Node1&#45;&gt;Node2</title>
<path fill="none" stroke="midnightblue" d="M655.43,-295.66C649.81,-330.89 633.18,-405.01 589,-447 584.9,-450.9 579.96,-454 574.75,-456.47"/>
<polygon fill="midnightblue" stroke="midnightblue" points="658.91,-296.08 656.89,-285.68 651.98,-295.07 658.91,-296.08"/>
</g>
<!-- Node3 -->
<g id="node3" class="node">
<title>Node3</title>
<g id="a_node3"><a xlink:href="trm_8c.html#a483cb97188e557c3c68d3a1572c2cc92" target="_top" xlink:title=" ">
<polygon fill="none" stroke="black" points="387,-475.5 387,-494.5 419,-494.5 419,-475.5 387,-475.5"/>
<text text-anchor="middle" x="403" y="-482.5" font-family="Helvetica,sans-Serif" font-size="10.00">halt</text>
</a>
</g>
</g>
<!-- Node1&#45;&gt;Node3 -->
<g id="edge6" class="edge">
<title>Node1&#45;&gt;Node3</title>
<path fill="none" stroke="midnightblue" d="M658.43,-295.72C658.15,-338.67 650.68,-440.41 589,-485 536.94,-522.63 453.31,-501.47 419.21,-490.4"/>
<polygon fill="midnightblue" stroke="midnightblue" points="661.93,-295.67 658.36,-285.69 654.93,-295.71 661.93,-295.67"/>
</g>
<!-- Node6 -->
<g id="node6" class="node">
<title>Node6</title>
<g id="a_node6"><a xlink:href="cte_8c.html#a14d86719abbc247f8a0dd5eb2662ea88" target="_top" xlink:title=" ">
<polygon fill="none" stroke="black" points="509,-418.5 509,-437.5 557,-437.5 557,-418.5 509,-418.5"/>
<text text-anchor="middle" x="533" y="-425.5" font-family="Helvetica,sans-Serif" font-size="10.00">cte_init</text>
</a>
</g>
</g>
<!-- Node1&#45;&gt;Node6 -->
<g id="edge5" class="edge">
<title>Node1&#45;&gt;Node6</title>
<path fill="none" stroke="midnightblue" d="M652.99,-295.26C644.54,-324.02 624.78,-378.09 589,-409 580.06,-416.73 567.8,-421.36 557.12,-424.11"/>
<polygon fill="midnightblue" stroke="midnightblue" points="656.37,-296.15 655.68,-285.58 649.63,-294.28 656.37,-296.15"/>
</g>
<!-- Node7 -->
<g id="node7" class="node">
<title>Node7</title>
<g id="a_node7"><a xlink:href="ioe_8c.html#a45ecef4130276c1c79d872c582cd3839" target="_top" xlink:title=" ">
<polygon fill="none" stroke="black" points="509.5,-380.5 509.5,-399.5 556.5,-399.5 556.5,-380.5 509.5,-380.5"/>
<text text-anchor="middle" x="533" y="-387.5" font-family="Helvetica,sans-Serif" font-size="10.00">ioe_init</text>
</a>
</g>
</g>
<!-- Node1&#45;&gt;Node7 -->
<g id="edge7" class="edge">
<title>Node1&#45;&gt;Node7</title>
<path fill="none" stroke="midnightblue" d="M647.74,-294.44C635.85,-314.38 614.58,-345.98 589,-366 579.4,-373.51 567.09,-379.17 556.55,-383.1"/>
<polygon fill="midnightblue" stroke="midnightblue" points="650.82,-296.1 652.8,-285.69 644.76,-292.6 650.82,-296.1"/>
</g>
<!-- Node9 -->
<g id="node9" class="node">
<title>Node9</title>
<g id="a_node9"><a xlink:href="kmt_8c.html#af9c485ce0d89d6624e6e80e31d8ed207" target="_top" xlink:title="handler: save context to current task">
<polygon fill="none" stroke="black" points="233,-228.5 233,-247.5 329,-247.5 329,-228.5 233,-228.5"/>
<text text-anchor="middle" x="281" y="-235.5" font-family="Helvetica,sans-Serif" font-size="10.00">kmt_context_save</text>
</a>
</g>
</g>
<!-- Node1&#45;&gt;Node9 -->
<g id="edge9" class="edge">
<title>Node1&#45;&gt;Node9</title>
<path fill="none" stroke="midnightblue" d="M615.01,-271.65C543.96,-264.48 402.62,-250.19 329.02,-242.75"/>
<polygon fill="midnightblue" stroke="midnightblue" points="614.66,-275.14 624.96,-272.66 615.36,-268.17 614.66,-275.14"/>
</g>
<!-- Node12 -->
<g id="node12" class="node">
<title>Node12</title>
<g id="a_node12"><a xlink:href="kmt_8c.html#a031a09141c265954f2b609183e573d1c" target="_top" xlink:title="get current cpu&#39;s tasks">
<polygon fill="none" stroke="black" points="365,-266.5 365,-285.5 441,-285.5 441,-266.5 365,-266.5"/>
<text text-anchor="middle" x="403" y="-273.5" font-family="Helvetica,sans-Serif" font-size="10.00">kmt_get_task</text>
</a>
</g>
</g>
<!-- Node1&#45;&gt;Node12 -->
<g id="edge12" class="edge">
<title>Node1&#45;&gt;Node12</title>
<path fill="none" stroke="midnightblue" d="M614.56,-276C565.79,-276 487.47,-276 441.34,-276"/>
<polygon fill="midnightblue" stroke="midnightblue" points="614.79,-279.5 624.79,-276 614.79,-272.5 614.79,-279.5"/>
</g>
<!-- Node13 -->
<g id="node13" class="node">
<title>Node13</title>
<g id="a_node13"><a xlink:href="kmt_8c.html#ad4d70b4093829da1c0b0631abdff7747" target="_top" xlink:title="handler: schedule next task to run Notice: this should be the only handler which returns real Context">
<polygon fill="none" stroke="black" points="242.5,-304.5 242.5,-323.5 319.5,-323.5 319.5,-304.5 242.5,-304.5"/>
<text text-anchor="middle" x="281" y="-311.5" font-family="Helvetica,sans-Serif" font-size="10.00">kmt_schedule</text>
</a>
</g>
</g>
<!-- Node1&#45;&gt;Node13 -->
<g id="edge17" class="edge">
<title>Node1&#45;&gt;Node13</title>
<path fill="none" stroke="midnightblue" d="M614.97,-285.57C606.4,-287.24 597.44,-288.82 589,-290 492.64,-303.49 378.12,-309.93 319.97,-312.52"/>
<polygon fill="midnightblue" stroke="midnightblue" points="615.69,-289 624.8,-283.59 614.31,-282.14 615.69,-289"/>
</g>
<!-- Node14 -->
<g id="node14" class="node">
<title>Node14</title>
<g id="a_node14"><a xlink:href="kmt_8c.html#a9ddca6d133a84154c98607bf0ee82c76" target="_top" xlink:title="set cpu&#39;s current task">
<polygon fill="none" stroke="black" points="365,-342.5 365,-361.5 441,-361.5 441,-342.5 365,-342.5"/>
<text text-anchor="middle" x="403" y="-349.5" font-family="Helvetica,sans-Serif" font-size="10.00">kmt_set_task</text>
</a>
</g>
</g>
<!-- Node1&#45;&gt;Node14 -->
<g id="edge18" class="edge">
<title>Node1&#45;&gt;Node14</title>
<path fill="none" stroke="midnightblue" d="M641.44,-292.44C628.36,-304.39 609.01,-319.83 589,-328 540.57,-347.76 479.62,-352.14 441.22,-352.68"/>
<polygon fill="midnightblue" stroke="midnightblue" points="643.87,-294.96 648.74,-285.55 639.06,-289.88 643.87,-294.96"/>
</g>
<!-- Node15 -->
<g id="node15" class="node">
<title>Node15</title>
<g id="a_node15"><a xlink:href="spinlock_8c.html#ad4be0d674a7ca4dc90c2dbf8b34562cc" target="_top" xlink:title="check current cpu has the lock">
<polygon fill="none" stroke="black" points="367.5,-152.5 367.5,-171.5 438.5,-171.5 438.5,-152.5 367.5,-152.5"/>
<text text-anchor="middle" x="403" y="-159.5" font-family="Helvetica,sans-Serif" font-size="10.00">spin_holding</text>
</a>
</g>
</g>
<!-- Node1&#45;&gt;Node15 -->
<g id="edge21" class="edge">
<title>Node1&#45;&gt;Node15</title>
<path fill="none" stroke="midnightblue" d="M639.63,-259.54C626.33,-248.3 607.51,-233.74 589,-224 562.1,-209.84 481.97,-185.05 436.48,-171.51"/>
<polygon fill="midnightblue" stroke="midnightblue" points="637.66,-262.46 647.51,-266.36 642.24,-257.17 637.66,-262.46"/>
</g>
<!-- Node21 -->
<g id="node21" class="node">
<title>Node21</title>
<g id="a_node21"><a xlink:href="spinlock_8c.html#ab6f3c37ec37006951feccc3c05387cce" target="_top" xlink:title="acquire spinlock to current cpu">
<polygon fill="none" stroke="black" points="252,-76.5 252,-95.5 310,-95.5 310,-76.5 252,-76.5"/>
<text text-anchor="middle" x="281" y="-83.5" font-family="Helvetica,sans-Serif" font-size="10.00">spin_lock</text>
</a>
</g>
</g>
<!-- Node1&#45;&gt;Node21 -->
<g id="edge42" class="edge">
<title>Node1&#45;&gt;Node21</title>
<path fill="none" stroke="midnightblue" d="M656.58,-256.09C652.76,-219.26 638.9,-140.96 589,-105 545.03,-73.31 377.75,-79.93 310.37,-84.03"/>
<polygon fill="midnightblue" stroke="midnightblue" points="653.09,-256.45 657.46,-266.1 660.07,-255.83 653.09,-256.45"/>
</g>
<!-- Node24 -->
<g id="node24" class="node">
<title>Node24</title>
<g id="a_node24"><a xlink:href="spinlock_8c.html#afc9565dc7a5ddf77e1fa76f5d91caf78" target="_top" xlink:title="interrupt able">
<polygon fill="none" stroke="black" points="500.5,-114.5 500.5,-133.5 565.5,-133.5 565.5,-114.5 500.5,-114.5"/>
<text text-anchor="middle" x="533" y="-121.5" font-family="Helvetica,sans-Serif" font-size="10.00">spin_popcli</text>
</a>
</g>
</g>
<!-- Node1&#45;&gt;Node24 -->
<g id="edge43" class="edge">
<title>Node1&#45;&gt;Node24</title>
<path fill="none" stroke="midnightblue" d="M652.99,-256.74C644.54,-227.98 624.78,-173.91 589,-143 582.35,-137.25 573.87,-133.22 565.56,-130.4"/>
<polygon fill="midnightblue" stroke="midnightblue" points="649.63,-257.72 655.68,-266.42 656.37,-255.85 649.63,-257.72"/>
</g>
<!-- Node25 -->
<g id="node25" class="node">
<title>Node25</title>
<g id="a_node25"><a xlink:href="spinlock_8c.html#ab213874cda54fdbbeb1bec1e5fa90b28" target="_top" xlink:title="interrupt disable">
<polygon fill="none" stroke="black" points="497.5,-152.5 497.5,-171.5 568.5,-171.5 568.5,-152.5 497.5,-152.5"/>
<text text-anchor="middle" x="533" y="-159.5" font-family="Helvetica,sans-Serif" font-size="10.00">spin_pushcli</text>
</a>
</g>
</g>
<!-- Node1&#45;&gt;Node25 -->
<g id="edge46" class="edge">
<title>Node1&#45;&gt;Node25</title>
<path fill="none" stroke="midnightblue" d="M647.74,-257.56C635.85,-237.62 614.58,-206.02 589,-186 581.37,-180.03 572.03,-175.23 563.22,-171.54"/>
<polygon fill="midnightblue" stroke="midnightblue" points="644.76,-259.4 652.8,-266.31 650.82,-255.9 644.76,-259.4"/>
</g>
<!-- Node26 -->
<g id="node26" class="node">
<title>Node26</title>
<g id="a_node26"><a xlink:href="vme_8c.html#a102a03634ce449f78facc63eee85d9b8" target="_top" xlink:title=" ">
<polygon fill="none" stroke="black" points="506.5,-38.5 506.5,-57.5 559.5,-57.5 559.5,-38.5 506.5,-38.5"/>
<text text-anchor="middle" x="533" y="-45.5" font-family="Helvetica,sans-Serif" font-size="10.00">vme_init</text>
</a>
</g>
</g>
<!-- Node1&#45;&gt;Node26 -->
<g id="edge49" class="edge">
<title>Node1&#45;&gt;Node26</title>
<path fill="none" stroke="midnightblue" d="M656.52,-256.04C652.56,-216.13 638.36,-125.76 589,-72 581.25,-63.56 570,-57.94 559.7,-54.28"/>
<polygon fill="midnightblue" stroke="midnightblue" points="653.05,-256.43 657.41,-266.09 660.02,-255.82 653.05,-256.43"/>
</g>
<!-- Node2&#45;&gt;Node3 -->
<g id="edge2" class="edge">
<title>Node2&#45;&gt;Node3</title>
<path fill="none" stroke="midnightblue" d="M467,-475.65C449.01,-478.32 431.12,-480.97 419.03,-482.77"/>
<polygon fill="midnightblue" stroke="midnightblue" points="467.6,-479.1 476.97,-474.17 466.57,-472.17 467.6,-479.1"/>
</g>
<!-- Node4 -->
<g id="node4" class="node">
<title>Node4</title>
<g id="a_node4"><a xlink:href="trm_8c.html#a12a49ff4d3a586b2315e292c5da3df7e" target="_top" xlink:title=" ">
<polygon fill="none" stroke="black" points="252,-475.5 252,-494.5 310,-494.5 310,-475.5 252,-475.5"/>
<text text-anchor="middle" x="281" y="-482.5" font-family="Helvetica,sans-Serif" font-size="10.00">call_main</text>
</a>
</g>
</g>
<!-- Node3&#45;&gt;Node4 -->
<g id="edge3" class="edge">
<title>Node3&#45;&gt;Node4</title>
<path fill="none" stroke="midnightblue" d="M376.6,-485C357.19,-485 330.44,-485 310.34,-485"/>
<polygon fill="midnightblue" stroke="midnightblue" points="376.8,-488.5 386.8,-485 376.8,-481.5 376.8,-488.5"/>
</g>
<!-- Node5 -->
<g id="node5" class="node">
<title>Node5</title>
<g id="a_node5"><a xlink:href="trm_8c.html#a54a85aeee6f6a8ef875d4cca663f9fd8" target="_top" xlink:title=" ">
<polygon fill="none" stroke="black" points="132,-475.5 132,-494.5 184,-494.5 184,-475.5 132,-475.5"/>
<text text-anchor="middle" x="158" y="-482.5" font-family="Helvetica,sans-Serif" font-size="10.00">_start_c</text>
</a>
</g>
</g>
<!-- Node4&#45;&gt;Node5 -->
<g id="edge4" class="edge">
<title>Node4&#45;&gt;Node5</title>
<path fill="none" stroke="midnightblue" d="M241.85,-485C222.98,-485 200.72,-485 184.03,-485"/>
<polygon fill="midnightblue" stroke="midnightblue" points="241.94,-488.5 251.94,-485 241.94,-481.5 241.94,-488.5"/>
</g>
<!-- Node8 -->
<g id="node8" class="node">
<title>Node8</title>
<g id="a_node8"><a xlink:href="main_8c.html#ae66f6b31b5ad750f1fe042a706a4e3d4" target="_top" xlink:title=" ">
<polygon fill="none" stroke="black" points="384,-380.5 384,-399.5 422,-399.5 422,-380.5 384,-380.5"/>
<text text-anchor="middle" x="403" y="-387.5" font-family="Helvetica,sans-Serif" font-size="10.00">main</text>
</a>
</g>
</g>
<!-- Node7&#45;&gt;Node8 -->
<g id="edge8" class="edge">
<title>Node7&#45;&gt;Node8</title>
<path fill="none" stroke="midnightblue" d="M499.15,-390C474.69,-390 442.21,-390 422.23,-390"/>
<polygon fill="midnightblue" stroke="midnightblue" points="499.41,-393.5 509.41,-390 499.41,-386.5 499.41,-393.5"/>
</g>
<!-- Node10 -->
<g id="node10" class="node">
<title>Node10</title>
<g id="a_node10"><a xlink:href="kmt_8c.html#a0c68a294cecc4be7cb4b495f15b883a0" target="_top" xlink:title="initialize kmt module">
<polygon fill="none" stroke="black" points="132.5,-228.5 132.5,-247.5 183.5,-247.5 183.5,-228.5 132.5,-228.5"/>
<text text-anchor="middle" x="158" y="-235.5" font-family="Helvetica,sans-Serif" font-size="10.00">kmt_init</text>
</a>
</g>
</g>
<!-- Node9&#45;&gt;Node10 -->
<g id="edge10" class="edge">
<title>Node9&#45;&gt;Node10</title>
<path fill="none" stroke="midnightblue" d="M222.87,-238C209.02,-238 194.94,-238 183.53,-238"/>
<polygon fill="midnightblue" stroke="midnightblue" points="222.87,-241.5 232.87,-238 222.87,-234.5 222.87,-241.5"/>
</g>
<!-- Node11 -->
<g id="node11" class="node">
<title>Node11</title>
<g id="a_node11"><a xlink:href="kmt_8c.html#af360ef0d98ca30e481cc58ea3695fd58" target="_top" xlink:title=" ">
<polygon fill="none" stroke="black" points="0,-190.5 0,-209.5 83,-209.5 83,-190.5 0,-190.5"/>
<text text-anchor="middle" x="41.5" y="-197.5" font-family="Helvetica,sans-Serif" font-size="10.00">MODULE_DEF</text>
</a>
</g>
</g>
<!-- Node10&#45;&gt;Node11 -->
<g id="edge11" class="edge">
<title>Node10&#45;&gt;Node11</title>
<path fill="none" stroke="midnightblue" d="M122.71,-226.62C106.38,-221.2 87.06,-214.79 71.48,-209.62"/>
<polygon fill="midnightblue" stroke="midnightblue" points="121.84,-230.02 132.44,-229.85 124.05,-223.38 121.84,-230.02"/>
</g>
<!-- Node12&#45;&gt;Node9 -->
<g id="edge13" class="edge">
<title>Node12&#45;&gt;Node9</title>
<path fill="none" stroke="midnightblue" d="M361.96,-263.32C345.74,-258.19 327.33,-252.36 312.27,-247.59"/>
<polygon fill="midnightblue" stroke="midnightblue" points="361.13,-266.73 371.72,-266.41 363.24,-260.06 361.13,-266.73"/>
</g>
<!-- Node12&#45;&gt;Node11 -->
<g id="edge16" class="edge">
<title>Node12&#45;&gt;Node11</title>
<path fill="none" stroke="midnightblue" d="M354.63,-280.8C297.02,-284.85 197.71,-286.06 119,-257 91.34,-246.79 65.16,-223.22 51.78,-209.81"/>
<polygon fill="midnightblue" stroke="midnightblue" points="355.19,-284.26 364.89,-280.01 354.65,-277.28 355.19,-284.26"/>
</g>
<!-- Node12&#45;&gt;Node13 -->
<g id="edge14" class="edge">
<title>Node12&#45;&gt;Node13</title>
<path fill="none" stroke="midnightblue" d="M361.96,-288.68C345.74,-293.81 327.33,-299.64 312.27,-304.41"/>
<polygon fill="midnightblue" stroke="midnightblue" points="363.24,-291.94 371.72,-285.59 361.13,-285.27 363.24,-291.94"/>
</g>
<!-- Node13&#45;&gt;Node10 -->
<g id="edge15" class="edge">
<title>Node13&#45;&gt;Node10</title>
<path fill="none" stroke="midnightblue" d="M256.03,-298.94C231.7,-283.66 194.77,-260.47 174.2,-247.55"/>
<polygon fill="midnightblue" stroke="midnightblue" points="254.35,-302.02 264.68,-304.37 258.07,-296.09 254.35,-302.02"/>
</g>
<!-- Node14&#45;&gt;Node11 -->
<g id="edge20" class="edge">
<title>Node14&#45;&gt;Node11</title>
<path fill="none" stroke="midnightblue" d="M354.54,-350.75C320.23,-348.86 273.06,-344.24 233,-333 179.2,-317.9 164.43,-312.53 119,-280 89.78,-259.08 62.43,-226.03 49.81,-209.74"/>
<polygon fill="midnightblue" stroke="midnightblue" points="354.59,-354.25 364.75,-351.25 354.93,-347.26 354.59,-354.25"/>
</g>
<!-- Node14&#45;&gt;Node13 -->
<g id="edge19" class="edge">
<title>Node14&#45;&gt;Node13</title>
<path fill="none" stroke="midnightblue" d="M361.96,-339.32C345.74,-334.19 327.33,-328.36 312.27,-323.59"/>
<polygon fill="midnightblue" stroke="midnightblue" points="361.13,-342.73 371.72,-342.41 363.24,-336.06 361.13,-342.73"/>
</g>
<!-- Node15&#45;&gt;Node9 -->
<g id="edge22" class="edge">
<title>Node15&#45;&gt;Node9</title>
<path fill="none" stroke="midnightblue" d="M383.76,-178.59C369.58,-190.89 349.02,-207.44 329,-219 322.9,-222.52 316.03,-225.7 309.45,-228.4"/>
<polygon fill="midnightblue" stroke="midnightblue" points="386.14,-181.16 391.32,-171.92 381.5,-175.91 386.14,-181.16"/>
</g>
<!-- Node15&#45;&gt;Node13 -->
<g id="edge27" class="edge">
<title>Node15&#45;&gt;Node13</title>
<path fill="none" stroke="midnightblue" d="M388.73,-179.64C374.24,-198.82 350.25,-230.31 329,-257 315.58,-273.86 299.53,-293.14 290.09,-304.4"/>
<polygon fill="midnightblue" stroke="midnightblue" points="391.63,-181.61 394.85,-171.52 386.04,-177.4 391.63,-181.61"/>
</g>
<!-- Node16 -->
<g id="node16" class="node">
<title>Node16</title>
<g id="a_node16"><a xlink:href="kmt_8c.html#a5ddb8743298012e84cf9cb5faf22212b" target="_top" xlink:title="create thread">
<polygon fill="none" stroke="black" points="125.5,-114.5 125.5,-133.5 190.5,-133.5 190.5,-114.5 125.5,-114.5"/>
<text text-anchor="middle" x="158" y="-121.5" font-family="Helvetica,sans-Serif" font-size="10.00">kmt_create</text>
</a>
</g>
</g>
<!-- Node15&#45;&gt;Node16 -->
<g id="edge23" class="edge">
<title>Node15&#45;&gt;Node16</title>
<path fill="none" stroke="midnightblue" d="M357.27,-153.06C347.94,-151.3 338.16,-149.52 329,-148 280.93,-140 224.92,-132.43 190.72,-128"/>
<polygon fill="midnightblue" stroke="midnightblue" points="356.68,-156.51 367.16,-154.96 358,-149.64 356.68,-156.51"/>
</g>
<!-- Node17 -->
<g id="node17" class="node">
<title>Node17</title>
<g id="a_node17"><a xlink:href="kmt_8c.html#ad3fbc643b7b6092120c5152b4c890354" target="_top" xlink:title="handler: handle program errors">
<polygon fill="none" stroke="black" points="252,-190.5 252,-209.5 310,-209.5 310,-190.5 252,-190.5"/>
<text text-anchor="middle" x="281" y="-197.5" font-family="Helvetica,sans-Serif" font-size="10.00">kmt_error</text>
</a>
</g>
</g>
<!-- Node15&#45;&gt;Node17 -->
<g id="edge25" class="edge">
<title>Node15&#45;&gt;Node17</title>
<path fill="none" stroke="midnightblue" d="M362.05,-174.65C345.06,-180.03 325.66,-186.17 310.21,-191.07"/>
<polygon fill="midnightblue" stroke="midnightblue" points="363.24,-177.94 371.72,-171.59 361.13,-171.27 363.24,-177.94"/>
</g>
<!-- Node18 -->
<g id="node18" class="node">
<title>Node18</title>
<g id="a_node18"><a xlink:href="kmt_8c.html#a47d8887c87041abd5ea3148232b65c93" target="_top" xlink:title="tear down a thread">
<polygon fill="none" stroke="black" points="119,-190.5 119,-209.5 197,-209.5 197,-190.5 119,-190.5"/>
<text text-anchor="middle" x="158" y="-197.5" font-family="Helvetica,sans-Serif" font-size="10.00">kmt_teardown</text>
</a>
</g>
</g>
<!-- Node15&#45;&gt;Node18 -->
<g id="edge28" class="edge">
<title>Node15&#45;&gt;Node18</title>
<path fill="none" stroke="midnightblue" d="M357.34,-165.31C323.13,-168.26 274.84,-173.31 233,-181 219.43,-183.49 204.68,-187.09 191.94,-190.49"/>
<polygon fill="midnightblue" stroke="midnightblue" points="357.81,-168.79 367.48,-164.46 357.23,-161.81 357.81,-168.79"/>
</g>
<!-- Node19 -->
<g id="node19" class="node">
<title>Node19</title>
<g id="a_node19"><a xlink:href="os_8c.html#a2be1c9facb49d4439f41b1537d0f3ef8" target="_top" xlink:title="System trap entry.">
<polygon fill="none" stroke="black" points="133.5,-0.5 133.5,-19.5 182.5,-19.5 182.5,-0.5 133.5,-0.5"/>
<text text-anchor="middle" x="158" y="-7.5" font-family="Helvetica,sans-Serif" font-size="10.00">os_trap</text>
</a>
</g>
</g>
<!-- Node15&#45;&gt;Node19 -->
<g id="edge30" class="edge">
<title>Node15&#45;&gt;Node19</title>
<path fill="none" stroke="midnightblue" d="M397.41,-142.5C389.25,-112.55 369.15,-55.89 329,-29 284.34,0.91 217.85,-1.98 182.72,-6.24"/>
<polygon fill="midnightblue" stroke="midnightblue" points="394.03,-143.39 399.89,-152.22 400.81,-141.66 394.03,-143.39"/>
</g>
<!-- Node15&#45;&gt;Node21 -->
<g id="edge32" class="edge">
<title>Node15&#45;&gt;Node21</title>
<path fill="none" stroke="midnightblue" d="M378.01,-146.87C373.64,-143.99 369.15,-140.95 365,-138 348.48,-126.25 346.1,-120.88 329,-110 320.81,-104.79 311.34,-99.78 303.06,-95.69"/>
<polygon fill="midnightblue" stroke="midnightblue" points="376.39,-149.98 386.68,-152.48 380.19,-144.11 376.39,-149.98"/>
</g>
<!-- Node23 -->
<g id="node23" class="node">
<title>Node23</title>
<g id="a_node23"><a xlink:href="spinlock_8c.html#acdf118d615a4bc4064e991add9a80995" target="_top" xlink:title="release spinlock from current cpu">
<polygon fill="none" stroke="black" points="247,-38.5 247,-57.5 315,-57.5 315,-38.5 247,-38.5"/>
<text text-anchor="middle" x="281" y="-45.5" font-family="Helvetica,sans-Serif" font-size="10.00">spin_unlock</text>
</a>
</g>
</g>
<!-- Node15&#45;&gt;Node23 -->
<g id="edge37" class="edge">
<title>Node15&#45;&gt;Node23</title>
<path fill="none" stroke="midnightblue" d="M391.8,-143.34C379.42,-122.24 356.73,-88.08 329,-67 324.1,-63.27 318.36,-60.16 312.61,-57.61"/>
<polygon fill="midnightblue" stroke="midnightblue" points="388.9,-145.32 396.88,-152.28 394.98,-141.86 388.9,-145.32"/>
</g>
<!-- Node16&#45;&gt;Node11 -->
<g id="edge24" class="edge">
<title>Node16&#45;&gt;Node11</title>
<path fill="none" stroke="midnightblue" d="M132.85,-139.08C128.23,-142.01 123.45,-145.08 119,-148 96.84,-162.52 71.46,-179.93 56.23,-190.47"/>
<polygon fill="midnightblue" stroke="midnightblue" points="134.8,-141.99 141.39,-133.69 131.07,-136.07 134.8,-141.99"/>
</g>
<!-- Node17&#45;&gt;Node10 -->
<g id="edge26" class="edge">
<title>Node17&#45;&gt;Node10</title>
<path fill="none" stroke="midnightblue" d="M242.31,-211.84C223.19,-217.84 200.5,-224.97 183.63,-230.26"/>
<polygon fill="midnightblue" stroke="midnightblue" points="243.44,-215.15 251.94,-208.81 241.35,-208.47 243.44,-215.15"/>
</g>
<!-- Node18&#45;&gt;Node11 -->
<g id="edge29" class="edge">
<title>Node18&#45;&gt;Node11</title>
<path fill="none" stroke="midnightblue" d="M108.71,-200C100.22,-200 91.46,-200 83.21,-200"/>
<polygon fill="midnightblue" stroke="midnightblue" points="108.87,-203.5 118.87,-200 108.87,-196.5 108.87,-203.5"/>
</g>
<!-- Node20 -->
<g id="node20" class="node">
<title>Node20</title>
<g id="a_node20"><a xlink:href="os_8c.html#aafec7046aa50c914df86d0d22d4fc1d1" target="_top" xlink:title=" ">
<polygon fill="none" stroke="black" points="0,-0.5 0,-19.5 83,-19.5 83,-0.5 0,-0.5"/>
<text text-anchor="middle" x="41.5" y="-7.5" font-family="Helvetica,sans-Serif" font-size="10.00">MODULE_DEF</text>
</a>
</g>
</g>
<!-- Node19&#45;&gt;Node20 -->
<g id="edge31" class="edge">
<title>Node19&#45;&gt;Node20</title>
<path fill="none" stroke="midnightblue" d="M123.26,-10C110.74,-10 96.42,-10 83.34,-10"/>
<polygon fill="midnightblue" stroke="midnightblue" points="123.28,-13.5 133.28,-10 123.28,-6.5 123.28,-13.5"/>
</g>
<!-- Node21&#45;&gt;Node11 -->
<g id="edge35" class="edge">
<title>Node21&#45;&gt;Node11</title>
<path fill="none" stroke="midnightblue" d="M259.74,-102.04C243.46,-114.39 219.66,-131.27 197,-143 156.88,-163.76 107.43,-180.61 75.45,-190.46"/>
<polygon fill="midnightblue" stroke="midnightblue" points="262.17,-104.58 267.95,-95.71 257.9,-99.04 262.17,-104.58"/>
</g>
<!-- Node21&#45;&gt;Node16 -->
<g id="edge33" class="edge">
<title>Node21&#45;&gt;Node16</title>
<path fill="none" stroke="midnightblue" d="M242.3,-97.84C225.3,-103.18 205.49,-109.4 189.46,-114.44"/>
<polygon fill="midnightblue" stroke="midnightblue" points="243.44,-101.15 251.94,-94.81 241.35,-94.47 243.44,-101.15"/>
</g>
<!-- Node21&#45;&gt;Node19 -->
<g id="edge36" class="edge">
<title>Node21&#45;&gt;Node19</title>
<path fill="none" stroke="midnightblue" d="M243.23,-72.28C239.71,-70.63 236.25,-68.86 233,-67 208.8,-53.13 183.71,-32.17 169.86,-19.9"/>
<polygon fill="midnightblue" stroke="midnightblue" points="242,-75.56 252.56,-76.37 244.81,-69.15 242,-75.56"/>
</g>
<!-- Node22 -->
<g id="node22" class="node">
<title>Node22</title>
<g id="a_node22"><a xlink:href="kernel_8h.html#a7ef2d722f9c7f8acc1801144a5188825" target="_top" xlink:title=" ">
<polygon fill="none" stroke="black" points="128.5,-76.5 128.5,-95.5 187.5,-95.5 187.5,-76.5 128.5,-76.5"/>
<text text-anchor="middle" x="158" y="-83.5" font-family="Helvetica,sans-Serif" font-size="10.00">MODULE</text>
</a>
</g>
</g>
<!-- Node21&#45;&gt;Node22 -->
<g id="edge34" class="edge">
<title>Node21&#45;&gt;Node22</title>
<path fill="none" stroke="midnightblue" d="M241.51,-86C224.08,-86 203.83,-86 187.75,-86"/>
<polygon fill="midnightblue" stroke="midnightblue" points="241.94,-89.5 251.94,-86 241.94,-82.5 241.94,-89.5"/>
</g>
<!-- Node23&#45;&gt;Node11 -->
<g id="edge40" class="edge">
<title>Node23&#45;&gt;Node11</title>
<path fill="none" stroke="midnightblue" d="M236.58,-43.03C201.96,-41.31 153.7,-44.11 119,-67 73.2,-97.22 51.57,-164.92 44.87,-190.22"/>
<polygon fill="midnightblue" stroke="midnightblue" points="236.65,-46.55 246.86,-43.7 237.1,-39.56 236.65,-46.55"/>
</g>
<!-- Node23&#45;&gt;Node16 -->
<g id="edge38" class="edge">
<title>Node23&#45;&gt;Node16</title>
<path fill="none" stroke="midnightblue" d="M241.57,-61.9C238.59,-63.46 235.69,-65.17 233,-67 213.78,-80.1 215.69,-91.14 197,-105 192.26,-108.51 186.77,-111.69 181.47,-114.39"/>
<polygon fill="midnightblue" stroke="midnightblue" points="243.13,-65.03 250.67,-57.59 240.13,-58.7 243.13,-65.03"/>
</g>
<!-- Node23&#45;&gt;Node19 -->
<g id="edge41" class="edge">
<title>Node23&#45;&gt;Node19</title>
<path fill="none" stroke="midnightblue" d="M239.87,-35.4C220.9,-29.44 198.91,-22.53 182.65,-17.43"/>
<polygon fill="midnightblue" stroke="midnightblue" points="238.88,-38.75 249.47,-38.41 240.97,-32.08 238.88,-38.75"/>
</g>
<!-- Node23&#45;&gt;Node22 -->
<g id="edge39" class="edge">
<title>Node23&#45;&gt;Node22</title>
<path fill="none" stroke="midnightblue" d="M239.79,-60.63C222.8,-65.96 203.39,-72.06 187.86,-76.94"/>
<polygon fill="midnightblue" stroke="midnightblue" points="240.97,-63.92 249.47,-57.59 238.88,-57.25 240.97,-63.92"/>
</g>
<!-- Node24&#45;&gt;Node15 -->
<g id="edge44" class="edge">
<title>Node24&#45;&gt;Node15</title>
<path fill="none" stroke="midnightblue" d="M490.35,-136.37C472.75,-141.59 452.58,-147.58 436.17,-152.45"/>
<polygon fill="midnightblue" stroke="midnightblue" points="491.77,-139.59 500.36,-133.39 489.78,-132.88 491.77,-139.59"/>
</g>
<!-- Node24&#45;&gt;Node23 -->
<g id="edge45" class="edge">
<title>Node24&#45;&gt;Node23</title>
<path fill="none" stroke="midnightblue" d="M490.8,-111.47C441.03,-96.35 358.42,-71.23 313.48,-57.57"/>
<polygon fill="midnightblue" stroke="midnightblue" points="490,-114.89 500.59,-114.45 492.04,-108.19 490,-114.89"/>
</g>
<!-- Node25&#45;&gt;Node15 -->
<g id="edge47" class="edge">
<title>Node25&#45;&gt;Node15</title>
<path fill="none" stroke="midnightblue" d="M487.2,-162C471.28,-162 453.61,-162 438.67,-162"/>
<polygon fill="midnightblue" stroke="midnightblue" points="487.36,-165.5 497.36,-162 487.36,-158.5 487.36,-165.5"/>
</g>
<!-- Node25&#45;&gt;Node21 -->
<g id="edge48" class="edge">
<title>Node25&#45;&gt;Node21</title>
<path fill="none" stroke="midnightblue" d="M490.86,-149.49C439.8,-133.97 354.07,-107.91 310.01,-94.52"/>
<polygon fill="midnightblue" stroke="midnightblue" points="490,-152.89 500.59,-152.45 492.04,-146.19 490,-152.89"/>
</g>
</g>
</svg>
