<?xml version="1.0" encoding="UTF-8" standalone="no"?>
<!DOCTYPE svg PUBLIC "-//W3C//DTD SVG 1.1//EN"
 "http://www.w3.org/Graphics/SVG/1.1/DTD/svg11.dtd">
<!-- Generated by graphviz version 3.0.0 (20220413.0106)
 -->
<!-- Title: os_run Pages: 1 -->
<svg width="508pt" height="306pt"
 viewBox="0.00 0.00 508.00 305.99" xmlns="http://www.w3.org/2000/svg" xmlns:xlink="http://www.w3.org/1999/xlink">
<g id="graph0" class="graph" transform="scale(1 1) rotate(0) translate(4 301.99)">
<title>os_run</title>
<!-- Node1 -->
<g id="node1" class="node">
<title>Node1</title>
<g id="a_node1"><a xlink:title=" ">
<polygon fill="#bfbfbf" stroke="black" points="0,-132.5 0,-151.5 46,-151.5 46,-132.5 0,-132.5"/>
<text text-anchor="middle" x="23" y="-139.5" font-family="Helvetica,sans-Serif" font-size="10.00">os_run</text>
</a>
</g>
</g>
<!-- Node2 -->
<g id="node2" class="node">
<title>Node2</title>
<g id="a_node2"><a xlink:href="mpe_8c.html#ab701de78cad32896c923ce900087e714" target="_top" xlink:title=" ">
<polygon fill="none" stroke="black" points="320.5,-266.5 320.5,-285.5 388.5,-285.5 388.5,-266.5 320.5,-266.5"/>
<text text-anchor="middle" x="354.5" y="-273.5" font-family="Helvetica,sans-Serif" font-size="10.00">cpu_current</text>
</a>
</g>
</g>
<!-- Node1&#45;&gt;Node2 -->
<g id="edge1" class="edge">
<title>Node1&#45;&gt;Node2</title>
<path fill="none" stroke="midnightblue" d="M29.19,-151.76C44.34,-179.04 91.51,-255.9 156,-284 206.13,-305.85 270.38,-297.39 311.75,-287.9"/>
<polygon fill="midnightblue" stroke="midnightblue" points="312.59,-291.3 321.49,-285.55 310.95,-284.49 312.59,-291.3"/>
</g>
<!-- Node3 -->
<g id="node3" class="node">
<title>Node3</title>
<g id="a_node3"><a xlink:href="trm_8c.html#a483cb97188e557c3c68d3a1572c2cc92" target="_top" xlink:title=" ">
<polygon fill="none" stroke="black" points="85,-152.5 85,-171.5 117,-171.5 117,-152.5 85,-152.5"/>
<text text-anchor="middle" x="101" y="-159.5" font-family="Helvetica,sans-Serif" font-size="10.00">halt</text>
</a>
</g>
</g>
<!-- Node1&#45;&gt;Node3 -->
<g id="edge2" class="edge">
<title>Node1&#45;&gt;Node3</title>
<path fill="none" stroke="midnightblue" d="M46.39,-147.89C55.43,-150.27 65.89,-153.02 75.15,-155.46"/>
<polygon fill="midnightblue" stroke="midnightblue" points="74.41,-158.89 84.97,-158.05 76.19,-152.12 74.41,-158.89"/>
</g>
<!-- Node12 -->
<g id="node12" class="node">
<title>Node12</title>
<g id="a_node12"><a xlink:href="trm_8c.html#a6351d8706733262e7e325926b1a9aab7" target="_top" xlink:title=" ">
<polygon fill="none" stroke="black" points="191.5,-76.5 191.5,-95.5 232.5,-95.5 232.5,-76.5 191.5,-76.5"/>
<text text-anchor="middle" x="212" y="-83.5" font-family="Helvetica,sans-Serif" font-size="10.00">putch</text>
</a>
</g>
</g>
<!-- Node1&#45;&gt;Node12 -->
<g id="edge21" class="edge">
<title>Node1&#45;&gt;Node12</title>
<path fill="none" stroke="midnightblue" d="M46.19,-135.36C79.88,-125.27 143.99,-106.07 181.55,-94.82"/>
<polygon fill="midnightblue" stroke="midnightblue" points="182.82,-98.09 191.39,-91.87 180.81,-91.39 182.82,-98.09"/>
</g>
<!-- Node13 -->
<g id="node13" class="node">
<title>Node13</title>
<g id="a_node13"><a xlink:href="stdio_8c.html#a55f3d956bb2ba20b5059e9e25484a47f" target="_top" xlink:title=" ">
<polygon fill="none" stroke="black" points="82,-57.5 82,-76.5 120,-76.5 120,-57.5 82,-57.5"/>
<text text-anchor="middle" x="101" y="-64.5" font-family="Helvetica,sans-Serif" font-size="10.00">printf</text>
</a>
</g>
</g>
<!-- Node1&#45;&gt;Node13 -->
<g id="edge15" class="edge">
<title>Node1&#45;&gt;Node13</title>
<path fill="none" stroke="midnightblue" d="M33.94,-132.2C46.41,-119.89 67.99,-98.59 83.08,-83.69"/>
<polygon fill="midnightblue" stroke="midnightblue" points="85.64,-86.09 90.3,-76.57 80.73,-81.1 85.64,-86.09"/>
</g>
<!-- Node3&#45;&gt;Node2 -->
<g id="edge10" class="edge">
<title>Node3&#45;&gt;Node2</title>
<path fill="none" stroke="midnightblue" d="M104.28,-171.57C109.56,-191.38 124.63,-236.68 156,-257 202.2,-286.94 267.69,-286.9 310.38,-282.65"/>
<polygon fill="midnightblue" stroke="midnightblue" points="310.9,-286.11 320.45,-281.52 310.12,-279.15 310.9,-286.11"/>
</g>
<!-- Node4 -->
<g id="node4" class="node">
<title>Node4</title>
<g id="a_node4"><a xlink:href="mpe_8c.html#a0a540532023afb1f31b6f21ce053483b" target="_top" xlink:title=" ">
<polygon fill="none" stroke="black" points="156,-228.5 156,-247.5 268,-247.5 268,-228.5 156,-228.5"/>
<text text-anchor="middle" x="212" y="-235.5" font-family="Helvetica,sans-Serif" font-size="10.00">__am_stop_the_world</text>
</a>
</g>
</g>
<!-- Node3&#45;&gt;Node4 -->
<g id="edge3" class="edge">
<title>Node3&#45;&gt;Node4</title>
<path fill="none" stroke="midnightblue" d="M108.94,-171.84C118.28,-184.44 136.06,-206.15 156,-219 159.11,-221.01 162.46,-222.83 165.92,-224.48"/>
<polygon fill="midnightblue" stroke="midnightblue" points="164.64,-227.74 175.21,-228.44 167.39,-221.3 164.64,-227.74"/>
</g>
<!-- Node9 -->
<g id="node9" class="node">
<title>Node9</title>
<g id="a_node9"><a xlink:href="x86_8h.html#acc919e7809ef1db2b20aa3804f540b5c" target="_top" xlink:title=" ">
<polygon fill="none" stroke="black" points="197.5,-190.5 197.5,-209.5 226.5,-209.5 226.5,-190.5 197.5,-190.5"/>
<text text-anchor="middle" x="212" y="-197.5" font-family="Helvetica,sans-Serif" font-size="10.00">cli</text>
</a>
</g>
</g>
<!-- Node3&#45;&gt;Node9 -->
<g id="edge9" class="edge">
<title>Node3&#45;&gt;Node9</title>
<path fill="none" stroke="midnightblue" d="M117.12,-167.35C127.94,-171.17 142.86,-176.42 156,-181 166.48,-184.65 178.09,-188.67 187.93,-192.06"/>
<polygon fill="midnightblue" stroke="midnightblue" points="186.84,-195.39 197.43,-195.34 189.12,-188.77 186.84,-195.39"/>
</g>
<!-- Node10 -->
<g id="node10" class="node">
<title>Node10</title>
<g id="a_node10"><a xlink:href="x86_8h.html#a2adfe40c0aadff727889d263815cb8ed" target="_top" xlink:title=" ">
<polygon fill="none" stroke="black" points="197.5,-152.5 197.5,-171.5 226.5,-171.5 226.5,-152.5 197.5,-152.5"/>
<text text-anchor="middle" x="212" y="-159.5" font-family="Helvetica,sans-Serif" font-size="10.00">hlt</text>
</a>
</g>
</g>
<!-- Node3&#45;&gt;Node10 -->
<g id="edge11" class="edge">
<title>Node3&#45;&gt;Node10</title>
<path fill="none" stroke="midnightblue" d="M117.16,-162C135.29,-162 165.86,-162 187.17,-162"/>
<polygon fill="midnightblue" stroke="midnightblue" points="187.35,-165.5 197.35,-162 187.35,-158.5 187.35,-165.5"/>
</g>
<!-- Node11 -->
<g id="node11" class="node">
<title>Node11</title>
<g id="a_node11"><a xlink:href="x86_8h.html#af92fc55c49437b9152499a13ba2b6585" target="_top" xlink:title=" ">
<polygon fill="none" stroke="black" points="193,-114.5 193,-133.5 231,-133.5 231,-114.5 193,-114.5"/>
<text text-anchor="middle" x="212" y="-121.5" font-family="Helvetica,sans-Serif" font-size="10.00">outw</text>
</a>
</g>
</g>
<!-- Node3&#45;&gt;Node11 -->
<g id="edge12" class="edge">
<title>Node3&#45;&gt;Node11</title>
<path fill="none" stroke="midnightblue" d="M117.12,-156.65C127.94,-152.83 142.86,-147.58 156,-143 164.78,-139.94 174.35,-136.63 183.01,-133.63"/>
<polygon fill="midnightblue" stroke="midnightblue" points="184.35,-136.88 192.66,-130.31 182.06,-130.26 184.35,-136.88"/>
</g>
<!-- Node3&#45;&gt;Node12 -->
<g id="edge13" class="edge">
<title>Node3&#45;&gt;Node12</title>
<path fill="none" stroke="midnightblue" d="M108.94,-152.16C118.28,-139.56 136.06,-117.85 156,-105 163.75,-100 172.97,-96.16 181.62,-93.27"/>
<polygon fill="midnightblue" stroke="midnightblue" points="182.83,-96.56 191.39,-90.32 180.81,-89.86 182.83,-96.56"/>
</g>
<!-- Node4&#45;&gt;Node2 -->
<g id="edge8" class="edge">
<title>Node4&#45;&gt;Node2</title>
<path fill="none" stroke="midnightblue" d="M248.45,-247.59C267.37,-252.71 290.79,-259.04 310.71,-264.43"/>
<polygon fill="midnightblue" stroke="midnightblue" points="309.9,-267.83 320.47,-267.07 311.73,-261.08 309.9,-267.83"/>
</g>
<!-- Node5 -->
<g id="node5" class="node">
<title>Node5</title>
<g id="a_node5"><a xlink:href="ioe_8c.html#a88a238fee7cd006afa69ea97e4914a09" target="_top" xlink:title=" ">
<polygon fill="none" stroke="black" points="304,-228.5 304,-247.5 405,-247.5 405,-228.5 304,-228.5"/>
<text text-anchor="middle" x="354.5" y="-235.5" font-family="Helvetica,sans-Serif" font-size="10.00">__am_lapic_bootap</text>
</a>
</g>
</g>
<!-- Node4&#45;&gt;Node5 -->
<g id="edge4" class="edge">
<title>Node4&#45;&gt;Node5</title>
<path fill="none" stroke="midnightblue" d="M268.13,-238C276.43,-238 285.04,-238 293.44,-238"/>
<polygon fill="midnightblue" stroke="midnightblue" points="293.56,-241.5 303.56,-238 293.56,-234.5 293.56,-241.5"/>
</g>
<!-- Node8 -->
<g id="node8" class="node">
<title>Node8</title>
<g id="a_node8"><a xlink:href="x86_8h.html#adfa01b89ceed9e7a87f185f4e441aa16" target="_top" xlink:title=" ">
<polygon fill="none" stroke="black" points="320.5,-190.5 320.5,-209.5 388.5,-209.5 388.5,-190.5 320.5,-190.5"/>
<text text-anchor="middle" x="354.5" y="-197.5" font-family="Helvetica,sans-Serif" font-size="10.00">boot_record</text>
</a>
</g>
</g>
<!-- Node4&#45;&gt;Node8 -->
<g id="edge7" class="edge">
<title>Node4&#45;&gt;Node8</title>
<path fill="none" stroke="midnightblue" d="M248.45,-228.41C267.37,-223.29 290.79,-216.96 310.71,-211.57"/>
<polygon fill="midnightblue" stroke="midnightblue" points="311.73,-214.92 320.47,-208.93 309.9,-208.17 311.73,-214.92"/>
</g>
<!-- Node6 -->
<g id="node6" class="node">
<title>Node6</title>
<g id="a_node6"><a xlink:href="ioe_8c.html#a72d9ed0bfe1066367763e044b7a7b7c3" target="_top" xlink:title=" ">
<polygon fill="none" stroke="black" points="448.5,-228.5 448.5,-247.5 492.5,-247.5 492.5,-228.5 448.5,-228.5"/>
<text text-anchor="middle" x="470.5" y="-235.5" font-family="Helvetica,sans-Serif" font-size="10.00">lapicw</text>
</a>
</g>
</g>
<!-- Node5&#45;&gt;Node6 -->
<g id="edge5" class="edge">
<title>Node5&#45;&gt;Node6</title>
<path fill="none" stroke="midnightblue" d="M405.17,-238C416.39,-238 428,-238 438.21,-238"/>
<polygon fill="midnightblue" stroke="midnightblue" points="438.28,-241.5 448.28,-238 438.28,-234.5 438.28,-241.5"/>
</g>
<!-- Node7 -->
<g id="node7" class="node">
<title>Node7</title>
<g id="a_node7"><a xlink:href="x86_8h.html#ade961b44e45ddacbc3c3b7609cf36dc6" target="_top" xlink:title=" ">
<polygon fill="none" stroke="black" points="453,-152.5 453,-171.5 488,-171.5 488,-152.5 453,-152.5"/>
<text text-anchor="middle" x="470.5" y="-159.5" font-family="Helvetica,sans-Serif" font-size="10.00">outb</text>
</a>
</g>
</g>
<!-- Node5&#45;&gt;Node7 -->
<g id="edge6" class="edge">
<title>Node5&#45;&gt;Node7</title>
<path fill="none" stroke="midnightblue" d="M385.63,-228.41C392.23,-225.78 399.02,-222.63 405,-219 423.24,-207.94 441.19,-191.49 453.5,-179.11"/>
<polygon fill="midnightblue" stroke="midnightblue" points="456.29,-181.27 460.73,-171.65 451.26,-176.39 456.29,-181.27"/>
</g>
<!-- Node12&#45;&gt;Node7 -->
<g id="edge14" class="edge">
<title>Node12&#45;&gt;Node7</title>
<path fill="none" stroke="midnightblue" d="M232.7,-91.84C278.36,-105.36 391.43,-138.87 443.04,-154.16"/>
<polygon fill="midnightblue" stroke="midnightblue" points="442.21,-157.56 452.79,-157.05 444.2,-150.85 442.21,-157.56"/>
</g>
<!-- Node14 -->
<g id="node14" class="node">
<title>Node14</title>
<g id="a_node14"><a xlink:href="stdio_8c.html#a44a6734c6f8f81d8e1fa3b9d476c5134" target="_top" xlink:title="write bytes (including the terminating null byte (&#39;\0&#39;)) to out.">
<polygon fill="none" stroke="black" points="187.5,-38.5 187.5,-57.5 236.5,-57.5 236.5,-38.5 187.5,-38.5"/>
<text text-anchor="middle" x="212" y="-45.5" font-family="Helvetica,sans-Serif" font-size="10.00">vsprintf</text>
</a>
</g>
</g>
<!-- Node13&#45;&gt;Node14 -->
<g id="edge16" class="edge">
<title>Node13&#45;&gt;Node14</title>
<path fill="none" stroke="midnightblue" d="M120.49,-63.78C136.07,-61.06 158.76,-57.11 177.52,-53.84"/>
<polygon fill="midnightblue" stroke="midnightblue" points="178.22,-57.27 187.47,-52.1 177.01,-50.37 178.22,-57.27"/>
</g>
<!-- Node15 -->
<g id="node15" class="node">
<title>Node15</title>
<g id="a_node15"><a xlink:href="stdio_8c.html#abf852e417a205348767989f2940059ad" target="_top" xlink:title="write at most n bytes (including the terminating null byte (&#39;\0&#39;)) to out.">
<polygon fill="none" stroke="black" points="327.5,-38.5 327.5,-57.5 381.5,-57.5 381.5,-38.5 327.5,-38.5"/>
<text text-anchor="middle" x="354.5" y="-45.5" font-family="Helvetica,sans-Serif" font-size="10.00">vsnprintf</text>
</a>
</g>
</g>
<!-- Node14&#45;&gt;Node15 -->
<g id="edge17" class="edge">
<title>Node14&#45;&gt;Node15</title>
<path fill="none" stroke="midnightblue" d="M236.52,-48C258.49,-48 291.62,-48 317.02,-48"/>
<polygon fill="midnightblue" stroke="midnightblue" points="317.03,-51.5 327.03,-48 317.03,-44.5 317.03,-51.5"/>
</g>
<!-- Node16 -->
<g id="node16" class="node">
<title>Node16</title>
<g id="a_node16"><a xlink:href="stdio_8c.html#a0e2811092b514de48ac2dd675d6cf2b4" target="_top" xlink:title="print decimal into buffer,return length">
<polygon fill="none" stroke="black" points="441,-76.5 441,-95.5 500,-95.5 500,-76.5 441,-76.5"/>
<text text-anchor="middle" x="470.5" y="-83.5" font-family="Helvetica,sans-Serif" font-size="10.00">print_num</text>
</a>
</g>
</g>
<!-- Node15&#45;&gt;Node16 -->
<g id="edge18" class="edge">
<title>Node15&#45;&gt;Node16</title>
<path fill="none" stroke="midnightblue" d="M381.65,-56.72C396.24,-61.58 414.69,-67.73 430.91,-73.14"/>
<polygon fill="midnightblue" stroke="midnightblue" points="430.07,-76.55 440.67,-76.39 432.29,-69.91 430.07,-76.55"/>
</g>
<!-- Node17 -->
<g id="node17" class="node">
<title>Node17</title>
<g id="a_node17"><a xlink:href="string_8c.html#aa383452fe445bfae989358c9d7d96f4f" target="_top" xlink:title="Return the length of the string s.">
<polygon fill="none" stroke="black" points="450,-38.5 450,-57.5 491,-57.5 491,-38.5 450,-38.5"/>
<text text-anchor="middle" x="470.5" y="-45.5" font-family="Helvetica,sans-Serif" font-size="10.00">strlen</text>
</a>
</g>
</g>
<!-- Node15&#45;&gt;Node17 -->
<g id="edge19" class="edge">
<title>Node15&#45;&gt;Node17</title>
<path fill="none" stroke="midnightblue" d="M381.65,-48C398.94,-48 421.64,-48 439.63,-48"/>
<polygon fill="midnightblue" stroke="midnightblue" points="439.87,-51.5 449.87,-48 439.87,-44.5 439.87,-51.5"/>
</g>
<!-- Node18 -->
<g id="node18" class="node">
<title>Node18</title>
<g id="a_node18"><a xlink:href="string_8c.html#a82f08f2390a9067f3c94b638e90e03bd" target="_top" xlink:title="Copy at most n bytes from string src to dst, returning a pointer to the start of dst.">
<polygon fill="none" stroke="black" points="446.5,-0.5 446.5,-19.5 494.5,-19.5 494.5,-0.5 446.5,-0.5"/>
<text text-anchor="middle" x="470.5" y="-7.5" font-family="Helvetica,sans-Serif" font-size="10.00">strncpy</text>
</a>
</g>
</g>
<!-- Node15&#45;&gt;Node18 -->
<g id="edge20" class="edge">
<title>Node15&#45;&gt;Node18</title>
<path fill="none" stroke="midnightblue" d="M381.65,-39.28C397.92,-33.86 418.98,-26.84 436.4,-21.03"/>
<polygon fill="midnightblue" stroke="midnightblue" points="437.8,-24.26 446.18,-17.77 435.58,-17.62 437.8,-24.26"/>
</g>
</g>
</svg>
