<?xml version="1.0" encoding="UTF-8" standalone="no"?>
<!DOCTYPE svg PUBLIC "-//W3C//DTD SVG 1.1//EN"
 "http://www.w3.org/Graphics/SVG/1.1/DTD/svg11.dtd">
<!-- Generated by graphviz version 3.0.0 (20220413.0106)
 -->
<!-- Title: MODULE_DEF Pages: 1 -->
<svg width="627pt" height="306pt"
 viewBox="0.00 0.00 627.00 306.34" xmlns="http://www.w3.org/2000/svg" xmlns:xlink="http://www.w3.org/1999/xlink">
<g id="graph0" class="graph" transform="scale(1 1) rotate(0) translate(4 302.34)">
<title>MODULE_DEF</title>
<!-- Node1 -->
<g id="node1" class="node">
<title>Node1</title>
<g id="a_node1"><a xlink:title=" ">
<polygon fill="#bfbfbf" stroke="black" points="0,-151.5 0,-170.5 83,-170.5 83,-151.5 0,-151.5"/>
<text text-anchor="middle" x="41.5" y="-158.5" font-family="Helvetica,sans-Serif" font-size="10.00">MODULE_DEF</text>
</a>
</g>
</g>
<!-- Node2 -->
<g id="node2" class="node">
<title>Node2</title>
<g id="a_node2"><a xlink:href="os_8c.html#aef4448ba4711b237d8254529f2a4b621" target="_top" xlink:title=" ">
<polygon fill="none" stroke="black" points="119.5,-170.5 119.5,-189.5 164.5,-189.5 164.5,-170.5 119.5,-170.5"/>
<text text-anchor="middle" x="142" y="-177.5" font-family="Helvetica,sans-Serif" font-size="10.00">os_init</text>
</a>
</g>
</g>
<!-- Node1&#45;&gt;Node2 -->
<g id="edge1" class="edge">
<title>Node1&#45;&gt;Node2</title>
<path fill="none" stroke="midnightblue" d="M83.13,-168.84C91.85,-170.52 100.94,-172.27 109.27,-173.88"/>
<polygon fill="midnightblue" stroke="midnightblue" points="108.83,-177.36 119.31,-175.82 110.16,-170.49 108.83,-177.36"/>
</g>
<!-- Node3 -->
<g id="node3" class="node">
<title>Node3</title>
<g id="a_node3"><a xlink:href="os_8c.html#a5f9cb32664e017ca15c49ec66e5342e4" target="_top" xlink:title=" ">
<polygon fill="none" stroke="black" points="119,-132.5 119,-151.5 165,-151.5 165,-132.5 119,-132.5"/>
<text text-anchor="middle" x="142" y="-139.5" font-family="Helvetica,sans-Serif" font-size="10.00">os_run</text>
</a>
</g>
</g>
<!-- Node1&#45;&gt;Node3 -->
<g id="edge2" class="edge">
<title>Node1&#45;&gt;Node3</title>
<path fill="none" stroke="midnightblue" d="M83.13,-153.16C91.7,-151.51 100.63,-149.79 108.84,-148.2"/>
<polygon fill="midnightblue" stroke="midnightblue" points="109.61,-151.62 118.77,-146.29 108.28,-144.75 109.61,-151.62"/>
</g>
<!-- Node4 -->
<g id="node4" class="node">
<title>Node4</title>
<g id="a_node4"><a xlink:href="mpe_8c.html#ab701de78cad32896c923ce900087e714" target="_top" xlink:title=" ">
<polygon fill="none" stroke="black" points="439.5,-266.5 439.5,-285.5 507.5,-285.5 507.5,-266.5 439.5,-266.5"/>
<text text-anchor="middle" x="473.5" y="-273.5" font-family="Helvetica,sans-Serif" font-size="10.00">cpu_current</text>
</a>
</g>
</g>
<!-- Node3&#45;&gt;Node4 -->
<g id="edge3" class="edge">
<title>Node3&#45;&gt;Node4</title>
<path fill="none" stroke="midnightblue" d="M154.9,-151.79C158.24,-154.67 161.83,-157.89 165,-161 217.31,-212.41 208.05,-254.06 275,-284 325.21,-306.46 389.97,-297.66 431.38,-287.94"/>
<polygon fill="midnightblue" stroke="midnightblue" points="432.25,-291.33 441.12,-285.53 430.57,-284.53 432.25,-291.33"/>
</g>
<!-- Node5 -->
<g id="node5" class="node">
<title>Node5</title>
<g id="a_node5"><a xlink:href="trm_8c.html#a483cb97188e557c3c68d3a1572c2cc92" target="_top" xlink:title=" ">
<polygon fill="none" stroke="black" points="204,-152.5 204,-171.5 236,-171.5 236,-152.5 204,-152.5"/>
<text text-anchor="middle" x="220" y="-159.5" font-family="Helvetica,sans-Serif" font-size="10.00">halt</text>
</a>
</g>
</g>
<!-- Node3&#45;&gt;Node5 -->
<g id="edge4" class="edge">
<title>Node3&#45;&gt;Node5</title>
<path fill="none" stroke="midnightblue" d="M165.39,-147.89C174.43,-150.27 184.89,-153.02 194.15,-155.46"/>
<polygon fill="midnightblue" stroke="midnightblue" points="193.41,-158.89 203.97,-158.05 195.19,-152.12 193.41,-158.89"/>
</g>
<!-- Node14 -->
<g id="node14" class="node">
<title>Node14</title>
<g id="a_node14"><a xlink:href="trm_8c.html#a6351d8706733262e7e325926b1a9aab7" target="_top" xlink:title=" ">
<polygon fill="none" stroke="black" points="310.5,-76.5 310.5,-95.5 351.5,-95.5 351.5,-76.5 310.5,-76.5"/>
<text text-anchor="middle" x="331" y="-83.5" font-family="Helvetica,sans-Serif" font-size="10.00">putch</text>
</a>
</g>
</g>
<!-- Node3&#45;&gt;Node14 -->
<g id="edge23" class="edge">
<title>Node3&#45;&gt;Node14</title>
<path fill="none" stroke="midnightblue" d="M165.19,-135.36C198.88,-125.27 262.99,-106.07 300.55,-94.82"/>
<polygon fill="midnightblue" stroke="midnightblue" points="301.82,-98.09 310.39,-91.87 299.81,-91.39 301.82,-98.09"/>
</g>
<!-- Node15 -->
<g id="node15" class="node">
<title>Node15</title>
<g id="a_node15"><a xlink:href="stdio_8c.html#a55f3d956bb2ba20b5059e9e25484a47f" target="_top" xlink:title=" ">
<polygon fill="none" stroke="black" points="201,-57.5 201,-76.5 239,-76.5 239,-57.5 201,-57.5"/>
<text text-anchor="middle" x="220" y="-64.5" font-family="Helvetica,sans-Serif" font-size="10.00">printf</text>
</a>
</g>
</g>
<!-- Node3&#45;&gt;Node15 -->
<g id="edge17" class="edge">
<title>Node3&#45;&gt;Node15</title>
<path fill="none" stroke="midnightblue" d="M152.94,-132.2C165.41,-119.89 186.99,-98.59 202.08,-83.69"/>
<polygon fill="midnightblue" stroke="midnightblue" points="204.64,-86.09 209.3,-76.57 199.73,-81.1 204.64,-86.09"/>
</g>
<!-- Node5&#45;&gt;Node4 -->
<g id="edge12" class="edge">
<title>Node5&#45;&gt;Node4</title>
<path fill="none" stroke="midnightblue" d="M223.28,-171.57C228.56,-191.38 243.63,-236.68 275,-257 321.2,-286.94 386.69,-286.9 429.38,-282.65"/>
<polygon fill="midnightblue" stroke="midnightblue" points="429.9,-286.11 439.45,-281.52 429.12,-279.15 429.9,-286.11"/>
</g>
<!-- Node6 -->
<g id="node6" class="node">
<title>Node6</title>
<g id="a_node6"><a xlink:href="mpe_8c.html#a0a540532023afb1f31b6f21ce053483b" target="_top" xlink:title=" ">
<polygon fill="none" stroke="black" points="275,-228.5 275,-247.5 387,-247.5 387,-228.5 275,-228.5"/>
<text text-anchor="middle" x="331" y="-235.5" font-family="Helvetica,sans-Serif" font-size="10.00">__am_stop_the_world</text>
</a>
</g>
</g>
<!-- Node5&#45;&gt;Node6 -->
<g id="edge5" class="edge">
<title>Node5&#45;&gt;Node6</title>
<path fill="none" stroke="midnightblue" d="M227.94,-171.84C237.28,-184.44 255.06,-206.15 275,-219 278.11,-221.01 281.46,-222.83 284.92,-224.48"/>
<polygon fill="midnightblue" stroke="midnightblue" points="283.64,-227.74 294.21,-228.44 286.39,-221.3 283.64,-227.74"/>
</g>
<!-- Node11 -->
<g id="node11" class="node">
<title>Node11</title>
<g id="a_node11"><a xlink:href="x86_8h.html#acc919e7809ef1db2b20aa3804f540b5c" target="_top" xlink:title=" ">
<polygon fill="none" stroke="black" points="316.5,-190.5 316.5,-209.5 345.5,-209.5 345.5,-190.5 316.5,-190.5"/>
<text text-anchor="middle" x="331" y="-197.5" font-family="Helvetica,sans-Serif" font-size="10.00">cli</text>
</a>
</g>
</g>
<!-- Node5&#45;&gt;Node11 -->
<g id="edge11" class="edge">
<title>Node5&#45;&gt;Node11</title>
<path fill="none" stroke="midnightblue" d="M236.12,-167.35C246.94,-171.17 261.86,-176.42 275,-181 285.48,-184.65 297.09,-188.67 306.93,-192.06"/>
<polygon fill="midnightblue" stroke="midnightblue" points="305.84,-195.39 316.43,-195.34 308.12,-188.77 305.84,-195.39"/>
</g>
<!-- Node12 -->
<g id="node12" class="node">
<title>Node12</title>
<g id="a_node12"><a xlink:href="x86_8h.html#a2adfe40c0aadff727889d263815cb8ed" target="_top" xlink:title=" ">
<polygon fill="none" stroke="black" points="316.5,-152.5 316.5,-171.5 345.5,-171.5 345.5,-152.5 316.5,-152.5"/>
<text text-anchor="middle" x="331" y="-159.5" font-family="Helvetica,sans-Serif" font-size="10.00">hlt</text>
</a>
</g>
</g>
<!-- Node5&#45;&gt;Node12 -->
<g id="edge13" class="edge">
<title>Node5&#45;&gt;Node12</title>
<path fill="none" stroke="midnightblue" d="M236.16,-162C254.29,-162 284.86,-162 306.17,-162"/>
<polygon fill="midnightblue" stroke="midnightblue" points="306.35,-165.5 316.35,-162 306.35,-158.5 306.35,-165.5"/>
</g>
<!-- Node13 -->
<g id="node13" class="node">
<title>Node13</title>
<g id="a_node13"><a xlink:href="x86_8h.html#af92fc55c49437b9152499a13ba2b6585" target="_top" xlink:title=" ">
<polygon fill="none" stroke="black" points="312,-114.5 312,-133.5 350,-133.5 350,-114.5 312,-114.5"/>
<text text-anchor="middle" x="331" y="-121.5" font-family="Helvetica,sans-Serif" font-size="10.00">outw</text>
</a>
</g>
</g>
<!-- Node5&#45;&gt;Node13 -->
<g id="edge14" class="edge">
<title>Node5&#45;&gt;Node13</title>
<path fill="none" stroke="midnightblue" d="M236.12,-156.65C246.94,-152.83 261.86,-147.58 275,-143 283.78,-139.94 293.35,-136.63 302.01,-133.63"/>
<polygon fill="midnightblue" stroke="midnightblue" points="303.35,-136.88 311.66,-130.31 301.06,-130.26 303.35,-136.88"/>
</g>
<!-- Node5&#45;&gt;Node14 -->
<g id="edge15" class="edge">
<title>Node5&#45;&gt;Node14</title>
<path fill="none" stroke="midnightblue" d="M227.94,-152.16C237.28,-139.56 255.06,-117.85 275,-105 282.75,-100 291.97,-96.16 300.62,-93.27"/>
<polygon fill="midnightblue" stroke="midnightblue" points="301.83,-96.56 310.39,-90.32 299.81,-89.86 301.83,-96.56"/>
</g>
<!-- Node6&#45;&gt;Node4 -->
<g id="edge10" class="edge">
<title>Node6&#45;&gt;Node4</title>
<path fill="none" stroke="midnightblue" d="M367.45,-247.59C386.37,-252.71 409.79,-259.04 429.71,-264.43"/>
<polygon fill="midnightblue" stroke="midnightblue" points="428.9,-267.83 439.47,-267.07 430.73,-261.08 428.9,-267.83"/>
</g>
<!-- Node7 -->
<g id="node7" class="node">
<title>Node7</title>
<g id="a_node7"><a xlink:href="ioe_8c.html#a88a238fee7cd006afa69ea97e4914a09" target="_top" xlink:title=" ">
<polygon fill="none" stroke="black" points="423,-228.5 423,-247.5 524,-247.5 524,-228.5 423,-228.5"/>
<text text-anchor="middle" x="473.5" y="-235.5" font-family="Helvetica,sans-Serif" font-size="10.00">__am_lapic_bootap</text>
</a>
</g>
</g>
<!-- Node6&#45;&gt;Node7 -->
<g id="edge6" class="edge">
<title>Node6&#45;&gt;Node7</title>
<path fill="none" stroke="midnightblue" d="M387.13,-238C395.43,-238 404.04,-238 412.44,-238"/>
<polygon fill="midnightblue" stroke="midnightblue" points="412.56,-241.5 422.56,-238 412.56,-234.5 412.56,-241.5"/>
</g>
<!-- Node10 -->
<g id="node10" class="node">
<title>Node10</title>
<g id="a_node10"><a xlink:href="x86_8h.html#adfa01b89ceed9e7a87f185f4e441aa16" target="_top" xlink:title=" ">
<polygon fill="none" stroke="black" points="439.5,-190.5 439.5,-209.5 507.5,-209.5 507.5,-190.5 439.5,-190.5"/>
<text text-anchor="middle" x="473.5" y="-197.5" font-family="Helvetica,sans-Serif" font-size="10.00">boot_record</text>
</a>
</g>
</g>
<!-- Node6&#45;&gt;Node10 -->
<g id="edge9" class="edge">
<title>Node6&#45;&gt;Node10</title>
<path fill="none" stroke="midnightblue" d="M367.45,-228.41C386.37,-223.29 409.79,-216.96 429.71,-211.57"/>
<polygon fill="midnightblue" stroke="midnightblue" points="430.73,-214.92 439.47,-208.93 428.9,-208.17 430.73,-214.92"/>
</g>
<!-- Node8 -->
<g id="node8" class="node">
<title>Node8</title>
<g id="a_node8"><a xlink:href="ioe_8c.html#a72d9ed0bfe1066367763e044b7a7b7c3" target="_top" xlink:title=" ">
<polygon fill="none" stroke="black" points="567.5,-228.5 567.5,-247.5 611.5,-247.5 611.5,-228.5 567.5,-228.5"/>
<text text-anchor="middle" x="589.5" y="-235.5" font-family="Helvetica,sans-Serif" font-size="10.00">lapicw</text>
</a>
</g>
</g>
<!-- Node7&#45;&gt;Node8 -->
<g id="edge7" class="edge">
<title>Node7&#45;&gt;Node8</title>
<path fill="none" stroke="midnightblue" d="M524.17,-238C535.39,-238 547,-238 557.21,-238"/>
<polygon fill="midnightblue" stroke="midnightblue" points="557.28,-241.5 567.28,-238 557.28,-234.5 557.28,-241.5"/>
</g>
<!-- Node9 -->
<g id="node9" class="node">
<title>Node9</title>
<g id="a_node9"><a xlink:href="x86_8h.html#ade961b44e45ddacbc3c3b7609cf36dc6" target="_top" xlink:title=" ">
<polygon fill="none" stroke="black" points="572,-152.5 572,-171.5 607,-171.5 607,-152.5 572,-152.5"/>
<text text-anchor="middle" x="589.5" y="-159.5" font-family="Helvetica,sans-Serif" font-size="10.00">outb</text>
</a>
</g>
</g>
<!-- Node7&#45;&gt;Node9 -->
<g id="edge8" class="edge">
<title>Node7&#45;&gt;Node9</title>
<path fill="none" stroke="midnightblue" d="M504.63,-228.41C511.23,-225.78 518.02,-222.63 524,-219 542.24,-207.94 560.19,-191.49 572.5,-179.11"/>
<polygon fill="midnightblue" stroke="midnightblue" points="575.29,-181.27 579.73,-171.65 570.26,-176.39 575.29,-181.27"/>
</g>
<!-- Node14&#45;&gt;Node9 -->
<g id="edge16" class="edge">
<title>Node14&#45;&gt;Node9</title>
<path fill="none" stroke="midnightblue" d="M351.7,-91.84C397.36,-105.36 510.43,-138.87 562.04,-154.16"/>
<polygon fill="midnightblue" stroke="midnightblue" points="561.21,-157.56 571.79,-157.05 563.2,-150.85 561.21,-157.56"/>
</g>
<!-- Node16 -->
<g id="node16" class="node">
<title>Node16</title>
<g id="a_node16"><a xlink:href="stdio_8c.html#a44a6734c6f8f81d8e1fa3b9d476c5134" target="_top" xlink:title="write bytes (including the terminating null byte (&#39;\0&#39;)) to out.">
<polygon fill="none" stroke="black" points="306.5,-38.5 306.5,-57.5 355.5,-57.5 355.5,-38.5 306.5,-38.5"/>
<text text-anchor="middle" x="331" y="-45.5" font-family="Helvetica,sans-Serif" font-size="10.00">vsprintf</text>
</a>
</g>
</g>
<!-- Node15&#45;&gt;Node16 -->
<g id="edge18" class="edge">
<title>Node15&#45;&gt;Node16</title>
<path fill="none" stroke="midnightblue" d="M239.49,-63.78C255.07,-61.06 277.76,-57.11 296.52,-53.84"/>
<polygon fill="midnightblue" stroke="midnightblue" points="297.22,-57.27 306.47,-52.1 296.01,-50.37 297.22,-57.27"/>
</g>
<!-- Node17 -->
<g id="node17" class="node">
<title>Node17</title>
<g id="a_node17"><a xlink:href="stdio_8c.html#abf852e417a205348767989f2940059ad" target="_top" xlink:title="write at most n bytes (including the terminating null byte (&#39;\0&#39;)) to out.">
<polygon fill="none" stroke="black" points="446.5,-38.5 446.5,-57.5 500.5,-57.5 500.5,-38.5 446.5,-38.5"/>
<text text-anchor="middle" x="473.5" y="-45.5" font-family="Helvetica,sans-Serif" font-size="10.00">vsnprintf</text>
</a>
</g>
</g>
<!-- Node16&#45;&gt;Node17 -->
<g id="edge19" class="edge">
<title>Node16&#45;&gt;Node17</title>
<path fill="none" stroke="midnightblue" d="M355.52,-48C377.49,-48 410.62,-48 436.02,-48"/>
<polygon fill="midnightblue" stroke="midnightblue" points="436.03,-51.5 446.03,-48 436.03,-44.5 436.03,-51.5"/>
</g>
<!-- Node18 -->
<g id="node18" class="node">
<title>Node18</title>
<g id="a_node18"><a xlink:href="stdio_8c.html#a0e2811092b514de48ac2dd675d6cf2b4" target="_top" xlink:title="print decimal into buffer,return length">
<polygon fill="none" stroke="black" points="560,-76.5 560,-95.5 619,-95.5 619,-76.5 560,-76.5"/>
<text text-anchor="middle" x="589.5" y="-83.5" font-family="Helvetica,sans-Serif" font-size="10.00">print_num</text>
</a>
</g>
</g>
<!-- Node17&#45;&gt;Node18 -->
<g id="edge20" class="edge">
<title>Node17&#45;&gt;Node18</title>
<path fill="none" stroke="midnightblue" d="M500.65,-56.72C515.24,-61.58 533.69,-67.73 549.91,-73.14"/>
<polygon fill="midnightblue" stroke="midnightblue" points="549.07,-76.55 559.67,-76.39 551.29,-69.91 549.07,-76.55"/>
</g>
<!-- Node19 -->
<g id="node19" class="node">
<title>Node19</title>
<g id="a_node19"><a xlink:href="string_8c.html#aa383452fe445bfae989358c9d7d96f4f" target="_top" xlink:title="Return the length of the string s.">
<polygon fill="none" stroke="black" points="569,-38.5 569,-57.5 610,-57.5 610,-38.5 569,-38.5"/>
<text text-anchor="middle" x="589.5" y="-45.5" font-family="Helvetica,sans-Serif" font-size="10.00">strlen</text>
</a>
</g>
</g>
<!-- Node17&#45;&gt;Node19 -->
<g id="edge21" class="edge">
<title>Node17&#45;&gt;Node19</title>
<path fill="none" stroke="midnightblue" d="M500.65,-48C517.94,-48 540.64,-48 558.63,-48"/>
<polygon fill="midnightblue" stroke="midnightblue" points="558.87,-51.5 568.87,-48 558.87,-44.5 558.87,-51.5"/>
</g>
<!-- Node20 -->
<g id="node20" class="node">
<title>Node20</title>
<g id="a_node20"><a xlink:href="string_8c.html#a82f08f2390a9067f3c94b638e90e03bd" target="_top" xlink:title="Copy at most n bytes from string src to dst, returning a pointer to the start of dst.">
<polygon fill="none" stroke="black" points="565.5,-0.5 565.5,-19.5 613.5,-19.5 613.5,-0.5 565.5,-0.5"/>
<text text-anchor="middle" x="589.5" y="-7.5" font-family="Helvetica,sans-Serif" font-size="10.00">strncpy</text>
</a>
</g>
</g>
<!-- Node17&#45;&gt;Node20 -->
<g id="edge22" class="edge">
<title>Node17&#45;&gt;Node20</title>
<path fill="none" stroke="midnightblue" d="M500.65,-39.28C516.92,-33.86 537.98,-26.84 555.4,-21.03"/>
<polygon fill="midnightblue" stroke="midnightblue" points="556.8,-24.26 565.18,-17.77 554.58,-17.62 556.8,-24.26"/>
</g>
</g>
</svg>
