<?xml version="1.0" encoding="UTF-8" standalone="no"?>
<!DOCTYPE svg PUBLIC "-//W3C//DTD SVG 1.1//EN"
 "http://www.w3.org/Graphics/SVG/1.1/DTD/svg11.dtd">
<!-- Generated by graphviz version 3.0.0 (20220413.0106)
 -->
<!-- Title: MODULE_DEF Pages: 1 -->
<svg width="872pt" height="368pt"
 viewBox="0.00 0.00 872.00 367.63" xmlns="http://www.w3.org/2000/svg" xmlns:xlink="http://www.w3.org/1999/xlink">
<g id="graph0" class="graph" transform="scale(1 1) rotate(0) translate(4 363.63)">
<title>MODULE_DEF</title>
<!-- Node1 -->
<g id="node1" class="node">
<title>Node1</title>
<g id="a_node1"><a xlink:title=" ">
<polygon fill="#bfbfbf" stroke="black" points="0,-180.5 0,-199.5 83,-199.5 83,-180.5 0,-180.5"/>
<text text-anchor="middle" x="41.5" y="-187.5" font-family="Helvetica,sans-Serif" font-size="10.00">MODULE_DEF</text>
</a>
</g>
</g>
<!-- Node2 -->
<g id="node2" class="node">
<title>Node2</title>
<g id="a_node2"><a xlink:href="pmm_8c.html#a350a830083f55f1886e000edec454a99" target="_top" xlink:title=" ">
<polygon fill="none" stroke="black" points="220,-266.5 220,-285.5 262,-285.5 262,-266.5 220,-266.5"/>
<text text-anchor="middle" x="241" y="-273.5" font-family="Helvetica,sans-Serif" font-size="10.00">kalloc</text>
</a>
</g>
</g>
<!-- Node1&#45;&gt;Node2 -->
<g id="edge1" class="edge">
<title>Node1&#45;&gt;Node2</title>
<path fill="none" stroke="midnightblue" d="M64.39,-199.53C100.02,-215.05 170.58,-245.77 210.56,-263.18"/>
<polygon fill="midnightblue" stroke="midnightblue" points="209.23,-266.42 219.79,-267.2 212.02,-260 209.23,-266.42"/>
</g>
<!-- Node16 -->
<g id="node16" class="node">
<title>Node16</title>
<g id="a_node16"><a xlink:href="pmm_8c.html#a2cb876c0d76d35916d27ed1623195fbe" target="_top" xlink:title=" ">
<polygon fill="none" stroke="black" points="222,-180.5 222,-199.5 260,-199.5 260,-180.5 222,-180.5"/>
<text text-anchor="middle" x="241" y="-187.5" font-family="Helvetica,sans-Serif" font-size="10.00">kfree</text>
</a>
</g>
</g>
<!-- Node1&#45;&gt;Node16 -->
<g id="edge17" class="edge">
<title>Node1&#45;&gt;Node16</title>
<path fill="none" stroke="midnightblue" d="M83.42,-190C121.76,-190 178.04,-190 211.65,-190"/>
<polygon fill="midnightblue" stroke="midnightblue" points="211.72,-193.5 221.72,-190 211.72,-186.5 211.72,-193.5"/>
</g>
<!-- Node19 -->
<g id="node19" class="node">
<title>Node19</title>
<g id="a_node19"><a xlink:href="pmm_8c.html#a393796678826afd801058312f851ca43" target="_top" xlink:title=" ">
<polygon fill="none" stroke="black" points="119,-95.5 119,-114.5 175,-114.5 175,-95.5 119,-95.5"/>
<text text-anchor="middle" x="147" y="-102.5" font-family="Helvetica,sans-Serif" font-size="10.00">pmm_init</text>
</a>
</g>
</g>
<!-- Node1&#45;&gt;Node19 -->
<g id="edge25" class="edge">
<title>Node1&#45;&gt;Node19</title>
<path fill="none" stroke="midnightblue" d="M54.37,-180.25C72,-165.77 105.28,-138.44 126.51,-121"/>
<polygon fill="midnightblue" stroke="midnightblue" points="128.76,-123.69 134.27,-114.64 124.32,-118.28 128.76,-123.69"/>
</g>
<!-- Node3 -->
<g id="node3" class="node">
<title>Node3</title>
<g id="a_node3"><a xlink:href="buddy_8c.html#a7d6c4f020f51f2a621ca1ab5a4e6a5bb" target="_top" xlink:title="translate chunk address to virtual address">
<polygon fill="none" stroke="black" points="691,-313.5 691,-332.5 753,-332.5 753,-313.5 691,-313.5"/>
<text text-anchor="middle" x="722" y="-320.5" font-family="Helvetica,sans-Serif" font-size="10.00">chunk2virt</text>
</a>
</g>
</g>
<!-- Node2&#45;&gt;Node3 -->
<g id="edge2" class="edge">
<title>Node2&#45;&gt;Node3</title>
<path fill="none" stroke="midnightblue" d="M249.1,-285.57C259.85,-299.17 281.72,-323.48 307,-333 436.33,-381.68 604.84,-351.62 680.78,-333.62"/>
<polygon fill="midnightblue" stroke="midnightblue" points="681.98,-336.93 690.87,-331.17 680.33,-330.13 681.98,-336.93"/>
</g>
<!-- Node4 -->
<g id="node4" class="node">
<title>Node4</title>
<g id="a_node4"><a xlink:href="buddy_8c.html#a37436a565869aa245cb46355dab020e2" target="_top" xlink:title=" ">
<polygon fill="none" stroke="black" points="320.5,-228.5 320.5,-247.5 388.5,-247.5 388.5,-228.5 320.5,-228.5"/>
<text text-anchor="middle" x="354.5" y="-235.5" font-family="Helvetica,sans-Serif" font-size="10.00">chunk_alloc</text>
</a>
</g>
</g>
<!-- Node2&#45;&gt;Node4 -->
<g id="edge3" class="edge">
<title>Node2&#45;&gt;Node4</title>
<path fill="none" stroke="midnightblue" d="M262.19,-269.12C277.12,-264.03 297.9,-256.95 315.86,-250.83"/>
<polygon fill="midnightblue" stroke="midnightblue" points="317.15,-254.08 325.49,-247.55 314.9,-247.46 317.15,-254.08"/>
</g>
<!-- Node15 -->
<g id="node15" class="node">
<title>Node15</title>
<g id="a_node15"><a xlink:href="common_8h.html#afec4cf52a3e70c488446a06ea604f9df" target="_top" xlink:title=" ">
<polygon fill="none" stroke="black" points="325.5,-304.5 325.5,-323.5 383.5,-323.5 383.5,-304.5 325.5,-304.5"/>
<text text-anchor="middle" x="354.5" y="-311.5" font-family="Helvetica,sans-Serif" font-size="10.00">power2ify</text>
</a>
</g>
</g>
<!-- Node2&#45;&gt;Node15 -->
<g id="edge16" class="edge">
<title>Node2&#45;&gt;Node15</title>
<path fill="none" stroke="midnightblue" d="M262.19,-282.88C277.12,-287.97 297.9,-295.05 315.86,-301.17"/>
<polygon fill="midnightblue" stroke="midnightblue" points="314.9,-304.54 325.49,-304.45 317.15,-297.92 314.9,-304.54"/>
</g>
<!-- Node5 -->
<g id="node5" class="node">
<title>Node5</title>
<g id="a_node5"><a xlink:href="buddy_8c.html#aff6f2614df5664434766dd9c23971227" target="_top" xlink:title=" ">
<polygon fill="none" stroke="black" points="442.5,-228.5 442.5,-247.5 508.5,-247.5 508.5,-228.5 442.5,-228.5"/>
<text text-anchor="middle" x="475.5" y="-235.5" font-family="Helvetica,sans-Serif" font-size="10.00">chunk_split</text>
</a>
</g>
</g>
<!-- Node4&#45;&gt;Node5 -->
<g id="edge4" class="edge">
<title>Node4&#45;&gt;Node5</title>
<path fill="none" stroke="midnightblue" d="M388.65,-238C402.15,-238 417.92,-238 432.24,-238"/>
<polygon fill="midnightblue" stroke="midnightblue" points="432.35,-241.5 442.35,-238 432.35,-234.5 432.35,-241.5"/>
</g>
<!-- Node7 -->
<g id="node7" class="node">
<title>Node7</title>
<g id="a_node7"><a xlink:href="structfree__list.html#a338aea6183dad7ec975539e4e1def837" target="_top" xlink:title=" ">
<polygon fill="none" stroke="black" points="677,-114.5 677,-133.5 767,-133.5 767,-114.5 677,-114.5"/>
<text text-anchor="middle" x="722" y="-121.5" font-family="Helvetica,sans-Serif" font-size="10.00">free_list::free_list</text>
</a>
</g>
</g>
<!-- Node4&#45;&gt;Node7 -->
<g id="edge15" class="edge">
<title>Node4&#45;&gt;Node7</title>
<path fill="none" stroke="midnightblue" d="M367.15,-228.4C382.56,-216.07 410.95,-194.64 438,-181 484.56,-157.51 498.11,-154.38 549,-143 587.79,-134.33 632.43,-129.54 666.51,-126.95"/>
<polygon fill="midnightblue" stroke="midnightblue" points="667.01,-130.42 676.73,-126.21 666.5,-123.44 667.01,-130.42"/>
</g>
<!-- Node6 -->
<g id="node6" class="node">
<title>Node6</title>
<g id="a_node6"><a xlink:href="buddy_8c.html#acd10ee3138eeeac7c91ef5928f2135ea" target="_top" xlink:title="make a chunk added to free list.">
<polygon fill="none" stroke="black" points="555,-152.5 555,-171.5 635,-171.5 635,-152.5 555,-152.5"/>
<text text-anchor="middle" x="595" y="-159.5" font-family="Helvetica,sans-Serif" font-size="10.00">chunk_append</text>
</a>
</g>
</g>
<!-- Node5&#45;&gt;Node6 -->
<g id="edge5" class="edge">
<title>Node5&#45;&gt;Node6</title>
<path fill="none" stroke="midnightblue" d="M497.68,-228.49C502.9,-225.74 508.32,-222.53 513,-219 531.57,-204.99 529.88,-194.25 549,-181 551.57,-179.22 554.32,-177.56 557.17,-176.02"/>
<polygon fill="midnightblue" stroke="midnightblue" points="558.94,-179.05 566.4,-171.53 555.88,-172.76 558.94,-179.05"/>
</g>
<!-- Node10 -->
<g id="node10" class="node">
<title>Node10</title>
<g id="a_node10"><a xlink:href="buddy_8c.html#a8a4afbc5643993142db5ad65b87b8c62" target="_top" xlink:title=" ">
<polygon fill="none" stroke="black" points="564.5,-190.5 564.5,-209.5 625.5,-209.5 625.5,-190.5 564.5,-190.5"/>
<text text-anchor="middle" x="595" y="-197.5" font-family="Helvetica,sans-Serif" font-size="10.00">chunk_del</text>
</a>
</g>
</g>
<!-- Node5&#45;&gt;Node10 -->
<g id="edge9" class="edge">
<title>Node5&#45;&gt;Node10</title>
<path fill="none" stroke="midnightblue" d="M506.15,-228.41C520.9,-223.64 538.93,-217.81 554.8,-212.68"/>
<polygon fill="midnightblue" stroke="midnightblue" points="555.92,-215.99 564.36,-209.59 553.77,-209.33 555.92,-215.99"/>
</g>
<!-- Node13 -->
<g id="node13" class="node">
<title>Node13</title>
<g id="a_node13"><a xlink:href="buddy_8c.html#a48594e69fff9b58d5f41dca7d576eb35" target="_top" xlink:title="Get the buddy chunk.">
<polygon fill="none" stroke="black" points="549,-228.5 549,-247.5 641,-247.5 641,-228.5 549,-228.5"/>
<text text-anchor="middle" x="595" y="-235.5" font-family="Helvetica,sans-Serif" font-size="10.00">get_buddy_chunk</text>
</a>
</g>
</g>
<!-- Node5&#45;&gt;Node13 -->
<g id="edge12" class="edge">
<title>Node5&#45;&gt;Node13</title>
<path fill="none" stroke="midnightblue" d="M508.61,-238C517.88,-238 528.28,-238 538.55,-238"/>
<polygon fill="midnightblue" stroke="midnightblue" points="538.72,-241.5 548.72,-238 538.72,-234.5 538.72,-241.5"/>
</g>
<!-- Node6&#45;&gt;Node7 -->
<g id="edge6" class="edge">
<title>Node6&#45;&gt;Node7</title>
<path fill="none" stroke="midnightblue" d="M627.54,-152.41C643.38,-147.6 662.77,-141.7 679.78,-136.53"/>
<polygon fill="midnightblue" stroke="midnightblue" points="680.92,-139.84 689.47,-133.59 678.88,-133.15 680.92,-139.84"/>
</g>
<!-- Node8 -->
<g id="node8" class="node">
<title>Node8</title>
<g id="a_node8"><a xlink:href="list_8h.html#a06a80666b3364324fc601ab7ae1ff20b" target="_top" xlink:title=" ">
<polygon fill="none" stroke="black" points="697,-152.5 697,-171.5 747,-171.5 747,-152.5 697,-152.5"/>
<text text-anchor="middle" x="722" y="-159.5" font-family="Helvetica,sans-Serif" font-size="10.00">list_add</text>
</a>
</g>
</g>
<!-- Node6&#45;&gt;Node8 -->
<g id="edge7" class="edge">
<title>Node6&#45;&gt;Node8</title>
<path fill="none" stroke="midnightblue" d="M635.21,-162C651.61,-162 670.52,-162 686.4,-162"/>
<polygon fill="midnightblue" stroke="midnightblue" points="686.84,-165.5 696.84,-162 686.84,-158.5 686.84,-165.5"/>
</g>
<!-- Node9 -->
<g id="node9" class="node">
<title>Node9</title>
<g id="a_node9"><a xlink:href="list_8h.html#a83ecb02c2209a8fd5f6470d45a07f875" target="_top" xlink:title=" ">
<polygon fill="none" stroke="black" points="803,-152.5 803,-171.5 864,-171.5 864,-152.5 803,-152.5"/>
<text text-anchor="middle" x="833.5" y="-159.5" font-family="Helvetica,sans-Serif" font-size="10.00">__list_add</text>
</a>
</g>
</g>
<!-- Node8&#45;&gt;Node9 -->
<g id="edge8" class="edge">
<title>Node8&#45;&gt;Node9</title>
<path fill="none" stroke="midnightblue" d="M747.03,-162C760.33,-162 777.2,-162 792.44,-162"/>
<polygon fill="midnightblue" stroke="midnightblue" points="792.66,-165.5 802.66,-162 792.66,-158.5 792.66,-165.5"/>
</g>
<!-- Node11 -->
<g id="node11" class="node">
<title>Node11</title>
<g id="a_node11"><a xlink:href="list_8h.html#ab1708206f0f7e0a56550b35372203ba5" target="_top" xlink:title=" ">
<polygon fill="none" stroke="black" points="698.5,-190.5 698.5,-209.5 745.5,-209.5 745.5,-190.5 698.5,-190.5"/>
<text text-anchor="middle" x="722" y="-197.5" font-family="Helvetica,sans-Serif" font-size="10.00">list_del</text>
</a>
</g>
</g>
<!-- Node10&#45;&gt;Node11 -->
<g id="edge10" class="edge">
<title>Node10&#45;&gt;Node11</title>
<path fill="none" stroke="midnightblue" d="M625.62,-200C644.39,-200 668.67,-200 688.04,-200"/>
<polygon fill="midnightblue" stroke="midnightblue" points="688.23,-203.5 698.23,-200 688.23,-196.5 688.23,-203.5"/>
</g>
<!-- Node12 -->
<g id="node12" class="node">
<title>Node12</title>
<g id="a_node12"><a xlink:href="list_8h.html#a24b474717d65a296695e8b79b4adefda" target="_top" xlink:title=" ">
<polygon fill="none" stroke="black" points="804.5,-190.5 804.5,-209.5 862.5,-209.5 862.5,-190.5 804.5,-190.5"/>
<text text-anchor="middle" x="833.5" y="-197.5" font-family="Helvetica,sans-Serif" font-size="10.00">__list_del</text>
</a>
</g>
</g>
<!-- Node11&#45;&gt;Node12 -->
<g id="edge11" class="edge">
<title>Node11&#45;&gt;Node12</title>
<path fill="none" stroke="midnightblue" d="M745.69,-200C759.67,-200 777.95,-200 794.13,-200"/>
<polygon fill="midnightblue" stroke="midnightblue" points="794.39,-203.5 804.39,-200 794.39,-196.5 794.39,-203.5"/>
</g>
<!-- Node13&#45;&gt;Node3 -->
<g id="edge13" class="edge">
<title>Node13&#45;&gt;Node3</title>
<path fill="none" stroke="midnightblue" d="M610.34,-247.75C631.91,-262.42 672.89,-290.29 698.48,-307.69"/>
<polygon fill="midnightblue" stroke="midnightblue" points="696.59,-310.63 706.83,-313.36 700.53,-304.85 696.59,-310.63"/>
</g>
<!-- Node14 -->
<g id="node14" class="node">
<title>Node14</title>
<g id="a_node14"><a xlink:href="buddy_8c.html#ad1eda4b9fbb516f58586845217f68723" target="_top" xlink:title="translate virtual address to chunk address">
<polygon fill="none" stroke="black" points="691,-247.5 691,-266.5 753,-266.5 753,-247.5 691,-247.5"/>
<text text-anchor="middle" x="722" y="-254.5" font-family="Helvetica,sans-Serif" font-size="10.00">virt2chunk</text>
</a>
</g>
</g>
<!-- Node13&#45;&gt;Node14 -->
<g id="edge14" class="edge">
<title>Node13&#45;&gt;Node14</title>
<path fill="none" stroke="midnightblue" d="M641.13,-244.86C654.02,-246.82 667.99,-248.94 680.58,-250.86"/>
<polygon fill="midnightblue" stroke="midnightblue" points="680.37,-254.36 690.78,-252.41 681.42,-247.44 680.37,-254.36"/>
</g>
<!-- Node16&#45;&gt;Node14 -->
<g id="edge24" class="edge">
<title>Node16&#45;&gt;Node14</title>
<path fill="none" stroke="midnightblue" d="M247.7,-199.65C257.51,-215.21 279.24,-245.25 307,-257 434.39,-310.9 604.21,-283.76 680.68,-266.97"/>
<polygon fill="midnightblue" stroke="midnightblue" points="681.85,-270.29 690.83,-264.67 680.31,-263.46 681.85,-270.29"/>
</g>
<!-- Node17 -->
<g id="node17" class="node">
<title>Node17</title>
<g id="a_node17"><a xlink:href="buddy_8c.html#a77f7615f76209d4083ef2d0826d90a1e" target="_top" xlink:title="free a chunk and process in deep.">
<polygon fill="none" stroke="black" points="322,-171.5 322,-190.5 387,-190.5 387,-171.5 322,-171.5"/>
<text text-anchor="middle" x="354.5" y="-178.5" font-family="Helvetica,sans-Serif" font-size="10.00">chunk_free</text>
</a>
</g>
</g>
<!-- Node16&#45;&gt;Node17 -->
<g id="edge18" class="edge">
<title>Node16&#45;&gt;Node17</title>
<path fill="none" stroke="midnightblue" d="M260.41,-188.51C274.37,-187.39 294.11,-185.79 311.83,-184.36"/>
<polygon fill="midnightblue" stroke="midnightblue" points="312.28,-187.84 321.96,-183.55 311.71,-180.86 312.28,-187.84"/>
</g>
<!-- Node17&#45;&gt;Node6 -->
<g id="edge19" class="edge">
<title>Node17&#45;&gt;Node6</title>
<path fill="none" stroke="midnightblue" d="M387.17,-178.48C427.43,-175.27 497.36,-169.7 544.64,-165.93"/>
<polygon fill="midnightblue" stroke="midnightblue" points="544.97,-169.42 554.66,-165.13 544.41,-162.44 544.97,-169.42"/>
</g>
<!-- Node18 -->
<g id="node18" class="node">
<title>Node18</title>
<g id="a_node18"><a xlink:href="buddy_8c.html#a9ae41f7f508f07ceba45065973ce5507" target="_top" xlink:title=" ">
<polygon fill="none" stroke="black" points="438,-190.5 438,-209.5 513,-209.5 513,-190.5 438,-190.5"/>
<text text-anchor="middle" x="475.5" y="-197.5" font-family="Helvetica,sans-Serif" font-size="10.00">chunk_merge</text>
</a>
</g>
</g>
<!-- Node17&#45;&gt;Node18 -->
<g id="edge20" class="edge">
<title>Node17&#45;&gt;Node18</title>
<path fill="none" stroke="midnightblue" d="M387.08,-186.04C399.48,-188.02 413.97,-190.34 427.55,-192.5"/>
<polygon fill="midnightblue" stroke="midnightblue" points="427.28,-196 437.71,-194.13 428.38,-189.09 427.28,-196"/>
</g>
<!-- Node18&#45;&gt;Node6 -->
<g id="edge21" class="edge">
<title>Node18&#45;&gt;Node6</title>
<path fill="none" stroke="midnightblue" d="M506.15,-190.41C520.9,-185.64 538.93,-179.81 554.8,-174.68"/>
<polygon fill="midnightblue" stroke="midnightblue" points="555.92,-177.99 564.36,-171.59 553.77,-171.33 555.92,-177.99"/>
</g>
<!-- Node18&#45;&gt;Node10 -->
<g id="edge22" class="edge">
<title>Node18&#45;&gt;Node10</title>
<path fill="none" stroke="midnightblue" d="M513.03,-200C526,-200 540.67,-200 553.92,-200"/>
<polygon fill="midnightblue" stroke="midnightblue" points="554.18,-203.5 564.18,-200 554.18,-196.5 554.18,-203.5"/>
</g>
<!-- Node18&#45;&gt;Node13 -->
<g id="edge23" class="edge">
<title>Node18&#45;&gt;Node13</title>
<path fill="none" stroke="midnightblue" d="M506.15,-209.59C520.9,-214.36 538.93,-220.19 554.8,-225.32"/>
<polygon fill="midnightblue" stroke="midnightblue" points="553.77,-228.67 564.36,-228.41 555.92,-222.01 553.77,-228.67"/>
</g>
<!-- Node20 -->
<g id="node20" class="node">
<title>Node20</title>
<g id="a_node20"><a xlink:href="buddy_8c.html#a571ce3de5539a52d40d9d11033519237" target="_top" xlink:title="initialize the buddy system">
<polygon fill="none" stroke="black" points="211,-76.5 211,-95.5 271,-95.5 271,-76.5 211,-76.5"/>
<text text-anchor="middle" x="241" y="-83.5" font-family="Helvetica,sans-Serif" font-size="10.00">buddy_init</text>
</a>
</g>
</g>
<!-- Node19&#45;&gt;Node20 -->
<g id="edge26" class="edge">
<title>Node19&#45;&gt;Node20</title>
<path fill="none" stroke="midnightblue" d="M175.11,-99.4C183.18,-97.73 192.2,-95.87 200.88,-94.08"/>
<polygon fill="midnightblue" stroke="midnightblue" points="201.76,-97.47 210.84,-92.02 200.34,-90.62 201.76,-97.47"/>
</g>
<!-- Node20&#45;&gt;Node7 -->
<g id="edge28" class="edge">
<title>Node20&#45;&gt;Node7</title>
<path fill="none" stroke="midnightblue" d="M271.24,-88.32C349.6,-94.54 565.19,-111.64 666.74,-119.7"/>
<polygon fill="midnightblue" stroke="midnightblue" points="666.54,-123.19 676.79,-120.49 667.1,-116.21 666.54,-123.19"/>
</g>
<!-- Node20&#45;&gt;Node17 -->
<g id="edge27" class="edge">
<title>Node20&#45;&gt;Node17</title>
<path fill="none" stroke="midnightblue" d="M253.51,-95.81C272.64,-112.11 311.16,-144.93 334.41,-164.73"/>
<polygon fill="midnightblue" stroke="midnightblue" points="332.33,-167.56 342.22,-171.39 336.87,-162.24 332.33,-167.56"/>
</g>
<!-- Node21 -->
<g id="node21" class="node">
<title>Node21</title>
<g id="a_node21"><a xlink:href="list_8h.html#aea85dd50b9129ddaa3e3c67ed55804e4" target="_top" xlink:title=" ">
<polygon fill="none" stroke="black" points="307,-38.5 307,-57.5 402,-57.5 402,-38.5 307,-38.5"/>
<text text-anchor="middle" x="354.5" y="-45.5" font-family="Helvetica,sans-Serif" font-size="10.00">INIT_LIST_HEAD</text>
</a>
</g>
</g>
<!-- Node20&#45;&gt;Node21 -->
<g id="edge29" class="edge">
<title>Node20&#45;&gt;Node21</title>
<path fill="none" stroke="midnightblue" d="M270.14,-76.41C284,-71.69 300.92,-65.92 315.88,-60.82"/>
<polygon fill="midnightblue" stroke="midnightblue" points="317.04,-64.12 325.37,-57.59 314.78,-57.5 317.04,-64.12"/>
</g>
<!-- Node22 -->
<g id="node22" class="node">
<title>Node22</title>
<g id="a_node22"><a xlink:href="string_8c.html#a7a8fd43b209c9ea19addab23a5f23995" target="_top" xlink:title=" ">
<polygon fill="none" stroke="black" points="328.5,-0.5 328.5,-19.5 380.5,-19.5 380.5,-0.5 328.5,-0.5"/>
<text text-anchor="middle" x="354.5" y="-7.5" font-family="Helvetica,sans-Serif" font-size="10.00">memset</text>
</a>
</g>
</g>
<!-- Node20&#45;&gt;Node22 -->
<g id="edge30" class="edge">
<title>Node20&#45;&gt;Node22</title>
<path fill="none" stroke="midnightblue" d="M250.9,-76.43C262.74,-64.13 284.79,-42.74 307,-29 310.67,-26.73 314.66,-24.63 318.71,-22.71"/>
<polygon fill="midnightblue" stroke="midnightblue" points="320.38,-25.8 328.14,-18.59 317.57,-19.39 320.38,-25.8"/>
</g>
</g>
</svg>
