<?xml version="1.0" encoding="UTF-8" standalone="no"?>
<!DOCTYPE svg PUBLIC "-//W3C//DTD SVG 1.1//EN"
 "http://www.w3.org/Graphics/SVG/1.1/DTD/svg11.dtd">
<!-- Generated by graphviz version 3.0.0 (20220413.0106)
 -->
<!-- Title: spin_holding Pages: 1 -->
<svg width="444pt" height="322pt"
 viewBox="0.00 0.00 444.00 322.00" xmlns="http://www.w3.org/2000/svg" xmlns:xlink="http://www.w3.org/1999/xlink">
<g id="graph0" class="graph" transform="scale(1 1) rotate(0) translate(4 318)">
<title>spin_holding</title>
<!-- Node1 -->
<g id="node1" class="node">
<title>Node1</title>
<g id="a_node1"><a xlink:title="check current cpu has the lock">
<polygon fill="#bfbfbf" stroke="black" points="365,-161.5 365,-180.5 436,-180.5 436,-161.5 365,-161.5"/>
<text text-anchor="middle" x="400.5" y="-168.5" font-family="Helvetica,sans-Serif" font-size="10.00">spin_holding</text>
</a>
</g>
</g>
<!-- Node2 -->
<g id="node2" class="node">
<title>Node2</title>
<g id="a_node2"><a xlink:href="kmt_8c.html#af9c485ce0d89d6624e6e80e31d8ed207" target="_top" xlink:title="handler: save context to current task">
<polygon fill="none" stroke="black" points="233,-218.5 233,-237.5 329,-237.5 329,-218.5 233,-218.5"/>
<text text-anchor="middle" x="281" y="-225.5" font-family="Helvetica,sans-Serif" font-size="10.00">kmt_context_save</text>
</a>
</g>
</g>
<!-- Node1&#45;&gt;Node2 -->
<g id="edge1" class="edge">
<title>Node1&#45;&gt;Node2</title>
<path fill="none" stroke="midnightblue" d="M370.56,-185.04C349.16,-195.42 320.56,-209.29 301.73,-218.43"/>
<polygon fill="midnightblue" stroke="midnightblue" points="372.36,-188.05 379.83,-180.54 369.31,-181.76 372.36,-188.05"/>
</g>
<!-- Node5 -->
<g id="node5" class="node">
<title>Node5</title>
<g id="a_node5"><a xlink:href="kmt_8c.html#a5ddb8743298012e84cf9cb5faf22212b" target="_top" xlink:title="create thread">
<polygon fill="none" stroke="black" points="125.5,-152.5 125.5,-171.5 190.5,-171.5 190.5,-152.5 125.5,-152.5"/>
<text text-anchor="middle" x="158" y="-159.5" font-family="Helvetica,sans-Serif" font-size="10.00">kmt_create</text>
</a>
</g>
</g>
<!-- Node1&#45;&gt;Node5 -->
<g id="edge4" class="edge">
<title>Node1&#45;&gt;Node5</title>
<path fill="none" stroke="midnightblue" d="M354.73,-169.32C307,-167.54 232.62,-164.76 190.64,-163.18"/>
<polygon fill="midnightblue" stroke="midnightblue" points="354.66,-172.82 364.79,-169.7 354.92,-165.83 354.66,-172.82"/>
</g>
<!-- Node6 -->
<g id="node6" class="node">
<title>Node6</title>
<g id="a_node6"><a xlink:href="kmt_8c.html#ad3fbc643b7b6092120c5152b4c890354" target="_top" xlink:title="handler: handle program errors">
<polygon fill="none" stroke="black" points="252,-294.5 252,-313.5 310,-313.5 310,-294.5 252,-294.5"/>
<text text-anchor="middle" x="281" y="-301.5" font-family="Helvetica,sans-Serif" font-size="10.00">kmt_error</text>
</a>
</g>
</g>
<!-- Node1&#45;&gt;Node6 -->
<g id="edge6" class="edge">
<title>Node1&#45;&gt;Node6</title>
<path fill="none" stroke="midnightblue" d="M392.14,-190.13C381.65,-215.12 360.13,-258.75 329,-285 323.62,-289.54 317.01,-293.1 310.47,-295.84"/>
<polygon fill="midnightblue" stroke="midnightblue" points="395.46,-191.25 395.96,-180.67 388.97,-188.63 395.46,-191.25"/>
</g>
<!-- Node7 -->
<g id="node7" class="node">
<title>Node7</title>
<g id="a_node7"><a xlink:href="kmt_8c.html#ad4d70b4093829da1c0b0631abdff7747" target="_top" xlink:title="handler: schedule next task to run Notice: this should be the only handler which returns real Context">
<polygon fill="none" stroke="black" points="242.5,-256.5 242.5,-275.5 319.5,-275.5 319.5,-256.5 242.5,-256.5"/>
<text text-anchor="middle" x="281" y="-263.5" font-family="Helvetica,sans-Serif" font-size="10.00">kmt_schedule</text>
</a>
</g>
</g>
<!-- Node1&#45;&gt;Node7 -->
<g id="edge8" class="edge">
<title>Node1&#45;&gt;Node7</title>
<path fill="none" stroke="midnightblue" d="M386.45,-189.13C373.49,-206.03 352.25,-230.97 329,-247 323.64,-250.7 317.45,-253.84 311.36,-256.45"/>
<polygon fill="midnightblue" stroke="midnightblue" points="389.58,-190.79 392.75,-180.68 383.97,-186.6 389.58,-190.79"/>
</g>
<!-- Node8 -->
<g id="node8" class="node">
<title>Node8</title>
<g id="a_node8"><a xlink:href="kmt_8c.html#a47d8887c87041abd5ea3148232b65c93" target="_top" xlink:title="tear down a thread">
<polygon fill="none" stroke="black" points="119,-190.5 119,-209.5 197,-209.5 197,-190.5 119,-190.5"/>
<text text-anchor="middle" x="158" y="-197.5" font-family="Helvetica,sans-Serif" font-size="10.00">kmt_teardown</text>
</a>
</g>
</g>
<!-- Node1&#45;&gt;Node8 -->
<g id="edge10" class="edge">
<title>Node1&#45;&gt;Node8</title>
<path fill="none" stroke="midnightblue" d="M354.66,-176.41C309.35,-181.87 240.09,-190.22 197.28,-195.38"/>
<polygon fill="midnightblue" stroke="midnightblue" points="355.28,-179.86 364.79,-175.19 354.44,-172.91 355.28,-179.86"/>
</g>
<!-- Node9 -->
<g id="node9" class="node">
<title>Node9</title>
<g id="a_node9"><a xlink:href="os_8c.html#a2be1c9facb49d4439f41b1537d0f3ef8" target="_top" xlink:title="System trap entry.">
<polygon fill="none" stroke="black" points="133.5,-0.5 133.5,-19.5 182.5,-19.5 182.5,-0.5 133.5,-0.5"/>
<text text-anchor="middle" x="158" y="-7.5" font-family="Helvetica,sans-Serif" font-size="10.00">os_trap</text>
</a>
</g>
</g>
<!-- Node1&#45;&gt;Node9 -->
<g id="edge12" class="edge">
<title>Node1&#45;&gt;Node9</title>
<path fill="none" stroke="midnightblue" d="M392.73,-151.7C382.77,-126.17 361.75,-81.55 329,-57 284.53,-23.66 217.67,-13.97 182.51,-11.15"/>
<polygon fill="midnightblue" stroke="midnightblue" points="389.55,-153.21 396.32,-161.36 396.11,-150.77 389.55,-153.21"/>
</g>
<!-- Node11 -->
<g id="node11" class="node">
<title>Node11</title>
<g id="a_node11"><a xlink:href="spinlock_8c.html#ab6f3c37ec37006951feccc3c05387cce" target="_top" xlink:title="acquire spinlock to current cpu">
<polygon fill="none" stroke="black" points="252,-66.5 252,-85.5 310,-85.5 310,-66.5 252,-66.5"/>
<text text-anchor="middle" x="281" y="-73.5" font-family="Helvetica,sans-Serif" font-size="10.00">spin_lock</text>
</a>
</g>
</g>
<!-- Node1&#45;&gt;Node11 -->
<g id="edge14" class="edge">
<title>Node1&#45;&gt;Node11</title>
<path fill="none" stroke="midnightblue" d="M386.45,-152.87C373.49,-135.97 352.25,-111.03 329,-95 323.35,-91.1 316.78,-87.82 310.37,-85.13"/>
<polygon fill="midnightblue" stroke="midnightblue" points="383.97,-155.4 392.75,-161.32 389.58,-151.21 383.97,-155.4"/>
</g>
<!-- Node13 -->
<g id="node13" class="node">
<title>Node13</title>
<g id="a_node13"><a xlink:href="spinlock_8c.html#acdf118d615a4bc4064e991add9a80995" target="_top" xlink:title="release spinlock from current cpu">
<polygon fill="none" stroke="black" points="247,-104.5 247,-123.5 315,-123.5 315,-104.5 247,-104.5"/>
<text text-anchor="middle" x="281" y="-111.5" font-family="Helvetica,sans-Serif" font-size="10.00">spin_unlock</text>
</a>
</g>
</g>
<!-- Node1&#45;&gt;Node13 -->
<g id="edge19" class="edge">
<title>Node1&#45;&gt;Node13</title>
<path fill="none" stroke="midnightblue" d="M370.56,-156.96C349.16,-146.58 320.56,-132.71 301.73,-123.57"/>
<polygon fill="midnightblue" stroke="midnightblue" points="369.31,-160.24 379.83,-161.46 372.36,-153.95 369.31,-160.24"/>
</g>
<!-- Node3 -->
<g id="node3" class="node">
<title>Node3</title>
<g id="a_node3"><a xlink:href="kmt_8c.html#a0c68a294cecc4be7cb4b495f15b883a0" target="_top" xlink:title="initialize kmt module">
<polygon fill="none" stroke="black" points="132.5,-237.5 132.5,-256.5 183.5,-256.5 183.5,-237.5 132.5,-237.5"/>
<text text-anchor="middle" x="158" y="-244.5" font-family="Helvetica,sans-Serif" font-size="10.00">kmt_init</text>
</a>
</g>
</g>
<!-- Node2&#45;&gt;Node3 -->
<g id="edge2" class="edge">
<title>Node2&#45;&gt;Node3</title>
<path fill="none" stroke="midnightblue" d="M222.87,-236.97C209.02,-239.15 194.94,-241.36 183.53,-243.15"/>
<polygon fill="midnightblue" stroke="midnightblue" points="223.54,-240.41 232.87,-235.4 222.45,-233.49 223.54,-240.41"/>
</g>
<!-- Node4 -->
<g id="node4" class="node">
<title>Node4</title>
<g id="a_node4"><a xlink:href="kmt_8c.html#af360ef0d98ca30e481cc58ea3695fd58" target="_top" xlink:title=" ">
<polygon fill="none" stroke="black" points="0,-152.5 0,-171.5 83,-171.5 83,-152.5 0,-152.5"/>
<text text-anchor="middle" x="41.5" y="-159.5" font-family="Helvetica,sans-Serif" font-size="10.00">MODULE_DEF</text>
</a>
</g>
</g>
<!-- Node3&#45;&gt;Node4 -->
<g id="edge3" class="edge">
<title>Node3&#45;&gt;Node4</title>
<path fill="none" stroke="midnightblue" d="M135.82,-231.42C130.34,-227.38 124.44,-223.03 119,-219 96.51,-202.34 70.37,-182.83 55.21,-171.5"/>
<polygon fill="midnightblue" stroke="midnightblue" points="133.84,-234.32 143.97,-237.43 138,-228.68 133.84,-234.32"/>
</g>
<!-- Node5&#45;&gt;Node4 -->
<g id="edge5" class="edge">
<title>Node5&#45;&gt;Node4</title>
<path fill="none" stroke="midnightblue" d="M115.21,-162C104.71,-162 93.45,-162 83.01,-162"/>
<polygon fill="midnightblue" stroke="midnightblue" points="115.41,-165.5 125.41,-162 115.41,-158.5 115.41,-165.5"/>
</g>
<!-- Node6&#45;&gt;Node3 -->
<g id="edge7" class="edge">
<title>Node6&#45;&gt;Node3</title>
<path fill="none" stroke="midnightblue" d="M245.67,-290.54C241.38,-288.74 237.07,-286.86 233,-285 213.3,-275.98 191.28,-264.49 176.42,-256.51"/>
<polygon fill="midnightblue" stroke="midnightblue" points="244.36,-293.79 254.94,-294.36 247.03,-287.31 244.36,-293.79"/>
</g>
<!-- Node7&#45;&gt;Node3 -->
<g id="edge9" class="edge">
<title>Node7&#45;&gt;Node3</title>
<path fill="none" stroke="midnightblue" d="M232.24,-258.5C215.59,-255.89 197.6,-253.06 183.61,-250.86"/>
<polygon fill="midnightblue" stroke="midnightblue" points="231.96,-262 242.38,-260.09 233.04,-255.08 231.96,-262"/>
</g>
<!-- Node8&#45;&gt;Node4 -->
<g id="edge11" class="edge">
<title>Node8&#45;&gt;Node4</title>
<path fill="none" stroke="midnightblue" d="M118.35,-187.17C102.99,-182.08 85.62,-176.31 71.38,-171.59"/>
<polygon fill="midnightblue" stroke="midnightblue" points="117.51,-190.58 128.11,-190.41 119.72,-183.94 117.51,-190.58"/>
</g>
<!-- Node10 -->
<g id="node10" class="node">
<title>Node10</title>
<g id="a_node10"><a xlink:href="os_8c.html#aafec7046aa50c914df86d0d22d4fc1d1" target="_top" xlink:title=" ">
<polygon fill="none" stroke="black" points="0,-0.5 0,-19.5 83,-19.5 83,-0.5 0,-0.5"/>
<text text-anchor="middle" x="41.5" y="-7.5" font-family="Helvetica,sans-Serif" font-size="10.00">MODULE_DEF</text>
</a>
</g>
</g>
<!-- Node9&#45;&gt;Node10 -->
<g id="edge13" class="edge">
<title>Node9&#45;&gt;Node10</title>
<path fill="none" stroke="midnightblue" d="M123.26,-10C110.74,-10 96.42,-10 83.34,-10"/>
<polygon fill="midnightblue" stroke="midnightblue" points="123.28,-13.5 133.28,-10 123.28,-6.5 123.28,-13.5"/>
</g>
<!-- Node11&#45;&gt;Node4 -->
<g id="edge17" class="edge">
<title>Node11&#45;&gt;Node4</title>
<path fill="none" stroke="midnightblue" d="M241.95,-63.92C208,-55.39 157.79,-48.43 119,-67 81.18,-85.1 56.1,-132.03 46.68,-152.37"/>
<polygon fill="midnightblue" stroke="midnightblue" points="241.37,-67.39 251.94,-66.59 243.18,-60.63 241.37,-67.39"/>
</g>
<!-- Node11&#45;&gt;Node5 -->
<g id="edge15" class="edge">
<title>Node11&#45;&gt;Node5</title>
<path fill="none" stroke="midnightblue" d="M242.51,-89.73C239.22,-91.36 236,-93.12 233,-95 206.57,-111.57 180.72,-137.96 167.71,-152.17"/>
<polygon fill="midnightblue" stroke="midnightblue" points="244.2,-92.81 251.87,-85.49 241.31,-86.43 244.2,-92.81"/>
</g>
<!-- Node11&#45;&gt;Node9 -->
<g id="edge18" class="edge">
<title>Node11&#45;&gt;Node9</title>
<path fill="none" stroke="midnightblue" d="M253.39,-61.48C230.05,-48.75 196.79,-30.61 176.62,-19.61"/>
<polygon fill="midnightblue" stroke="midnightblue" points="251.95,-64.69 262.41,-66.4 255.3,-58.54 251.95,-64.69"/>
</g>
<!-- Node12 -->
<g id="node12" class="node">
<title>Node12</title>
<g id="a_node12"><a xlink:href="kernel_8h.html#a7ef2d722f9c7f8acc1801144a5188825" target="_top" xlink:title=" ">
<polygon fill="none" stroke="black" points="128.5,-76.5 128.5,-95.5 187.5,-95.5 187.5,-76.5 128.5,-76.5"/>
<text text-anchor="middle" x="158" y="-83.5" font-family="Helvetica,sans-Serif" font-size="10.00">MODULE</text>
</a>
</g>
</g>
<!-- Node11&#45;&gt;Node12 -->
<g id="edge16" class="edge">
<title>Node11&#45;&gt;Node12</title>
<path fill="none" stroke="midnightblue" d="M241.51,-79.18C224.08,-80.62 203.83,-82.3 187.75,-83.62"/>
<polygon fill="midnightblue" stroke="midnightblue" points="242.26,-82.63 251.94,-78.32 241.68,-75.65 242.26,-82.63"/>
</g>
<!-- Node13&#45;&gt;Node4 -->
<g id="edge22" class="edge">
<title>Node13&#45;&gt;Node4</title>
<path fill="none" stroke="midnightblue" d="M236.81,-120.99C204.31,-126.45 158.72,-134.5 119,-143 105.89,-145.81 91.6,-149.25 78.96,-152.43"/>
<polygon fill="midnightblue" stroke="midnightblue" points="237.59,-124.41 246.88,-119.32 236.44,-117.51 237.59,-124.41"/>
</g>
<!-- Node13&#45;&gt;Node5 -->
<g id="edge20" class="edge">
<title>Node13&#45;&gt;Node5</title>
<path fill="none" stroke="midnightblue" d="M246.4,-127.33C226.32,-135.29 201.28,-145.23 183.15,-152.42"/>
<polygon fill="midnightblue" stroke="midnightblue" points="247.8,-130.54 255.8,-123.6 245.22,-124.03 247.8,-130.54"/>
</g>
<!-- Node13&#45;&gt;Node9 -->
<g id="edge23" class="edge">
<title>Node13&#45;&gt;Node9</title>
<path fill="none" stroke="midnightblue" d="M240.97,-99.95C238.19,-98.43 235.5,-96.78 233,-95 202.73,-73.42 176.63,-37.05 165.18,-19.73"/>
<polygon fill="midnightblue" stroke="midnightblue" points="239.53,-103.14 250.06,-104.36 242.59,-96.85 239.53,-103.14"/>
</g>
<!-- Node13&#45;&gt;Node12 -->
<g id="edge21" class="edge">
<title>Node13&#45;&gt;Node12</title>
<path fill="none" stroke="midnightblue" d="M237,-104.05C220.57,-100.25 202.25,-96.01 187.5,-92.6"/>
<polygon fill="midnightblue" stroke="midnightblue" points="236.4,-107.5 246.94,-106.35 237.98,-100.68 236.4,-107.5"/>
</g>
</g>
</svg>
