<?xml version="1.0" encoding="UTF-8" standalone="no"?>
<!DOCTYPE svg PUBLIC "-//W3C//DTD SVG 1.1//EN"
 "http://www.w3.org/Graphics/SVG/1.1/DTD/svg11.dtd">
<!-- Generated by graphviz version 3.0.0 (20220413.0106)
 -->
<!-- Title: spin_unlock Pages: 1 -->
<svg width="296pt" height="142pt"
 viewBox="0.00 0.00 296.00 142.00" xmlns="http://www.w3.org/2000/svg" xmlns:xlink="http://www.w3.org/1999/xlink">
<g id="graph0" class="graph" transform="scale(1 1) rotate(0) translate(4 138)">
<title>spin_unlock</title>
<!-- Node1 -->
<g id="node1" class="node">
<title>Node1</title>
<g id="a_node1"><a xlink:title="release spinlock from current cpu">
<polygon fill="#bfbfbf" stroke="black" points="220,-57.5 220,-76.5 288,-76.5 288,-57.5 220,-57.5"/>
<text text-anchor="middle" x="254" y="-64.5" font-family="Helvetica,sans-Serif" font-size="10.00">spin_unlock</text>
</a>
</g>
</g>
<!-- Node2 -->
<g id="node2" class="node">
<title>Node2</title>
<g id="a_node2"><a xlink:href="kmt_8c.html#a5ddb8743298012e84cf9cb5faf22212b" target="_top" xlink:title="create thread">
<polygon fill="none" stroke="black" points="119,-114.5 119,-133.5 184,-133.5 184,-114.5 119,-114.5"/>
<text text-anchor="middle" x="151.5" y="-121.5" font-family="Helvetica,sans-Serif" font-size="10.00">kmt_create</text>
</a>
</g>
</g>
<!-- Node1&#45;&gt;Node2 -->
<g id="edge1" class="edge">
<title>Node1&#45;&gt;Node2</title>
<path fill="none" stroke="midnightblue" d="M227.02,-81.74C208.82,-92.05 185.04,-105.54 169.3,-114.47"/>
<polygon fill="midnightblue" stroke="midnightblue" points="228.98,-84.65 235.95,-76.67 225.53,-78.56 228.98,-84.65"/>
</g>
<!-- Node3 -->
<g id="node3" class="node">
<title>Node3</title>
<g id="a_node3"><a xlink:href="kmt_8c.html#af360ef0d98ca30e481cc58ea3695fd58" target="_top" xlink:title=" ">
<polygon fill="none" stroke="black" points="0,-95.5 0,-114.5 83,-114.5 83,-95.5 0,-95.5"/>
<text text-anchor="middle" x="41.5" y="-102.5" font-family="Helvetica,sans-Serif" font-size="10.00">MODULE_DEF</text>
</a>
</g>
</g>
<!-- Node1&#45;&gt;Node3 -->
<g id="edge4" class="edge">
<title>Node1&#45;&gt;Node3</title>
<path fill="none" stroke="midnightblue" d="M209.64,-74.83C172.56,-81.52 119.59,-91.08 83.27,-97.64"/>
<polygon fill="midnightblue" stroke="midnightblue" points="210.43,-78.24 219.65,-73.02 209.18,-71.35 210.43,-78.24"/>
</g>
<!-- Node4 -->
<g id="node4" class="node">
<title>Node4</title>
<g id="a_node4"><a xlink:href="kernel_8h.html#a7ef2d722f9c7f8acc1801144a5188825" target="_top" xlink:title=" ">
<polygon fill="none" stroke="black" points="122,-38.5 122,-57.5 181,-57.5 181,-38.5 122,-38.5"/>
<text text-anchor="middle" x="151.5" y="-45.5" font-family="Helvetica,sans-Serif" font-size="10.00">MODULE</text>
</a>
</g>
</g>
<!-- Node1&#45;&gt;Node4 -->
<g id="edge3" class="edge">
<title>Node1&#45;&gt;Node4</title>
<path fill="none" stroke="midnightblue" d="M209.92,-58.86C200.24,-57.03 190.2,-55.13 181.27,-53.44"/>
<polygon fill="midnightblue" stroke="midnightblue" points="209.34,-62.31 219.81,-60.73 210.64,-55.43 209.34,-62.31"/>
</g>
<!-- Node5 -->
<g id="node5" class="node">
<title>Node5</title>
<g id="a_node5"><a xlink:href="os_8c.html#a2be1c9facb49d4439f41b1537d0f3ef8" target="_top" xlink:title="System trap entry.">
<polygon fill="none" stroke="black" points="127,-0.5 127,-19.5 176,-19.5 176,-0.5 127,-0.5"/>
<text text-anchor="middle" x="151.5" y="-7.5" font-family="Helvetica,sans-Serif" font-size="10.00">os_trap</text>
</a>
</g>
</g>
<!-- Node1&#45;&gt;Node5 -->
<g id="edge5" class="edge">
<title>Node1&#45;&gt;Node5</title>
<path fill="none" stroke="midnightblue" d="M227.02,-52.26C208.82,-41.95 185.04,-28.46 169.3,-19.53"/>
<polygon fill="midnightblue" stroke="midnightblue" points="225.53,-55.44 235.95,-57.33 228.98,-49.35 225.53,-55.44"/>
</g>
<!-- Node2&#45;&gt;Node3 -->
<g id="edge2" class="edge">
<title>Node2&#45;&gt;Node3</title>
<path fill="none" stroke="midnightblue" d="M108.92,-116.68C100.45,-115.2 91.56,-113.63 83.13,-112.15"/>
<polygon fill="midnightblue" stroke="midnightblue" points="108.52,-120.17 118.97,-118.45 109.73,-113.27 108.52,-120.17"/>
</g>
<!-- Node6 -->
<g id="node6" class="node">
<title>Node6</title>
<g id="a_node6"><a xlink:href="os_8c.html#aafec7046aa50c914df86d0d22d4fc1d1" target="_top" xlink:title=" ">
<polygon fill="none" stroke="black" points="0,-0.5 0,-19.5 83,-19.5 83,-0.5 0,-0.5"/>
<text text-anchor="middle" x="41.5" y="-7.5" font-family="Helvetica,sans-Serif" font-size="10.00">MODULE_DEF</text>
</a>
</g>
</g>
<!-- Node5&#45;&gt;Node6 -->
<g id="edge6" class="edge">
<title>Node5&#45;&gt;Node6</title>
<path fill="none" stroke="midnightblue" d="M116.65,-10C106.02,-10 94.18,-10 83.13,-10"/>
<polygon fill="midnightblue" stroke="midnightblue" points="116.8,-13.5 126.8,-10 116.8,-6.5 116.8,-13.5"/>
</g>
</g>
</svg>
