<?xml version="1.0" encoding="UTF-8" standalone="no"?>
<!DOCTYPE svg PUBLIC "-//W3C//DTD SVG 1.1//EN"
 "http://www.w3.org/Graphics/SVG/1.1/DTD/svg11.dtd">
<!-- Generated by graphviz version 3.0.0 (20220413.0106)
 -->
<!-- Title: spin_popcli Pages: 1 -->
<svg width="545pt" height="322pt"
 viewBox="0.00 0.00 545.00 322.00" xmlns="http://www.w3.org/2000/svg" xmlns:xlink="http://www.w3.org/1999/xlink">
<g id="graph0" class="graph" transform="scale(1 1) rotate(0) translate(4 318)">
<title>spin_popcli</title>
<!-- Node1 -->
<g id="node1" class="node">
<title>Node1</title>
<g id="a_node1"><a xlink:title="interrupt able">
<polygon fill="#bfbfbf" stroke="black" points="472,-123.5 472,-142.5 537,-142.5 537,-123.5 472,-123.5"/>
<text text-anchor="middle" x="504.5" y="-130.5" font-family="Helvetica,sans-Serif" font-size="10.00">spin_popcli</text>
</a>
</g>
</g>
<!-- Node2 -->
<g id="node2" class="node">
<title>Node2</title>
<g id="a_node2"><a xlink:href="spinlock_8c.html#ad4be0d674a7ca4dc90c2dbf8b34562cc" target="_top" xlink:title="check current cpu has the lock">
<polygon fill="none" stroke="black" points="365,-142.5 365,-161.5 436,-161.5 436,-142.5 365,-142.5"/>
<text text-anchor="middle" x="400.5" y="-149.5" font-family="Helvetica,sans-Serif" font-size="10.00">spin_holding</text>
</a>
</g>
</g>
<!-- Node1&#45;&gt;Node2 -->
<g id="edge1" class="edge">
<title>Node1&#45;&gt;Node2</title>
<path fill="none" stroke="midnightblue" d="M461.92,-140.75C453.32,-142.35 444.35,-144.02 436.03,-145.57"/>
<polygon fill="midnightblue" stroke="midnightblue" points="462.6,-144.18 471.79,-138.91 461.31,-137.3 462.6,-144.18"/>
</g>
<!-- Node14 -->
<g id="node14" class="node">
<title>Node14</title>
<g id="a_node14"><a xlink:href="spinlock_8c.html#acdf118d615a4bc4064e991add9a80995" target="_top" xlink:title="release spinlock from current cpu">
<polygon fill="none" stroke="black" points="247,-66.5 247,-85.5 315,-85.5 315,-66.5 247,-66.5"/>
<text text-anchor="middle" x="281" y="-73.5" font-family="Helvetica,sans-Serif" font-size="10.00">spin_unlock</text>
</a>
</g>
</g>
<!-- Node1&#45;&gt;Node14 -->
<g id="edge25" class="edge">
<title>Node1&#45;&gt;Node14</title>
<path fill="none" stroke="midnightblue" d="M462.01,-122.32C419.51,-111.39 354.29,-94.6 315.12,-84.52"/>
<polygon fill="midnightblue" stroke="midnightblue" points="461.21,-125.73 471.76,-124.83 462.95,-118.95 461.21,-125.73"/>
</g>
<!-- Node3 -->
<g id="node3" class="node">
<title>Node3</title>
<g id="a_node3"><a xlink:href="kmt_8c.html#af9c485ce0d89d6624e6e80e31d8ed207" target="_top" xlink:title="handler: save context to current task">
<polygon fill="none" stroke="black" points="233,-294.5 233,-313.5 329,-313.5 329,-294.5 233,-294.5"/>
<text text-anchor="middle" x="281" y="-301.5" font-family="Helvetica,sans-Serif" font-size="10.00">kmt_context_save</text>
</a>
</g>
</g>
<!-- Node2&#45;&gt;Node3 -->
<g id="edge2" class="edge">
<title>Node2&#45;&gt;Node3</title>
<path fill="none" stroke="midnightblue" d="M393.92,-171.45C384.8,-200.02 364.11,-253.34 329,-285 324.82,-288.77 319.79,-291.85 314.6,-294.33"/>
<polygon fill="midnightblue" stroke="midnightblue" points="397.29,-172.4 396.86,-161.81 390.59,-170.36 397.29,-172.4"/>
</g>
<!-- Node6 -->
<g id="node6" class="node">
<title>Node6</title>
<g id="a_node6"><a xlink:href="kmt_8c.html#a5ddb8743298012e84cf9cb5faf22212b" target="_top" xlink:title="create thread">
<polygon fill="none" stroke="black" points="125.5,-152.5 125.5,-171.5 190.5,-171.5 190.5,-152.5 125.5,-152.5"/>
<text text-anchor="middle" x="158" y="-159.5" font-family="Helvetica,sans-Serif" font-size="10.00">kmt_create</text>
</a>
</g>
</g>
<!-- Node2&#45;&gt;Node6 -->
<g id="edge5" class="edge">
<title>Node2&#45;&gt;Node6</title>
<path fill="none" stroke="midnightblue" d="M354.73,-153.86C307,-155.85 232.62,-158.94 190.64,-160.68"/>
<polygon fill="midnightblue" stroke="midnightblue" points="354.94,-157.36 364.79,-153.44 354.65,-150.36 354.94,-157.36"/>
</g>
<!-- Node7 -->
<g id="node7" class="node">
<title>Node7</title>
<g id="a_node7"><a xlink:href="kmt_8c.html#ad3fbc643b7b6092120c5152b4c890354" target="_top" xlink:title="handler: handle program errors">
<polygon fill="none" stroke="black" points="252,-256.5 252,-275.5 310,-275.5 310,-256.5 252,-256.5"/>
<text text-anchor="middle" x="281" y="-263.5" font-family="Helvetica,sans-Serif" font-size="10.00">kmt_error</text>
</a>
</g>
</g>
<!-- Node2&#45;&gt;Node7 -->
<g id="edge7" class="edge">
<title>Node2&#45;&gt;Node7</title>
<path fill="none" stroke="midnightblue" d="M389.8,-170.67C377.99,-191.79 356.21,-225.96 329,-247 323.43,-251.31 316.75,-254.78 310.2,-257.51"/>
<polygon fill="midnightblue" stroke="midnightblue" points="392.96,-172.19 394.64,-161.73 386.81,-168.86 392.96,-172.19"/>
</g>
<!-- Node8 -->
<g id="node8" class="node">
<title>Node8</title>
<g id="a_node8"><a xlink:href="kmt_8c.html#ad4d70b4093829da1c0b0631abdff7747" target="_top" xlink:title="handler: schedule next task to run Notice: this should be the only handler which returns real Context">
<polygon fill="none" stroke="black" points="242.5,-218.5 242.5,-237.5 319.5,-237.5 319.5,-218.5 242.5,-218.5"/>
<text text-anchor="middle" x="281" y="-225.5" font-family="Helvetica,sans-Serif" font-size="10.00">kmt_schedule</text>
</a>
</g>
</g>
<!-- Node2&#45;&gt;Node8 -->
<g id="edge9" class="edge">
<title>Node2&#45;&gt;Node8</title>
<path fill="none" stroke="midnightblue" d="M379.59,-168.05C365.8,-178.82 346.78,-193 329,-204 320.58,-209.2 310.9,-214.29 302.52,-218.43"/>
<polygon fill="midnightblue" stroke="midnightblue" points="381.77,-170.79 387.45,-161.84 377.43,-165.29 381.77,-170.79"/>
</g>
<!-- Node9 -->
<g id="node9" class="node">
<title>Node9</title>
<g id="a_node9"><a xlink:href="kmt_8c.html#a47d8887c87041abd5ea3148232b65c93" target="_top" xlink:title="tear down a thread">
<polygon fill="none" stroke="black" points="119,-190.5 119,-209.5 197,-209.5 197,-190.5 119,-190.5"/>
<text text-anchor="middle" x="158" y="-197.5" font-family="Helvetica,sans-Serif" font-size="10.00">kmt_teardown</text>
</a>
</g>
</g>
<!-- Node2&#45;&gt;Node9 -->
<g id="edge11" class="edge">
<title>Node2&#45;&gt;Node9</title>
<path fill="none" stroke="midnightblue" d="M354.97,-163.91C346.38,-166.05 337.43,-168.18 329,-170 284.03,-179.69 231.87,-188.55 197.31,-194.09"/>
<polygon fill="midnightblue" stroke="midnightblue" points="356.01,-167.26 364.84,-161.4 354.29,-160.47 356.01,-167.26"/>
</g>
<!-- Node10 -->
<g id="node10" class="node">
<title>Node10</title>
<g id="a_node10"><a xlink:href="os_8c.html#a2be1c9facb49d4439f41b1537d0f3ef8" target="_top" xlink:title="System trap entry.">
<polygon fill="none" stroke="black" points="133.5,-0.5 133.5,-19.5 182.5,-19.5 182.5,-0.5 133.5,-0.5"/>
<text text-anchor="middle" x="158" y="-7.5" font-family="Helvetica,sans-Serif" font-size="10.00">os_trap</text>
</a>
</g>
</g>
<!-- Node2&#45;&gt;Node10 -->
<g id="edge13" class="edge">
<title>Node2&#45;&gt;Node10</title>
<path fill="none" stroke="midnightblue" d="M390.39,-133.09C379.01,-111.47 357.51,-76.55 329,-57 283.42,-25.74 217.6,-15.2 182.74,-11.7"/>
<polygon fill="midnightblue" stroke="midnightblue" points="387.39,-134.9 395.03,-142.25 393.63,-131.74 387.39,-134.9"/>
</g>
<!-- Node12 -->
<g id="node12" class="node">
<title>Node12</title>
<g id="a_node12"><a xlink:href="spinlock_8c.html#ab6f3c37ec37006951feccc3c05387cce" target="_top" xlink:title="acquire spinlock to current cpu">
<polygon fill="none" stroke="black" points="252,-104.5 252,-123.5 310,-123.5 310,-104.5 252,-104.5"/>
<text text-anchor="middle" x="281" y="-111.5" font-family="Helvetica,sans-Serif" font-size="10.00">spin_lock</text>
</a>
</g>
</g>
<!-- Node2&#45;&gt;Node12 -->
<g id="edge15" class="edge">
<title>Node2&#45;&gt;Node12</title>
<path fill="none" stroke="midnightblue" d="M359.99,-139.22C343.6,-133.92 324.97,-127.9 310.02,-123.06"/>
<polygon fill="midnightblue" stroke="midnightblue" points="359.26,-142.66 369.85,-142.41 361.41,-136 359.26,-142.66"/>
</g>
<!-- Node2&#45;&gt;Node14 -->
<g id="edge20" class="edge">
<title>Node2&#45;&gt;Node14</title>
<path fill="none" stroke="midnightblue" d="M382.07,-135.44C368.42,-123.12 348.54,-106.51 329,-95 322.93,-91.43 316.07,-88.23 309.5,-85.53"/>
<polygon fill="midnightblue" stroke="midnightblue" points="379.97,-138.27 389.7,-142.48 384.72,-133.13 379.97,-138.27"/>
</g>
<!-- Node4 -->
<g id="node4" class="node">
<title>Node4</title>
<g id="a_node4"><a xlink:href="kmt_8c.html#a0c68a294cecc4be7cb4b495f15b883a0" target="_top" xlink:title="initialize kmt module">
<polygon fill="none" stroke="black" points="132.5,-247.5 132.5,-266.5 183.5,-266.5 183.5,-247.5 132.5,-247.5"/>
<text text-anchor="middle" x="158" y="-254.5" font-family="Helvetica,sans-Serif" font-size="10.00">kmt_init</text>
</a>
</g>
</g>
<!-- Node3&#45;&gt;Node4 -->
<g id="edge3" class="edge">
<title>Node3&#45;&gt;Node4</title>
<path fill="none" stroke="midnightblue" d="M245.96,-290.78C226.22,-283.11 201.8,-273.62 183.87,-266.66"/>
<polygon fill="midnightblue" stroke="midnightblue" points="244.93,-294.13 255.51,-294.49 247.46,-287.61 244.93,-294.13"/>
</g>
<!-- Node5 -->
<g id="node5" class="node">
<title>Node5</title>
<g id="a_node5"><a xlink:href="kmt_8c.html#af360ef0d98ca30e481cc58ea3695fd58" target="_top" xlink:title=" ">
<polygon fill="none" stroke="black" points="0,-152.5 0,-171.5 83,-171.5 83,-152.5 0,-152.5"/>
<text text-anchor="middle" x="41.5" y="-159.5" font-family="Helvetica,sans-Serif" font-size="10.00">MODULE_DEF</text>
</a>
</g>
</g>
<!-- Node4&#45;&gt;Node5 -->
<g id="edge4" class="edge">
<title>Node4&#45;&gt;Node5</title>
<path fill="none" stroke="midnightblue" d="M137.42,-240.76C113.46,-220.87 73.66,-187.85 54.09,-171.61"/>
<polygon fill="midnightblue" stroke="midnightblue" points="135.25,-243.5 145.18,-247.19 139.72,-238.11 135.25,-243.5"/>
</g>
<!-- Node6&#45;&gt;Node5 -->
<g id="edge6" class="edge">
<title>Node6&#45;&gt;Node5</title>
<path fill="none" stroke="midnightblue" d="M115.21,-162C104.71,-162 93.45,-162 83.01,-162"/>
<polygon fill="midnightblue" stroke="midnightblue" points="115.41,-165.5 125.41,-162 115.41,-158.5 115.41,-165.5"/>
</g>
<!-- Node7&#45;&gt;Node4 -->
<g id="edge8" class="edge">
<title>Node7&#45;&gt;Node4</title>
<path fill="none" stroke="midnightblue" d="M241.78,-263.16C222.77,-261.74 200.34,-260.08 183.63,-258.83"/>
<polygon fill="midnightblue" stroke="midnightblue" points="241.7,-266.66 251.94,-263.91 242.22,-259.68 241.7,-266.66"/>
</g>
<!-- Node8&#45;&gt;Node4 -->
<g id="edge10" class="edge">
<title>Node8&#45;&gt;Node4</title>
<path fill="none" stroke="midnightblue" d="M232.24,-239.45C215.59,-243.44 197.6,-247.75 183.61,-251.1"/>
<polygon fill="midnightblue" stroke="midnightblue" points="233.47,-242.75 242.38,-237.02 231.84,-235.94 233.47,-242.75"/>
</g>
<!-- Node9&#45;&gt;Node5 -->
<g id="edge12" class="edge">
<title>Node9&#45;&gt;Node5</title>
<path fill="none" stroke="midnightblue" d="M118.35,-187.17C102.99,-182.08 85.62,-176.31 71.38,-171.59"/>
<polygon fill="midnightblue" stroke="midnightblue" points="117.51,-190.58 128.11,-190.41 119.72,-183.94 117.51,-190.58"/>
</g>
<!-- Node11 -->
<g id="node11" class="node">
<title>Node11</title>
<g id="a_node11"><a xlink:href="os_8c.html#aafec7046aa50c914df86d0d22d4fc1d1" target="_top" xlink:title=" ">
<polygon fill="none" stroke="black" points="0,-0.5 0,-19.5 83,-19.5 83,-0.5 0,-0.5"/>
<text text-anchor="middle" x="41.5" y="-7.5" font-family="Helvetica,sans-Serif" font-size="10.00">MODULE_DEF</text>
</a>
</g>
</g>
<!-- Node10&#45;&gt;Node11 -->
<g id="edge14" class="edge">
<title>Node10&#45;&gt;Node11</title>
<path fill="none" stroke="midnightblue" d="M123.26,-10C110.74,-10 96.42,-10 83.34,-10"/>
<polygon fill="midnightblue" stroke="midnightblue" points="123.28,-13.5 133.28,-10 123.28,-6.5 123.28,-13.5"/>
</g>
<!-- Node12&#45;&gt;Node5 -->
<g id="edge18" class="edge">
<title>Node12&#45;&gt;Node5</title>
<path fill="none" stroke="midnightblue" d="M241.93,-120.14C209.22,-125.58 160.85,-134.04 119,-143 105.89,-145.81 91.6,-149.25 78.96,-152.43"/>
<polygon fill="midnightblue" stroke="midnightblue" points="242.67,-123.56 251.97,-118.48 241.53,-116.66 242.67,-123.56"/>
</g>
<!-- Node12&#45;&gt;Node6 -->
<g id="edge16" class="edge">
<title>Node12&#45;&gt;Node6</title>
<path fill="none" stroke="midnightblue" d="M246.4,-127.33C226.32,-135.29 201.28,-145.23 183.15,-152.42"/>
<polygon fill="midnightblue" stroke="midnightblue" points="247.8,-130.54 255.8,-123.6 245.22,-124.03 247.8,-130.54"/>
</g>
<!-- Node12&#45;&gt;Node10 -->
<g id="edge19" class="edge">
<title>Node12&#45;&gt;Node10</title>
<path fill="none" stroke="midnightblue" d="M242.26,-100.64C239.02,-98.93 235.88,-97.05 233,-95 202.73,-73.42 176.63,-37.05 165.18,-19.73"/>
<polygon fill="midnightblue" stroke="midnightblue" points="241,-103.91 251.54,-105 243.97,-97.58 241,-103.91"/>
</g>
<!-- Node13 -->
<g id="node13" class="node">
<title>Node13</title>
<g id="a_node13"><a xlink:href="kernel_8h.html#a7ef2d722f9c7f8acc1801144a5188825" target="_top" xlink:title=" ">
<polygon fill="none" stroke="black" points="128.5,-76.5 128.5,-95.5 187.5,-95.5 187.5,-76.5 128.5,-76.5"/>
<text text-anchor="middle" x="158" y="-83.5" font-family="Helvetica,sans-Serif" font-size="10.00">MODULE</text>
</a>
</g>
</g>
<!-- Node12&#45;&gt;Node13 -->
<g id="edge17" class="edge">
<title>Node12&#45;&gt;Node13</title>
<path fill="none" stroke="midnightblue" d="M242,-105.21C224.46,-101.15 203.98,-96.41 187.75,-92.65"/>
<polygon fill="midnightblue" stroke="midnightblue" points="241.4,-108.66 251.94,-107.51 242.98,-101.84 241.4,-108.66"/>
</g>
<!-- Node14&#45;&gt;Node5 -->
<g id="edge23" class="edge">
<title>Node14&#45;&gt;Node5</title>
<path fill="none" stroke="midnightblue" d="M241.35,-63.77C207.4,-55.31 157.56,-48.54 119,-67 81.18,-85.1 56.1,-132.03 46.68,-152.37"/>
<polygon fill="midnightblue" stroke="midnightblue" points="240.78,-67.24 251.34,-66.43 242.58,-60.48 240.78,-67.24"/>
</g>
<!-- Node14&#45;&gt;Node6 -->
<g id="edge21" class="edge">
<title>Node14&#45;&gt;Node6</title>
<path fill="none" stroke="midnightblue" d="M242.25,-89.86C239.05,-91.45 235.92,-93.17 233,-95 206.57,-111.57 180.72,-137.96 167.71,-152.17"/>
<polygon fill="midnightblue" stroke="midnightblue" points="243.73,-93.03 251.37,-85.7 240.82,-86.67 243.73,-93.03"/>
</g>
<!-- Node14&#45;&gt;Node10 -->
<g id="edge24" class="edge">
<title>Node14&#45;&gt;Node10</title>
<path fill="none" stroke="midnightblue" d="M253.39,-61.48C230.05,-48.75 196.79,-30.61 176.62,-19.61"/>
<polygon fill="midnightblue" stroke="midnightblue" points="251.95,-64.69 262.41,-66.4 255.3,-58.54 251.95,-64.69"/>
</g>
<!-- Node14&#45;&gt;Node13 -->
<g id="edge22" class="edge">
<title>Node14&#45;&gt;Node13</title>
<path fill="none" stroke="midnightblue" d="M236.53,-79.59C220.22,-80.94 202.11,-82.44 187.5,-83.64"/>
<polygon fill="midnightblue" stroke="midnightblue" points="237.26,-83.04 246.94,-78.73 236.68,-76.07 237.26,-83.04"/>
</g>
</g>
</svg>
