<?xml version="1.0" encoding="UTF-8" standalone="no"?>
<!DOCTYPE svg PUBLIC "-//W3C//DTD SVG 1.1//EN"
 "http://www.w3.org/Graphics/SVG/1.1/DTD/svg11.dtd">
<!-- Generated by graphviz version 3.0.0 (20220413.0106)
 -->
<!-- Title: spin_pushcli Pages: 1 -->
<svg width="551pt" height="294pt"
 viewBox="0.00 0.00 551.00 294.00" xmlns="http://www.w3.org/2000/svg" xmlns:xlink="http://www.w3.org/1999/xlink">
<g id="graph0" class="graph" transform="scale(1 1) rotate(0) translate(4 290)">
<title>spin_pushcli</title>
<!-- Node1 -->
<g id="node1" class="node">
<title>Node1</title>
<g id="a_node1"><a xlink:title="interrupt disable">
<polygon fill="#bfbfbf" stroke="black" points="472,-95.5 472,-114.5 543,-114.5 543,-95.5 472,-95.5"/>
<text text-anchor="middle" x="507.5" y="-102.5" font-family="Helvetica,sans-Serif" font-size="10.00">spin_pushcli</text>
</a>
</g>
</g>
<!-- Node2 -->
<g id="node2" class="node">
<title>Node2</title>
<g id="a_node2"><a xlink:href="spinlock_8c.html#ad4be0d674a7ca4dc90c2dbf8b34562cc" target="_top" xlink:title="check current cpu has the lock">
<polygon fill="none" stroke="black" points="365,-114.5 365,-133.5 436,-133.5 436,-114.5 365,-114.5"/>
<text text-anchor="middle" x="400.5" y="-121.5" font-family="Helvetica,sans-Serif" font-size="10.00">spin_holding</text>
</a>
</g>
</g>
<!-- Node1&#45;&gt;Node2 -->
<g id="edge1" class="edge">
<title>Node1&#45;&gt;Node2</title>
<path fill="none" stroke="midnightblue" d="M461.9,-113.07C453.29,-114.63 444.38,-116.24 436.14,-117.73"/>
<polygon fill="midnightblue" stroke="midnightblue" points="462.61,-116.5 471.83,-111.27 461.36,-109.61 462.61,-116.5"/>
</g>
<!-- Node12 -->
<g id="node12" class="node">
<title>Node12</title>
<g id="a_node12"><a xlink:href="spinlock_8c.html#ab6f3c37ec37006951feccc3c05387cce" target="_top" xlink:title="acquire spinlock to current cpu">
<polygon fill="none" stroke="black" points="252,-38.5 252,-57.5 310,-57.5 310,-38.5 252,-38.5"/>
<text text-anchor="middle" x="281" y="-45.5" font-family="Helvetica,sans-Serif" font-size="10.00">spin_lock</text>
</a>
</g>
</g>
<!-- Node1&#45;&gt;Node12 -->
<g id="edge25" class="edge">
<title>Node1&#45;&gt;Node12</title>
<path fill="none" stroke="midnightblue" d="M462.1,-93.73C416.97,-82.27 348.42,-64.86 310.23,-55.17"/>
<polygon fill="midnightblue" stroke="midnightblue" points="461.36,-97.15 471.91,-96.22 463.08,-90.37 461.36,-97.15"/>
</g>
<!-- Node3 -->
<g id="node3" class="node">
<title>Node3</title>
<g id="a_node3"><a xlink:href="kmt_8c.html#af9c485ce0d89d6624e6e80e31d8ed207" target="_top" xlink:title="handler: save context to current task">
<polygon fill="none" stroke="black" points="233,-266.5 233,-285.5 329,-285.5 329,-266.5 233,-266.5"/>
<text text-anchor="middle" x="281" y="-273.5" font-family="Helvetica,sans-Serif" font-size="10.00">kmt_context_save</text>
</a>
</g>
</g>
<!-- Node2&#45;&gt;Node3 -->
<g id="edge2" class="edge">
<title>Node2&#45;&gt;Node3</title>
<path fill="none" stroke="midnightblue" d="M393.92,-143.45C384.8,-172.02 364.11,-225.34 329,-257 324.82,-260.77 319.79,-263.85 314.6,-266.33"/>
<polygon fill="midnightblue" stroke="midnightblue" points="397.29,-144.4 396.86,-133.81 390.59,-142.36 397.29,-144.4"/>
</g>
<!-- Node6 -->
<g id="node6" class="node">
<title>Node6</title>
<g id="a_node6"><a xlink:href="kmt_8c.html#a5ddb8743298012e84cf9cb5faf22212b" target="_top" xlink:title="create thread">
<polygon fill="none" stroke="black" points="125.5,-114.5 125.5,-133.5 190.5,-133.5 190.5,-114.5 125.5,-114.5"/>
<text text-anchor="middle" x="158" y="-121.5" font-family="Helvetica,sans-Serif" font-size="10.00">kmt_create</text>
</a>
</g>
</g>
<!-- Node2&#45;&gt;Node6 -->
<g id="edge5" class="edge">
<title>Node2&#45;&gt;Node6</title>
<path fill="none" stroke="midnightblue" d="M354.73,-124C307,-124 232.62,-124 190.64,-124"/>
<polygon fill="midnightblue" stroke="midnightblue" points="354.79,-127.5 364.79,-124 354.79,-120.5 354.79,-127.5"/>
</g>
<!-- Node7 -->
<g id="node7" class="node">
<title>Node7</title>
<g id="a_node7"><a xlink:href="kmt_8c.html#ad3fbc643b7b6092120c5152b4c890354" target="_top" xlink:title="handler: handle program errors">
<polygon fill="none" stroke="black" points="252,-228.5 252,-247.5 310,-247.5 310,-228.5 252,-228.5"/>
<text text-anchor="middle" x="281" y="-235.5" font-family="Helvetica,sans-Serif" font-size="10.00">kmt_error</text>
</a>
</g>
</g>
<!-- Node2&#45;&gt;Node7 -->
<g id="edge7" class="edge">
<title>Node2&#45;&gt;Node7</title>
<path fill="none" stroke="midnightblue" d="M389.8,-142.67C377.99,-163.79 356.21,-197.96 329,-219 323.43,-223.31 316.75,-226.78 310.2,-229.51"/>
<polygon fill="midnightblue" stroke="midnightblue" points="392.96,-144.19 394.64,-133.73 386.81,-140.86 392.96,-144.19"/>
</g>
<!-- Node8 -->
<g id="node8" class="node">
<title>Node8</title>
<g id="a_node8"><a xlink:href="kmt_8c.html#ad4d70b4093829da1c0b0631abdff7747" target="_top" xlink:title="handler: schedule next task to run Notice: this should be the only handler which returns real Context">
<polygon fill="none" stroke="black" points="242.5,-190.5 242.5,-209.5 319.5,-209.5 319.5,-190.5 242.5,-190.5"/>
<text text-anchor="middle" x="281" y="-197.5" font-family="Helvetica,sans-Serif" font-size="10.00">kmt_schedule</text>
</a>
</g>
</g>
<!-- Node2&#45;&gt;Node8 -->
<g id="edge9" class="edge">
<title>Node2&#45;&gt;Node8</title>
<path fill="none" stroke="midnightblue" d="M379.59,-140.05C365.8,-150.82 346.78,-165 329,-176 320.58,-181.2 310.9,-186.29 302.52,-190.43"/>
<polygon fill="midnightblue" stroke="midnightblue" points="381.77,-142.79 387.45,-133.84 377.43,-137.29 381.77,-142.79"/>
</g>
<!-- Node9 -->
<g id="node9" class="node">
<title>Node9</title>
<g id="a_node9"><a xlink:href="kmt_8c.html#a47d8887c87041abd5ea3148232b65c93" target="_top" xlink:title="tear down a thread">
<polygon fill="none" stroke="black" points="119,-190.5 119,-209.5 197,-209.5 197,-190.5 119,-190.5"/>
<text text-anchor="middle" x="158" y="-197.5" font-family="Helvetica,sans-Serif" font-size="10.00">kmt_teardown</text>
</a>
</g>
</g>
<!-- Node2&#45;&gt;Node9 -->
<g id="edge11" class="edge">
<title>Node2&#45;&gt;Node9</title>
<path fill="none" stroke="midnightblue" d="M359.3,-136.7C311.35,-151.86 232.26,-176.85 189.21,-190.45"/>
<polygon fill="midnightblue" stroke="midnightblue" points="360.56,-139.98 369.04,-133.63 358.45,-133.3 360.56,-139.98"/>
</g>
<!-- Node10 -->
<g id="node10" class="node">
<title>Node10</title>
<g id="a_node10"><a xlink:href="os_8c.html#a2be1c9facb49d4439f41b1537d0f3ef8" target="_top" xlink:title="System trap entry.">
<polygon fill="none" stroke="black" points="133.5,-0.5 133.5,-19.5 182.5,-19.5 182.5,-0.5 133.5,-0.5"/>
<text text-anchor="middle" x="158" y="-7.5" font-family="Helvetica,sans-Serif" font-size="10.00">os_trap</text>
</a>
</g>
</g>
<!-- Node2&#45;&gt;Node10 -->
<g id="edge13" class="edge">
<title>Node2&#45;&gt;Node10</title>
<path fill="none" stroke="midnightblue" d="M391.38,-105.26C380.63,-82.94 359.42,-46.49 329,-29 282.53,-2.28 217.08,-3.79 182.51,-7.01"/>
<polygon fill="midnightblue" stroke="midnightblue" points="388.23,-106.78 395.58,-114.4 394.59,-103.85 388.23,-106.78"/>
</g>
<!-- Node2&#45;&gt;Node12 -->
<g id="edge15" class="edge">
<title>Node2&#45;&gt;Node12</title>
<path fill="none" stroke="midnightblue" d="M382.07,-107.44C368.42,-95.12 348.54,-78.51 329,-67 322.93,-63.43 316.07,-60.23 309.5,-57.53"/>
<polygon fill="midnightblue" stroke="midnightblue" points="379.97,-110.27 389.7,-114.48 384.72,-105.13 379.97,-110.27"/>
</g>
<!-- Node14 -->
<g id="node14" class="node">
<title>Node14</title>
<g id="a_node14"><a xlink:href="spinlock_8c.html#acdf118d615a4bc4064e991add9a80995" target="_top" xlink:title="release spinlock from current cpu">
<polygon fill="none" stroke="black" points="247,-76.5 247,-95.5 315,-95.5 315,-76.5 247,-76.5"/>
<text text-anchor="middle" x="281" y="-83.5" font-family="Helvetica,sans-Serif" font-size="10.00">spin_unlock</text>
</a>
</g>
</g>
<!-- Node2&#45;&gt;Node14 -->
<g id="edge20" class="edge">
<title>Node2&#45;&gt;Node14</title>
<path fill="none" stroke="midnightblue" d="M360.29,-111.32C344.41,-106.19 326.39,-100.36 311.64,-95.59"/>
<polygon fill="midnightblue" stroke="midnightblue" points="359.26,-114.66 369.85,-114.41 361.41,-108 359.26,-114.66"/>
</g>
<!-- Node4 -->
<g id="node4" class="node">
<title>Node4</title>
<g id="a_node4"><a xlink:href="kmt_8c.html#a0c68a294cecc4be7cb4b495f15b883a0" target="_top" xlink:title="initialize kmt module">
<polygon fill="none" stroke="black" points="132.5,-228.5 132.5,-247.5 183.5,-247.5 183.5,-228.5 132.5,-228.5"/>
<text text-anchor="middle" x="158" y="-235.5" font-family="Helvetica,sans-Serif" font-size="10.00">kmt_init</text>
</a>
</g>
</g>
<!-- Node3&#45;&gt;Node4 -->
<g id="edge3" class="edge">
<title>Node3&#45;&gt;Node4</title>
<path fill="none" stroke="midnightblue" d="M239.82,-263.38C221.31,-257.57 199.94,-250.86 183.82,-245.8"/>
<polygon fill="midnightblue" stroke="midnightblue" points="238.88,-266.75 249.47,-266.41 240.97,-260.08 238.88,-266.75"/>
</g>
<!-- Node5 -->
<g id="node5" class="node">
<title>Node5</title>
<g id="a_node5"><a xlink:href="kmt_8c.html#af360ef0d98ca30e481cc58ea3695fd58" target="_top" xlink:title=" ">
<polygon fill="none" stroke="black" points="0,-152.5 0,-171.5 83,-171.5 83,-152.5 0,-152.5"/>
<text text-anchor="middle" x="41.5" y="-159.5" font-family="Helvetica,sans-Serif" font-size="10.00">MODULE_DEF</text>
</a>
</g>
</g>
<!-- Node4&#45;&gt;Node5 -->
<g id="edge4" class="edge">
<title>Node4&#45;&gt;Node5</title>
<path fill="none" stroke="midnightblue" d="M127.19,-223.73C124.39,-222.2 121.62,-220.61 119,-219 94.74,-204.06 68.55,-183.47 53.97,-171.56"/>
<polygon fill="midnightblue" stroke="midnightblue" points="125.64,-226.87 136.13,-228.39 128.88,-220.67 125.64,-226.87"/>
</g>
<!-- Node6&#45;&gt;Node5 -->
<g id="edge6" class="edge">
<title>Node6&#45;&gt;Node5</title>
<path fill="none" stroke="midnightblue" d="M118.35,-136.83C102.99,-141.92 85.62,-147.69 71.38,-152.41"/>
<polygon fill="midnightblue" stroke="midnightblue" points="119.72,-140.06 128.11,-133.59 117.51,-133.42 119.72,-140.06"/>
</g>
<!-- Node7&#45;&gt;Node4 -->
<g id="edge8" class="edge">
<title>Node7&#45;&gt;Node4</title>
<path fill="none" stroke="midnightblue" d="M241.78,-238C222.77,-238 200.34,-238 183.63,-238"/>
<polygon fill="midnightblue" stroke="midnightblue" points="241.94,-241.5 251.94,-238 241.94,-234.5 241.94,-241.5"/>
</g>
<!-- Node8&#45;&gt;Node4 -->
<g id="edge10" class="edge">
<title>Node8&#45;&gt;Node4</title>
<path fill="none" stroke="midnightblue" d="M239.82,-212.62C221.31,-218.43 199.94,-225.14 183.82,-230.2"/>
<polygon fill="midnightblue" stroke="midnightblue" points="240.97,-215.92 249.47,-209.59 238.88,-209.25 240.97,-215.92"/>
</g>
<!-- Node9&#45;&gt;Node5 -->
<g id="edge12" class="edge">
<title>Node9&#45;&gt;Node5</title>
<path fill="none" stroke="midnightblue" d="M118.35,-187.17C102.99,-182.08 85.62,-176.31 71.38,-171.59"/>
<polygon fill="midnightblue" stroke="midnightblue" points="117.51,-190.58 128.11,-190.41 119.72,-183.94 117.51,-190.58"/>
</g>
<!-- Node11 -->
<g id="node11" class="node">
<title>Node11</title>
<g id="a_node11"><a xlink:href="os_8c.html#aafec7046aa50c914df86d0d22d4fc1d1" target="_top" xlink:title=" ">
<polygon fill="none" stroke="black" points="0,-0.5 0,-19.5 83,-19.5 83,-0.5 0,-0.5"/>
<text text-anchor="middle" x="41.5" y="-7.5" font-family="Helvetica,sans-Serif" font-size="10.00">MODULE_DEF</text>
</a>
</g>
</g>
<!-- Node10&#45;&gt;Node11 -->
<g id="edge14" class="edge">
<title>Node10&#45;&gt;Node11</title>
<path fill="none" stroke="midnightblue" d="M123.26,-10C110.74,-10 96.42,-10 83.34,-10"/>
<polygon fill="midnightblue" stroke="midnightblue" points="123.28,-13.5 133.28,-10 123.28,-6.5 123.28,-13.5"/>
</g>
<!-- Node12&#45;&gt;Node5 -->
<g id="edge18" class="edge">
<title>Node12&#45;&gt;Node5</title>
<path fill="none" stroke="midnightblue" d="M241.8,-44.66C207.53,-43.41 156.95,-46.02 119,-67 82.49,-87.19 56.87,-132.56 47,-152.4"/>
<polygon fill="midnightblue" stroke="midnightblue" points="241.72,-48.16 251.88,-45.15 242.06,-41.17 241.72,-48.16"/>
</g>
<!-- Node12&#45;&gt;Node6 -->
<g id="edge16" class="edge">
<title>Node12&#45;&gt;Node6</title>
<path fill="none" stroke="midnightblue" d="M242.35,-61.49C239.09,-63.17 235.92,-65.01 233,-67 213.78,-80.1 215.69,-91.14 197,-105 192.26,-108.51 186.77,-111.69 181.47,-114.39"/>
<polygon fill="midnightblue" stroke="midnightblue" points="244.06,-64.56 251.66,-57.18 241.11,-58.21 244.06,-64.56"/>
</g>
<!-- Node12&#45;&gt;Node10 -->
<g id="edge19" class="edge">
<title>Node12&#45;&gt;Node10</title>
<path fill="none" stroke="midnightblue" d="M242.17,-36.12C222.77,-30.03 199.74,-22.79 182.83,-17.48"/>
<polygon fill="midnightblue" stroke="midnightblue" points="241.35,-39.53 251.94,-39.19 243.44,-32.85 241.35,-39.53"/>
</g>
<!-- Node13 -->
<g id="node13" class="node">
<title>Node13</title>
<g id="a_node13"><a xlink:href="kernel_8h.html#a7ef2d722f9c7f8acc1801144a5188825" target="_top" xlink:title=" ">
<polygon fill="none" stroke="black" points="128.5,-76.5 128.5,-95.5 187.5,-95.5 187.5,-76.5 128.5,-76.5"/>
<text text-anchor="middle" x="158" y="-83.5" font-family="Helvetica,sans-Serif" font-size="10.00">MODULE</text>
</a>
</g>
</g>
<!-- Node12&#45;&gt;Node13 -->
<g id="edge17" class="edge">
<title>Node12&#45;&gt;Node13</title>
<path fill="none" stroke="midnightblue" d="M242,-59.93C224.46,-65.44 203.98,-71.87 187.75,-76.97"/>
<polygon fill="midnightblue" stroke="midnightblue" points="243.44,-63.15 251.94,-56.81 241.35,-56.47 243.44,-63.15"/>
</g>
<!-- Node14&#45;&gt;Node5 -->
<g id="edge23" class="edge">
<title>Node14&#45;&gt;Node5</title>
<path fill="none" stroke="midnightblue" d="M261.77,-102.4C245.86,-115.69 221.55,-133.7 197,-143 160.1,-156.98 115.04,-161.19 83.12,-162.23"/>
<polygon fill="midnightblue" stroke="midnightblue" points="264.39,-104.76 269.68,-95.58 259.82,-99.45 264.39,-104.76"/>
</g>
<!-- Node14&#45;&gt;Node6 -->
<g id="edge21" class="edge">
<title>Node14&#45;&gt;Node6</title>
<path fill="none" stroke="midnightblue" d="M239.62,-98.68C223.27,-103.81 204.71,-109.64 189.52,-114.41"/>
<polygon fill="midnightblue" stroke="midnightblue" points="240.97,-101.92 249.47,-95.59 238.88,-95.25 240.97,-101.92"/>
</g>
<!-- Node14&#45;&gt;Node10 -->
<g id="edge24" class="edge">
<title>Node14&#45;&gt;Node10</title>
<path fill="none" stroke="midnightblue" d="M243.23,-72.28C239.71,-70.63 236.25,-68.86 233,-67 208.8,-53.13 183.71,-32.17 169.86,-19.9"/>
<polygon fill="midnightblue" stroke="midnightblue" points="242,-75.56 252.56,-76.37 244.81,-69.15 242,-75.56"/>
</g>
<!-- Node14&#45;&gt;Node13 -->
<g id="edge22" class="edge">
<title>Node14&#45;&gt;Node13</title>
<path fill="none" stroke="midnightblue" d="M236.53,-86C220.22,-86 202.11,-86 187.5,-86"/>
<polygon fill="midnightblue" stroke="midnightblue" points="236.94,-89.5 246.94,-86 236.94,-82.5 236.94,-89.5"/>
</g>
</g>
</svg>
