<?xml version="1.0" encoding="UTF-8" standalone="no"?>
<!DOCTYPE svg PUBLIC "-//W3C//DTD SVG 1.1//EN"
 "http://www.w3.org/Graphics/SVG/1.1/DTD/svg11.dtd">
<!-- Generated by graphviz version 3.0.0 (20220413.0106)
 -->
<!-- Title: vsprintf Pages: 1 -->
<svg width="332pt" height="28pt"
 viewBox="0.00 0.00 332.00 28.00" xmlns="http://www.w3.org/2000/svg" xmlns:xlink="http://www.w3.org/1999/xlink">
<g id="graph0" class="graph" transform="scale(1 1) rotate(0) translate(4 24)">
<title>vsprintf</title>
<!-- Node1 -->
<g id="node1" class="node">
<title>Node1</title>
<g id="a_node1"><a xlink:title="write bytes (including the terminating null byte (&#39;\0&#39;)) to out.">
<polygon fill="#bfbfbf" stroke="black" points="275,-0.5 275,-19.5 324,-19.5 324,-0.5 275,-0.5"/>
<text text-anchor="middle" x="299.5" y="-7.5" font-family="Helvetica,sans-Serif" font-size="10.00">vsprintf</text>
</a>
</g>
</g>
<!-- Node2 -->
<g id="node2" class="node">
<title>Node2</title>
<g id="a_node2"><a xlink:href="stdio_8c.html#a55f3d956bb2ba20b5059e9e25484a47f" target="_top" xlink:title=" ">
<polygon fill="none" stroke="black" points="201,-0.5 201,-19.5 239,-19.5 239,-0.5 201,-0.5"/>
<text text-anchor="middle" x="220" y="-7.5" font-family="Helvetica,sans-Serif" font-size="10.00">printf</text>
</a>
</g>
</g>
<!-- Node1&#45;&gt;Node2 -->
<g id="edge1" class="edge">
<title>Node1&#45;&gt;Node2</title>
<path fill="none" stroke="midnightblue" d="M264.55,-10C255.89,-10 246.91,-10 239.37,-10"/>
<polygon fill="midnightblue" stroke="midnightblue" points="264.83,-13.5 274.83,-10 264.83,-6.5 264.83,-13.5"/>
</g>
<!-- Node3 -->
<g id="node3" class="node">
<title>Node3</title>
<g id="a_node3"><a xlink:href="os_8c.html#a5f9cb32664e017ca15c49ec66e5342e4" target="_top" xlink:title=" ">
<polygon fill="none" stroke="black" points="119,-0.5 119,-19.5 165,-19.5 165,-0.5 119,-0.5"/>
<text text-anchor="middle" x="142" y="-7.5" font-family="Helvetica,sans-Serif" font-size="10.00">os_run</text>
</a>
</g>
</g>
<!-- Node2&#45;&gt;Node3 -->
<g id="edge2" class="edge">
<title>Node2&#45;&gt;Node3</title>
<path fill="none" stroke="midnightblue" d="M190.8,-10C182.36,-10 173.23,-10 165.23,-10"/>
<polygon fill="midnightblue" stroke="midnightblue" points="190.99,-13.5 200.99,-10 190.99,-6.5 190.99,-13.5"/>
</g>
<!-- Node4 -->
<g id="node4" class="node">
<title>Node4</title>
<g id="a_node4"><a xlink:href="os_8c.html#aafec7046aa50c914df86d0d22d4fc1d1" target="_top" xlink:title=" ">
<polygon fill="none" stroke="black" points="0,-0.5 0,-19.5 83,-19.5 83,-0.5 0,-0.5"/>
<text text-anchor="middle" x="41.5" y="-7.5" font-family="Helvetica,sans-Serif" font-size="10.00">MODULE_DEF</text>
</a>
</g>
</g>
<!-- Node3&#45;&gt;Node4 -->
<g id="edge3" class="edge">
<title>Node3&#45;&gt;Node4</title>
<path fill="none" stroke="midnightblue" d="M108.54,-10C100.49,-10 91.75,-10 83.35,-10"/>
<polygon fill="midnightblue" stroke="midnightblue" points="108.65,-13.5 118.65,-10 108.65,-6.5 108.65,-13.5"/>
</g>
</g>
</svg>
