<?xml version="1.0" encoding="UTF-8" standalone="no"?>
<!DOCTYPE svg PUBLIC "-//W3C//DTD SVG 1.1//EN"
 "http://www.w3.org/Graphics/SVG/1.1/DTD/svg11.dtd">
<!-- Generated by graphviz version 3.0.0 (20220413.0106)
 -->
<!-- Title: sti Pages: 1 -->
<svg width="696pt" height="370pt"
 viewBox="0.00 0.00 696.00 370.00" xmlns="http://www.w3.org/2000/svg" xmlns:xlink="http://www.w3.org/1999/xlink">
<g id="graph0" class="graph" transform="scale(1 1) rotate(0) translate(4 366)">
<title>sti</title>
<!-- Node1 -->
<g id="node1" class="node">
<title>Node1</title>
<g id="a_node1"><a xlink:title=" ">
<polygon fill="#bfbfbf" stroke="black" points="659,-266.5 659,-285.5 688,-285.5 688,-266.5 659,-266.5"/>
<text text-anchor="middle" x="673.5" y="-273.5" font-family="Helvetica,sans-Serif" font-size="10.00">sti</text>
</a>
</g>
</g>
<!-- Node2 -->
<g id="node2" class="node">
<title>Node2</title>
<g id="a_node2"><a xlink:href="cte_8c.html#a4a139958742786c5085172be1f69bfd0" target="_top" xlink:title=" ">
<polygon fill="none" stroke="black" points="591,-266.5 591,-285.5 623,-285.5 623,-266.5 591,-266.5"/>
<text text-anchor="middle" x="607" y="-273.5" font-family="Helvetica,sans-Serif" font-size="10.00">iset</text>
</a>
</g>
</g>
<!-- Node1&#45;&gt;Node2 -->
<g id="edge1" class="edge">
<title>Node1&#45;&gt;Node2</title>
<path fill="none" stroke="midnightblue" d="M648.61,-276C640.04,-276 630.62,-276 623.01,-276"/>
<polygon fill="midnightblue" stroke="midnightblue" points="648.82,-279.5 658.82,-276 648.82,-272.5 648.82,-279.5"/>
</g>
<!-- Node3 -->
<g id="node3" class="node">
<title>Node3</title>
<g id="a_node3"><a xlink:href="pmm_8c.html#a20ccb461126d548299c6c21f157e6668" target="_top" xlink:title=" ">
<polygon fill="none" stroke="black" points="486.5,-304.5 486.5,-323.5 552.5,-323.5 552.5,-304.5 486.5,-304.5"/>
<text text-anchor="middle" x="519.5" y="-311.5" font-family="Helvetica,sans-Serif" font-size="10.00">kalloc_safe</text>
</a>
</g>
</g>
<!-- Node2&#45;&gt;Node3 -->
<g id="edge2" class="edge">
<title>Node2&#45;&gt;Node3</title>
<path fill="none" stroke="midnightblue" d="M581.4,-286.94C568.98,-292.46 554.05,-299.09 542.08,-304.41"/>
<polygon fill="midnightblue" stroke="midnightblue" points="583,-290.05 590.71,-282.79 580.15,-283.66 583,-290.05"/>
</g>
<!-- Node5 -->
<g id="node5" class="node">
<title>Node5</title>
<g id="a_node5"><a xlink:href="pmm_8c.html#af2f46f4bce6a599542ce4d462aec9e2f" target="_top" xlink:title=" ">
<polygon fill="none" stroke="black" points="488.5,-342.5 488.5,-361.5 550.5,-361.5 550.5,-342.5 488.5,-342.5"/>
<text text-anchor="middle" x="519.5" y="-349.5" font-family="Helvetica,sans-Serif" font-size="10.00">kfree_safe</text>
</a>
</g>
</g>
<!-- Node2&#45;&gt;Node5 -->
<g id="edge4" class="edge">
<title>Node2&#45;&gt;Node5</title>
<path fill="none" stroke="midnightblue" d="M592.71,-293.79C583.12,-305.83 569.38,-321.56 555,-333 550.61,-336.49 545.5,-339.7 540.57,-342.44"/>
<polygon fill="midnightblue" stroke="midnightblue" points="595.54,-295.84 598.9,-285.79 590.01,-291.55 595.54,-295.84"/>
</g>
<!-- Node6 -->
<g id="node6" class="node">
<title>Node6</title>
<g id="a_node6"><a xlink:href="os_8c.html#a5f9cb32664e017ca15c49ec66e5342e4" target="_top" xlink:title="cpu start entry">
<polygon fill="none" stroke="black" points="383.5,-275.5 383.5,-294.5 429.5,-294.5 429.5,-275.5 383.5,-275.5"/>
<text text-anchor="middle" x="406.5" y="-282.5" font-family="Helvetica,sans-Serif" font-size="10.00">os_run</text>
</a>
</g>
</g>
<!-- Node2&#45;&gt;Node6 -->
<g id="edge6" class="edge">
<title>Node2&#45;&gt;Node6</title>
<path fill="none" stroke="midnightblue" d="M580.7,-277.15C541.5,-278.92 466.75,-282.31 429.6,-284"/>
<polygon fill="midnightblue" stroke="midnightblue" points="580.92,-280.64 590.75,-276.69 580.61,-273.65 580.92,-280.64"/>
</g>
<!-- Node8 -->
<g id="node8" class="node">
<title>Node8</title>
<g id="a_node8"><a xlink:href="spinlock_8c.html#afc9565dc7a5ddf77e1fa76f5d91caf78" target="_top" xlink:title="interrupt able">
<polygon fill="none" stroke="black" points="487,-228.5 487,-247.5 552,-247.5 552,-228.5 487,-228.5"/>
<text text-anchor="middle" x="519.5" y="-235.5" font-family="Helvetica,sans-Serif" font-size="10.00">spin_popcli</text>
</a>
</g>
</g>
<!-- Node2&#45;&gt;Node8 -->
<g id="edge8" class="edge">
<title>Node2&#45;&gt;Node8</title>
<path fill="none" stroke="midnightblue" d="M581.4,-265.06C568.98,-259.54 554.05,-252.91 542.08,-247.59"/>
<polygon fill="midnightblue" stroke="midnightblue" points="580.15,-268.34 590.71,-269.21 583,-261.95 580.15,-268.34"/>
</g>
<!-- Node21 -->
<g id="node21" class="node">
<title>Node21</title>
<g id="a_node21"><a xlink:href="spinlock_8c.html#ab213874cda54fdbbeb1bec1e5fa90b28" target="_top" xlink:title="interrupt disable">
<polygon fill="none" stroke="black" points="484,-190.5 484,-209.5 555,-209.5 555,-190.5 484,-190.5"/>
<text text-anchor="middle" x="519.5" y="-197.5" font-family="Helvetica,sans-Serif" font-size="10.00">spin_pushcli</text>
</a>
</g>
</g>
<!-- Node2&#45;&gt;Node21 -->
<g id="edge34" class="edge">
<title>Node2&#45;&gt;Node21</title>
<path fill="none" stroke="midnightblue" d="M592.71,-258.21C583.12,-246.17 569.38,-230.44 555,-219 550.61,-215.51 545.5,-212.3 540.57,-209.56"/>
<polygon fill="midnightblue" stroke="midnightblue" points="590.01,-260.45 598.9,-266.21 595.54,-256.16 590.01,-260.45"/>
</g>
<!-- Node4 -->
<g id="node4" class="node">
<title>Node4</title>
<g id="a_node4"><a xlink:href="pmm_8c.html#a7ada9deb0ae8705f2cc158b0283aaeb3" target="_top" xlink:title=" ">
<polygon fill="none" stroke="black" points="365,-332.5 365,-351.5 448,-351.5 448,-332.5 365,-332.5"/>
<text text-anchor="middle" x="406.5" y="-339.5" font-family="Helvetica,sans-Serif" font-size="10.00">MODULE_DEF</text>
</a>
</g>
</g>
<!-- Node3&#45;&gt;Node4 -->
<g id="edge3" class="edge">
<title>Node3&#45;&gt;Node4</title>
<path fill="none" stroke="midnightblue" d="M476.46,-324.6C466.26,-327.18 455.42,-329.91 445.42,-332.43"/>
<polygon fill="midnightblue" stroke="midnightblue" points="477.55,-327.94 486.39,-322.1 475.84,-321.15 477.55,-327.94"/>
</g>
<!-- Node5&#45;&gt;Node4 -->
<g id="edge5" class="edge">
<title>Node5&#45;&gt;Node4</title>
<path fill="none" stroke="midnightblue" d="M478.25,-348.37C468.53,-347.5 458.14,-346.56 448.4,-345.68"/>
<polygon fill="midnightblue" stroke="midnightblue" points="478.19,-351.88 488.46,-349.29 478.82,-344.91 478.19,-351.88"/>
</g>
<!-- Node7 -->
<g id="node7" class="node">
<title>Node7</title>
<g id="a_node7"><a xlink:href="os_8c.html#aafec7046aa50c914df86d0d22d4fc1d1" target="_top" xlink:title=" ">
<polygon fill="none" stroke="black" points="0,-285.5 0,-304.5 83,-304.5 83,-285.5 0,-285.5"/>
<text text-anchor="middle" x="41.5" y="-292.5" font-family="Helvetica,sans-Serif" font-size="10.00">MODULE_DEF</text>
</a>
</g>
</g>
<!-- Node6&#45;&gt;Node7 -->
<g id="edge7" class="edge">
<title>Node6&#45;&gt;Node7</title>
<path fill="none" stroke="midnightblue" d="M373.1,-287.04C332.11,-289.5 259.36,-293.51 197,-295 158.39,-295.93 114.33,-295.81 83.17,-295.53"/>
<polygon fill="midnightblue" stroke="midnightblue" points="373.53,-290.52 383.3,-286.42 373.1,-283.53 373.53,-290.52"/>
</g>
<!-- Node9 -->
<g id="node9" class="node">
<title>Node9</title>
<g id="a_node9"><a xlink:href="spinlock_8c.html#ad4be0d674a7ca4dc90c2dbf8b34562cc" target="_top" xlink:title="check current cpu has the lock">
<polygon fill="none" stroke="black" points="371,-190.5 371,-209.5 442,-209.5 442,-190.5 371,-190.5"/>
<text text-anchor="middle" x="406.5" y="-197.5" font-family="Helvetica,sans-Serif" font-size="10.00">spin_holding</text>
</a>
</g>
</g>
<!-- Node8&#45;&gt;Node9 -->
<g id="edge9" class="edge">
<title>Node8&#45;&gt;Node9</title>
<path fill="none" stroke="midnightblue" d="M480.61,-225.03C465.82,-219.97 449.17,-214.27 435.5,-209.59"/>
<polygon fill="midnightblue" stroke="midnightblue" points="479.9,-228.48 490.49,-228.41 482.16,-221.86 479.9,-228.48"/>
</g>
<!-- Node20 -->
<g id="node20" class="node">
<title>Node20</title>
<g id="a_node20"><a xlink:href="spinlock_8c.html#acdf118d615a4bc4064e991add9a80995" target="_top" xlink:title="release spinlock from current cpu">
<polygon fill="none" stroke="black" points="247,-228.5 247,-247.5 315,-247.5 315,-228.5 247,-228.5"/>
<text text-anchor="middle" x="281" y="-235.5" font-family="Helvetica,sans-Serif" font-size="10.00">spin_unlock</text>
</a>
</g>
</g>
<!-- Node8&#45;&gt;Node20 -->
<g id="edge33" class="edge">
<title>Node8&#45;&gt;Node20</title>
<path fill="none" stroke="midnightblue" d="M476.36,-238C430.32,-238 357.5,-238 315.29,-238"/>
<polygon fill="midnightblue" stroke="midnightblue" points="476.6,-241.5 486.6,-238 476.6,-234.5 476.6,-241.5"/>
</g>
<!-- Node10 -->
<g id="node10" class="node">
<title>Node10</title>
<g id="a_node10"><a xlink:href="kmt_8c.html#af9c485ce0d89d6624e6e80e31d8ed207" target="_top" xlink:title="handler: save context to current task">
<polygon fill="none" stroke="black" points="233,-76.5 233,-95.5 329,-95.5 329,-76.5 233,-76.5"/>
<text text-anchor="middle" x="281" y="-83.5" font-family="Helvetica,sans-Serif" font-size="10.00">kmt_context_save</text>
</a>
</g>
</g>
<!-- Node9&#45;&gt;Node10 -->
<g id="edge10" class="edge">
<title>Node9&#45;&gt;Node10</title>
<path fill="none" stroke="midnightblue" d="M393.4,-181.89C379.61,-162.27 355.52,-130.98 329,-110 321.81,-104.32 313.07,-99.41 305.08,-95.54"/>
<polygon fill="midnightblue" stroke="midnightblue" points="390.6,-183.98 399.15,-190.24 396.37,-180.02 390.6,-183.98"/>
</g>
<!-- Node13 -->
<g id="node13" class="node">
<title>Node13</title>
<g id="a_node13"><a xlink:href="kmt_8c.html#a5ddb8743298012e84cf9cb5faf22212b" target="_top" xlink:title="create thread">
<polygon fill="none" stroke="black" points="125.5,-114.5 125.5,-133.5 190.5,-133.5 190.5,-114.5 125.5,-114.5"/>
<text text-anchor="middle" x="158" y="-121.5" font-family="Helvetica,sans-Serif" font-size="10.00">kmt_create</text>
</a>
</g>
</g>
<!-- Node9&#45;&gt;Node13 -->
<g id="edge13" class="edge">
<title>Node9&#45;&gt;Node13</title>
<path fill="none" stroke="midnightblue" d="M388.55,-183.14C374.04,-169.83 351.92,-152.05 329,-143 283.28,-124.96 225.62,-122.3 190.57,-122.68"/>
<polygon fill="midnightblue" stroke="midnightblue" points="386.5,-186.02 396.16,-190.36 391.31,-180.94 386.5,-186.02"/>
</g>
<!-- Node14 -->
<g id="node14" class="node">
<title>Node14</title>
<g id="a_node14"><a xlink:href="kmt_8c.html#ad3fbc643b7b6092120c5152b4c890354" target="_top" xlink:title="handler: handle program errors">
<polygon fill="none" stroke="black" points="252,-38.5 252,-57.5 310,-57.5 310,-38.5 252,-38.5"/>
<text text-anchor="middle" x="281" y="-45.5" font-family="Helvetica,sans-Serif" font-size="10.00">kmt_error</text>
</a>
</g>
</g>
<!-- Node9&#45;&gt;Node14 -->
<g id="edge15" class="edge">
<title>Node9&#45;&gt;Node14</title>
<path fill="none" stroke="midnightblue" d="M398.99,-180.54C388.52,-151.97 365.34,-98.65 329,-67 323.56,-62.26 316.78,-58.61 310.08,-55.83"/>
<polygon fill="midnightblue" stroke="midnightblue" points="395.76,-181.91 402.39,-190.18 402.37,-179.59 395.76,-181.91"/>
</g>
<!-- Node15 -->
<g id="node15" class="node">
<title>Node15</title>
<g id="a_node15"><a xlink:href="kmt_8c.html#ad4d70b4093829da1c0b0631abdff7747" target="_top" xlink:title="handler: schedule next task to run Notice: this should be the only handler which returns real Context">
<polygon fill="none" stroke="black" points="242.5,-0.5 242.5,-19.5 319.5,-19.5 319.5,-0.5 242.5,-0.5"/>
<text text-anchor="middle" x="281" y="-7.5" font-family="Helvetica,sans-Serif" font-size="10.00">kmt_schedule</text>
</a>
</g>
</g>
<!-- Node9&#45;&gt;Node15 -->
<g id="edge17" class="edge">
<title>Node9&#45;&gt;Node15</title>
<path fill="none" stroke="midnightblue" d="M401.79,-180.53C394.16,-145.61 373.58,-71.98 329,-29 325.07,-25.21 320.29,-22.15 315.3,-19.67"/>
<polygon fill="midnightblue" stroke="midnightblue" points="398.38,-181.33 403.82,-190.42 405.23,-179.92 398.38,-181.33"/>
</g>
<!-- Node16 -->
<g id="node16" class="node">
<title>Node16</title>
<g id="a_node16"><a xlink:href="kmt_8c.html#a47d8887c87041abd5ea3148232b65c93" target="_top" xlink:title="tear down a thread">
<polygon fill="none" stroke="black" points="119,-152.5 119,-171.5 197,-171.5 197,-152.5 119,-152.5"/>
<text text-anchor="middle" x="158" y="-159.5" font-family="Helvetica,sans-Serif" font-size="10.00">kmt_teardown</text>
</a>
</g>
</g>
<!-- Node9&#45;&gt;Node16 -->
<g id="edge19" class="edge">
<title>Node9&#45;&gt;Node16</title>
<path fill="none" stroke="midnightblue" d="M360.57,-196.81C325.61,-193.9 275.98,-188.84 233,-181 219.43,-178.52 204.67,-174.92 191.93,-171.52"/>
<polygon fill="midnightblue" stroke="midnightblue" points="360.68,-200.33 370.93,-197.64 361.24,-193.35 360.68,-200.33"/>
</g>
<!-- Node17 -->
<g id="node17" class="node">
<title>Node17</title>
<g id="a_node17"><a xlink:href="os_8c.html#a2be1c9facb49d4439f41b1537d0f3ef8" target="_top" xlink:title="System trap entry.">
<polygon fill="none" stroke="black" points="133.5,-266.5 133.5,-285.5 182.5,-285.5 182.5,-266.5 133.5,-266.5"/>
<text text-anchor="middle" x="158" y="-273.5" font-family="Helvetica,sans-Serif" font-size="10.00">os_trap</text>
</a>
</g>
</g>
<!-- Node9&#45;&gt;Node17 -->
<g id="edge21" class="edge">
<title>Node9&#45;&gt;Node17</title>
<path fill="none" stroke="midnightblue" d="M388.55,-216.86C374.04,-230.17 351.92,-247.95 329,-257 279.69,-276.46 216.49,-278.02 182.75,-277.18"/>
<polygon fill="midnightblue" stroke="midnightblue" points="391.31,-219.06 396.16,-209.64 386.5,-213.98 391.31,-219.06"/>
</g>
<!-- Node18 -->
<g id="node18" class="node">
<title>Node18</title>
<g id="a_node18"><a xlink:href="spinlock_8c.html#ab6f3c37ec37006951feccc3c05387cce" target="_top" xlink:title="acquire spinlock to current cpu">
<polygon fill="none" stroke="black" points="252,-152.5 252,-171.5 310,-171.5 310,-152.5 252,-152.5"/>
<text text-anchor="middle" x="281" y="-159.5" font-family="Helvetica,sans-Serif" font-size="10.00">spin_lock</text>
</a>
</g>
</g>
<!-- Node9&#45;&gt;Node18 -->
<g id="edge23" class="edge">
<title>Node9&#45;&gt;Node18</title>
<path fill="none" stroke="midnightblue" d="M364.73,-187.45C346.86,-181.96 326.33,-175.64 310.2,-170.68"/>
<polygon fill="midnightblue" stroke="midnightblue" points="363.75,-190.82 374.34,-190.41 365.81,-184.12 363.75,-190.82"/>
</g>
<!-- Node9&#45;&gt;Node20 -->
<g id="edge28" class="edge">
<title>Node9&#45;&gt;Node20</title>
<path fill="none" stroke="midnightblue" d="M364.76,-212.54C347.96,-217.7 328.8,-223.6 313.15,-228.41"/>
<polygon fill="midnightblue" stroke="midnightblue" points="365.81,-215.88 374.34,-209.59 363.75,-209.18 365.81,-215.88"/>
</g>
<!-- Node11 -->
<g id="node11" class="node">
<title>Node11</title>
<g id="a_node11"><a xlink:href="kmt_8c.html#a0c68a294cecc4be7cb4b495f15b883a0" target="_top" xlink:title="initialize kmt module">
<polygon fill="none" stroke="black" points="132.5,-38.5 132.5,-57.5 183.5,-57.5 183.5,-38.5 132.5,-38.5"/>
<text text-anchor="middle" x="158" y="-45.5" font-family="Helvetica,sans-Serif" font-size="10.00">kmt_init</text>
</a>
</g>
</g>
<!-- Node10&#45;&gt;Node11 -->
<g id="edge11" class="edge">
<title>Node10&#45;&gt;Node11</title>
<path fill="none" stroke="midnightblue" d="M239.82,-73.38C221.31,-67.57 199.94,-60.86 183.82,-55.8"/>
<polygon fill="midnightblue" stroke="midnightblue" points="238.88,-76.75 249.47,-76.41 240.97,-70.08 238.88,-76.75"/>
</g>
<!-- Node12 -->
<g id="node12" class="node">
<title>Node12</title>
<g id="a_node12"><a xlink:href="kmt_8c.html#af360ef0d98ca30e481cc58ea3695fd58" target="_top" xlink:title=" ">
<polygon fill="none" stroke="black" points="0,-114.5 0,-133.5 83,-133.5 83,-114.5 0,-114.5"/>
<text text-anchor="middle" x="41.5" y="-121.5" font-family="Helvetica,sans-Serif" font-size="10.00">MODULE_DEF</text>
</a>
</g>
</g>
<!-- Node11&#45;&gt;Node12 -->
<g id="edge12" class="edge">
<title>Node11&#45;&gt;Node12</title>
<path fill="none" stroke="midnightblue" d="M132.85,-63.08C128.23,-66.01 123.45,-69.08 119,-72 96.84,-86.52 71.46,-103.93 56.23,-114.47"/>
<polygon fill="midnightblue" stroke="midnightblue" points="134.8,-65.99 141.39,-57.69 131.07,-60.07 134.8,-65.99"/>
</g>
<!-- Node13&#45;&gt;Node12 -->
<g id="edge14" class="edge">
<title>Node13&#45;&gt;Node12</title>
<path fill="none" stroke="midnightblue" d="M115.21,-124C104.71,-124 93.45,-124 83.01,-124"/>
<polygon fill="midnightblue" stroke="midnightblue" points="115.41,-127.5 125.41,-124 115.41,-120.5 115.41,-127.5"/>
</g>
<!-- Node14&#45;&gt;Node11 -->
<g id="edge16" class="edge">
<title>Node14&#45;&gt;Node11</title>
<path fill="none" stroke="midnightblue" d="M241.78,-48C222.77,-48 200.34,-48 183.63,-48"/>
<polygon fill="midnightblue" stroke="midnightblue" points="241.94,-51.5 251.94,-48 241.94,-44.5 241.94,-51.5"/>
</g>
<!-- Node15&#45;&gt;Node11 -->
<g id="edge18" class="edge">
<title>Node15&#45;&gt;Node11</title>
<path fill="none" stroke="midnightblue" d="M239.82,-22.62C221.31,-28.43 199.94,-35.14 183.82,-40.2"/>
<polygon fill="midnightblue" stroke="midnightblue" points="240.97,-25.92 249.47,-19.59 238.88,-19.25 240.97,-25.92"/>
</g>
<!-- Node16&#45;&gt;Node12 -->
<g id="edge20" class="edge">
<title>Node16&#45;&gt;Node12</title>
<path fill="none" stroke="midnightblue" d="M118.35,-149.17C102.99,-144.08 85.62,-138.31 71.38,-133.59"/>
<polygon fill="midnightblue" stroke="midnightblue" points="117.51,-152.58 128.11,-152.41 119.72,-145.94 117.51,-152.58"/>
</g>
<!-- Node17&#45;&gt;Node7 -->
<g id="edge22" class="edge">
<title>Node17&#45;&gt;Node7</title>
<path fill="none" stroke="midnightblue" d="M123.26,-281.6C110.74,-283.68 96.42,-286.05 83.34,-288.22"/>
<polygon fill="midnightblue" stroke="midnightblue" points="123.98,-285.03 133.28,-279.94 122.84,-278.12 123.98,-285.03"/>
</g>
<!-- Node18&#45;&gt;Node12 -->
<g id="edge26" class="edge">
<title>Node18&#45;&gt;Node12</title>
<path fill="none" stroke="midnightblue" d="M262.56,-145.29C246.84,-131.46 222.36,-112.87 197,-105 152.99,-91.34 99.07,-104.31 67.96,-114.49"/>
<polygon fill="midnightblue" stroke="midnightblue" points="260.59,-148.23 270.34,-152.38 265.31,-143.06 260.59,-148.23"/>
</g>
<!-- Node18&#45;&gt;Node13 -->
<g id="edge24" class="edge">
<title>Node18&#45;&gt;Node13</title>
<path fill="none" stroke="midnightblue" d="M242.3,-150.16C225.3,-144.82 205.49,-138.6 189.46,-133.56"/>
<polygon fill="midnightblue" stroke="midnightblue" points="241.35,-153.53 251.94,-153.19 243.44,-146.85 241.35,-153.53"/>
</g>
<!-- Node18&#45;&gt;Node17 -->
<g id="edge27" class="edge">
<title>Node18&#45;&gt;Node17</title>
<path fill="none" stroke="midnightblue" d="M262.13,-178.83C236.44,-203.04 189.9,-246.89 169.29,-266.31"/>
<polygon fill="midnightblue" stroke="midnightblue" points="264.81,-181.12 269.68,-171.72 260.01,-176.03 264.81,-181.12"/>
</g>
<!-- Node19 -->
<g id="node19" class="node">
<title>Node19</title>
<g id="a_node19"><a xlink:href="kernel_8h.html#a7ef2d722f9c7f8acc1801144a5188825" target="_top" xlink:title=" ">
<polygon fill="none" stroke="black" points="128.5,-190.5 128.5,-209.5 187.5,-209.5 187.5,-190.5 128.5,-190.5"/>
<text text-anchor="middle" x="158" y="-197.5" font-family="Helvetica,sans-Serif" font-size="10.00">MODULE</text>
</a>
</g>
</g>
<!-- Node18&#45;&gt;Node19 -->
<g id="edge25" class="edge">
<title>Node18&#45;&gt;Node19</title>
<path fill="none" stroke="midnightblue" d="M242,-173.93C224.46,-179.44 203.98,-185.87 187.75,-190.97"/>
<polygon fill="midnightblue" stroke="midnightblue" points="243.44,-177.15 251.94,-170.81 241.35,-170.47 243.44,-177.15"/>
</g>
<!-- Node20&#45;&gt;Node12 -->
<g id="edge31" class="edge">
<title>Node20&#45;&gt;Node12</title>
<path fill="none" stroke="midnightblue" d="M236.85,-241.49C202.8,-242.31 155.16,-239 119,-219 82.49,-198.81 56.87,-153.44 47,-133.6"/>
<polygon fill="midnightblue" stroke="midnightblue" points="237.09,-244.99 246.96,-241.12 236.84,-237.99 237.09,-244.99"/>
</g>
<!-- Node20&#45;&gt;Node13 -->
<g id="edge29" class="edge">
<title>Node20&#45;&gt;Node13</title>
<path fill="none" stroke="midnightblue" d="M265.32,-220.47C243.67,-194.73 204.9,-149.11 197,-143 192.45,-139.48 187.14,-136.34 181.97,-133.68"/>
<polygon fill="midnightblue" stroke="midnightblue" points="262.82,-222.94 271.93,-228.34 268.18,-218.44 262.82,-222.94"/>
</g>
<!-- Node20&#45;&gt;Node17 -->
<g id="edge32" class="edge">
<title>Node20&#45;&gt;Node17</title>
<path fill="none" stroke="midnightblue" d="M239.87,-250.6C220.9,-256.56 198.91,-263.47 182.65,-268.57"/>
<polygon fill="midnightblue" stroke="midnightblue" points="240.97,-253.92 249.47,-247.59 238.88,-247.25 240.97,-253.92"/>
</g>
<!-- Node20&#45;&gt;Node19 -->
<g id="edge30" class="edge">
<title>Node20&#45;&gt;Node19</title>
<path fill="none" stroke="midnightblue" d="M239.79,-225.37C222.8,-220.04 203.39,-213.94 187.86,-209.06"/>
<polygon fill="midnightblue" stroke="midnightblue" points="238.88,-228.75 249.47,-228.41 240.97,-222.08 238.88,-228.75"/>
</g>
<!-- Node21&#45;&gt;Node9 -->
<g id="edge35" class="edge">
<title>Node21&#45;&gt;Node9</title>
<path fill="none" stroke="midnightblue" d="M473.77,-200C463.31,-200 452.33,-200 442.37,-200"/>
<polygon fill="midnightblue" stroke="midnightblue" points="473.99,-203.5 483.99,-200 473.99,-196.5 473.99,-203.5"/>
</g>
<!-- Node21&#45;&gt;Node18 -->
<g id="edge36" class="edge">
<title>Node21&#45;&gt;Node18</title>
<path fill="none" stroke="midnightblue" d="M477.43,-187.83C467.84,-185.29 457.61,-182.83 448,-181 399.99,-171.84 343.26,-166.5 310.1,-163.93"/>
<polygon fill="midnightblue" stroke="midnightblue" points="476.58,-191.22 487.15,-190.47 478.42,-184.47 476.58,-191.22"/>
</g>
</g>
</svg>
