<?xml version="1.0" encoding="UTF-8" standalone="no"?>
<!DOCTYPE svg PUBLIC "-//W3C//DTD SVG 1.1//EN"
 "http://www.w3.org/Graphics/SVG/1.1/DTD/svg11.dtd">
<!-- Generated by graphviz version 2.50.0 (20220203.2022)
 -->
<!-- Title: cli Pages: 1 -->
<svg width="287pt" height="66pt"
 viewBox="0.00 0.00 287.00 66.00" xmlns="http://www.w3.org/2000/svg" xmlns:xlink="http://www.w3.org/1999/xlink">
<g id="graph0" class="graph" transform="scale(1 1) rotate(0) translate(4 62)">
<title>cli</title>
<!-- Node1 -->
<g id="node1" class="node">
<title>Node1</title>
<g id="a_node1"><a xlink:title=" ">
<polygon fill="#bfbfbf" stroke="black" points="250,-19.5 250,-38.5 279,-38.5 279,-19.5 250,-19.5"/>
<text text-anchor="middle" x="264.5" y="-26.5" font-family="Helvetica,sans-Serif" font-size="10.00">cli</text>
</a>
</g>
</g>
<!-- Node2 -->
<g id="node2" class="node">
<title>Node2</title>
<g id="a_node2"><a xlink:href="trm_8c.html#a483cb97188e557c3c68d3a1572c2cc92" target="_top" xlink:title=" ">
<polygon fill="none" stroke="black" points="182,-38.5 182,-57.5 214,-57.5 214,-38.5 182,-38.5"/>
<text text-anchor="middle" x="198" y="-45.5" font-family="Helvetica,sans-Serif" font-size="10.00">halt</text>
</a>
</g>
</g>
<!-- Node1&#45;&gt;Node2 -->
<g id="edge1" class="edge">
<title>Node1&#45;&gt;Node2</title>
<path fill="none" stroke="midnightblue" d="M240.18,-35.87C231.46,-38.44 221.79,-41.29 214.01,-43.58"/>
<polygon fill="midnightblue" stroke="midnightblue" points="241.22,-39.21 249.82,-33.03 239.24,-32.5 241.22,-39.21"/>
</g>
<!-- Node5 -->
<g id="node5" class="node">
<title>Node5</title>
<g id="a_node5"><a xlink:href="cte_8c.html#a4a139958742786c5085172be1f69bfd0" target="_top" xlink:title=" ">
<polygon fill="none" stroke="black" points="182,-0.5 182,-19.5 214,-19.5 214,-0.5 182,-0.5"/>
<text text-anchor="middle" x="198" y="-7.5" font-family="Helvetica,sans-Serif" font-size="10.00">iset</text>
</a>
</g>
</g>
<!-- Node1&#45;&gt;Node5 -->
<g id="edge4" class="edge">
<title>Node1&#45;&gt;Node5</title>
<path fill="none" stroke="midnightblue" d="M240.18,-22.13C231.46,-19.56 221.79,-16.71 214.01,-14.42"/>
<polygon fill="midnightblue" stroke="midnightblue" points="239.24,-25.5 249.82,-24.97 241.22,-18.79 239.24,-25.5"/>
</g>
<!-- Node3 -->
<g id="node3" class="node">
<title>Node3</title>
<g id="a_node3"><a xlink:href="trm_8c.html#a12a49ff4d3a586b2315e292c5da3df7e" target="_top" xlink:title=" ">
<polygon fill="none" stroke="black" points="88,-38.5 88,-57.5 146,-57.5 146,-38.5 88,-38.5"/>
<text text-anchor="middle" x="117" y="-45.5" font-family="Helvetica,sans-Serif" font-size="10.00">call_main</text>
</a>
</g>
</g>
<!-- Node2&#45;&gt;Node3 -->
<g id="edge2" class="edge">
<title>Node2&#45;&gt;Node3</title>
<path fill="none" stroke="midnightblue" d="M171.5,-48C163.46,-48 154.52,-48 146.3,-48"/>
<polygon fill="midnightblue" stroke="midnightblue" points="171.77,-51.5 181.77,-48 171.77,-44.5 171.77,-51.5"/>
</g>
<!-- Node4 -->
<g id="node4" class="node">
<title>Node4</title>
<g id="a_node4"><a xlink:href="trm_8c.html#a54a85aeee6f6a8ef875d4cca663f9fd8" target="_top" xlink:title=" ">
<polygon fill="none" stroke="black" points="0,-38.5 0,-57.5 52,-57.5 52,-38.5 0,-38.5"/>
<text text-anchor="middle" x="26" y="-45.5" font-family="Helvetica,sans-Serif" font-size="10.00">_start_c</text>
</a>
</g>
</g>
<!-- Node3&#45;&gt;Node4 -->
<g id="edge3" class="edge">
<title>Node3&#45;&gt;Node4</title>
<path fill="none" stroke="midnightblue" d="M77.62,-48C69.04,-48 60.15,-48 52.27,-48"/>
<polygon fill="midnightblue" stroke="midnightblue" points="77.84,-51.5 87.84,-48 77.84,-44.5 77.84,-51.5"/>
</g>
</g>
</svg>
