<?xml version="1.0" encoding="UTF-8" standalone="no"?>
<!DOCTYPE svg PUBLIC "-//W3C//DTD SVG 1.1//EN"
 "http://www.w3.org/Graphics/SVG/1.1/DTD/svg11.dtd">
<!-- Generated by graphviz version 2.50.0 (20220203.2022)
 -->
<!-- Title: outb Pages: 1 -->
<svg width="756pt" height="322pt"
 viewBox="0.00 0.00 756.00 322.00" xmlns="http://www.w3.org/2000/svg" xmlns:xlink="http://www.w3.org/1999/xlink">
<g id="graph0" class="graph" transform="scale(1 1) rotate(0) translate(4 318)">
<title>outb</title>
<!-- Node1 -->
<g id="node1" class="node">
<title>Node1</title>
<g id="a_node1"><a xlink:title=" ">
<polygon fill="#bfbfbf" stroke="black" points="713,-152.5 713,-171.5 748,-171.5 748,-152.5 713,-152.5"/>
<text text-anchor="middle" x="730.5" y="-159.5" font-family="Helvetica,sans-Serif" font-size="10.00">outb</text>
</a>
</g>
</g>
<!-- Node2 -->
<g id="node2" class="node">
<title>Node2</title>
<g id="a_node2"><a xlink:href="trm_8c.html#afa4d35ce31ec846cb9da5f17455f54c0" target="_top" xlink:title=" ">
<polygon fill="none" stroke="black" points="584,-285.5 584,-304.5 669,-304.5 669,-285.5 584,-285.5"/>
<text text-anchor="middle" x="626.5" y="-292.5" font-family="Helvetica,sans-Serif" font-size="10.00">__am_heap_init</text>
</a>
</g>
</g>
<!-- Node1&#45;&gt;Node2 -->
<g id="edge1" class="edge">
<title>Node1&#45;&gt;Node2</title>
<path fill="none" stroke="midnightblue" d="M721.76,-181.1C712.94,-201.37 697.09,-233.64 677,-257 667.25,-268.33 653.63,-278.49 643.14,-285.45"/>
<polygon fill="midnightblue" stroke="midnightblue" points="725.06,-182.28 725.72,-171.7 718.61,-179.56 725.06,-182.28"/>
</g>
<!-- Node5 -->
<g id="node5" class="node">
<title>Node5</title>
<g id="a_node5"><a xlink:href="ioe_8c.html#a88a238fee7cd006afa69ea97e4914a09" target="_top" xlink:title=" ">
<polygon fill="none" stroke="black" points="576,-228.5 576,-247.5 677,-247.5 677,-228.5 576,-228.5"/>
<text text-anchor="middle" x="626.5" y="-235.5" font-family="Helvetica,sans-Serif" font-size="10.00">__am_lapic_bootap</text>
</a>
</g>
</g>
<!-- Node1&#45;&gt;Node5 -->
<g id="edge4" class="edge">
<title>Node1&#45;&gt;Node5</title>
<path fill="none" stroke="midnightblue" d="M716.53,-179.98C706.83,-192.36 692.58,-208.42 677,-219 671.52,-222.72 665.2,-225.85 658.96,-228.43"/>
<polygon fill="midnightblue" stroke="midnightblue" points="719.52,-181.84 722.75,-171.75 713.93,-177.62 719.52,-181.84"/>
</g>
<!-- Node11 -->
<g id="node11" class="node">
<title>Node11</title>
<g id="a_node11"><a xlink:href="ioe_8c.html#a98996b418230bb2594578ebd944e682c" target="_top" xlink:title=" ">
<polygon fill="none" stroke="black" points="596.5,-190.5 596.5,-209.5 656.5,-209.5 656.5,-190.5 596.5,-190.5"/>
<text text-anchor="middle" x="626.5" y="-197.5" font-family="Helvetica,sans-Serif" font-size="10.00">disk_blkio</text>
</a>
</g>
</g>
<!-- Node1&#45;&gt;Node11 -->
<g id="edge11" class="edge">
<title>Node1&#45;&gt;Node11</title>
<path fill="none" stroke="midnightblue" d="M703.19,-171.8C687.8,-177.53 668.45,-184.74 653.17,-190.44"/>
<polygon fill="midnightblue" stroke="midnightblue" points="704.51,-175.05 712.66,-168.27 702.06,-168.49 704.51,-175.05"/>
</g>
<!-- Node12 -->
<g id="node12" class="node">
<title>Node12</title>
<g id="a_node12"><a xlink:href="trm_8c.html#a6351d8706733262e7e325926b1a9aab7" target="_top" xlink:title=" ">
<polygon fill="none" stroke="black" points="606,-152.5 606,-171.5 647,-171.5 647,-152.5 606,-152.5"/>
<text text-anchor="middle" x="626.5" y="-159.5" font-family="Helvetica,sans-Serif" font-size="10.00">putch</text>
</a>
</g>
</g>
<!-- Node1&#45;&gt;Node12 -->
<g id="edge12" class="edge">
<title>Node1&#45;&gt;Node12</title>
<path fill="none" stroke="midnightblue" d="M702.55,-162C685.15,-162 662.9,-162 647.16,-162"/>
<polygon fill="midnightblue" stroke="midnightblue" points="702.66,-165.5 712.66,-162 702.66,-158.5 702.66,-165.5"/>
</g>
<!-- Node15 -->
<g id="node15" class="node">
<title>Node15</title>
<g id="a_node15"><a xlink:href="ioe_8c.html#a124b85735169c7add3c491093ffbc00e" target="_top" xlink:title=" ">
<polygon fill="none" stroke="black" points="600.5,-114.5 600.5,-133.5 652.5,-133.5 652.5,-114.5 600.5,-114.5"/>
<text text-anchor="middle" x="626.5" y="-121.5" font-family="Helvetica,sans-Serif" font-size="10.00">read_rtc</text>
</a>
</g>
</g>
<!-- Node1&#45;&gt;Node15 -->
<g id="edge16" class="edge">
<title>Node1&#45;&gt;Node15</title>
<path fill="none" stroke="midnightblue" d="M703.12,-152.17C687.61,-146.39 668.1,-139.12 652.78,-133.42"/>
<polygon fill="midnightblue" stroke="midnightblue" points="702.06,-155.51 712.66,-155.73 704.51,-148.95 702.06,-155.51"/>
</g>
<!-- Node22 -->
<g id="node22" class="node">
<title>Node22</title>
<g id="a_node22"><a xlink:href="ioe_8c.html#aa6bed8ea45612252dec485e7a9331a9d" target="_top" xlink:title=" ">
<polygon fill="none" stroke="black" points="198.5,-38.5 198.5,-57.5 249.5,-57.5 249.5,-38.5 198.5,-38.5"/>
<text text-anchor="middle" x="224" y="-45.5" font-family="Helvetica,sans-Serif" font-size="10.00">uart_init</text>
</a>
</g>
</g>
<!-- Node1&#45;&gt;Node22 -->
<g id="edge26" class="edge">
<title>Node1&#45;&gt;Node22</title>
<path fill="none" stroke="midnightblue" d="M717.16,-143.98C707.6,-131.32 693.26,-114.94 677,-105 535.1,-18.29 321.4,-35.56 249.55,-44.5"/>
<polygon fill="midnightblue" stroke="midnightblue" points="714.55,-146.34 723.24,-152.4 720.22,-142.24 714.55,-146.34"/>
</g>
<!-- Node23 -->
<g id="node23" class="node">
<title>Node23</title>
<g id="a_node23"><a xlink:href="ioe_8c.html#ae98b842dcd8760104640a30c32954f6b" target="_top" xlink:title=" ">
<polygon fill="none" stroke="black" points="603.5,-0.5 603.5,-19.5 649.5,-19.5 649.5,-0.5 603.5,-0.5"/>
<text text-anchor="middle" x="626.5" y="-7.5" font-family="Helvetica,sans-Serif" font-size="10.00">uart_tx</text>
</a>
</g>
</g>
<!-- Node1&#45;&gt;Node23 -->
<g id="edge28" class="edge">
<title>Node1&#45;&gt;Node23</title>
<path fill="none" stroke="midnightblue" d="M726.04,-142.46C720.29,-115.1 706.35,-65.23 677,-34 669.68,-26.2 659.29,-20.64 649.91,-16.84"/>
<polygon fill="midnightblue" stroke="midnightblue" points="722.63,-143.24 727.97,-152.38 729.5,-141.9 722.63,-143.24"/>
</g>
<!-- Node3 -->
<g id="node3" class="node">
<title>Node3</title>
<g id="a_node3"><a xlink:href="trm_8c.html#a75e130ff99ad31f9a1df206b5ff8252a" target="_top" xlink:title=" ">
<polygon fill="none" stroke="black" points="175,-294.5 175,-313.5 273,-313.5 273,-294.5 175,-294.5"/>
<text text-anchor="middle" x="224" y="-301.5" font-family="Helvetica,sans-Serif" font-size="10.00">__am_bootcpu_init</text>
</a>
</g>
</g>
<!-- Node2&#45;&gt;Node3 -->
<g id="edge2" class="edge">
<title>Node2&#45;&gt;Node3</title>
<path fill="none" stroke="midnightblue" d="M573.69,-296.16C495.63,-297.92 348.96,-301.21 273.13,-302.92"/>
<polygon fill="midnightblue" stroke="midnightblue" points="573.85,-299.66 583.77,-295.94 573.7,-292.66 573.85,-299.66"/>
</g>
<!-- Node4 -->
<g id="node4" class="node">
<title>Node4</title>
<g id="a_node4"><a xlink:href="trm_8c.html#a54a85aeee6f6a8ef875d4cca663f9fd8" target="_top" xlink:title=" ">
<polygon fill="none" stroke="black" points="85,-270.5 85,-289.5 137,-289.5 137,-270.5 85,-270.5"/>
<text text-anchor="middle" x="111" y="-277.5" font-family="Helvetica,sans-Serif" font-size="10.00">_start_c</text>
</a>
</g>
</g>
<!-- Node3&#45;&gt;Node4 -->
<g id="edge3" class="edge">
<title>Node3&#45;&gt;Node4</title>
<path fill="none" stroke="midnightblue" d="M168.75,-292.27C157.71,-289.88 146.61,-287.48 137.19,-285.45"/>
<polygon fill="midnightblue" stroke="midnightblue" points="168.3,-295.75 178.81,-294.45 169.78,-288.91 168.3,-295.75"/>
</g>
<!-- Node6 -->
<g id="node6" class="node">
<title>Node6</title>
<g id="a_node6"><a xlink:href="mpe_8c.html#a0a540532023afb1f31b6f21ce053483b" target="_top" xlink:title=" ">
<polygon fill="none" stroke="black" points="428,-228.5 428,-247.5 540,-247.5 540,-228.5 428,-228.5"/>
<text text-anchor="middle" x="484" y="-235.5" font-family="Helvetica,sans-Serif" font-size="10.00">__am_stop_the_world</text>
</a>
</g>
</g>
<!-- Node5&#45;&gt;Node6 -->
<g id="edge5" class="edge">
<title>Node5&#45;&gt;Node6</title>
<path fill="none" stroke="midnightblue" d="M565.79,-238C557.34,-238 548.68,-238 540.31,-238"/>
<polygon fill="midnightblue" stroke="midnightblue" points="565.96,-241.5 575.96,-238 565.96,-234.5 565.96,-241.5"/>
</g>
<!-- Node9 -->
<g id="node9" class="node">
<title>Node9</title>
<g id="a_node9"><a xlink:href="mpe_8c.html#a2e4a724e2d067425ff3fd49bc0bf42e1" target="_top" xlink:title=" ">
<polygon fill="none" stroke="black" points="457.5,-266.5 457.5,-285.5 510.5,-285.5 510.5,-266.5 457.5,-266.5"/>
<text text-anchor="middle" x="484" y="-273.5" font-family="Helvetica,sans-Serif" font-size="10.00">mpe_init</text>
</a>
</g>
</g>
<!-- Node5&#45;&gt;Node9 -->
<g id="edge9" class="edge">
<title>Node5&#45;&gt;Node9</title>
<path fill="none" stroke="midnightblue" d="M580.14,-250.27C557.15,-256.49 530.07,-263.81 510.69,-269.05"/>
<polygon fill="midnightblue" stroke="midnightblue" points="581.31,-253.58 590.05,-247.59 579.48,-246.82 581.31,-253.58"/>
</g>
<!-- Node7 -->
<g id="node7" class="node">
<title>Node7</title>
<g id="a_node7"><a xlink:href="trm_8c.html#a483cb97188e557c3c68d3a1572c2cc92" target="_top" xlink:title=" ">
<polygon fill="none" stroke="black" points="334.5,-228.5 334.5,-247.5 366.5,-247.5 366.5,-228.5 334.5,-228.5"/>
<text text-anchor="middle" x="350.5" y="-235.5" font-family="Helvetica,sans-Serif" font-size="10.00">halt</text>
</a>
</g>
</g>
<!-- Node6&#45;&gt;Node7 -->
<g id="edge6" class="edge">
<title>Node6&#45;&gt;Node7</title>
<path fill="none" stroke="midnightblue" d="M417.75,-238C398.67,-238 379.53,-238 366.77,-238"/>
<polygon fill="midnightblue" stroke="midnightblue" points="417.99,-241.5 427.99,-238 417.99,-234.5 417.99,-241.5"/>
</g>
<!-- Node8 -->
<g id="node8" class="node">
<title>Node8</title>
<g id="a_node8"><a xlink:href="trm_8c.html#a12a49ff4d3a586b2315e292c5da3df7e" target="_top" xlink:title=" ">
<polygon fill="none" stroke="black" points="195,-247.5 195,-266.5 253,-266.5 253,-247.5 195,-247.5"/>
<text text-anchor="middle" x="224" y="-254.5" font-family="Helvetica,sans-Serif" font-size="10.00">call_main</text>
</a>
</g>
</g>
<!-- Node7&#45;&gt;Node8 -->
<g id="edge7" class="edge">
<title>Node7&#45;&gt;Node8</title>
<path fill="none" stroke="midnightblue" d="M324.32,-241.84C303.71,-244.99 274.58,-249.43 253.19,-252.7"/>
<polygon fill="midnightblue" stroke="midnightblue" points="324.88,-245.3 334.23,-240.33 323.82,-238.38 324.88,-245.3"/>
</g>
<!-- Node8&#45;&gt;Node4 -->
<g id="edge8" class="edge">
<title>Node8&#45;&gt;Node4</title>
<path fill="none" stroke="midnightblue" d="M185.01,-264.87C169.27,-268.13 151.44,-271.83 137.34,-274.75"/>
<polygon fill="midnightblue" stroke="midnightblue" points="185.91,-268.26 194.99,-262.8 184.49,-261.41 185.91,-268.26"/>
</g>
<!-- Node10 -->
<g id="node10" class="node">
<title>Node10</title>
<g id="a_node10"><a xlink:href="main_8c.html#ae66f6b31b5ad750f1fe042a706a4e3d4" target="_top" xlink:title=" ">
<polygon fill="none" stroke="black" points="331.5,-266.5 331.5,-285.5 369.5,-285.5 369.5,-266.5 331.5,-266.5"/>
<text text-anchor="middle" x="350.5" y="-273.5" font-family="Helvetica,sans-Serif" font-size="10.00">main</text>
</a>
</g>
</g>
<!-- Node9&#45;&gt;Node10 -->
<g id="edge10" class="edge">
<title>Node9&#45;&gt;Node10</title>
<path fill="none" stroke="midnightblue" d="M447.07,-276C421.92,-276 389.39,-276 369.51,-276"/>
<polygon fill="midnightblue" stroke="midnightblue" points="447.33,-279.5 457.33,-276 447.33,-272.5 447.33,-279.5"/>
</g>
<!-- Node12&#45;&gt;Node7 -->
<g id="edge13" class="edge">
<title>Node12&#45;&gt;Node7</title>
<path fill="none" stroke="midnightblue" d="M596.11,-170.15C538,-186.27 410.23,-221.71 366.51,-233.84"/>
<polygon fill="midnightblue" stroke="midnightblue" points="597.09,-173.51 605.79,-167.47 595.22,-166.77 597.09,-173.51"/>
</g>
<!-- Node13 -->
<g id="node13" class="node">
<title>Node13</title>
<g id="a_node13"><a xlink:href="os_8c.html#a5f9cb32664e017ca15c49ec66e5342e4" target="_top" xlink:title=" ">
<polygon fill="none" stroke="black" points="461,-152.5 461,-171.5 507,-171.5 507,-152.5 461,-152.5"/>
<text text-anchor="middle" x="484" y="-159.5" font-family="Helvetica,sans-Serif" font-size="10.00">os_run</text>
</a>
</g>
</g>
<!-- Node12&#45;&gt;Node13 -->
<g id="edge14" class="edge">
<title>Node12&#45;&gt;Node13</title>
<path fill="none" stroke="midnightblue" d="M595.74,-162C569.23,-162 531.04,-162 507.15,-162"/>
<polygon fill="midnightblue" stroke="midnightblue" points="595.96,-165.5 605.96,-162 595.96,-158.5 595.96,-165.5"/>
</g>
<!-- Node14 -->
<g id="node14" class="node">
<title>Node14</title>
<g id="a_node14"><a xlink:href="os_8c.html#aafec7046aa50c914df86d0d22d4fc1d1" target="_top" xlink:title=" ">
<polygon fill="none" stroke="black" points="309,-152.5 309,-171.5 392,-171.5 392,-152.5 309,-152.5"/>
<text text-anchor="middle" x="350.5" y="-159.5" font-family="Helvetica,sans-Serif" font-size="10.00">MODULE_DEF</text>
</a>
</g>
</g>
<!-- Node13&#45;&gt;Node14 -->
<g id="edge15" class="edge">
<title>Node13&#45;&gt;Node14</title>
<path fill="none" stroke="midnightblue" d="M450.64,-162C433,-162 411,-162 392.21,-162"/>
<polygon fill="midnightblue" stroke="midnightblue" points="450.99,-165.5 460.99,-162 450.99,-158.5 450.99,-165.5"/>
</g>
<!-- Node16 -->
<g id="node16" class="node">
<title>Node16</title>
<g id="a_node16"><a xlink:href="ioe_8c.html#ad0681f53bec9167d7a8d4d848b3ce2e0" target="_top" xlink:title=" ">
<polygon fill="none" stroke="black" points="442.5,-76.5 442.5,-95.5 525.5,-95.5 525.5,-76.5 442.5,-76.5"/>
<text text-anchor="middle" x="484" y="-83.5" font-family="Helvetica,sans-Serif" font-size="10.00">read_rtc_async</text>
</a>
</g>
</g>
<!-- Node15&#45;&gt;Node16 -->
<g id="edge17" class="edge">
<title>Node15&#45;&gt;Node16</title>
<path fill="none" stroke="midnightblue" d="M590.67,-114.58C569.2,-108.77 541.74,-101.35 520.19,-95.52"/>
<polygon fill="midnightblue" stroke="midnightblue" points="589.81,-117.97 600.38,-117.21 591.64,-111.22 589.81,-117.97"/>
</g>
<!-- Node17 -->
<g id="node17" class="node">
<title>Node17</title>
<g id="a_node17"><a xlink:href="ioe_8c.html#a7b167e0bb31c8168406860a278ce693a" target="_top" xlink:title=" ">
<polygon fill="none" stroke="black" points="323,-114.5 323,-133.5 378,-133.5 378,-114.5 323,-114.5"/>
<text text-anchor="middle" x="350.5" y="-121.5" font-family="Helvetica,sans-Serif" font-size="10.00">timer_rtc</text>
</a>
</g>
</g>
<!-- Node15&#45;&gt;Node17 -->
<g id="edge25" class="edge">
<title>Node15&#45;&gt;Node17</title>
<path fill="none" stroke="midnightblue" d="M590.14,-124C534.58,-124 428.08,-124 378.33,-124"/>
<polygon fill="midnightblue" stroke="midnightblue" points="590.21,-127.5 600.21,-124 590.21,-120.5 590.21,-127.5"/>
</g>
<!-- Node16&#45;&gt;Node17 -->
<g id="edge18" class="edge">
<title>Node16&#45;&gt;Node17</title>
<path fill="none" stroke="midnightblue" d="M440.09,-98.4C419.65,-104.31 395.84,-111.19 378.05,-116.33"/>
<polygon fill="midnightblue" stroke="midnightblue" points="441.18,-101.73 449.82,-95.59 439.24,-95 441.18,-101.73"/>
</g>
<!-- Node20 -->
<g id="node20" class="node">
<title>Node20</title>
<g id="a_node20"><a xlink:href="ioe_8c.html#a716ac8111009464db83866c3b49adbbb" target="_top" xlink:title=" ">
<polygon fill="none" stroke="black" points="322.5,-76.5 322.5,-95.5 378.5,-95.5 378.5,-76.5 322.5,-76.5"/>
<text text-anchor="middle" x="350.5" y="-83.5" font-family="Helvetica,sans-Serif" font-size="10.00">wait_sec</text>
</a>
</g>
</g>
<!-- Node16&#45;&gt;Node20 -->
<g id="edge21" class="edge">
<title>Node16&#45;&gt;Node20</title>
<path fill="none" stroke="midnightblue" d="M432.28,-86C414.07,-86 394.25,-86 378.79,-86"/>
<polygon fill="midnightblue" stroke="midnightblue" points="432.47,-89.5 442.47,-86 432.47,-82.5 432.47,-89.5"/>
</g>
<!-- Node18 -->
<g id="node18" class="node">
<title>Node18</title>
<g id="a_node18"><a xlink:href="ioe_8c.html#ac17b85035372c81a45e604e6b4783db2" target="_top" xlink:title=" ">
<polygon fill="none" stroke="black" points="83,-76.5 83,-95.5 139,-95.5 139,-76.5 83,-76.5"/>
<text text-anchor="middle" x="111" y="-83.5" font-family="Helvetica,sans-Serif" font-size="10.00">timer_init</text>
</a>
</g>
</g>
<!-- Node17&#45;&gt;Node18 -->
<g id="edge19" class="edge">
<title>Node17&#45;&gt;Node18</title>
<path fill="none" stroke="midnightblue" d="M312.9,-129.23C277.07,-133.09 221.26,-135.72 175,-123 155.68,-117.69 136.21,-104.84 124.13,-95.78"/>
<polygon fill="midnightblue" stroke="midnightblue" points="313.38,-132.69 322.9,-128.06 312.57,-125.74 313.38,-132.69"/>
</g>
<!-- Node19 -->
<g id="node19" class="node">
<title>Node19</title>
<g id="a_node19"><a xlink:href="ioe_8c.html#a45ecef4130276c1c79d872c582cd3839" target="_top" xlink:title=" ">
<polygon fill="none" stroke="black" points="0,-57.5 0,-76.5 47,-76.5 47,-57.5 0,-57.5"/>
<text text-anchor="middle" x="23.5" y="-64.5" font-family="Helvetica,sans-Serif" font-size="10.00">ioe_init</text>
</a>
</g>
</g>
<!-- Node18&#45;&gt;Node19 -->
<g id="edge20" class="edge">
<title>Node18&#45;&gt;Node19</title>
<path fill="none" stroke="midnightblue" d="M73.16,-77.81C64.29,-75.84 55.07,-73.79 47.08,-72.02"/>
<polygon fill="midnightblue" stroke="midnightblue" points="72.43,-81.24 82.95,-79.99 73.94,-74.4 72.43,-81.24"/>
</g>
<!-- Node21 -->
<g id="node21" class="node">
<title>Node21</title>
<g id="a_node21"><a xlink:href="ioe_8c.html#a8f4d57167e8d4b53c00c84e504f330ef" target="_top" xlink:title=" ">
<polygon fill="none" stroke="black" points="186,-76.5 186,-95.5 262,-95.5 262,-76.5 186,-76.5"/>
<text text-anchor="middle" x="224" y="-83.5" font-family="Helvetica,sans-Serif" font-size="10.00">estimate_freq</text>
</a>
</g>
</g>
<!-- Node20&#45;&gt;Node21 -->
<g id="edge22" class="edge">
<title>Node20&#45;&gt;Node21</title>
<path fill="none" stroke="midnightblue" d="M312.06,-86C296.33,-86 278.07,-86 262.35,-86"/>
<polygon fill="midnightblue" stroke="midnightblue" points="312.49,-89.5 322.49,-86 312.49,-82.5 312.49,-89.5"/>
</g>
<!-- Node21&#45;&gt;Node18 -->
<g id="edge24" class="edge">
<title>Node21&#45;&gt;Node18</title>
<path fill="none" stroke="midnightblue" d="M175.49,-86C163.07,-86 150.12,-86 139.17,-86"/>
<polygon fill="midnightblue" stroke="midnightblue" points="175.73,-89.5 185.73,-86 175.73,-82.5 175.73,-89.5"/>
</g>
<!-- Node21&#45;&gt;Node21 -->
<g id="edge23" class="edge">
<title>Node21&#45;&gt;Node21</title>
<path fill="none" stroke="midnightblue" d="M244.74,-105.4C243.35,-110.31 236.44,-114 224,-114 204.09,-114 198.34,-104.57 206.74,-95.76"/>
<polygon fill="midnightblue" stroke="midnightblue" points="247.95,-103.98 241.26,-95.76 241.36,-106.35 247.95,-103.98"/>
</g>
<!-- Node22&#45;&gt;Node19 -->
<g id="edge27" class="edge">
<title>Node22&#45;&gt;Node19</title>
<path fill="none" stroke="midnightblue" d="M188.27,-51.32C147.65,-55.21 81.59,-61.54 47.09,-64.84"/>
<polygon fill="midnightblue" stroke="midnightblue" points="188.64,-54.8 198.26,-50.37 187.97,-47.84 188.64,-54.8"/>
</g>
</g>
</svg>
