<?xml version="1.0" encoding="UTF-8" standalone="no"?>
<!DOCTYPE svg PUBLIC "-//W3C//DTD SVG 1.1//EN"
 "http://www.w3.org/Graphics/SVG/1.1/DTD/svg11.dtd">
<!-- Generated by graphviz version 3.0.0 (20220413.0106)
 -->
<!-- Title: cli Pages: 1 -->
<svg width="696pt" height="322pt"
 viewBox="0.00 0.00 696.00 322.00" xmlns="http://www.w3.org/2000/svg" xmlns:xlink="http://www.w3.org/1999/xlink">
<g id="graph0" class="graph" transform="scale(1 1) rotate(0) translate(4 318)">
<title>cli</title>
<!-- Node1 -->
<g id="node1" class="node">
<title>Node1</title>
<g id="a_node1"><a xlink:title=" ">
<polygon fill="#bfbfbf" stroke="black" points="659,-142.5 659,-161.5 688,-161.5 688,-142.5 659,-142.5"/>
<text text-anchor="middle" x="673.5" y="-149.5" font-family="Helvetica,sans-Serif" font-size="10.00">cli</text>
</a>
</g>
</g>
<!-- Node2 -->
<g id="node2" class="node">
<title>Node2</title>
<g id="a_node2"><a xlink:href="trm_8c.html#a483cb97188e557c3c68d3a1572c2cc92" target="_top" xlink:title=" ">
<polygon fill="none" stroke="black" points="591,-189.5 591,-208.5 623,-208.5 623,-189.5 591,-189.5"/>
<text text-anchor="middle" x="607" y="-196.5" font-family="Helvetica,sans-Serif" font-size="10.00">halt</text>
</a>
</g>
</g>
<!-- Node1&#45;&gt;Node2 -->
<g id="edge1" class="edge">
<title>Node1&#45;&gt;Node2</title>
<path fill="none" stroke="midnightblue" d="M651.32,-167.43C641.5,-174.59 630.11,-182.89 621.48,-189.18"/>
<polygon fill="midnightblue" stroke="midnightblue" points="653.43,-170.23 659.45,-161.51 649.3,-164.57 653.43,-170.23"/>
</g>
<!-- Node5 -->
<g id="node5" class="node">
<title>Node5</title>
<g id="a_node5"><a xlink:href="cte_8c.html#a4a139958742786c5085172be1f69bfd0" target="_top" xlink:title=" ">
<polygon fill="none" stroke="black" points="591,-123.5 591,-142.5 623,-142.5 623,-123.5 591,-123.5"/>
<text text-anchor="middle" x="607" y="-130.5" font-family="Helvetica,sans-Serif" font-size="10.00">iset</text>
</a>
</g>
</g>
<!-- Node1&#45;&gt;Node5 -->
<g id="edge4" class="edge">
<title>Node1&#45;&gt;Node5</title>
<path fill="none" stroke="midnightblue" d="M649.18,-145.13C640.46,-142.56 630.79,-139.71 623.01,-137.42"/>
<polygon fill="midnightblue" stroke="midnightblue" points="648.24,-148.5 658.82,-147.97 650.22,-141.79 648.24,-148.5"/>
</g>
<!-- Node3 -->
<g id="node3" class="node">
<title>Node3</title>
<g id="a_node3"><a xlink:href="trm_8c.html#a12a49ff4d3a586b2315e292c5da3df7e" target="_top" xlink:title=" ">
<polygon fill="none" stroke="black" points="490.5,-218.5 490.5,-237.5 548.5,-237.5 548.5,-218.5 490.5,-218.5"/>
<text text-anchor="middle" x="519.5" y="-225.5" font-family="Helvetica,sans-Serif" font-size="10.00">call_main</text>
</a>
</g>
</g>
<!-- Node2&#45;&gt;Node3 -->
<g id="edge2" class="edge">
<title>Node2&#45;&gt;Node3</title>
<path fill="none" stroke="midnightblue" d="M581.23,-207.4C571.08,-210.85 559.27,-214.85 548.79,-218.41"/>
<polygon fill="midnightblue" stroke="midnightblue" points="582.37,-210.71 590.71,-204.18 580.12,-204.08 582.37,-210.71"/>
</g>
<!-- Node4 -->
<g id="node4" class="node">
<title>Node4</title>
<g id="a_node4"><a xlink:href="trm_8c.html#a54a85aeee6f6a8ef875d4cca663f9fd8" target="_top" xlink:title=" ">
<polygon fill="none" stroke="black" points="380.5,-218.5 380.5,-237.5 432.5,-237.5 432.5,-218.5 380.5,-218.5"/>
<text text-anchor="middle" x="406.5" y="-225.5" font-family="Helvetica,sans-Serif" font-size="10.00">_start_c</text>
</a>
</g>
</g>
<!-- Node3&#45;&gt;Node4 -->
<g id="edge3" class="edge">
<title>Node3&#45;&gt;Node4</title>
<path fill="none" stroke="midnightblue" d="M480.06,-228C464.43,-228 446.81,-228 432.84,-228"/>
<polygon fill="midnightblue" stroke="midnightblue" points="480.49,-231.5 490.49,-228 480.49,-224.5 480.49,-231.5"/>
</g>
<!-- Node6 -->
<g id="node6" class="node">
<title>Node6</title>
<g id="a_node6"><a xlink:href="pmm_8c.html#a20ccb461126d548299c6c21f157e6668" target="_top" xlink:title=" ">
<polygon fill="none" stroke="black" points="486.5,-180.5 486.5,-199.5 552.5,-199.5 552.5,-180.5 486.5,-180.5"/>
<text text-anchor="middle" x="519.5" y="-187.5" font-family="Helvetica,sans-Serif" font-size="10.00">kalloc_safe</text>
</a>
</g>
</g>
<!-- Node5&#45;&gt;Node6 -->
<g id="edge5" class="edge">
<title>Node5&#45;&gt;Node6</title>
<path fill="none" stroke="midnightblue" d="M586.02,-148.88C576.79,-155.95 565.55,-164.21 555,-171 549.94,-174.26 544.28,-177.52 539.04,-180.4"/>
<polygon fill="midnightblue" stroke="midnightblue" points="588.43,-151.44 594.17,-142.54 584.13,-145.92 588.43,-151.44"/>
</g>
<!-- Node8 -->
<g id="node8" class="node">
<title>Node8</title>
<g id="a_node8"><a xlink:href="pmm_8c.html#af2f46f4bce6a599542ce4d462aec9e2f" target="_top" xlink:title=" ">
<polygon fill="none" stroke="black" points="488.5,-142.5 488.5,-161.5 550.5,-161.5 550.5,-142.5 488.5,-142.5"/>
<text text-anchor="middle" x="519.5" y="-149.5" font-family="Helvetica,sans-Serif" font-size="10.00">kfree_safe</text>
</a>
</g>
</g>
<!-- Node5&#45;&gt;Node8 -->
<g id="edge7" class="edge">
<title>Node5&#45;&gt;Node8</title>
<path fill="none" stroke="midnightblue" d="M580.73,-138.62C571.26,-140.72 560.4,-143.13 550.53,-145.33"/>
<polygon fill="midnightblue" stroke="midnightblue" points="581.71,-141.98 590.71,-136.4 580.19,-135.15 581.71,-141.98"/>
</g>
<!-- Node9 -->
<g id="node9" class="node">
<title>Node9</title>
<g id="a_node9"><a xlink:href="os_8c.html#a5f9cb32664e017ca15c49ec66e5342e4" target="_top" xlink:title="cpu start entry">
<polygon fill="none" stroke="black" points="383.5,-0.5 383.5,-19.5 429.5,-19.5 429.5,-0.5 383.5,-0.5"/>
<text text-anchor="middle" x="406.5" y="-7.5" font-family="Helvetica,sans-Serif" font-size="10.00">os_run</text>
</a>
</g>
</g>
<!-- Node5&#45;&gt;Node9 -->
<g id="edge9" class="edge">
<title>Node5&#45;&gt;Node9</title>
<path fill="none" stroke="midnightblue" d="M597.86,-114.19C589.48,-96.95 574.86,-71.92 555,-57 516.75,-28.27 460.38,-16.77 429.58,-12.43"/>
<polygon fill="midnightblue" stroke="midnightblue" points="594.69,-115.69 602.06,-123.3 601.05,-112.75 594.69,-115.69"/>
</g>
<!-- Node11 -->
<g id="node11" class="node">
<title>Node11</title>
<g id="a_node11"><a xlink:href="spinlock_8c.html#afc9565dc7a5ddf77e1fa76f5d91caf78" target="_top" xlink:title="interrupt able">
<polygon fill="none" stroke="black" points="487,-104.5 487,-123.5 552,-123.5 552,-104.5 487,-104.5"/>
<text text-anchor="middle" x="519.5" y="-111.5" font-family="Helvetica,sans-Serif" font-size="10.00">spin_popcli</text>
</a>
</g>
</g>
<!-- Node5&#45;&gt;Node11 -->
<g id="edge11" class="edge">
<title>Node5&#45;&gt;Node11</title>
<path fill="none" stroke="midnightblue" d="M580.9,-127.42C571.95,-125.43 561.74,-123.16 552.3,-121.07"/>
<polygon fill="midnightblue" stroke="midnightblue" points="580.19,-130.85 590.71,-129.6 581.71,-124.02 580.19,-130.85"/>
</g>
<!-- Node24 -->
<g id="node24" class="node">
<title>Node24</title>
<g id="a_node24"><a xlink:href="spinlock_8c.html#ab213874cda54fdbbeb1bec1e5fa90b28" target="_top" xlink:title="interrupt disable">
<polygon fill="none" stroke="black" points="484,-66.5 484,-85.5 555,-85.5 555,-66.5 484,-66.5"/>
<text text-anchor="middle" x="519.5" y="-73.5" font-family="Helvetica,sans-Serif" font-size="10.00">spin_pushcli</text>
</a>
</g>
</g>
<!-- Node5&#45;&gt;Node24 -->
<g id="edge37" class="edge">
<title>Node5&#45;&gt;Node24</title>
<path fill="none" stroke="midnightblue" d="M586.02,-117.12C576.79,-110.05 565.55,-101.79 555,-95 549.94,-91.74 544.28,-88.48 539.04,-85.6"/>
<polygon fill="midnightblue" stroke="midnightblue" points="584.13,-120.08 594.17,-123.46 588.43,-114.56 584.13,-120.08"/>
</g>
<!-- Node7 -->
<g id="node7" class="node">
<title>Node7</title>
<g id="a_node7"><a xlink:href="pmm_8c.html#a7ada9deb0ae8705f2cc158b0283aaeb3" target="_top" xlink:title=" ">
<polygon fill="none" stroke="black" points="365,-180.5 365,-199.5 448,-199.5 448,-180.5 365,-180.5"/>
<text text-anchor="middle" x="406.5" y="-187.5" font-family="Helvetica,sans-Serif" font-size="10.00">MODULE_DEF</text>
</a>
</g>
</g>
<!-- Node6&#45;&gt;Node7 -->
<g id="edge6" class="edge">
<title>Node6&#45;&gt;Node7</title>
<path fill="none" stroke="midnightblue" d="M476.29,-190C467.09,-190 457.38,-190 448.24,-190"/>
<polygon fill="midnightblue" stroke="midnightblue" points="476.39,-193.5 486.39,-190 476.39,-186.5 476.39,-193.5"/>
</g>
<!-- Node8&#45;&gt;Node7 -->
<g id="edge8" class="edge">
<title>Node8&#45;&gt;Node7</title>
<path fill="none" stroke="midnightblue" d="M480.61,-164.97C465.82,-170.03 449.17,-175.73 435.5,-180.41"/>
<polygon fill="midnightblue" stroke="midnightblue" points="482.16,-168.14 490.49,-161.59 479.9,-161.52 482.16,-168.14"/>
</g>
<!-- Node10 -->
<g id="node10" class="node">
<title>Node10</title>
<g id="a_node10"><a xlink:href="os_8c.html#aafec7046aa50c914df86d0d22d4fc1d1" target="_top" xlink:title=" ">
<polygon fill="none" stroke="black" points="0,-9.5 0,-28.5 83,-28.5 83,-9.5 0,-9.5"/>
<text text-anchor="middle" x="41.5" y="-16.5" font-family="Helvetica,sans-Serif" font-size="10.00">MODULE_DEF</text>
</a>
</g>
</g>
<!-- Node9&#45;&gt;Node10 -->
<g id="edge10" class="edge">
<title>Node9&#45;&gt;Node10</title>
<path fill="none" stroke="midnightblue" d="M373.08,-10.8C306.8,-12.45 155.9,-16.19 83.17,-17.99"/>
<polygon fill="midnightblue" stroke="midnightblue" points="373.43,-14.3 383.34,-10.55 373.26,-7.3 373.43,-14.3"/>
</g>
<!-- Node12 -->
<g id="node12" class="node">
<title>Node12</title>
<g id="a_node12"><a xlink:href="spinlock_8c.html#ad4be0d674a7ca4dc90c2dbf8b34562cc" target="_top" xlink:title="check current cpu has the lock">
<polygon fill="none" stroke="black" points="371,-142.5 371,-161.5 442,-161.5 442,-142.5 371,-142.5"/>
<text text-anchor="middle" x="406.5" y="-149.5" font-family="Helvetica,sans-Serif" font-size="10.00">spin_holding</text>
</a>
</g>
</g>
<!-- Node11&#45;&gt;Node12 -->
<g id="edge12" class="edge">
<title>Node11&#45;&gt;Node12</title>
<path fill="none" stroke="midnightblue" d="M480.61,-126.97C465.82,-132.03 449.17,-137.73 435.5,-142.41"/>
<polygon fill="midnightblue" stroke="midnightblue" points="482.16,-130.14 490.49,-123.59 479.9,-123.52 482.16,-130.14"/>
</g>
<!-- Node23 -->
<g id="node23" class="node">
<title>Node23</title>
<g id="a_node23"><a xlink:href="spinlock_8c.html#acdf118d615a4bc4064e991add9a80995" target="_top" xlink:title="release spinlock from current cpu">
<polygon fill="none" stroke="black" points="247,-104.5 247,-123.5 315,-123.5 315,-104.5 247,-104.5"/>
<text text-anchor="middle" x="281" y="-111.5" font-family="Helvetica,sans-Serif" font-size="10.00">spin_unlock</text>
</a>
</g>
</g>
<!-- Node11&#45;&gt;Node23 -->
<g id="edge36" class="edge">
<title>Node11&#45;&gt;Node23</title>
<path fill="none" stroke="midnightblue" d="M476.36,-114C430.32,-114 357.5,-114 315.29,-114"/>
<polygon fill="midnightblue" stroke="midnightblue" points="476.6,-117.5 486.6,-114 476.6,-110.5 476.6,-117.5"/>
</g>
<!-- Node13 -->
<g id="node13" class="node">
<title>Node13</title>
<g id="a_node13"><a xlink:href="kmt_8c.html#af9c485ce0d89d6624e6e80e31d8ed207" target="_top" xlink:title="handler: save context to current task">
<polygon fill="none" stroke="black" points="233,-294.5 233,-313.5 329,-313.5 329,-294.5 233,-294.5"/>
<text text-anchor="middle" x="281" y="-301.5" font-family="Helvetica,sans-Serif" font-size="10.00">kmt_context_save</text>
</a>
</g>
</g>
<!-- Node12&#45;&gt;Node13 -->
<g id="edge13" class="edge">
<title>Node12&#45;&gt;Node13</title>
<path fill="none" stroke="midnightblue" d="M368.31,-167.69C367.13,-168.73 366.02,-169.83 365,-171 330,-210.98 365.07,-245.99 329,-285 325.41,-288.88 320.93,-291.98 316.16,-294.46"/>
<polygon fill="midnightblue" stroke="midnightblue" points="370.66,-170.32 376.85,-161.72 366.65,-164.58 370.66,-170.32"/>
</g>
<!-- Node16 -->
<g id="node16" class="node">
<title>Node16</title>
<g id="a_node16"><a xlink:href="kmt_8c.html#a5ddb8743298012e84cf9cb5faf22212b" target="_top" xlink:title="create thread">
<polygon fill="none" stroke="black" points="125.5,-142.5 125.5,-161.5 190.5,-161.5 190.5,-142.5 125.5,-142.5"/>
<text text-anchor="middle" x="158" y="-149.5" font-family="Helvetica,sans-Serif" font-size="10.00">kmt_create</text>
</a>
</g>
</g>
<!-- Node12&#45;&gt;Node16 -->
<g id="edge16" class="edge">
<title>Node12&#45;&gt;Node16</title>
<path fill="none" stroke="midnightblue" d="M360.93,-152C311.74,-152 233.82,-152 190.57,-152"/>
<polygon fill="midnightblue" stroke="midnightblue" points="360.97,-155.5 370.97,-152 360.97,-148.5 360.97,-155.5"/>
</g>
<!-- Node17 -->
<g id="node17" class="node">
<title>Node17</title>
<g id="a_node17"><a xlink:href="kmt_8c.html#ad3fbc643b7b6092120c5152b4c890354" target="_top" xlink:title="handler: handle program errors">
<polygon fill="none" stroke="black" points="252,-256.5 252,-275.5 310,-275.5 310,-256.5 252,-256.5"/>
<text text-anchor="middle" x="281" y="-263.5" font-family="Helvetica,sans-Serif" font-size="10.00">kmt_error</text>
</a>
</g>
</g>
<!-- Node12&#45;&gt;Node17 -->
<g id="edge18" class="edge">
<title>Node12&#45;&gt;Node17</title>
<path fill="none" stroke="midnightblue" d="M369.54,-167.07C367.93,-168.29 366.4,-169.6 365,-171 338.52,-197.38 356.19,-221.35 329,-247 323.75,-251.95 317.04,-255.68 310.35,-258.46"/>
<polygon fill="midnightblue" stroke="midnightblue" points="371.52,-169.96 378.11,-161.66 367.78,-164.04 371.52,-169.96"/>
</g>
<!-- Node18 -->
<g id="node18" class="node">
<title>Node18</title>
<g id="a_node18"><a xlink:href="kmt_8c.html#ad4d70b4093829da1c0b0631abdff7747" target="_top" xlink:title="handler: schedule next task to run Notice: this should be the only handler which returns real Context">
<polygon fill="none" stroke="black" points="242.5,-218.5 242.5,-237.5 319.5,-237.5 319.5,-218.5 242.5,-218.5"/>
<text text-anchor="middle" x="281" y="-225.5" font-family="Helvetica,sans-Serif" font-size="10.00">kmt_schedule</text>
</a>
</g>
</g>
<!-- Node12&#45;&gt;Node18 -->
<g id="edge20" class="edge">
<title>Node12&#45;&gt;Node18</title>
<path fill="none" stroke="midnightblue" d="M372.64,-166.35C370,-167.83 367.42,-169.38 365,-171 346.97,-183.08 346.83,-191.62 329,-204 321.17,-209.44 311.95,-214.42 303.75,-218.41"/>
<polygon fill="midnightblue" stroke="midnightblue" points="374.42,-169.37 381.71,-161.69 371.22,-163.15 374.42,-169.37"/>
</g>
<!-- Node19 -->
<g id="node19" class="node">
<title>Node19</title>
<g id="a_node19"><a xlink:href="kmt_8c.html#a47d8887c87041abd5ea3148232b65c93" target="_top" xlink:title="tear down a thread">
<polygon fill="none" stroke="black" points="119,-218.5 119,-237.5 197,-237.5 197,-218.5 119,-218.5"/>
<text text-anchor="middle" x="158" y="-225.5" font-family="Helvetica,sans-Serif" font-size="10.00">kmt_teardown</text>
</a>
</g>
</g>
<!-- Node12&#45;&gt;Node19 -->
<g id="edge22" class="edge">
<title>Node12&#45;&gt;Node19</title>
<path fill="none" stroke="midnightblue" d="M364.61,-164.61C315.49,-179.75 234.18,-204.82 189.97,-218.45"/>
<polygon fill="midnightblue" stroke="midnightblue" points="365.76,-167.92 374.28,-161.63 363.69,-161.23 365.76,-167.92"/>
</g>
<!-- Node20 -->
<g id="node20" class="node">
<title>Node20</title>
<g id="a_node20"><a xlink:href="os_8c.html#a2be1c9facb49d4439f41b1537d0f3ef8" target="_top" xlink:title="System trap entry.">
<polygon fill="none" stroke="black" points="133.5,-28.5 133.5,-47.5 182.5,-47.5 182.5,-28.5 133.5,-28.5"/>
<text text-anchor="middle" x="158" y="-35.5" font-family="Helvetica,sans-Serif" font-size="10.00">os_trap</text>
</a>
</g>
</g>
<!-- Node12&#45;&gt;Node20 -->
<g id="edge24" class="edge">
<title>Node12&#45;&gt;Node20</title>
<path fill="none" stroke="midnightblue" d="M396.26,-133.23C384.17,-110.89 360.71,-74.41 329,-57 282.14,-31.27 217.13,-32.33 182.66,-35.23"/>
<polygon fill="midnightblue" stroke="midnightblue" points="393.3,-135.12 401.01,-142.39 399.51,-131.9 393.3,-135.12"/>
</g>
<!-- Node21 -->
<g id="node21" class="node">
<title>Node21</title>
<g id="a_node21"><a xlink:href="spinlock_8c.html#ab6f3c37ec37006951feccc3c05387cce" target="_top" xlink:title="acquire spinlock to current cpu">
<polygon fill="none" stroke="black" points="252,-66.5 252,-85.5 310,-85.5 310,-66.5 252,-66.5"/>
<text text-anchor="middle" x="281" y="-73.5" font-family="Helvetica,sans-Serif" font-size="10.00">spin_lock</text>
</a>
</g>
</g>
<!-- Node12&#45;&gt;Node21 -->
<g id="edge26" class="edge">
<title>Node12&#45;&gt;Node21</title>
<path fill="none" stroke="midnightblue" d="M386.25,-135.47C371.33,-123.21 349.76,-106.67 329,-95 322.86,-91.55 315.97,-88.4 309.4,-85.7"/>
<polygon fill="midnightblue" stroke="midnightblue" points="384.3,-138.4 394.22,-142.13 388.79,-133.03 384.3,-138.4"/>
</g>
<!-- Node12&#45;&gt;Node23 -->
<g id="edge31" class="edge">
<title>Node12&#45;&gt;Node23</title>
<path fill="none" stroke="midnightblue" d="M364.76,-139.46C347.96,-134.3 328.8,-128.4 313.15,-123.59"/>
<polygon fill="midnightblue" stroke="midnightblue" points="363.75,-142.82 374.34,-142.41 365.81,-136.12 363.75,-142.82"/>
</g>
<!-- Node14 -->
<g id="node14" class="node">
<title>Node14</title>
<g id="a_node14"><a xlink:href="kmt_8c.html#a0c68a294cecc4be7cb4b495f15b883a0" target="_top" xlink:title="initialize kmt module">
<polygon fill="none" stroke="black" points="132.5,-256.5 132.5,-275.5 183.5,-275.5 183.5,-256.5 132.5,-256.5"/>
<text text-anchor="middle" x="158" y="-263.5" font-family="Helvetica,sans-Serif" font-size="10.00">kmt_init</text>
</a>
</g>
</g>
<!-- Node13&#45;&gt;Node14 -->
<g id="edge14" class="edge">
<title>Node13&#45;&gt;Node14</title>
<path fill="none" stroke="midnightblue" d="M239.82,-291.38C221.31,-285.57 199.94,-278.86 183.82,-273.8"/>
<polygon fill="midnightblue" stroke="midnightblue" points="238.88,-294.75 249.47,-294.41 240.97,-288.08 238.88,-294.75"/>
</g>
<!-- Node15 -->
<g id="node15" class="node">
<title>Node15</title>
<g id="a_node15"><a xlink:href="kmt_8c.html#af360ef0d98ca30e481cc58ea3695fd58" target="_top" xlink:title=" ">
<polygon fill="none" stroke="black" points="0,-180.5 0,-199.5 83,-199.5 83,-180.5 0,-180.5"/>
<text text-anchor="middle" x="41.5" y="-187.5" font-family="Helvetica,sans-Serif" font-size="10.00">MODULE_DEF</text>
</a>
</g>
</g>
<!-- Node14&#45;&gt;Node15 -->
<g id="edge15" class="edge">
<title>Node14&#45;&gt;Node15</title>
<path fill="none" stroke="midnightblue" d="M127.19,-251.73C124.39,-250.2 121.62,-248.61 119,-247 94.74,-232.06 68.55,-211.47 53.97,-199.56"/>
<polygon fill="midnightblue" stroke="midnightblue" points="125.64,-254.87 136.13,-256.39 128.88,-248.67 125.64,-254.87"/>
</g>
<!-- Node16&#45;&gt;Node15 -->
<g id="edge17" class="edge">
<title>Node16&#45;&gt;Node15</title>
<path fill="none" stroke="midnightblue" d="M118.35,-164.83C102.99,-169.92 85.62,-175.69 71.38,-180.41"/>
<polygon fill="midnightblue" stroke="midnightblue" points="119.72,-168.06 128.11,-161.59 117.51,-161.42 119.72,-168.06"/>
</g>
<!-- Node17&#45;&gt;Node14 -->
<g id="edge19" class="edge">
<title>Node17&#45;&gt;Node14</title>
<path fill="none" stroke="midnightblue" d="M241.78,-266C222.77,-266 200.34,-266 183.63,-266"/>
<polygon fill="midnightblue" stroke="midnightblue" points="241.94,-269.5 251.94,-266 241.94,-262.5 241.94,-269.5"/>
</g>
<!-- Node18&#45;&gt;Node14 -->
<g id="edge21" class="edge">
<title>Node18&#45;&gt;Node14</title>
<path fill="none" stroke="midnightblue" d="M239.82,-240.62C221.31,-246.43 199.94,-253.14 183.82,-258.2"/>
<polygon fill="midnightblue" stroke="midnightblue" points="240.97,-243.92 249.47,-237.59 238.88,-237.25 240.97,-243.92"/>
</g>
<!-- Node19&#45;&gt;Node15 -->
<g id="edge23" class="edge">
<title>Node19&#45;&gt;Node15</title>
<path fill="none" stroke="midnightblue" d="M118.35,-215.17C102.99,-210.08 85.62,-204.31 71.38,-199.59"/>
<polygon fill="midnightblue" stroke="midnightblue" points="117.51,-218.58 128.11,-218.41 119.72,-211.94 117.51,-218.58"/>
</g>
<!-- Node20&#45;&gt;Node10 -->
<g id="edge25" class="edge">
<title>Node20&#45;&gt;Node10</title>
<path fill="none" stroke="midnightblue" d="M123.26,-32.4C110.74,-30.32 96.42,-27.95 83.34,-25.78"/>
<polygon fill="midnightblue" stroke="midnightblue" points="122.84,-35.88 133.28,-34.06 123.98,-28.97 122.84,-35.88"/>
</g>
<!-- Node21&#45;&gt;Node15 -->
<g id="edge29" class="edge">
<title>Node21&#45;&gt;Node15</title>
<path fill="none" stroke="midnightblue" d="M241.8,-72.66C207.53,-71.41 156.95,-74.02 119,-95 82.49,-115.19 56.87,-160.56 47,-180.4"/>
<polygon fill="midnightblue" stroke="midnightblue" points="241.72,-76.16 251.88,-73.15 242.06,-69.17 241.72,-76.16"/>
</g>
<!-- Node21&#45;&gt;Node16 -->
<g id="edge27" class="edge">
<title>Node21&#45;&gt;Node16</title>
<path fill="none" stroke="midnightblue" d="M242.35,-89.49C239.09,-91.17 235.92,-93.01 233,-95 213.78,-108.1 215.69,-119.14 197,-133 192.26,-136.51 186.77,-139.69 181.47,-142.39"/>
<polygon fill="midnightblue" stroke="midnightblue" points="244.06,-92.56 251.66,-85.18 241.11,-86.21 244.06,-92.56"/>
</g>
<!-- Node21&#45;&gt;Node20 -->
<g id="edge30" class="edge">
<title>Node21&#45;&gt;Node20</title>
<path fill="none" stroke="midnightblue" d="M242.17,-64.12C222.77,-58.03 199.74,-50.79 182.83,-45.48"/>
<polygon fill="midnightblue" stroke="midnightblue" points="241.35,-67.53 251.94,-67.19 243.44,-60.85 241.35,-67.53"/>
</g>
<!-- Node22 -->
<g id="node22" class="node">
<title>Node22</title>
<g id="a_node22"><a xlink:href="kernel_8h.html#a7ef2d722f9c7f8acc1801144a5188825" target="_top" xlink:title=" ">
<polygon fill="none" stroke="black" points="128.5,-104.5 128.5,-123.5 187.5,-123.5 187.5,-104.5 128.5,-104.5"/>
<text text-anchor="middle" x="158" y="-111.5" font-family="Helvetica,sans-Serif" font-size="10.00">MODULE</text>
</a>
</g>
</g>
<!-- Node21&#45;&gt;Node22 -->
<g id="edge28" class="edge">
<title>Node21&#45;&gt;Node22</title>
<path fill="none" stroke="midnightblue" d="M242,-87.93C224.46,-93.44 203.98,-99.87 187.75,-104.97"/>
<polygon fill="midnightblue" stroke="midnightblue" points="243.44,-91.15 251.94,-84.81 241.35,-84.47 243.44,-91.15"/>
</g>
<!-- Node23&#45;&gt;Node15 -->
<g id="edge34" class="edge">
<title>Node23&#45;&gt;Node15</title>
<path fill="none" stroke="midnightblue" d="M261.77,-130.4C245.86,-143.69 221.55,-161.7 197,-171 160.1,-184.98 115.04,-189.19 83.12,-190.23"/>
<polygon fill="midnightblue" stroke="midnightblue" points="264.39,-132.76 269.68,-123.58 259.82,-127.45 264.39,-132.76"/>
</g>
<!-- Node23&#45;&gt;Node16 -->
<g id="edge32" class="edge">
<title>Node23&#45;&gt;Node16</title>
<path fill="none" stroke="midnightblue" d="M239.62,-126.68C223.27,-131.81 204.71,-137.64 189.52,-142.41"/>
<polygon fill="midnightblue" stroke="midnightblue" points="240.97,-129.92 249.47,-123.59 238.88,-123.25 240.97,-129.92"/>
</g>
<!-- Node23&#45;&gt;Node20 -->
<g id="edge35" class="edge">
<title>Node23&#45;&gt;Node20</title>
<path fill="none" stroke="midnightblue" d="M243.23,-100.28C239.71,-98.63 236.25,-96.86 233,-95 208.8,-81.13 183.71,-60.17 169.86,-47.9"/>
<polygon fill="midnightblue" stroke="midnightblue" points="242,-103.56 252.56,-104.37 244.81,-97.15 242,-103.56"/>
</g>
<!-- Node23&#45;&gt;Node22 -->
<g id="edge33" class="edge">
<title>Node23&#45;&gt;Node22</title>
<path fill="none" stroke="midnightblue" d="M236.53,-114C220.22,-114 202.11,-114 187.5,-114"/>
<polygon fill="midnightblue" stroke="midnightblue" points="236.94,-117.5 246.94,-114 236.94,-110.5 236.94,-117.5"/>
</g>
<!-- Node24&#45;&gt;Node12 -->
<g id="edge38" class="edge">
<title>Node24&#45;&gt;Node12</title>
<path fill="none" stroke="midnightblue" d="M491.15,-90.61C488.71,-92.05 486.29,-93.52 484,-95 460.18,-110.33 434.05,-130.61 419.32,-142.39"/>
<polygon fill="midnightblue" stroke="midnightblue" points="493,-93.58 499.96,-85.6 489.54,-87.5 493,-93.58"/>
</g>
<!-- Node24&#45;&gt;Node21 -->
<g id="edge39" class="edge">
<title>Node24&#45;&gt;Node21</title>
<path fill="none" stroke="midnightblue" d="M473.72,-76C425.57,-76 350.51,-76 310.07,-76"/>
<polygon fill="midnightblue" stroke="midnightblue" points="473.86,-79.5 483.86,-76 473.86,-72.5 473.86,-79.5"/>
</g>
</g>
</svg>
